<svg width="404" height="256" viewBox="0 0 404 256" fill="none" xmlns="http://www.w3.org/2000/svg">
<g clip-path="url(#clip0_13560_9513)">
<path d="M263.495 1.35767e-05C239.718 -0.0113184 216.479 7.07134 196.75 20.342C195.392 21.2705 186.004 27.9766 185.591 28.3033C169.997 40.0305 159.526 42.0595 145.186 38.4657C144.31 38.2422 140.2 36.8322 138.911 36.3335C125.518 31.2904 111.11 29.5363 96.899 31.2184C82.6876 32.9005 69.0875 37.9699 57.2418 46.0003C45.3962 54.0307 35.6511 64.7876 28.8255 77.3669C22 89.9462 18.2935 103.98 18.0176 118.29C17.7417 132.599 20.9043 146.766 27.2398 159.599C33.5753 172.432 42.8984 183.557 54.4257 192.038C65.9529 200.519 79.3474 206.109 93.4835 208.338C107.62 210.567 122.084 209.37 135.661 204.847C157.05 198.45 168.656 200.204 182.084 209.679C184.766 211.57 191.231 215.714 192.572 216.694C207.855 227.91 225.579 235.345 244.29 238.387C263.001 241.43 282.167 239.994 300.216 234.198C318.265 228.402 334.684 218.41 348.126 205.042C361.568 191.674 371.651 175.311 377.548 157.293C383.445 139.275 384.989 120.115 382.052 101.386C379.116 82.6558 371.782 64.8887 360.653 49.5408C349.525 34.1929 334.917 21.7013 318.029 13.0899C301.14 4.47857 282.452 -0.00732015 263.495 1.35767e-05Z" fill="#007858"/>
<path d="M220.219 138.525C216.804 141.887 212.351 143.992 207.587 144.498C202.822 145.004 198.026 143.88 193.982 141.311L186.021 153.949C192.918 158.308 201.085 160.211 209.198 159.35C217.311 158.489 224.896 154.913 230.724 149.204L220.219 138.525ZM205.88 87.0429C199.305 86.9384 192.825 88.6248 187.135 91.9214C181.446 95.218 176.76 100.001 173.58 105.757C170.4 111.513 168.846 118.026 169.084 124.598C169.322 131.17 171.343 137.554 174.931 143.065L240.576 115.002C238.729 107.145 234.313 100.128 228.029 95.064C221.744 89.9996 213.949 87.1769 205.88 87.0429ZM184.13 125.526C183.633 120.984 184.61 116.404 186.915 112.459C189.22 108.515 192.732 105.417 196.932 103.621C201.133 101.825 205.799 101.427 210.242 102.485C214.686 103.544 218.672 106.003 221.612 109.5L184.13 125.526ZM261.191 70.7246V140.692L273.33 145.73L267.604 159.486L255.569 154.5C253.145 153.463 251.086 151.726 249.654 149.513C248.055 146.937 247.248 143.947 247.333 140.916V70.7246H261.191ZM155.486 70.7246V140.692L167.521 145.73L161.796 159.486L149.76 154.5C147.418 153.455 145.429 151.752 144.035 149.599C142.429 147.024 141.616 144.035 141.696 141.001V70.7246H155.486Z" fill="white"/>
<path d="M320.921 104.049C323.443 105.265 325.701 106.967 327.566 109.057C329.431 111.146 330.865 113.583 331.788 116.227C332.711 118.872 333.104 121.672 332.945 124.468C332.785 127.264 332.076 130.002 330.859 132.524L344.287 138.972C347.922 131.391 348.808 122.782 346.795 114.619C344.781 106.456 339.993 99.2466 333.25 94.2257C326.506 89.2049 318.228 86.6845 309.831 87.0962C301.434 87.508 293.441 90.8261 287.222 96.4826L297.263 107.505C300.408 104.628 304.344 102.76 308.561 102.144C312.779 101.528 317.084 102.191 320.921 104.049Z" fill="#C7D540"/>
<path d="M302.438 142.514C297.341 140.059 293.427 135.681 291.554 130.343C289.681 125.004 290.003 119.14 292.449 114.038L279.021 107.573C275.422 115.144 274.559 123.729 276.578 131.865C278.597 140.002 283.373 147.187 290.094 152.197C296.815 157.207 305.064 159.733 313.437 159.343C321.811 158.954 329.79 155.674 336.017 150.062L325.976 139.057C322.839 141.905 318.926 143.755 314.734 144.371C310.542 144.986 306.262 144.34 302.438 142.514ZM127.976 143.528V123.272C127.976 116.13 125.858 109.149 121.891 103.21C117.923 97.2722 112.284 92.6439 105.687 89.9108C99.0893 87.1778 91.8295 86.4627 84.8256 87.856C77.8216 89.2493 71.3881 92.6884 66.3385 97.7385C61.2889 102.789 57.8501 109.223 56.457 116.227C55.0638 123.232 55.7788 130.493 58.5116 137.091C61.2444 143.689 65.8723 149.329 71.8099 153.296C77.7476 157.264 84.7284 159.382 91.8696 159.382C97.4673 159.383 102.988 158.082 107.997 155.582L102.186 141.998C98.9319 143.797 95.2648 144.716 91.5471 144.662C87.8295 144.609 84.1901 143.586 80.9891 141.695C77.7881 139.803 75.1364 137.108 73.2964 133.877C71.4564 130.646 70.4918 126.991 70.498 123.272C70.4786 119.779 71.3232 116.335 72.9567 113.247C74.3945 110.553 76.3916 108.197 78.8144 106.337C81.2371 104.478 84.0293 103.158 87.0038 102.466C88.5814 102.092 90.1968 101.902 91.818 101.898C97.4922 101.894 102.936 104.143 106.953 108.15C110.97 112.158 113.232 117.597 113.241 123.272V143.356C113.156 146.388 113.963 149.377 115.562 151.954C117.004 154.158 119.06 155.892 121.477 156.94L128.251 159.623L133.994 145.867L127.976 143.528Z" fill="white"/>
</g>
<defs>
<clipPath id="clip0_13560_9513">
<rect width="404" height="256" fill="white"/>
</clipPath>
</defs>
</svg>
