<svg width="311" height="267" viewBox="0 0 311 267" fill="none" xmlns="http://www.w3.org/2000/svg">
<path fill-rule="evenodd" clip-rule="evenodd" d="M135.42 266.928C61.1425 267.267 0.00585938 207.469 0.00585938 134.663C0.00585938 55.0946 61.1425 0.0575528 135.42 0.0722686H170.238C243.633 0.0575528 310.626 55.0651 310.626 134.663C310.626 207.432 243.633 266.928 170.238 266.928H135.42Z" fill="#004C97"/>
<path fill-rule="evenodd" clip-rule="evenodd" d="M135.42 266.928C61.1425 267.267 0.00585938 207.469 0.00585938 134.663C0.00585938 55.0946 61.1425 0.0575528 135.42 0.0722686H137.37C210.758 0.0575528 275.014 55.0651 275.014 134.663C275.014 207.432 210.758 266.928 137.37 266.928H135.42Z" fill="#004C97"/>
<path fill-rule="evenodd" clip-rule="evenodd" d="M135.722 11.1113C67.8454 11.1334 12.8452 65.8025 12.8452 133.267C12.8452 200.717 67.8454 255.378 135.722 255.386C203.606 255.386 258.613 200.717 258.635 133.267C258.613 65.7951 203.598 11.126 135.722 11.1113Z" fill="#FEFEFE"/>
<path fill-rule="evenodd" clip-rule="evenodd" d="M107.821 205.492V61.0128C78.6103 72.1968 57.8978 100.289 57.8242 133.267C57.8978 166.231 78.6176 194.338 107.821 205.492ZM213.635 133.267C213.576 100.274 192.834 72.1452 163.594 60.998V205.529C192.834 194.367 213.583 166.267 213.635 133.267Z" fill="#004C97"/>
</svg>
