<svg width="257" height="165" viewBox="0 0 257 165" fill="none" xmlns="http://www.w3.org/2000/svg">
<g clip-path="url(#clip0_13560_9519)">
<path d="M13.733 0H243.761C251.348 0 257.494 6.26439 257.494 13.9986V150.836C257.494 158.571 251.349 164.835 243.761 164.835H13.733C6.14559 164.835 0 158.571 0 150.836V13.9986C0 6.26439 6.14559 0 13.733 0Z" fill="black"/>
<path d="M55.1068 59.8625C57.3473 59.1035 59.7526 58.7075 62.2567 58.7075C73.1957 58.7075 82.3225 66.4958 84.3982 76.8245L99.8841 73.6565C96.3257 56.1005 80.8398 42.8672 62.2567 42.8672C58.0063 42.8672 53.9207 43.5605 50.0986 44.8472L55.1068 59.8625Z" fill="#FFF100"/>
<path d="M36.8204 110.155L47.2981 98.2748C42.6194 94.1168 39.687 88.0778 39.687 81.3128C39.687 74.5811 42.6194 68.5088 47.2981 64.3838L36.8204 52.5371C28.8798 59.5988 23.8716 69.8621 23.8716 81.3461C23.8716 92.7968 28.8798 103.092 36.8204 110.155Z" fill="#00A3DF"/>
<path d="M84.398 85.8652C82.2893 96.1942 73.1954 103.949 62.2565 103.949C59.7524 103.949 57.3471 103.553 55.0736 102.794L50.0654 117.809C53.8875 119.096 58.0061 119.789 62.2565 119.789C80.8395 119.789 96.3254 106.589 99.8839 89.0332L84.398 85.8652Z" fill="#EE4023"/>
<path d="M151.482 96.4917C148.912 99 145.452 100.518 141.63 100.452C138.994 100.419 136.556 99.6267 134.513 98.3067L129.373 106.491C132.898 108.702 137.017 110.022 141.498 110.088C147.989 110.187 153.92 107.613 158.236 103.422L151.482 96.4917ZM142.19 63.1287C129.274 62.9307 118.599 73.2927 118.401 86.2287C118.335 91.0797 119.719 95.6337 122.19 99.3957L164.628 81.2124C162.256 71.0157 153.162 63.3264 142.19 63.1287ZM128.121 88.0764C128.055 87.5484 128.022 86.9874 128.022 86.4264C128.154 78.8034 134.414 72.6984 142.025 72.8307C146.177 72.8964 149.867 74.7774 152.338 77.7474L128.121 88.0764ZM177.972 52.5684V97.8774L185.815 101.144L182.091 110.087L174.315 106.853C172.569 106.094 171.383 104.939 170.493 103.619C169.636 102.299 168.977 100.451 168.977 98.0094V52.5684H177.972ZM206.276 73.5234C207.66 73.0614 209.109 72.8304 210.658 72.8304C217.347 72.8304 222.882 77.582 224.167 83.8854L233.623 81.9384C231.449 71.2134 221.992 63.1614 210.658 63.1614C208.055 63.1614 205.551 63.5907 203.244 64.3497L206.276 73.5234ZM195.106 104.18L201.498 96.9534C198.631 94.4124 196.852 90.7164 196.852 86.5914C196.852 82.4664 198.664 78.7707 201.498 76.2624L195.106 69.0357C190.263 73.3257 187.198 79.6287 187.198 86.6247C187.198 93.6207 190.263 99.8904 195.106 104.18ZM224.167 89.396C222.882 95.6994 217.314 100.451 210.658 100.451C209.142 100.451 207.66 100.187 206.276 99.7254L203.211 108.899C205.551 109.691 208.055 110.12 210.658 110.12C221.992 110.12 231.449 102.068 233.623 91.3434L224.167 89.396Z" fill="white"/>
</g>
<defs>
<clipPath id="clip0_13560_9519">
<rect width="257" height="165" fill="white"/>
</clipPath>
</defs>
</svg>
