<svg width="257" height="200" viewBox="0 0 257 200" fill="none" xmlns="http://www.w3.org/2000/svg">
<g clip-path="url(#clip0_13560_9460)">
<path d="M47.1156 198.194V185.022C47.1156 179.973 44.0423 176.68 38.7737 176.68C36.1394 176.68 33.2855 177.558 31.3098 180.412C29.7732 177.997 27.5779 176.68 24.285 176.68C22.0898 176.68 19.8945 177.339 18.1383 179.754V177.119H13.5283V198.194H18.1383V186.559C18.1383 182.827 20.1141 181.071 23.1874 181.071C26.2608 181.071 27.7974 183.046 27.7974 186.559V198.194H32.4074V186.559C32.4074 182.827 34.6027 181.071 37.4565 181.071C40.5299 181.071 42.0665 183.046 42.0665 186.559V198.194H47.1156ZM115.388 177.119H107.924V170.753H103.314V177.119H99.143V181.29H103.314V190.949C103.314 195.779 105.29 198.633 110.558 198.633C112.534 198.633 114.729 197.974 116.266 197.096L114.949 193.145C113.632 194.023 112.095 194.242 110.997 194.242C108.802 194.242 107.924 192.925 107.924 190.73V181.29H115.388V177.119ZM154.463 176.68C151.829 176.68 150.073 177.997 148.975 179.754V177.119H144.365V198.194H148.975V186.339C148.975 182.827 150.512 180.851 153.366 180.851C154.244 180.851 155.341 181.071 156.219 181.29L157.537 176.9C156.658 176.68 155.341 176.68 154.463 176.68ZM95.411 178.875C93.2158 177.339 90.1425 176.68 86.8496 176.68C81.581 176.68 78.0686 179.315 78.0686 183.485C78.0686 186.998 80.7029 188.974 85.3129 189.632L87.5082 189.852C89.9229 190.291 91.2401 190.949 91.2401 192.047C91.2401 193.584 89.4839 194.681 86.4105 194.681C83.3372 194.681 80.9224 193.584 79.3857 192.486L77.1905 195.998C79.6053 197.755 82.8981 198.633 86.191 198.633C92.3377 198.633 95.8501 195.779 95.8501 191.827C95.8501 188.096 92.9963 186.12 88.6058 185.461L86.4105 185.242C84.4348 185.022 82.8981 184.583 82.8981 183.266C82.8981 181.729 84.4348 180.851 86.8496 180.851C89.4839 180.851 92.1182 181.949 93.4353 182.607L95.411 178.875ZM217.906 176.68C215.272 176.68 213.515 177.997 212.418 179.754V177.119H207.808V198.194H212.418V186.339C212.418 182.827 213.954 180.851 216.808 180.851C217.686 180.851 218.784 181.071 219.662 181.29L220.979 176.9C220.101 176.68 218.784 176.68 217.906 176.68ZM159.073 187.656C159.073 194.023 163.464 198.633 170.269 198.633C173.342 198.633 175.538 197.974 177.733 196.218L175.538 192.486C173.781 193.803 172.025 194.462 170.049 194.462C166.318 194.462 163.683 191.827 163.683 187.656C163.683 183.705 166.318 181.071 170.049 180.851C172.025 180.851 173.781 181.51 175.538 182.827L177.733 179.095C175.538 177.339 173.342 176.68 170.269 176.68C163.464 176.68 159.073 181.29 159.073 187.656ZM201.661 187.656V177.119H197.051V179.754C195.514 177.778 193.319 176.68 190.465 176.68C184.538 176.68 179.928 181.29 179.928 187.656C179.928 194.023 184.538 198.633 190.465 198.633C193.539 198.633 195.734 197.535 197.051 195.559V198.194H201.661V187.656ZM184.758 187.656C184.758 183.925 187.172 180.851 191.124 180.851C194.856 180.851 197.49 183.705 197.49 187.656C197.49 191.388 194.856 194.462 191.124 194.462C187.172 194.242 184.758 191.388 184.758 187.656ZM129.657 176.68C123.51 176.68 119.12 181.071 119.12 187.656C119.12 194.242 123.51 198.633 129.876 198.633C132.95 198.633 136.023 197.755 138.438 195.779L136.243 192.486C134.486 193.803 132.291 194.681 130.096 194.681C127.242 194.681 124.388 193.364 123.73 189.632H139.316V187.876C139.536 181.071 135.584 176.68 129.657 176.68ZM129.657 180.632C132.511 180.632 134.486 182.388 134.926 185.681H123.949C124.388 182.827 126.364 180.632 129.657 180.632ZM244.029 187.656V168.777H239.419V179.754C237.883 177.778 235.687 176.68 232.834 176.68C226.906 176.68 222.296 181.29 222.296 187.656C222.296 194.023 226.906 198.633 232.834 198.633C235.907 198.633 238.102 197.535 239.419 195.559V198.194H244.029V187.656ZM227.126 187.656C227.126 183.925 229.541 180.851 233.492 180.851C237.224 180.851 239.858 183.705 239.858 187.656C239.858 191.388 237.224 194.462 233.492 194.462C229.541 194.242 227.126 191.388 227.126 187.656ZM73.0195 187.656V177.119H68.4095V179.754C66.8728 177.778 64.6776 176.68 61.8238 176.68C55.8966 176.68 51.2866 181.29 51.2866 187.656C51.2866 194.023 55.8966 198.633 61.8238 198.633C64.8971 198.633 67.0924 197.535 68.4095 195.559V198.194H73.0195V187.656ZM55.8966 187.656C55.8966 183.925 58.3114 180.851 62.2628 180.851C65.9947 180.851 68.629 183.705 68.629 187.656C68.629 191.388 65.9947 194.462 62.2628 194.462C58.3114 194.242 55.8966 191.388 55.8966 187.656Z" fill="black"/>
<path d="M163.024 17.0859H93.874V141.337H163.024V17.0859Z" fill="#FF5F00"/>
<path d="M98.2647 79.2106C98.2647 53.9652 110.119 31.5737 128.34 17.085C114.949 6.54786 98.0452 0.181641 79.6051 0.181641C35.9197 0.181641 0.576172 35.5251 0.576172 79.2106C0.576172 122.896 35.9197 158.239 79.6051 158.239C98.0452 158.239 114.949 151.873 128.34 141.336C110.119 127.067 98.2647 104.456 98.2647 79.2106Z" fill="#EB001B"/>
<path d="M256.322 79.2106C256.322 122.896 220.979 158.239 177.294 158.239C158.854 158.239 141.95 151.873 128.559 141.336C146.999 126.847 158.634 104.456 158.634 79.2106C158.634 53.9652 146.78 31.5737 128.559 17.085C141.95 6.54786 158.854 0.181641 177.294 0.181641C220.979 0.181641 256.322 35.7447 256.322 79.2106Z" fill="#F79E1B"/>
</g>
<defs>
<clipPath id="clip0_13560_9460">
<rect width="256" height="199" fill="white" transform="translate(0.576172 0.181641)"/>
</clipPath>
</defs>
</svg>
