<svg width="320" height="320" viewBox="0 0 320 320" fill="none" xmlns="http://www.w3.org/2000/svg">
<path d="M248.948 244.186C236.426 244.186 224.648 239.308 215.789 230.461L167.909 182.58C164.547 179.21 158.688 179.222 155.33 182.58L107.275 230.632C102.93 234.998 97.7619 238.46 92.0704 240.816C86.3788 243.173 80.2765 244.377 74.1164 244.361H64.6802L125.322 304.999C144.26 323.935 174.963 323.935 193.904 304.999L254.717 244.182L248.948 244.186ZM74.1164 74.8407C86.6383 74.8407 98.4163 79.715 107.275 88.5652L155.33 136.626C156.999 138.291 159.261 139.227 161.62 139.227C163.978 139.227 166.24 138.291 167.909 136.626L215.789 88.74C220.135 84.3746 225.303 80.914 230.995 78.5582C236.686 76.2025 242.788 74.9983 248.948 75.0155H254.717L193.904 14.2022C174.963 -4.73407 144.26 -4.73407 125.318 14.2022L64.6842 74.8407H74.1164Z" fill="#32BCAD"/>
<path d="M305.016 125.311L268.268 88.5604C267.459 88.8856 266.585 89.0889 265.658 89.0889H248.948C240.251 89.1142 231.915 92.5691 225.75 98.7034L177.874 146.573C175.741 148.708 173.208 150.401 170.419 151.555C167.631 152.709 164.642 153.301 161.624 153.297C158.606 153.302 155.617 152.71 152.828 151.557C150.04 150.404 147.506 148.711 145.374 146.577L97.3145 98.5245C91.1501 92.3895 82.8137 88.9345 74.1164 88.91H53.569C52.6949 88.91 51.8736 88.7068 51.1012 88.4141L14.2061 125.311C-4.73537 144.247 -4.73537 174.949 14.2061 193.893L51.1012 230.782C51.8736 230.489 52.6949 230.286 53.569 230.286H74.1164C82.813 230.262 91.1491 226.809 97.3145 220.675L145.37 172.623C154.054 163.944 169.194 163.94 177.874 172.623L225.75 220.497C231.915 226.631 240.251 230.086 248.948 230.111H265.658C266.585 230.111 267.459 230.314 268.268 230.64L305.02 193.889C323.958 174.953 323.958 144.251 305.02 125.307" fill="#32BCAD"/>
</svg>
