<svg width="50" height="50" viewBox="0 0 50 50" fill="none" xmlns="http://www.w3.org/2000/svg">
<rect width="50" height="50" rx="8" fill="#C8131B"/>
<path d="M23.2334 20.6771C23.8358 20.6771 24.3969 20.6771 24.9565 20.6771C25.5341 20.6771 25.7096 20.8501 25.6584 21.4373C25.626 21.8794 25.4925 22.3076 25.2686 22.6874C25.0447 23.0673 24.7366 23.3884 24.3691 23.6247C24.1002 23.8038 23.7086 23.8153 23.3682 23.8499C22.9351 23.8945 22.3966 23.7308 22.0879 23.9414C21.7987 24.1404 21.7407 24.7023 21.6036 25.1127C20.7594 27.6491 19.9023 30.1808 19.0919 32.728C18.7674 33.7116 18.6145 34.7456 18.6401 35.7832C18.6717 36.7016 19.1823 37.0529 19.9844 36.6348C20.4714 36.3734 20.9241 36.0504 21.3317 35.6732C22.612 34.5096 23.6099 33.0938 24.6266 31.6981C24.7629 31.5105 24.6733 31.4052 24.5837 31.263C23.8035 30.0194 23.3689 28.6713 23.6122 27.1895C23.7087 26.5873 23.9129 26.0084 24.2147 25.4816C25.8037 22.7915 27.4425 20.1299 29.0535 17.4521C29.1883 17.2284 29.3396 17.1062 29.5874 17.1208C29.8992 17.1393 30.2163 17.1393 30.5198 17.2023C31.0372 17.3107 31.535 18.0139 31.4906 18.545C31.4815 18.6496 31.4024 18.7526 31.3445 18.8486C29.9954 21.0771 28.6463 23.3045 27.2972 25.5308C27.2219 25.6492 27.1579 25.7699 27.0712 25.9236L28.6355 26.9182C28.7861 26.6822 28.9322 26.4516 29.0738 26.218C30.3446 24.1212 31.6143 22.024 32.8831 19.9262C33.1595 19.4704 34.0203 19.3175 34.5173 19.6365C34.8691 19.8624 34.9429 20.5588 34.668 21.0199C33.3184 23.2468 31.969 25.474 30.62 27.7014C30.5612 27.7982 30.5062 27.8981 30.4249 28.0395L31.9786 29.031C32.0652 28.9019 32.1435 28.7943 32.2128 28.6798C33.5172 26.5277 34.845 24.3925 36.1109 22.2189C36.5395 21.4834 36.9123 21.581 37.5215 21.7578C38.0487 21.9115 38.2995 22.378 38.4885 22.8607C38.5247 22.953 38.469 23.1113 38.4095 23.2097C36.7428 25.9766 35.0957 28.7436 33.3892 31.4852C32.5261 32.8686 31.1539 33.4443 29.604 33.6003C28.7002 33.6918 28.0744 33.605 27.4794 33.3867C27.1699 33.9931 26.8732 34.611 26.5456 35.2106C25.4912 37.1374 24.3314 38.9859 22.7423 40.5093C21.886 41.3294 20.9612 42.1233 19.7923 42.3439C17.0811 42.8581 14.7705 42.1179 12.948 39.8844C11.4869 38.0966 11.264 36.076 11.6971 33.9339C11.932 32.7664 12.3463 31.6281 12.7341 30.5014C13.4729 28.3493 14.2509 26.2057 15.0123 24.059C15.029 23.9939 15.0421 23.928 15.0515 23.8614H12.9472C11.996 23.8614 11.6406 23.4003 11.8552 22.4365C12.1128 21.2836 12.8531 20.6794 14.0167 20.6794C14.7186 20.6794 15.4212 20.6917 16.1254 20.6687C16.2632 20.6641 16.4718 20.5534 16.5208 20.4381C17.8945 17.1531 19.2757 13.872 20.5937 10.5632C20.8844 9.83222 20.965 9.00751 21.0915 8.21816C21.1796 7.66631 21.459 7.41344 22.0208 7.52642C22.7943 7.68014 23.4518 8.06444 24.0196 8.6063C25.5093 10.0159 26.0289 11.7422 25.4505 13.7252C24.8104 15.9249 24.0746 18.0954 23.3795 20.2782C23.341 20.3889 23.2959 20.5034 23.2334 20.6771Z" fill="white"/>
</svg>
