<svg width="228" height="173" viewBox="0 0 228 173" fill="none" xmlns="http://www.w3.org/2000/svg">
<g clip-path="url(#clip0_13560_9466)">
<rect width="228" height="173" rx="7" fill="white"/>
<path d="M116.796 73.1221C116.674 82.7615 125.384 88.141 131.946 91.3391C138.688 94.6208 140.952 96.725 140.927 99.6593C140.875 104.151 135.549 106.133 130.563 106.21C121.866 106.345 116.809 103.861 112.789 101.982L109.656 116.647C113.689 118.507 121.158 120.128 128.903 120.199C147.083 120.199 158.978 111.223 159.042 97.3041C159.113 79.6406 134.616 78.6625 134.783 70.767C134.841 68.3732 137.125 65.8186 142.13 65.1687C144.606 64.8405 151.445 64.5895 159.197 68.1609L162.239 53.9721C158.071 52.4535 152.712 50.9992 146.041 50.9992C128.929 50.9992 116.893 60.098 116.796 73.1221ZM191.478 52.2218C188.158 52.2218 185.36 54.1587 184.112 57.1316L158.141 119.157H176.308L179.924 109.164H202.124L204.221 119.157H220.233L206.261 52.2218H191.478ZM194.019 70.3037L199.261 95.4381H184.903L194.019 70.3037ZM94.7696 52.2218L80.4496 119.157H97.7609L112.074 52.2218H94.7696ZM69.1596 52.2218L51.1407 97.7803L43.852 59.0427C42.9964 54.7185 39.6191 52.2218 35.8686 52.2218H6.41171L6 54.1651C12.0471 55.4778 18.9176 57.5949 23.0797 59.86C25.6272 61.2434 26.3542 62.4532 27.1904 65.7414L40.9958 119.157H59.2913L87.3394 52.2218H69.1596Z" fill="#1B2073"/>
<path d="M-5 0H230V23H-5V0Z" fill="#1B2073"/>
<path d="M-7 150H236V173H-7V150Z" fill="#F7B802"/>
</g>
<defs>
<clipPath id="clip0_13560_9466">
<rect width="228" height="173" rx="7" fill="white"/>
</clipPath>
</defs>
</svg>
