<svg width="257" height="263" viewBox="0 0 257 263" fill="none" xmlns="http://www.w3.org/2000/svg">
<path d="M27.2285 227.943L32.1328 260.172H60.6244L67.2375 228.409L27.2285 227.943Z" fill="#EBEBEB"/>
<path d="M63.2516 248.598C63.2516 248.69 55.9508 248.765 46.947 248.765C37.9402 248.765 30.6406 248.69 30.6406 248.598C30.6406 248.506 37.9396 248.43 46.947 248.43C55.9508 248.431 63.2516 248.506 63.2516 248.598Z" fill="#F6F6F6"/>
<path d="M63.3595 247.013C63.3595 247.106 56.0095 247.18 46.9448 247.18C37.8766 247.18 30.5283 247.106 30.5283 247.013C30.5283 246.921 37.8772 246.846 46.9448 246.846C56.0095 246.846 63.3595 246.921 63.3595 247.013Z" fill="#F6F6F6"/>
<path d="M63.3029 245.223C63.3029 245.315 55.9529 245.39 46.8882 245.39C37.8199 245.39 30.4717 245.315 30.4717 245.223C30.4717 245.13 37.8199 245.056 46.8882 245.056C55.9529 245.056 63.3029 245.13 63.3029 245.223Z" fill="#F6F6F6"/>
<path d="M35.4044 258.333C35.3134 258.348 34.9221 256.532 34.5302 254.275C34.1383 252.018 33.8949 250.175 33.9859 250.16C34.0769 250.144 34.4682 251.96 34.8595 254.218C35.2514 256.474 35.4954 258.317 35.4044 258.333Z" fill="#F6F6F6"/>
<path d="M37.3391 257.99C37.2446 257.992 37.1356 256.217 36.986 254.031C36.8388 251.844 36.7061 250.071 36.8 250.06C36.8892 250.05 37.1716 251.812 37.3194 254.008C37.4701 256.204 37.4295 257.989 37.3391 257.99Z" fill="#F6F6F6"/>
<path d="M40.8726 257.989C40.7839 258.005 40.3949 256.195 40.1311 253.929C39.8645 251.664 39.8245 249.813 39.9143 249.808C40.0088 249.802 40.1978 251.635 40.4633 253.89C40.7259 256.145 40.9659 257.973 40.8726 257.989Z" fill="#F6F6F6"/>
<path d="M43.3505 258.159C43.2607 258.167 43.0282 256.323 42.9557 254.034C42.8798 251.745 42.9923 249.891 43.0821 249.892C43.1766 249.894 43.2143 251.744 43.2902 254.023C43.3621 256.302 43.445 258.151 43.3505 258.159Z" fill="#F6F6F6"/>
<path d="M47.7485 257.99C47.6563 257.993 47.5219 256.24 47.4488 254.075C47.3752 251.909 47.3908 250.151 47.483 250.149C47.5752 250.146 47.7097 251.898 47.7827 254.063C47.8563 256.229 47.8407 257.987 47.7485 257.99Z" fill="#F6F6F6"/>
<path d="M50.9556 258.16C50.8634 258.159 50.8032 256.346 50.8217 254.11C50.8397 251.873 50.9295 250.061 51.0217 250.062C51.1139 250.063 51.1742 251.876 51.1562 254.113C51.1376 256.348 51.0484 258.16 50.9556 258.16Z" fill="#F6F6F6"/>
<path d="M53.9612 257.73C53.8696 257.72 53.978 255.825 54.2041 253.497C54.4302 251.168 54.6882 249.287 54.7798 249.297C54.8714 249.305 54.763 251.2 54.5369 253.53C54.3114 255.858 54.0534 257.738 53.9612 257.73Z" fill="#F6F6F6"/>
<path d="M57.8338 257.307C57.7457 257.296 57.8843 255.67 58.3132 253.708C58.7382 251.744 59.2877 250.208 59.3729 250.234C59.4645 250.262 59.0622 251.83 58.6402 253.779C58.2147 255.727 57.9289 257.321 57.8338 257.307Z" fill="#F6F6F6"/>
<path d="M55.0899 164.35C55.0952 164.352 55.0836 164.405 55.0552 164.509C55.0198 164.63 54.9757 164.78 54.9218 164.964C54.7902 165.387 54.6088 165.968 54.3798 166.703C54.1358 167.455 53.8453 168.378 53.5433 169.46C53.2367 170.541 52.8552 171.762 52.5161 173.135C52.1544 174.501 51.7625 175.999 51.406 177.623C51.0106 179.237 50.6779 180.982 50.3069 182.813C49.624 186.487 49.0008 190.549 48.5614 194.84C48.1446 199.133 47.9521 203.24 47.8953 206.977C47.8971 208.845 47.8785 210.621 47.9469 212.282C47.9759 213.944 48.064 215.49 48.1481 216.901C48.2095 218.314 48.3423 219.586 48.4292 220.706C48.511 221.827 48.6136 222.789 48.7046 223.574C48.784 224.34 48.846 224.945 48.8918 225.386C48.908 225.578 48.9214 225.733 48.9324 225.859C48.9399 225.965 48.9405 226.02 48.9347 226.021C48.9289 226.022 48.9167 225.968 48.8982 225.863C48.8785 225.738 48.8547 225.584 48.8246 225.394C48.7637 224.955 48.6802 224.352 48.5747 223.589C48.464 222.804 48.3423 221.844 48.2426 220.723C48.1376 219.604 47.9886 218.331 47.9115 216.916C47.8118 215.504 47.7098 213.956 47.6692 212.29C47.5887 210.626 47.5968 208.846 47.5869 206.973C47.6269 203.228 47.8101 199.11 48.2281 194.805C48.6686 190.505 49.3028 186.433 50.0037 182.754C50.384 180.92 50.7271 179.174 51.1352 177.559C51.5045 175.934 51.9103 174.437 52.2871 173.072C52.6419 171.701 53.0396 170.482 53.3636 169.405C53.683 168.327 53.9926 167.409 54.2558 166.662C54.5103 165.934 54.7108 165.36 54.8575 164.941C54.9242 164.761 54.9781 164.615 55.0215 164.496C55.0621 164.398 55.0847 164.348 55.0899 164.35Z" fill="#EBEBEB"/>
<path d="M49.9476 184.306C50.7163 182.003 52.3128 179.987 54.3771 178.711C55.0832 178.274 55.9736 177.919 56.7208 178.28C57.715 178.761 57.795 180.16 57.4982 181.223C56.9996 183.012 55.8304 184.605 54.2739 185.618C52.7174 186.63 51.2722 187.107 49.4346 186.838" fill="#EBEBEB"/>
<path d="M48.2133 197.781C48.9495 195 51.168 191.045 53.4723 189.323C53.8369 189.051 54.2265 188.793 54.6682 188.686C55.1105 188.58 55.6183 188.648 55.947 188.963C56.4177 189.414 56.3713 190.172 56.2328 190.809C55.3522 194.866 51.9714 198.27 47.9199 199.178" fill="#EBEBEB"/>
<path d="M47.7393 209.642C48.8731 206.999 50.7259 204.67 53.0452 202.97C53.589 202.571 54.233 202.19 54.8968 202.31C55.9031 202.493 56.36 203.722 56.2713 204.741C56.0881 206.839 54.4858 208.522 52.8313 209.825C51.0505 211.229 47.9236 212.348 47.9236 212.348" fill="#EBEBEB"/>
<path d="M48.0117 218.169C49.1763 216.186 50.625 214.322 52.5258 213.029C52.9386 212.748 53.3855 212.49 53.8806 212.422C54.3751 212.354 54.9287 212.515 55.2093 212.928C55.662 213.592 55.2307 214.491 54.7455 215.132C53.0696 217.349 50.956 219.026 48.3039 219.858" fill="#EBEBEB"/>
<path d="M47.7812 214.706C45.8363 212.322 43.6729 210.118 41.3257 208.129C40.9593 207.819 40.4961 207.494 40.0393 207.642C39.6857 207.758 39.4718 208.139 39.4475 208.51C39.4225 208.881 39.5506 209.244 39.6933 209.588C41.1042 212.998 44.4282 215.669 48.005 216.58" fill="#EBEBEB"/>
<path d="M47.9903 203.609C46.2999 201.548 44.6089 199.487 42.9185 197.426C42.4362 196.838 41.9377 196.236 41.2733 195.865C40.609 195.494 39.7319 195.401 39.1099 195.84C38.489 196.277 38.2792 197.134 38.416 197.881C38.5522 198.628 38.9725 199.289 39.4055 199.913C40.4362 201.397 41.6119 202.814 43.1011 203.838C44.5904 204.863 45.9434 205.529 47.7312 205.265" fill="#EBEBEB"/>
<path d="M48.6953 191.117C47.7109 188.173 45.9295 185.498 43.5916 183.456C43.2009 183.114 42.7719 182.778 42.2618 182.68C41.2456 182.483 40.2641 183.332 39.9354 184.313C39.565 185.417 39.8183 186.661 40.3986 187.671C40.9789 188.679 41.8577 189.484 42.7823 190.191C44.4872 191.495 46.3991 192.527 48.424 193.237" fill="#EBEBEB"/>
<path d="M50.7261 179.977C50.2351 176.393 48.3696 173.41 46.2074 170.51C45.7517 169.899 45.1158 169.251 44.3622 169.365C43.8816 169.438 43.4938 169.827 43.3031 170.274C43.1129 170.721 43.0897 171.221 43.1025 171.707C43.2161 176.037 46.2039 180.151 50.2873 181.598" fill="#EBEBEB"/>
<path d="M52.1447 174.29C51.9673 172.447 51.7893 170.591 51.9592 168.748C52.1296 166.904 52.6699 165.053 53.7991 163.586C54.2843 162.956 54.893 162.392 55.6402 162.118C56.3875 161.844 57.2889 161.907 57.8993 162.418C58.4651 162.89 58.701 163.67 58.6726 164.407C58.6442 165.143 58.384 165.849 58.1011 166.53C56.7509 169.781 54.4971 173.38 52.1447 174.29Z" fill="#EBEBEB"/>
<path d="M30.0523 178.56C30.0639 178.56 30.0731 178.717 30.0801 179.014C30.0836 179.345 30.0888 179.777 30.0946 180.315C30.0934 180.88 30.0963 181.57 30.1265 182.372C30.1531 183.173 30.1584 184.086 30.225 185.094C30.3131 187.11 30.5085 189.505 30.814 192.154C31.1421 194.801 31.5937 197.7 32.2174 200.714C32.8574 203.725 33.6087 206.562 34.3716 209.117C35.1565 211.666 35.9397 213.939 36.6695 215.82C37.0133 216.769 37.375 217.608 37.673 218.352C37.9675 219.098 38.2417 219.732 38.4701 220.248C38.6805 220.743 38.8498 221.141 38.9796 221.445C39.0927 221.721 39.1472 221.867 39.1367 221.873C39.1263 221.877 39.0515 221.74 38.9188 221.474C38.7744 221.176 38.586 220.786 38.3518 220.302C38.1049 219.793 37.8127 219.165 37.5014 218.425C37.1866 217.685 36.8087 216.852 36.4498 215.906C35.6904 214.03 34.8812 211.76 34.0777 209.207C33.2957 206.648 32.5328 203.803 31.8905 200.781C31.2644 197.757 30.821 194.846 30.5085 192.189C30.2186 189.529 30.0471 187.124 29.9891 185.102C29.9375 184.092 29.9485 183.177 29.9398 182.373C29.9276 181.57 29.9433 180.878 29.9647 180.312C29.9844 179.774 30.0007 179.342 30.0129 179.011C30.0273 178.716 30.0407 178.56 30.0523 178.56Z" fill="#E0E0E0"/>
<path d="M30.8457 193.255C30.8735 191.521 31.5263 189.806 32.6573 188.492C33.0439 188.043 33.5738 187.61 34.1598 187.694C34.9401 187.807 35.296 188.742 35.3227 189.531C35.3679 190.856 34.9152 192.192 34.0735 193.217C33.2317 194.241 32.3506 194.877 31.0416 195.089" fill="#E0E0E0"/>
<path d="M32.5642 202.801C32.4663 200.75 33.126 197.579 34.3242 195.911C34.5138 195.648 34.7236 195.388 35.0013 195.22C35.2796 195.052 35.6401 194.99 35.9311 195.134C36.3485 195.339 36.4801 195.866 36.523 196.329C36.7972 199.281 35.2274 202.326 32.6645 203.816" fill="#E0E0E0"/>
<path d="M34.793 210.98C34.9959 208.937 35.7559 206.952 36.9692 205.296C37.2538 204.907 37.6103 204.509 38.0874 204.448C38.812 204.355 39.3877 205.094 39.5465 205.807C39.8734 207.275 39.1442 208.765 38.299 210.009C37.3883 211.348 35.5008 212.782 35.5008 212.782" fill="#E0E0E0"/>
<path d="M36.8076 216.728C37.174 215.127 37.7595 213.546 38.7745 212.256C38.9954 211.976 39.2441 211.704 39.5664 211.551C39.8887 211.399 40.3003 211.389 40.5803 211.609C41.0313 211.965 40.931 212.669 40.7391 213.211C40.0754 215.081 38.9971 216.678 37.3705 217.814" fill="#E0E0E0"/>
<path d="M35.9105 214.417C34.0734 213.213 32.1256 212.178 30.0996 211.329C29.7831 211.197 29.3982 211.075 29.1193 211.275C28.9037 211.43 28.8399 211.735 28.9031 211.993C28.9663 212.251 29.1315 212.471 29.3025 212.674C30.997 214.693 33.8352 215.795 36.4664 215.646" fill="#E0E0E0"/>
<path d="M33.6689 206.818C32.0742 205.78 30.48 204.74 28.8853 203.701C28.4302 203.404 27.9612 203.101 27.4291 202.992C26.8969 202.882 26.2801 203.008 25.9508 203.44C25.6221 203.871 25.6639 204.5 25.9178 204.979C26.1717 205.458 26.5995 205.818 27.0291 206.149C28.0505 206.938 29.156 207.65 30.3902 208.026C31.6243 208.403 32.6892 208.566 33.8498 208.001" fill="#E0E0E0"/>
<path d="M31.4526 198.161C30.1483 196.368 28.3599 194.931 26.3287 194.043C25.989 193.895 25.6249 193.759 25.2562 193.802C24.5217 193.887 24.0365 194.676 24.0238 195.415C24.0093 196.246 24.4493 197.039 25.062 197.601C25.6742 198.163 26.4458 198.522 27.2272 198.805C28.6683 199.325 30.1924 199.616 31.7239 199.664" fill="#E0E0E0"/>
<path d="M30.438 190.141C29.3319 187.807 27.4201 186.178 25.3239 184.668C24.8821 184.35 24.3094 184.046 23.8213 184.286C23.51 184.439 23.3291 184.787 23.2961 185.133C23.2625 185.478 23.3546 185.823 23.4677 186.151C24.4769 189.075 27.3969 191.233 30.4884 191.339" fill="#E0E0E0"/>
<path d="M30.1772 185.964C29.6596 184.747 29.1396 183.522 28.8584 182.23C28.5773 180.939 28.5471 179.562 28.9999 178.32C29.1947 177.786 29.4874 177.271 29.9372 176.924C30.3871 176.578 31.0143 176.426 31.5401 176.642C32.0265 176.842 32.3557 177.323 32.4949 177.83C32.634 178.337 32.6091 178.874 32.5627 179.399C32.343 181.902 31.583 184.838 30.1772 185.964Z" fill="#E0E0E0"/>
<path d="M66.0711 178.248C66.0827 178.248 66.096 178.404 66.1105 178.701C66.1227 179.032 66.1389 179.464 66.1586 180.002C66.18 180.568 66.1957 181.259 66.1835 182.063C66.1748 182.865 66.1858 183.781 66.1342 184.792C66.0763 186.814 65.9047 189.219 65.6148 191.879C65.3024 194.535 64.8589 197.447 64.2328 200.471C63.5905 203.493 62.8271 206.337 62.0456 208.896C61.2428 211.449 60.4329 213.72 59.6735 215.595C59.3147 216.541 58.9367 217.375 58.6219 218.114C58.3106 218.855 58.0179 219.482 57.7715 219.991C57.5373 220.476 57.3489 220.865 57.2046 221.163C57.0712 221.429 56.997 221.567 56.9866 221.562C56.9762 221.557 57.0307 221.41 57.1437 221.135C57.273 220.83 57.4423 220.433 57.6533 219.938C57.8811 219.421 58.1559 218.788 58.4503 218.042C58.7483 217.297 59.11 216.459 59.4538 215.51C60.1831 213.628 60.9668 211.356 61.7517 208.807C62.5146 206.251 63.2665 203.415 63.9065 200.403C64.5302 197.389 64.9818 194.491 65.3099 191.844C65.6154 189.195 65.8114 186.799 65.8989 184.783C65.9656 183.776 65.9713 182.863 65.9974 182.061C66.0276 181.259 66.0311 180.569 66.0293 180.004C66.0351 179.466 66.0403 179.034 66.0438 178.703C66.0502 178.405 66.0595 178.249 66.0711 178.248Z" fill="#EBEBEB"/>
<path d="M65.2766 192.942C65.2488 191.208 64.596 189.492 63.465 188.179C63.0784 187.73 62.5485 187.297 61.9619 187.381C61.1816 187.494 60.8257 188.429 60.799 189.217C60.7538 190.542 61.2065 191.879 62.0482 192.903C62.89 193.928 63.7711 194.564 65.0801 194.776" fill="#EBEBEB"/>
<path d="M63.5547 202.488C63.6521 200.437 62.993 197.266 61.7948 195.598C61.6052 195.335 61.3954 195.076 61.1177 194.907C60.8394 194.739 60.4789 194.677 60.1873 194.821C59.7699 195.026 59.6383 195.553 59.5954 196.016C59.3212 198.968 60.8904 202.013 63.4539 203.503" fill="#EBEBEB"/>
<path d="M61.3265 210.667C61.1236 208.624 60.3636 206.639 59.1503 204.982C58.8657 204.594 58.5097 204.195 58.0321 204.134C57.3075 204.042 56.7318 204.781 56.573 205.494C56.246 206.962 56.9753 208.452 57.8205 209.695C58.7306 211.035 60.6187 212.469 60.6187 212.469" fill="#EBEBEB"/>
<path d="M59.3128 216.414C58.947 214.814 58.3615 213.233 57.3459 211.943C57.1256 211.663 56.8764 211.391 56.5546 211.238C56.2323 211.086 55.8213 211.076 55.5407 211.296C55.0897 211.652 55.19 212.356 55.3819 212.897C56.0456 214.768 57.1239 216.364 58.7505 217.501" fill="#EBEBEB"/>
<path d="M60.2057 214.105C62.0428 212.901 63.9906 211.866 66.0166 211.017C66.3331 210.885 66.7186 210.763 66.9975 210.963C67.2131 211.118 67.2769 211.423 67.2137 211.681C67.1505 211.939 66.9853 212.159 66.8143 212.362C65.1198 214.38 62.2816 215.483 59.6504 215.333" fill="#EBEBEB"/>
<path d="M62.4547 206.505C64.0494 205.466 65.6436 204.427 67.2384 203.388C67.6934 203.091 68.1624 202.788 68.6946 202.679C69.2267 202.569 69.8441 202.695 70.1728 203.127C70.5015 203.558 70.4597 204.187 70.2058 204.666C69.9525 205.145 69.5241 205.505 69.0946 205.836C68.0731 206.625 66.9676 207.337 65.7335 207.714C64.4993 208.091 63.435 208.253 62.2744 207.689" fill="#EBEBEB"/>
<path d="M64.6629 197.849C65.9672 196.056 67.755 194.619 69.7868 193.731C70.1266 193.583 70.4906 193.447 70.8593 193.489C71.5938 193.575 72.079 194.364 72.0917 195.102C72.1062 195.933 71.6662 196.727 71.0541 197.288C70.4413 197.85 69.6703 198.209 68.8883 198.491C67.4472 199.012 65.9237 199.303 64.3916 199.35" fill="#EBEBEB"/>
<path d="M65.6817 189.829C66.7878 187.494 68.6996 185.865 70.7958 184.356C71.2375 184.038 71.8103 183.733 72.2989 183.973C72.6102 184.126 72.7905 184.475 72.8242 184.82C72.8572 185.166 72.7656 185.511 72.6526 185.839C71.6433 188.763 68.7234 190.92 65.6318 191.026" fill="#EBEBEB"/>
<path d="M65.9392 185.65C66.4568 184.434 66.9774 183.209 67.2586 181.917C67.5397 180.625 67.5699 179.249 67.1171 178.007C66.9223 177.473 66.6296 176.958 66.1797 176.611C65.7299 176.264 65.1027 176.113 64.5769 176.329C64.0899 176.529 63.7612 177.009 63.6221 177.516C63.483 178.024 63.5079 178.561 63.5537 179.085C63.774 181.589 64.534 184.525 65.9392 185.65Z" fill="#EBEBEB"/>
<path d="M23.9629 221.561V227.592C23.9629 228.903 25.0255 229.966 26.3368 229.966H67.595C68.9063 229.966 69.9695 228.903 69.9695 227.592V221.561H23.9629Z" fill="#EBEBEB"/>
<path d="M27.5303 229.966L27.8729 231.886L65.9428 234.599L66.9068 229.966H27.5303Z" fill="#E0E0E0"/>
<path d="M125.864 28.3761C127.044 15.0705 117.195 3.32515 103.864 2.14209C90.5331 0.959028 78.7691 10.7863 77.5883 24.0918C76.4074 37.3974 86.257 49.1428 99.5879 50.3258C112.919 51.5089 124.683 41.6817 125.864 28.3761Z" fill="white"/>
<path d="M117.285 44.7936C117.285 44.7936 117.389 44.7107 117.583 44.5379C117.783 44.3574 118.067 44.0996 118.438 43.7644C118.626 43.593 118.836 43.4014 119.066 43.191C119.287 42.9694 119.506 42.7053 119.755 42.4315C120.002 42.1542 120.268 41.8559 120.552 41.5368C120.849 41.2274 121.082 40.8323 121.375 40.4498C122.554 38.9252 123.708 36.8314 124.639 34.2561C125.554 31.6786 126.153 28.5536 125.994 25.0989C125.971 24.6676 125.947 24.2314 125.923 23.7896C125.873 23.3506 125.795 22.9103 125.731 22.4629C125.652 22.0184 125.622 21.5585 125.499 21.1126C125.386 20.6652 125.273 20.213 125.157 19.7566C125.049 19.4019 124.872 18.8208 124.763 18.4662C124.754 18.4411 124.745 18.416 124.736 18.3909C124.573 17.938 124.409 17.4809 124.243 17.0196C124.063 16.5639 123.828 16.1263 123.62 15.6727C123.393 15.2282 123.218 14.7516 122.933 14.3279C122.398 13.4639 121.906 12.5504 121.236 11.7373C120.914 11.3227 120.615 10.8844 120.267 10.4803C119.772 9.94584 119.273 9.40652 118.768 8.86164C118.718 8.80798 118.665 8.75572 118.61 8.70695C118.405 8.52648 118.2 8.34532 117.994 8.16345C117.578 7.80531 117.176 7.42277 116.74 7.07716C115.828 6.4389 114.946 5.72539 113.929 5.19583C112.96 4.58196 111.888 4.13881 110.822 3.65454C110.278 3.43854 109.713 3.26852 109.155 3.07203C108.872 2.98284 108.597 2.86647 108.307 2.79958L107.436 2.59403C106.509 2.33482 105.55 2.20662 104.583 2.07841C104.097 2.0359 103.611 1.9934 103.125 1.95089L101.56 1.88818L101.097 1.91118L100.167 1.96204L99.233 2.01361L98.3035 2.15157L97.3705 2.29371L96.9029 2.36548L96.4423 2.47906C95.5003 2.76405 93.9639 3.2288 93.0225 3.51449C92.9438 3.54305 92.8657 3.57093 92.787 3.59949C90.4026 4.56036 88.1366 5.90029 86.0895 7.57119C84.0862 9.29504 82.3686 11.2913 81.0057 13.4723C80.9681 13.5378 80.9304 13.6033 80.8928 13.6695C80.4441 14.553 79.7125 15.9933 79.2637 16.8768L79.0707 17.3102L78.9188 17.7582L78.6157 18.6522L78.3175 19.5434L78.1036 20.4541L77.8904 21.3613L77.7865 21.8135L77.5754 23.3674C77.5322 23.8537 77.489 24.3394 77.4458 24.825C77.4026 25.7992 77.3615 26.7656 77.4549 27.723L77.505 28.617C77.5197 28.9145 77.5866 29.2058 77.6249 29.4991C77.721 30.083 77.79 30.6697 77.9071 31.2425C78.1983 32.3768 78.4471 33.5105 78.8819 34.5717C79.2254 35.6664 79.7745 36.6593 80.2427 37.6696C80.5075 38.1595 80.8134 38.6221 81.0935 39.0946C81.2363 39.3294 81.3792 39.5635 81.5206 39.7962C81.5589 39.8582 81.6001 39.9196 81.644 39.9774C82.0927 40.5697 82.5372 41.1571 82.9769 41.7375C83.3142 42.15 83.6932 42.5221 84.0451 42.9116C84.7286 43.7136 85.5425 44.3581 86.2999 45.0354C86.6664 45.3893 87.1061 45.6458 87.5039 45.9468C87.9143 46.2304 88.3039 46.539 88.7212 46.7948C89.1498 47.0407 89.5741 47.2839 89.9943 47.5257C90.3399 47.7034 90.9029 47.9918 91.2485 48.1695C91.2506 48.1702 91.2527 48.1716 91.2547 48.1723C91.6847 48.366 92.1104 48.5569 92.532 48.7465C92.95 48.945 93.3974 49.0544 93.821 49.2105C94.2502 49.352 94.6711 49.506 95.094 49.6314C95.5247 49.7317 95.9504 49.8314 96.3706 49.9296C99.7444 50.6891 102.927 50.6459 105.624 50.1951C108.322 49.7289 110.584 48.9583 112.291 48.0636C112.719 47.842 113.149 47.6818 113.505 47.4428C113.869 47.2191 114.209 47.0094 114.525 46.815C114.839 46.6171 115.137 46.4478 115.394 46.2687C115.641 46.0785 115.866 45.9057 116.068 45.7503C116.463 45.4437 116.766 45.2089 116.979 45.0437C117.186 44.8814 117.285 44.7936 117.285 44.7936C117.285 44.7936 117.173 44.8661 116.963 45.0187C116.746 45.1782 116.438 45.4054 116.035 45.7015C115.832 45.8527 115.605 46.0213 115.355 46.2067C115.096 46.3809 114.796 46.546 114.481 46.739C114.164 46.9292 113.823 47.1341 113.459 47.3529C113.102 47.5863 112.672 47.7424 112.244 47.9591C110.538 48.8343 108.281 49.584 105.6 50.032C102.918 50.4647 99.7604 50.4926 96.4172 49.7268C96.0006 49.6279 95.579 49.5283 95.1526 49.4265C94.7331 49.3004 94.3171 49.1457 93.8921 49.0043C93.4726 48.8482 93.0295 48.7381 92.6163 48.5402C92.1996 48.3514 91.7794 48.1605 91.3544 47.9675C91.0248 47.7981 90.4855 47.5208 90.1559 47.3515C90.1364 47.3403 90.1162 47.3285 90.0967 47.3174C89.6842 47.0791 89.2675 46.8387 88.8466 46.5955C88.4341 46.3405 88.0495 46.0339 87.6433 45.7517C87.2503 45.4527 86.8155 45.1984 86.4539 44.8465C85.7055 44.1741 84.9014 43.5345 84.2269 42.7388C83.8792 42.352 83.5044 41.9834 83.172 41.5744C82.7365 40.9968 82.2968 40.4136 81.853 39.8248C81.8105 39.7691 81.7708 39.7105 81.7345 39.6506C81.5945 39.42 81.4537 39.1879 81.313 38.9552C81.037 38.4877 80.7346 38.0292 80.474 37.5442C80.0128 36.5436 79.4707 35.5611 79.1334 34.4783C78.7042 33.4283 78.461 32.3072 78.1739 31.1853C78.059 30.6188 77.9914 30.0384 77.8973 29.4608C77.8597 29.1709 77.7942 28.8824 77.7796 28.5884L77.7315 27.7042C77.6172 26.5224 77.712 25.3267 77.7566 24.1199C77.8388 23.5214 77.921 22.92 78.0032 22.3159L78.0653 21.8623L78.1684 21.415L78.3795 20.5189L78.5913 19.6186L78.8875 18.7386L79.1878 17.8558L79.3383 17.4126L79.5292 16.9848C79.9758 16.1075 80.704 14.6763 81.1506 13.7991C81.1848 13.7398 81.2182 13.6813 81.2524 13.6221C82.6006 11.4683 84.2973 9.49641 86.2769 7.79207C88.3004 6.14138 90.5384 4.81748 92.8943 3.86706C92.9675 3.84058 93.0399 3.81411 93.1131 3.78832C94.0475 3.50473 95.5713 3.04206 96.5057 2.75847L96.9607 2.64559L97.4227 2.57522L98.3446 2.43377L99.2629 2.2965L100.186 2.24494L101.105 2.19338L101.563 2.17038L102.02 2.1885C102.629 2.21289 103.235 2.23658 103.839 2.26027C105.034 2.4275 106.228 2.54386 107.371 2.86229L108.233 3.06436C108.52 3.12986 108.792 3.24483 109.072 3.33262C109.623 3.52633 110.183 3.69356 110.721 3.90608C111.775 4.38477 112.836 4.82027 113.795 5.42577C114.803 5.94697 115.675 6.65212 116.579 7.28132C117.011 7.62275 117.409 8.00041 117.822 8.35368C118.026 8.53345 118.229 8.71183 118.432 8.8902C118.485 8.93689 118.537 8.98636 118.585 9.03862C119.087 9.57863 119.584 10.1131 120.076 10.6419C120.421 11.0412 120.718 11.4746 121.038 11.8843C121.704 12.6877 122.193 13.5907 122.724 14.445C123.008 14.8631 123.182 15.3355 123.408 15.7745C123.615 16.2232 123.849 16.6559 124.029 17.106C124.195 17.5624 124.358 18.0146 124.521 18.4627C124.602 18.6863 124.683 18.9093 124.764 19.1316C124.77 19.1525 124.777 19.1741 124.783 19.195C124.953 19.8583 125.12 20.5126 125.285 21.1572C125.408 21.5989 125.439 22.0539 125.519 22.4943C125.584 22.9374 125.664 23.3743 125.714 23.8091C125.739 24.2467 125.765 24.6794 125.789 25.1065C125.959 28.5313 125.38 31.6361 124.485 34.201C123.576 36.7638 122.443 38.8542 121.283 40.3815C120.995 40.7648 120.766 41.1612 120.474 41.4713C120.194 41.7918 119.933 42.0921 119.691 42.3716C119.445 42.6482 119.23 42.9144 119.013 43.138C118.787 43.3519 118.581 43.5456 118.397 43.7198C118.035 44.0641 117.757 44.3281 117.563 44.5135C117.376 44.6953 117.285 44.7936 117.285 44.7936Z" fill="#E0E0E0"/>
<path d="M121.72 55.6842C120.02 57.8974 116.676 57.6026 115.389 55.1262C114.74 53.8781 114.878 52.3174 115.734 51.2021C117.435 48.9889 120.779 49.2837 122.066 51.7601C122.714 53.0082 122.577 54.5689 121.72 55.6842Z" fill="white"/>
<path d="M121.125 56.3063C121.131 56.3136 121.197 56.2647 121.319 56.1642C121.442 56.0664 121.609 55.9011 121.792 55.6625C122.157 55.1964 122.586 54.3641 122.55 53.2641C122.529 52.7227 122.396 52.1211 122.08 51.5592C121.763 51.0033 121.294 50.4658 120.661 50.1056C120.039 49.736 119.266 49.5311 118.477 49.586C117.686 49.6256 116.887 49.9416 116.239 50.4757C115.6 51.0205 115.148 51.7523 114.971 52.525C114.779 53.2932 114.846 54.0891 115.101 54.7661C115.345 55.4529 115.793 56.0089 116.284 56.4174C116.783 56.8273 117.351 57.0626 117.881 57.1783C118.957 57.4057 119.852 57.1287 120.374 56.8511C120.641 56.7129 120.833 56.5767 120.951 56.4723C121.072 56.3698 121.132 56.3136 121.125 56.3063C121.107 56.2819 120.86 56.5073 120.328 56.7539C119.806 56.9952 118.941 57.2272 117.925 56.9872C117.424 56.8656 116.893 56.6329 116.431 56.2402C115.974 55.8482 115.561 55.3214 115.34 54.6781C115.108 54.0442 115.052 53.3018 115.234 52.5878C115.403 51.8699 115.823 51.193 116.417 50.686C117.02 50.1908 117.759 49.8947 118.495 49.855C119.229 49.8001 119.95 49.9859 120.534 50.325C121.129 50.6542 121.575 51.1533 121.881 51.671C122.187 52.1945 122.323 52.7591 122.356 53.2727C122.414 54.3152 122.034 55.127 121.706 55.599C121.37 56.0796 121.105 56.2839 121.125 56.3063Z" fill="#E0E0E0"/>
<path d="M68.1735 116.203H65.1162V119.058H68.1735V116.203Z" fill="#E0E0E0"/>
<path d="M256.715 262.728C256.715 262.812 199.306 262.879 128.507 262.879C57.6821 262.879 0.286133 262.811 0.286133 262.728C0.286133 262.646 57.6821 262.578 128.507 262.578C199.306 262.578 256.715 262.645 256.715 262.728Z" fill="#263238"/>
<path d="M94.8029 37.4954L92.1221 36.2968L108.094 16.182L110.702 16.9038C111.092 17.0115 111.439 17.2338 111.701 17.5414L114.295 20.5976C114.668 21.0375 114.614 21.6972 114.174 22.0708L96.2443 37.2899C95.8431 37.6301 95.2829 37.7099 94.8029 37.4954Z" fill="#C8131B"/>
<path d="M112.929 36.0772L110.028 38.5397C109.704 38.8149 109.257 38.8945 108.858 38.748L106.687 37.9515C106.414 37.8514 106.187 37.6536 106.05 37.3966L94.1689 15L96.8473 15.7769C97.1927 15.877 97.5007 16.0765 97.7334 16.3507L113.065 34.4133C113.487 34.9107 113.426 35.6555 112.929 36.0772Z" fill="#C8131B"/>
<g opacity="0.3">
<path d="M94.8029 37.4954L92.1221 36.2968L108.094 16.182L110.702 16.9038C111.092 17.0115 111.439 17.2338 111.701 17.5414L114.295 20.5976C114.668 21.0375 114.614 21.6972 114.174 22.0708L96.2443 37.2899C95.8431 37.6301 95.2829 37.7099 94.8029 37.4954Z" fill="#610206"/>
<path d="M112.929 36.0772L110.028 38.5397C109.704 38.8149 109.257 38.8945 108.858 38.748L106.687 37.9515C106.414 37.8514 106.187 37.6536 106.05 37.3966L94.1689 15L96.8473 15.7769C97.1927 15.877 97.5007 16.0765 97.7334 16.3507L113.065 34.4133C113.487 34.9107 113.426 35.6555 112.929 36.0772Z" fill="#610206"/>
</g>
<path d="M91.8272 36.048L89.19 32.9412C88.9043 32.6046 88.9455 32.1005 89.2821 31.8148L107.447 16.3968C107.783 16.1111 108.287 16.1526 108.573 16.4889L111.21 19.5957C111.496 19.9323 111.455 20.4364 111.118 20.7221L92.954 36.1401C92.617 36.4258 92.1129 36.3846 91.8272 36.048Z" fill="#C8131B"/>
<path d="M109.98 34.6415L106.873 37.2787C106.536 37.5644 106.032 37.5233 105.747 37.1866L90.3287 19.0222C90.043 18.6859 90.0841 18.1815 90.4208 17.8958L93.6168 15.1829C93.9039 14.939 94.3344 14.9743 94.5779 15.2614L110.072 33.5151C110.358 33.8517 110.316 34.3562 109.98 34.6415Z" fill="#C8131B"/>
<path d="M95.532 27.4088C95.5644 27.4468 94.3818 28.5128 92.8905 29.7892C91.3986 31.066 90.1633 32.07 90.1305 32.0319C90.0981 31.9939 91.2807 30.9282 92.7723 29.6511C94.2636 28.3747 95.4992 27.3707 95.532 27.4088Z" fill="white"/>
<path d="M107.55 17.1244C107.583 17.1627 106.254 18.3411 104.582 19.7557C102.91 21.1713 101.528 22.2872 101.496 22.2488C101.463 22.2105 102.792 21.0324 104.464 19.6172C106.136 18.2023 107.518 17.086 107.55 17.1244Z" fill="white"/>
<path d="M96.1127 24.5461C96.0733 24.5772 95.0431 23.3259 93.8121 21.7516C92.5807 20.1769 91.6147 18.8757 91.6545 18.845C91.6939 18.814 92.724 20.0649 93.9554 21.6396C95.1861 23.2139 96.1521 24.5154 96.1127 24.5461Z" fill="white"/>
<path d="M105.307 35.0049C105.27 35.0391 104.205 33.9434 102.929 32.5585C101.652 31.1732 100.647 30.0228 100.684 29.9889C100.721 29.9551 101.785 31.0501 103.062 32.4353C104.339 33.8202 105.344 34.9707 105.307 35.0049Z" fill="white"/>
<path d="M57.2535 193.035C57.2535 193.035 52.3029 188.388 50.3992 187.153C48.4954 185.918 44.2254 184.22 42.6306 184.066C41.0359 183.912 33.5757 186.073 33.5757 186.073C33.5757 186.073 22.5661 185.095 20.714 186.382C18.8618 187.668 19.016 189.005 19.7882 189.983C20.5598 190.96 23.5441 190.652 26.8362 190.703C30.1288 190.754 31.0036 191.063 31.0036 191.063L26.2188 196.156L38.6174 199.603L46.1801 199.319L48.907 202.748L57.2535 193.035Z" fill="#FFBF9D"/>
<path d="M19.5068 181.53L19.806 192.5L20.337 193.864L25.7484 200.461L38.9517 199.591L28.433 195.493L24.6928 192.651L23.2465 187.963C23.2465 187.963 23.6957 180.732 19.5068 181.53Z" fill="#FFBF9D"/>
<path d="M20.4359 194.115H17.2203C17.2203 194.115 13.025 187.215 9.18512 189.558L10.0674 190.922C10.0674 190.922 8.33702 190.139 7.24023 191.594L17.8238 200.879H18.3107L29.5882 200.152L20.4359 194.115Z" fill="#FFBF9D"/>
<path d="M22.3501 196.212C22.3466 196.245 22.0098 196.229 21.44 196.25C20.8788 196.282 20.0458 196.319 19.2116 196.698L19.1038 196.747L19.0337 196.649C18.7079 196.188 18.3044 195.692 17.8905 195.176C17.0337 194.118 16.2586 193.162 15.6076 192.358C15.0274 191.632 14.6708 191.184 14.701 191.155C14.7317 191.126 15.1479 191.528 15.7705 192.219C16.3937 192.91 17.2337 193.881 18.1258 194.986C18.5426 195.507 18.9368 196.002 19.269 196.494L19.0916 196.444C20.0174 196.052 20.8661 196.065 21.4406 196.078C22.0208 196.106 22.3542 196.182 22.3501 196.212Z" fill="#FF9A6C"/>
<path d="M45.2266 189.834C45.2538 189.932 43.4451 190.299 41.5055 191.409C39.56 192.51 38.32 193.876 38.2499 193.802C38.2226 193.777 38.4992 193.409 39.0313 192.888C39.5623 192.369 40.3658 191.711 41.3565 191.146C42.3484 190.583 43.324 190.228 44.0417 190.038C44.7611 189.847 45.2196 189.798 45.2266 189.834Z" fill="#FF9A6C"/>
<path d="M34.6785 186.992C34.7382 187.055 34.009 187.841 33.1638 188.852C32.3157 189.862 31.6693 190.717 31.5974 190.67C31.5302 190.626 32.0722 189.683 32.9325 188.659C33.7904 187.633 34.624 186.934 34.6785 186.992Z" fill="#FF9A6C"/>
<path d="M23.652 197.746C23.6439 197.753 23.5575 197.666 23.3992 197.494C23.2224 197.297 22.9969 197.046 22.7187 196.736C22.4184 196.393 22.0636 195.987 21.6555 195.522C21.448 195.283 21.2277 195.029 20.9946 194.76C20.7651 194.492 20.5007 194.212 20.2787 193.869C19.8352 193.193 19.5309 192.314 19.5268 191.357C19.5089 190.421 19.4892 189.424 19.4689 188.376C19.4341 186.271 19.3958 183.961 19.3558 181.532L19.3535 181.398L19.4782 181.382C19.5883 181.367 19.7077 181.35 19.8277 181.334C20.6062 181.247 21.4393 181.52 21.9622 182.091C22.4891 182.651 22.7836 183.344 22.9836 184.019C23.3673 185.385 23.4294 186.728 23.3807 187.972L23.3749 187.924C23.9105 189.703 24.3882 191.286 24.7899 192.621L24.7546 192.57C25.8885 193.456 26.8067 194.173 27.4733 194.694C27.7678 194.932 28.0067 195.124 28.1951 195.276C28.3574 195.411 28.4391 195.485 28.4333 195.493C28.4275 195.5 28.3342 195.442 28.1603 195.321C27.9632 195.18 27.7139 195.002 27.4061 194.782C26.7255 194.279 25.7887 193.587 24.6317 192.731L24.6062 192.712L24.5963 192.679C24.1766 191.35 23.6786 189.773 23.1192 188.001L23.1129 187.98L23.1134 187.953C23.1505 186.745 23.0787 185.41 22.7024 184.1C22.5088 183.451 22.2219 182.799 21.7471 182.298C21.2746 181.791 20.568 181.559 19.8555 181.633C19.7454 181.648 19.6358 181.663 19.535 181.677L19.6579 181.527C19.6892 183.956 19.7187 186.266 19.7454 188.37C19.8323 190.454 19.5066 192.439 20.4561 193.754C20.659 194.082 20.9112 194.358 21.1384 194.636C21.3651 194.91 21.5801 195.169 21.7819 195.413C22.1749 195.891 22.5175 196.308 22.8062 196.66C23.0671 196.985 23.2781 197.248 23.4439 197.455C23.5882 197.64 23.6595 197.74 23.652 197.746Z" fill="#FF9A6C"/>
<path d="M18.311 200.878C18.3151 200.893 18.0849 200.905 17.7487 200.718C17.4125 200.538 16.9841 200.195 16.507 199.726C15.5505 198.788 14.3876 197.355 13.1905 195.716C11.994 194.075 10.9801 192.542 10.2677 191.419C9.91174 190.857 9.63233 190.398 9.44625 190.075C9.26016 189.753 9.16683 189.569 9.1848 189.558C9.20219 189.547 9.32857 189.71 9.54538 190.012C9.79697 190.372 10.0972 190.801 10.4462 191.301C11.2027 192.392 12.2427 193.902 13.4346 195.537C14.6276 197.17 15.7563 198.614 16.6594 199.576C17.1099 200.057 17.5064 200.415 17.809 200.617C18.1098 200.824 18.3139 200.85 18.311 200.878Z" fill="#FF9A6C"/>
<path d="M37.5755 193.797L31.7495 193.404L30.0081 188.63L29.6869 185.42C29.5298 183.851 28.218 182.613 26.6418 182.637C26.6232 182.637 26.6041 182.637 26.585 182.638L26.9119 190.505L28.1084 195.392L32.8422 198.185H38.6305L37.5755 193.797Z" fill="#FFBF9D"/>
<path d="M37.5745 193.797L31.7485 193.404L30.0071 188.63L29.6859 185.42C29.5289 183.851 28.217 182.613 26.6408 182.637C26.6222 182.637 26.6031 182.637 26.584 182.638L26.9109 190.505L28.1074 195.392L32.8412 198.185" fill="#FFBF9D"/>
<path d="M32.8411 198.185C32.8359 198.194 32.7182 198.137 32.4991 198.019C32.2539 197.883 31.9379 197.707 31.5461 197.49C30.6916 196.999 29.5084 196.32 28.0534 195.485L28.0151 195.463L28.0041 195.418C27.6522 194.017 27.2372 192.363 26.7792 190.538L26.7757 190.526L26.7752 190.512C26.6726 188.147 26.556 185.471 26.4331 182.645L26.4268 182.495L26.5804 182.488C26.6331 182.485 26.6923 182.488 26.7508 182.49C28.2157 182.5 29.4626 183.643 29.7507 184.95C29.8336 185.28 29.8481 185.603 29.8812 185.911C29.9113 186.223 29.9415 186.531 29.9716 186.835C30.0307 187.445 30.0881 188.039 30.1438 188.617L30.1362 188.584C30.7733 190.361 31.3507 191.971 31.8516 193.367L31.7559 193.295C33.5263 193.435 34.9721 193.549 36.0155 193.631C36.4921 193.675 36.8764 193.711 37.1726 193.738C37.437 193.766 37.5755 193.786 37.5749 193.797C37.5744 193.808 37.4341 193.809 37.1686 193.801C36.8712 193.788 36.4857 193.772 36.0074 193.752C34.9622 193.693 33.5147 193.612 31.7414 193.513L31.6707 193.509L31.6458 193.441C31.1298 192.05 30.5351 190.447 29.8783 188.676L29.8725 188.661L29.8707 188.643C29.811 188.065 29.7496 187.471 29.687 186.863C29.6557 186.558 29.6244 186.25 29.5925 185.938C29.5577 185.624 29.5409 185.309 29.4655 185.019C29.1983 183.83 28.0627 182.798 26.7456 182.79C26.6923 182.788 26.6401 182.786 26.5897 182.788L26.7363 182.631C26.8482 185.457 26.9549 188.133 27.0482 190.499L27.0447 190.472C27.4818 192.302 27.8777 193.961 28.2134 195.366L28.1641 195.299C29.5989 196.169 30.7658 196.876 31.6081 197.387C31.9884 197.625 32.2945 197.817 32.5321 197.965C32.7391 198.101 32.8463 198.176 32.8411 198.185Z" fill="#FF9A6C"/>
<path d="M162.368 100.969C157.374 81.9373 152.764 59.7906 124.938 61.7812C124.938 61.7812 107.789 65.0809 99.6464 77.7363C94.8563 85.1808 90.7063 117.271 89.8808 142.617C89.8808 142.621 89.8808 142.625 89.8808 142.629C89.8472 143.661 90.2767 150.855 90.2477 151.865L163.905 157.996H177.174C177.174 157.996 176.342 144.55 172.343 131.508C168.452 118.822 164.136 107.706 162.368 100.969Z" fill="#222222"/>
<path d="M121.236 69.0326L122.977 67.3735L141.789 74.9554C144.511 75.1061 146.665 77.3142 146.748 80.0394L146.583 141.335C146.607 145.491 145.774 149.091 143.264 152.404L140.622 155.892C134.598 163.846 122.205 163.191 117.436 154.428C117.102 153.816 116.871 153.278 116.771 152.843C116.67 152.297 116.521 151.937 116.491 151.472C115.931 146.541 115.899 142.265 115.899 142.265C115.564 136.85 115.453 134.629 115.452 134.679C115.452 134.679 103.93 133.355 100.815 118.564C99.2661 111.209 99.5583 101.089 99.9937 91.1296C100.597 77.3461 110.157 69.0193 121.236 69.0326Z" fill="#FFBF9D"/>
<path d="M126.078 100.962C126.093 101.974 126.962 102.795 128.019 102.799C129.073 102.803 129.918 101.988 129.903 100.976C129.888 99.9648 129.019 99.1422 127.965 99.1387C126.908 99.1352 126.063 99.9514 126.078 100.962Z" fill="#263238"/>
<path d="M106.436 101.476C106.451 102.487 107.32 103.309 108.376 103.313C109.43 103.317 110.276 102.502 110.261 101.49C110.246 100.478 109.377 99.6558 108.322 99.6524C107.266 99.6477 106.421 100.465 106.436 101.476Z" fill="#263238"/>
<path d="M101.961 95.0686C102.21 95.3063 103.605 94.162 105.663 94.0634C107.717 93.9365 109.281 94.9196 109.491 94.6559C109.595 94.5388 109.331 94.1011 108.65 93.6548C107.979 93.2107 106.851 92.8026 105.57 92.8722C104.289 92.9435 103.234 93.4698 102.639 93.9834C102.031 94.5011 101.838 94.9626 101.961 95.0686Z" fill="#263238"/>
<path d="M122.369 94.3678C122.642 94.5782 123.914 93.2965 125.949 92.9881C127.979 92.6501 129.635 93.4675 129.817 93.1841C129.908 93.0565 129.604 92.6478 128.877 92.2751C128.164 91.9018 127.001 91.6113 125.733 91.8125C124.466 92.0154 123.471 92.6467 122.932 93.2194C122.382 93.7956 122.237 94.275 122.369 94.3678Z" fill="#263238"/>
<path d="M115.653 110.26C115.657 110.143 114.367 109.985 112.281 109.824C111.753 109.796 111.25 109.717 111.144 109.363C111.001 108.989 111.192 108.412 111.416 107.788C111.846 106.492 112.297 105.133 112.77 103.71C114.642 97.9057 115.969 93.1429 115.735 93.0698C115.5 92.9962 113.792 97.6413 111.92 103.446C111.472 104.877 111.042 106.24 110.634 107.545C110.464 108.152 110.156 108.846 110.464 109.621C110.625 110.006 111.025 110.272 111.367 110.346C111.709 110.432 112.005 110.423 112.265 110.425C114.357 110.432 115.651 110.377 115.653 110.26Z" fill="#263238"/>
<path d="M115.451 134.679C115.451 134.679 125.514 134.823 135.152 128.352C135.152 128.352 130.649 138.925 115.656 138.278L115.451 134.679Z" fill="#FF9A6C"/>
<path d="M122.083 114.443C121.504 113.743 120.58 113.358 119.682 113.307C118.388 113.232 117.478 113.396 116.787 114.411C116.463 114.972 116.49 115.836 116.642 116.073C116.792 116.311 116.68 116.316 116.911 116.483C117.746 117.087 118.71 117.475 119.705 117.705C120.701 117.935 121.852 117.697 122.369 116.888C122.827 116.17 122.662 115.143 122.083 114.443Z" fill="#FF9A6C"/>
<path d="M121.875 84.9158C122.139 85.4422 123.912 84.9013 126.087 84.8631C128.261 84.7755 130.086 85.2115 130.293 84.6712C130.382 84.4144 130.003 83.9396 129.226 83.5101C128.455 83.0805 127.278 82.7402 125.974 82.7767C124.671 82.8156 123.534 83.2231 122.813 83.6961C122.085 84.1698 121.758 84.6648 121.875 84.9158Z" fill="#263238"/>
<path d="M102.257 91.3452C102.642 91.7939 104.036 91.2385 105.739 91.1301C107.438 90.962 108.902 91.2861 109.21 90.7812C109.344 90.5365 109.093 90.0797 108.44 89.6693C107.797 89.2595 106.739 88.9516 105.57 89.0455C104.4 89.1418 103.407 89.616 102.838 90.1244C102.259 90.6339 102.086 91.1255 102.257 91.3452Z" fill="#263238"/>
<path d="M146.372 106.198C146.372 106.198 138.454 108.112 127.215 83.9112C123.39 75.6731 115.96 67.3736 115.96 67.3736L122.931 66.3678C122.931 66.3678 143.712 72.2222 144.061 72.4842C144.411 72.7462 149.304 83.2318 149.304 83.2318L146.372 106.198Z" fill="#222222"/>
<path d="M143.775 105.229C143.722 104.119 144.874 101.437 145.962 101.211C148.867 100.607 154.157 100.578 154.579 108.012C155.156 118.174 144.834 116.656 144.8 116.366C144.773 116.14 143.958 109.064 143.775 105.229Z" fill="#FFBF9D"/>
<path d="M147.686 112.34C147.729 112.305 147.87 112.454 148.176 112.574C148.476 112.691 148.983 112.755 149.501 112.526C150.552 112.072 151.36 110.316 151.305 108.481C151.278 107.555 151.035 106.685 150.665 105.975C150.313 105.249 149.803 104.757 149.257 104.692C148.712 104.598 148.348 104.943 148.239 105.235C148.119 105.528 148.195 105.727 148.143 105.747C148.116 105.774 147.915 105.589 147.973 105.165C148.003 104.961 148.108 104.714 148.337 104.505C148.569 104.293 148.922 104.172 149.301 104.191C150.088 104.201 150.834 104.882 151.239 105.662C151.688 106.443 151.984 107.419 152.014 108.459C152.065 110.511 151.126 112.486 149.681 112.994C148.977 113.221 148.368 113.039 148.046 112.817C147.718 112.585 147.652 112.361 147.686 112.34Z" fill="#FF9A6C"/>
<path d="M123.393 114.854C123.363 115.115 121.626 115.077 119.565 115.476C117.499 115.854 115.895 116.52 115.772 116.289C115.646 116.088 117.169 114.998 119.397 114.586C121.622 114.16 123.438 114.621 123.393 114.854Z" fill="#263238"/>
<path d="M202.812 193.609C202.812 193.609 211.323 186.318 213.789 186.124C216.255 185.929 222.743 187.135 222.743 187.135C222.743 187.135 226.84 187.171 228.877 186.916C231.943 186.533 234.041 186.852 235.271 187.227C235.886 187.415 236.654 188.943 234.846 189.983C234.081 190.424 226.639 190.927 226.639 190.927L245.26 196.246L242.841 198.241C242.519 198.506 242.119 198.658 241.703 198.673L214.892 199.624L213.665 202.621L202.812 193.609Z" fill="#FFBF9D"/>
<path d="M223.135 193.614H231.831C231.831 193.614 234.882 189.564 235.985 187.876C236.95 186.401 238.113 185.967 239.127 186.316C239.391 186.406 239.606 186.603 239.744 186.845C239.949 187.204 239.955 187.643 239.76 188.007L235.937 195.145L237.941 194.468C237.941 194.468 241.956 190.537 242.735 189.629C243.513 188.72 246.369 184.891 248.901 187.681L245.396 191.575L248.901 189.109C248.901 189.109 251.691 186.708 253.184 189.564L242.763 198.351" fill="#FFBF9D"/>
<path d="M214.082 190.012C214.079 190.003 214.198 189.962 214.429 189.892C214.662 189.83 215 189.696 215.464 189.654C216.375 189.5 217.766 189.525 219.37 190.06C220.168 190.331 221.017 190.711 221.878 191.215C222.307 191.469 222.745 191.745 223.181 192.051C223.398 192.205 223.618 192.362 223.841 192.521C224.05 192.671 224.311 192.871 224.484 192.96C226.684 193.132 229.203 193.279 231.841 193.466L231.719 193.517C232.531 192.551 233.336 191.499 234.112 190.398C234.415 189.971 234.704 189.539 234.987 189.109C235.266 188.681 235.532 188.236 235.842 187.825C236.148 187.413 236.478 187.02 236.865 186.687C237.056 186.517 237.269 186.371 237.498 186.25C237.737 186.139 237.966 186.03 238.296 186.074L238.245 186.07C238.705 186.024 239.228 186.073 239.617 186.4C240.004 186.736 240.111 187.244 240.072 187.7L240.07 187.724L240.056 187.749C238.4 190.72 236.959 193.305 235.84 195.311L235.849 195.29C235.596 196.146 234.908 196.648 234.315 196.912C233.7 197.18 233.129 197.234 232.677 197.259C232.222 197.279 231.873 197.262 231.638 197.25C231.403 197.237 231.281 197.224 231.282 197.214C231.282 197.205 231.405 197.2 231.639 197.196C231.874 197.19 232.223 197.191 232.671 197.155C233.115 197.114 233.674 197.043 234.253 196.775C234.816 196.51 235.45 196.017 235.664 195.239L235.667 195.228L235.672 195.218C236.771 193.201 238.186 190.602 239.813 187.615L239.796 187.664C239.825 187.292 239.726 186.856 239.431 186.616C239.139 186.37 238.7 186.314 238.275 186.359L238.262 186.36L238.223 186.355C238.071 186.335 237.823 186.408 237.632 186.512C237.431 186.619 237.236 186.752 237.058 186.912C236.697 187.225 236.378 187.603 236.082 188.003C235.508 188.811 234.976 189.722 234.358 190.573C233.576 191.682 232.769 192.735 231.944 193.712L231.896 193.769L231.821 193.764C229.165 193.569 226.694 193.417 224.423 193.216C224.092 193.056 223.927 192.889 223.69 192.727C223.47 192.567 223.253 192.409 223.039 192.254C222.609 191.947 222.181 191.671 221.761 191.415C220.917 190.909 220.087 190.525 219.307 190.247C217.74 189.696 216.38 189.641 215.477 189.761C215.018 189.786 214.68 189.901 214.444 189.946C214.21 189.997 214.085 190.02 214.082 190.012Z" fill="#FF9A6C"/>
<path d="M248.901 187.681C248.916 187.695 248.794 187.865 248.561 188.16C248.327 188.455 247.982 188.874 247.551 189.389C246.688 190.418 245.481 191.825 244.134 193.367C242.764 194.885 241.625 196.368 240.624 197.285C240.13 197.748 239.694 198.085 239.369 198.282C239.042 198.479 238.84 198.545 238.833 198.53C238.822 198.507 239.004 198.407 239.302 198.185C239.6 197.963 240.007 197.608 240.474 197.132C241.422 196.191 242.524 194.701 243.901 193.175C245.25 191.63 246.484 190.242 247.389 189.248C247.841 188.751 248.212 188.352 248.472 188.081C248.734 187.811 248.885 187.667 248.901 187.681Z" fill="#FF9A6C"/>
<path d="M244.13 188.089C244.16 188.118 243.755 188.59 243.074 189.331C242.394 190.071 241.439 191.079 240.372 192.18C239.496 193.082 238.681 193.907 238.028 194.552L238.005 194.574L237.98 194.582C236.688 194.989 235.843 195.207 235.826 195.139C235.824 195.122 236.023 195.045 236.384 194.909C236.826 194.747 237.33 194.563 237.903 194.354L237.856 194.384C238.481 193.713 239.28 192.873 240.155 191.97C241.223 190.87 242.202 189.885 242.922 189.182C243.641 188.48 244.1 188.06 244.13 188.089Z" fill="#FF9A6C"/>
<path d="M173.959 150.35C173.959 150.35 186.458 153.571 187.684 170.559C188.383 180.237 183.232 211.327 183.232 211.327L201.689 192.37L218.139 203.816C218.139 203.816 195.76 231.178 190.596 235.291C185.432 239.404 177.207 246.022 174.529 245.485C171.852 244.948 171.852 232.608 171.852 232.608V164.472L173.959 150.35Z" fill="#C8131B"/>
<path d="M84.1077 152.43C84.1077 152.43 72.9873 156.086 73.4412 177.806C73.8952 199.526 73.5386 206.839 73.5386 206.839L56.8741 189.204L43.0303 204.472C43.0303 204.472 58.5175 227.482 69.3561 238.665C79.5687 249.202 88.6462 240.051 91.5968 232.643C93.9875 226.641 95.9086 203.827 95.9086 203.827L84.1077 152.43Z" fill="#C8131B"/>
<g opacity="0.3">
<path d="M174.931 189.481C175.935 183.126 176.202 176.199 173.3 170.365C166.174 187.98 166.494 208.203 169.045 226.865L174.693 243.007C178.251 232.19 174.868 220.667 174.946 209.36C174.991 202.937 173.928 195.837 174.931 189.481Z" fill="#610206"/>
</g>
<path d="M81.792 166.261C81.792 166.261 89.226 216.256 90.6649 220.634C92.1037 225.012 92.1037 237.914 92.1037 237.914C92.1037 237.914 84.3015 252.438 83.8221 262.535L177.775 262.728L171.67 221.243C171.46 219.695 171.446 214.927 171.531 213.367C171.926 206.061 172.49 190.388 174.584 180.756C177.019 169.556 173.741 150.39 173.741 150.39L145.677 143.478C139.035 153.022 122.462 153.151 115.926 143.478L84.2534 152.431L81.792 166.261Z" fill="#C8131B"/>
<path d="M173.511 219.257C173.495 219.245 173.596 219.086 173.792 218.812C173.987 218.536 174.282 218.147 174.655 217.673C175.409 216.733 176.478 215.438 177.879 214.22C179.281 213.001 180.758 212.166 181.858 211.666C182.411 211.419 182.864 211.235 183.185 211.129C183.505 211.018 183.685 210.967 183.692 210.986C183.758 211.105 180.847 212.038 178.077 214.448C176.699 215.645 175.612 216.906 174.819 217.808C174.033 218.719 173.546 219.285 173.511 219.257Z" fill="#263238"/>
<path d="M86.5127 218.2C86.4559 218.216 86.2374 217.183 85.5278 215.656C84.8293 214.136 83.5517 212.139 81.5958 210.48C79.6393 208.819 77.4596 207.886 75.8463 207.444C74.2249 206.993 73.1704 206.946 73.1768 206.887C73.1779 206.869 73.4411 206.865 73.9147 206.902C74.3884 206.939 75.0724 207.035 75.9008 207.237C77.5506 207.632 79.7929 208.553 81.7911 210.249C83.7899 211.943 85.0647 214.005 85.7226 215.568C86.0571 216.352 86.2641 217.011 86.3777 217.473C86.4919 217.935 86.5307 218.195 86.5127 218.2Z" fill="#263238"/>
<path d="M87.1139 191.108C87.1023 191.125 86.9515 191.042 86.6884 190.877C86.424 190.714 86.0547 190.457 85.6095 190.125C84.7191 189.461 83.5493 188.457 82.3824 187.225C81.2166 185.991 80.2636 184.787 79.5998 183.9C78.9378 183.011 78.5598 182.439 78.5917 182.415C78.6265 182.389 79.0647 182.915 79.7679 183.768C80.4728 184.62 81.4461 185.795 82.6015 187.018C83.758 188.238 84.8919 189.255 85.7417 189.958C86.5921 190.66 87.1411 191.07 87.1139 191.108Z" fill="#263238"/>
<path d="M152.699 218.169C152.704 218.172 152.677 218.211 152.623 218.284C152.556 218.37 152.475 218.475 152.375 218.604C152.149 218.877 151.84 219.303 151.385 219.802C150.507 220.829 149.145 222.239 147.318 223.823C145.494 225.41 143.172 227.125 140.461 228.817C137.752 230.511 134.649 232.166 131.329 233.76C128.004 235.348 124.79 236.754 121.883 238.062C118.973 239.366 116.369 240.573 114.216 241.655C112.062 242.735 110.349 243.667 109.182 244.34C108.593 244.667 108.148 244.944 107.838 245.118C107.696 245.197 107.58 245.262 107.485 245.316C107.405 245.359 107.362 245.379 107.36 245.375C107.357 245.37 107.394 245.342 107.469 245.29C107.56 245.23 107.67 245.156 107.805 245.066C108.106 244.876 108.54 244.583 109.121 244.24C110.273 243.534 111.973 242.571 114.119 241.465C116.264 240.357 118.863 239.127 121.768 237.808C124.671 236.487 127.879 235.072 131.198 233.487C134.511 231.897 137.608 230.255 140.314 228.58C143.022 226.908 145.345 225.22 147.178 223.66C149.015 222.105 150.395 220.723 151.297 219.724C151.764 219.238 152.086 218.825 152.327 218.565C152.436 218.444 152.525 218.346 152.598 218.264C152.661 218.198 152.695 218.166 152.699 218.169Z" fill="#610206"/>
<path d="M84.0408 261.749C84.0367 261.749 84.0361 261.708 84.0385 261.626C84.0425 261.532 84.0477 261.413 84.0547 261.263C84.0756 260.926 84.1051 260.455 84.1428 259.85C84.3098 258.626 84.5689 256.827 85.2037 254.625C86.4176 250.21 88.8007 244.134 92.436 237.381L92.4186 237.457C92.0453 232.017 91.4818 225.942 90.8308 219.553C89.592 207.487 88.2911 196.584 87.3422 188.693C86.8645 184.76 86.4778 181.572 86.2077 179.35C86.0778 178.26 85.9764 177.407 85.9057 176.809C85.8755 176.53 85.8518 176.311 85.8338 176.147C85.8193 175.998 85.8141 175.921 85.8193 175.92C85.8245 175.92 85.8396 175.995 85.8645 176.143C85.8894 176.306 85.9231 176.523 85.966 176.801C86.0506 177.397 86.1706 178.247 86.3242 179.335C86.617 181.555 87.0361 184.739 87.5538 188.667C88.5566 196.552 89.8911 207.453 91.1305 219.522C91.7815 225.914 92.3357 231.992 92.6928 237.439L92.6957 237.479L92.676 237.516C89.0326 244.234 86.617 250.286 85.3631 254.67C84.7074 256.858 84.4246 258.644 84.2304 259.861C84.1741 260.462 84.1306 260.931 84.0993 261.266C84.0837 261.415 84.0709 261.534 84.0611 261.628C84.0512 261.708 84.0443 261.749 84.0408 261.749Z" fill="#263238"/>
<path d="M175.743 167.43C175.748 167.43 175.751 167.514 175.754 167.678C175.754 167.856 175.755 168.097 175.757 168.405C175.749 169.045 175.768 169.989 175.707 171.202C175.64 173.631 175.39 177.14 174.96 181.462C174.534 185.785 173.907 190.917 173.273 196.621C172.641 202.324 172.008 208.606 171.808 215.221C171.594 221.84 172.242 228.135 173.092 233.805C173.927 239.481 174.911 244.558 175.673 248.833C176.45 253.104 177.022 256.574 177.344 258.981C177.519 260.183 177.617 261.122 177.686 261.757C177.718 262.064 177.743 262.304 177.761 262.48C177.776 262.643 177.781 262.727 177.776 262.728C177.771 262.729 177.755 262.646 177.73 262.484C177.705 262.308 177.67 262.069 177.626 261.764C177.537 261.131 177.42 260.197 177.228 258.998C176.87 256.598 176.267 253.137 175.463 248.871C174.674 244.603 173.667 239.529 172.816 233.846C171.951 228.173 171.292 221.853 171.507 215.213C171.707 208.582 172.35 202.294 172.997 196.59C173.646 190.885 174.296 185.757 174.748 181.44C175.206 177.124 175.488 173.623 175.591 171.198C175.669 169.986 175.67 169.043 175.697 168.405C175.708 168.096 175.718 167.856 175.724 167.678C175.731 167.514 175.737 167.43 175.743 167.43Z" fill="#263238"/>
<g opacity="0.3">
<path d="M86.0936 178.14C84.4154 193.85 86.424 210.597 91.5405 225.545L86.0936 178.14Z" fill="#610206"/>
</g>
<g opacity="0.3">
<path d="M144.208 233.529C137.089 240.068 129.946 245.656 121.189 248.769C127.791 249.33 134.451 246.805 139.555 242.58C144.659 238.356 148.29 233.902 150.628 227.704L144.208 233.529Z" fill="#610206"/>
</g>
<path d="M136.1 240.732C136.044 240.67 140.473 236.608 145.992 231.66C151.511 226.71 156.03 222.748 156.085 222.811C156.141 222.873 151.713 226.934 146.193 231.884C140.675 236.833 136.156 240.794 136.1 240.732Z" fill="#610206"/>
<path d="M151.847 118.046C151.847 120.051 150.221 121.677 148.215 121.677C146.209 121.677 144.583 120.051 144.583 118.046C144.583 116.04 146.209 114.414 148.215 114.414C150.221 114.414 151.847 116.04 151.847 118.046Z" fill="#7A7A7A"/>
<path d="M173.474 165.783C172.404 156.904 171.332 148.025 170.262 139.145L147.278 132.208C146.834 148.068 144.057 165.88 140.067 181.237C148.537 183.984 157.587 184.926 166.441 183.983C166.833 179.693 167.225 175.403 167.616 171.113C168.19 174.347 168.764 177.58 169.339 180.813C171.751 179.462 173.173 176.77 173.655 174.046C174.136 171.323 173.805 168.529 173.474 165.783Z" fill="#222222"/>
<path d="M155.485 184.055C155.485 184.055 155.503 183.94 155.552 183.72C155.605 183.489 155.681 183.165 155.778 182.743C155.983 181.874 156.281 180.612 156.664 178.992C157.415 175.731 158.529 171.015 159.613 165.13C160.703 159.252 161.766 152.189 162.115 144.289C162.462 136.403 161.98 127.641 159.796 118.778C157.646 109.916 153.883 101.901 149.14 95.5897C148.539 94.8071 147.969 94.0152 147.326 93.2987C146.695 92.5735 146.106 91.828 145.449 91.1614C145.128 90.8211 144.81 90.4825 144.494 90.1475C144.167 89.8228 143.842 89.5005 143.52 89.1811C142.883 88.5336 142.219 87.9353 141.582 87.3301C139.002 84.9424 136.481 82.8439 134.228 80.8735C131.971 78.9065 129.958 77.0886 128.293 75.3866C127.869 74.9692 127.486 74.5397 127.103 74.1403C126.718 73.7426 126.363 73.3467 126.034 72.9565C125.702 72.5704 125.383 72.2006 125.079 71.8481C124.793 71.4818 124.52 71.1334 124.262 70.8029C123.731 70.1543 123.328 69.5264 122.955 69.0001C122.577 68.4772 122.297 68.0088 122.073 67.6279C121.852 67.2558 121.682 66.9694 121.561 66.7653C121.447 66.57 121.396 66.4668 121.396 66.4668C121.396 66.4668 121.465 66.5601 121.587 66.7503C121.714 66.9503 121.893 67.2308 122.125 67.5961C122.356 67.9705 122.644 68.4331 123.029 68.9491C123.408 69.4691 123.817 70.0893 124.354 70.7311C124.615 71.0574 124.891 71.4024 125.18 71.7647C125.486 72.1136 125.806 72.4794 126.142 72.8615C126.473 73.2475 126.83 73.6394 127.217 74.033C127.602 74.4284 127.986 74.8533 128.412 75.2672C130.085 76.9535 132.104 78.7564 134.367 80.7117C136.628 82.6711 139.157 84.7598 141.752 87.1458C142.393 87.7504 143.061 88.3481 143.701 88.9962C144.025 89.3162 144.352 89.6385 144.681 89.9637C145 90.2999 145.32 90.6385 145.643 90.9799C146.305 91.6483 146.899 92.3961 147.535 93.1236C148.182 93.8425 148.757 94.6367 149.362 95.4227C154.143 101.758 157.931 109.809 160.09 118.706C162.282 127.603 162.756 136.397 162.393 144.301C162.028 152.22 160.941 159.29 159.823 165.17C158.711 171.055 157.565 175.765 156.779 179.019C156.38 180.645 156.061 181.905 155.838 182.758C155.728 183.176 155.644 183.498 155.583 183.728C155.523 183.945 155.485 184.055 155.485 184.055Z" fill="#545454"/>
</svg>
