<svg width="329" height="260" viewBox="0 0 329 260" fill="none" xmlns="http://www.w3.org/2000/svg">
<path d="M21.1685 160.014H96.6152L96.6152 100.798H21.1685L21.1685 160.014Z" fill="#EDEDED"/>
<path d="M40.0751 159.6C40.1765 159.6 40.2634 146.398 40.2634 130.121C40.2634 113.845 40.1765 100.643 40.0751 100.643C39.9736 100.643 39.8867 113.838 39.8867 130.121C39.8867 146.405 39.9736 159.6 40.0751 159.6Z" fill="#EDEDED"/>
<path d="M27.5728 153.188H33.3535V146.531H27.5728V153.188Z" fill="#EDEDED"/>
<path d="M73.601 100.949H65.0312V113.584H73.601V100.949Z" fill="#EDEDED"/>
<path d="M73.601 147.205H65.0312V159.84H73.601V147.205Z" fill="#EDEDED"/>
<path d="M125.375 160.846H0.821289V258.6H125.375V160.846Z" fill="#EDEDED"/>
<path d="M94.1672 257.915C94.0296 257.915 93.9209 236.124 93.9209 209.255C93.9209 182.386 94.0296 160.588 94.1672 160.588C94.3048 160.588 94.4135 182.371 94.4135 209.255C94.4135 236.139 94.3048 257.915 94.1672 257.915Z" fill="#C6C6C6"/>
<path d="M114.806 236.357H105.259V247.341H114.806V236.357Z" fill="#EDEDED"/>
<path d="M52.964 161.098H38.8164V181.959H52.964V161.098Z" fill="#C6C6C6"/>
<path d="M52.964 237.451H38.8164V258.313H52.964V237.451Z" fill="#C6C6C6"/>
<path d="M79.3232 0.191661C79.3232 0.294862 78.5119 0.383321 77.5122 0.383321C76.5125 0.383321 75.7012 0.294862 75.7012 0.191661C75.7012 0.0884587 76.5125 0 77.5122 0C78.5119 0 79.3232 0.0884587 79.3232 0.191661Z" fill="#C6C6C6"/>
<path d="M86.5683 0.191661C86.5683 0.294862 85.757 0.383321 84.7573 0.383321C83.7576 0.383321 82.9463 0.294862 82.9463 0.191661C82.9463 0.0884587 83.7576 0 84.7573 0C85.757 0 86.5683 0.0884587 86.5683 0.191661Z" fill="#C6C6C6"/>
<path d="M93.8115 0.191661C93.8115 0.294862 93.0001 0.383321 92.0005 0.383321C91.0008 0.383321 90.1895 0.294862 90.1895 0.191661C90.1895 0.0884587 91.0008 0 92.0005 0C93.0001 0 93.8115 0.0884587 93.8115 0.191661Z" fill="#C6C6C6"/>
<path d="M101.056 0.191661C101.056 0.294862 100.244 0.383321 99.2446 0.383321C98.2449 0.383321 97.4336 0.294862 97.4336 0.191661C97.4336 0.0884587 98.2449 0 99.2446 0C100.244 0 101.056 0.0884587 101.056 0.191661Z" fill="#C6C6C6"/>
<path d="M108.299 0.191661C108.299 0.294862 107.487 0.383321 106.488 0.383321C105.488 0.383321 104.677 0.294862 104.677 0.191661C104.677 0.0884587 105.488 0 106.488 0C107.487 0 108.299 0.0884587 108.299 0.191661Z" fill="#C6C6C6"/>
<path d="M115.544 0.191661C115.544 0.294862 114.733 0.383321 113.733 0.383321C112.733 0.383321 111.922 0.294862 111.922 0.191661C111.922 0.0884587 112.733 0 113.733 0C114.733 0 115.544 0.0884587 115.544 0.191661Z" fill="#C6C6C6"/>
<path d="M122.788 0.191661C122.788 0.294862 121.977 0.383321 120.977 0.383321C119.977 0.383321 119.166 0.294862 119.166 0.191661C119.166 0.0884587 119.977 0 120.977 0C121.977 0 122.788 0.0884587 122.788 0.191661Z" fill="#C6C6C6"/>
<path d="M130.032 0.191661C130.032 0.294862 129.221 0.383321 128.221 0.383321C127.221 0.383321 126.41 0.294862 126.41 0.191661C126.41 0.0884587 127.221 0 128.221 0C129.221 0 130.032 0.0884587 130.032 0.191661Z" fill="#C6C6C6"/>
<path d="M137.276 0.191661C137.276 0.294862 136.465 0.383321 135.465 0.383321C134.466 0.383321 133.654 0.294862 133.654 0.191661C133.654 0.0884587 134.466 0 135.465 0C136.465 0 137.276 0.0884587 137.276 0.191661Z" fill="#C6C6C6"/>
<path d="M144.519 0.191661C144.519 0.294862 143.708 0.383321 142.708 0.383321C141.709 0.383321 140.897 0.294862 140.897 0.191661C140.897 0.0884587 141.709 0 142.708 0C143.708 0 144.519 0.0884587 144.519 0.191661Z" fill="#C6C6C6"/>
<path d="M151.764 0.191661C151.764 0.294862 150.952 0.383321 149.953 0.383321C148.953 0.383321 148.142 0.294862 148.142 0.191661C148.142 0.0884587 148.953 0 149.953 0C150.952 0 151.764 0.0884587 151.764 0.191661Z" fill="#C6C6C6"/>
<path d="M159.008 0.191661C159.008 0.294862 158.196 0.383321 157.197 0.383321C156.197 0.383321 155.386 0.294862 155.386 0.191661C155.386 0.0884587 156.197 0 157.197 0C158.196 0 159.008 0.0884587 159.008 0.191661Z" fill="#C6C6C6"/>
<path d="M166.252 0.191661C166.252 0.294862 165.441 0.383321 164.441 0.383321C163.441 0.383321 162.63 0.294862 162.63 0.191661C162.63 0.0884587 163.441 0 164.441 0C165.441 0 166.252 0.0884587 166.252 0.191661Z" fill="#C6C6C6"/>
<path d="M173.495 0.191661C173.495 0.294862 172.684 0.383321 171.684 0.383321C170.684 0.383321 169.873 0.294862 169.873 0.191661C169.873 0.0884587 170.684 0 171.684 0C172.684 0 173.495 0.0884587 173.495 0.191661Z" fill="#C6C6C6"/>
<path d="M180.74 0.191661C180.74 0.294862 179.929 0.383321 178.929 0.383321C177.929 0.383321 177.118 0.294862 177.118 0.191661C177.118 0.0884587 177.929 0 178.929 0C179.929 0 180.74 0.0884587 180.74 0.191661Z" fill="#C6C6C6"/>
<path d="M187.983 0.191661C187.983 0.294862 187.172 0.383321 186.172 0.383321C185.173 0.383321 184.361 0.294862 184.361 0.191661C184.361 0.0884587 185.173 0 186.172 0C187.172 0 187.983 0.0884587 187.983 0.191661Z" fill="#C6C6C6"/>
<path d="M195.228 0.191661C195.228 0.294862 194.417 0.383321 193.417 0.383321C192.418 0.383321 191.606 0.294862 191.606 0.191661C191.606 0.0884587 192.418 0 193.417 0C194.417 0 195.228 0.0884587 195.228 0.191661Z" fill="#C6C6C6"/>
<path d="M202.473 0.191661C202.473 0.294862 201.661 0.383321 200.662 0.383321C199.662 0.383321 198.851 0.294862 198.851 0.191661C198.851 0.0884587 199.662 0 200.662 0C201.661 0 202.473 0.0884587 202.473 0.191661Z" fill="#C6C6C6"/>
<path d="M209.717 0.191661C209.717 0.294862 208.905 0.383321 207.906 0.383321C206.906 0.383321 206.095 0.294862 206.095 0.191661C206.095 0.0884587 206.906 0 207.906 0C208.905 0 209.717 0.0884587 209.717 0.191661Z" fill="#C6C6C6"/>
<path d="M216.96 0.191661C216.96 0.294862 216.149 0.383321 215.149 0.383321C214.149 0.383321 213.338 0.294862 213.338 0.191661C213.338 0.0884587 214.149 0 215.149 0C216.149 0 216.96 0.0884587 216.96 0.191661Z" fill="#C6C6C6"/>
<path d="M224.204 0.191661C224.204 0.294862 223.393 0.383321 222.393 0.383321C221.393 0.383321 220.582 0.294862 220.582 0.191661C220.582 0.0884587 221.393 0 222.393 0C223.393 0 224.204 0.0884587 224.204 0.191661Z" fill="#C6C6C6"/>
<path d="M231.448 0.191661C231.448 0.294862 230.637 0.383321 229.637 0.383321C228.638 0.383321 227.826 0.294862 227.826 0.191661C227.826 0.0884587 228.638 0 229.637 0C230.637 0 231.448 0.0884587 231.448 0.191661Z" fill="#C6C6C6"/>
<path d="M238.692 0.191661C238.692 0.294862 237.881 0.383321 236.881 0.383321C235.882 0.383321 235.07 0.294862 235.07 0.191661C235.07 0.0884587 235.882 0 236.881 0C237.881 0 238.692 0.0884587 238.692 0.191661Z" fill="#C6C6C6"/>
<path d="M240.547 5.67797C240.445 5.67797 240.358 4.85235 240.358 3.83508C240.358 2.8178 240.445 1.99219 240.547 1.99219C240.648 1.99219 240.735 2.8178 240.735 3.83508C240.735 4.85235 240.648 5.67797 240.547 5.67797Z" fill="#C6C6C6"/>
<path d="M240.547 13.0491C240.445 13.0491 240.358 12.2234 240.358 11.2062C240.358 10.1889 240.445 9.36328 240.547 9.36328C240.648 9.36328 240.735 10.1889 240.735 11.2062C240.735 12.2234 240.648 13.0491 240.547 13.0491Z" fill="#C6C6C6"/>
<path d="M240.547 20.4162C240.445 20.4162 240.358 19.5906 240.358 18.5734C240.358 17.5561 240.445 16.7305 240.547 16.7305C240.648 16.7305 240.735 17.5561 240.735 18.5734C240.735 19.5906 240.648 20.4162 240.547 20.4162Z" fill="#C6C6C6"/>
<path d="M240.547 27.7912C240.445 27.7912 240.358 26.9656 240.358 25.9484C240.358 24.9311 240.445 24.1055 240.547 24.1055C240.648 24.1055 240.735 24.9311 240.735 25.9484C240.735 26.9656 240.648 27.7912 240.547 27.7912Z" fill="#C6C6C6"/>
<path d="M240.547 35.1643C240.445 35.1643 240.358 34.3387 240.358 33.3214C240.358 32.3041 240.445 31.4785 240.547 31.4785C240.648 31.4785 240.735 32.3041 240.735 33.3214C240.735 34.3387 240.648 35.1643 240.547 35.1643Z" fill="#C6C6C6"/>
<path d="M241.96 41.096C241.96 41.1844 241.359 41.2655 240.547 41.2803H240.366V41.096C240.366 40.9559 240.366 40.8232 240.366 40.6905C240.366 39.6733 240.453 38.8477 240.555 38.8477C240.656 38.8477 240.743 39.6733 240.743 40.6905C240.743 40.8232 240.743 40.9559 240.743 41.096L240.562 40.9117C241.373 40.9338 241.974 41.0075 241.974 41.096H241.96Z" fill="#C6C6C6"/>
<path d="M249.204 41.092C249.204 41.1953 248.393 41.2837 247.393 41.2837C246.393 41.2837 245.582 41.1953 245.582 41.092C245.582 40.9888 246.393 40.9004 247.393 40.9004C248.393 40.9004 249.204 40.9888 249.204 41.092Z" fill="#C6C6C6"/>
<path d="M256.448 41.092C256.448 41.1953 255.637 41.2837 254.637 41.2837C253.638 41.2837 252.826 41.1953 252.826 41.092C252.826 40.9888 253.638 40.9004 254.637 40.9004C255.637 40.9004 256.448 40.9888 256.448 41.092Z" fill="#C6C6C6"/>
<path d="M263.692 41.092C263.692 41.1953 262.881 41.2837 261.881 41.2837C260.882 41.2837 260.07 41.1953 260.07 41.092C260.07 40.9888 260.882 40.9004 261.881 40.9004C262.881 40.9004 263.692 40.9888 263.692 41.092Z" fill="#C6C6C6"/>
<path d="M270.935 41.092C270.935 41.1953 270.124 41.2837 269.124 41.2837C268.125 41.2837 267.313 41.1953 267.313 41.092C267.313 40.9888 268.125 40.9004 269.124 40.9004C270.124 40.9004 270.935 40.9888 270.935 41.092Z" fill="#C6C6C6"/>
<path d="M278.18 41.092C278.18 41.1953 277.368 41.2837 276.369 41.2837C275.369 41.2837 274.558 41.1953 274.558 41.092C274.558 40.9888 275.369 40.9004 276.369 40.9004C277.368 40.9004 278.18 40.9888 278.18 41.092Z" fill="#C6C6C6"/>
<path d="M285.424 41.092C285.424 41.1953 284.612 41.2837 283.613 41.2837C282.613 41.2837 281.802 41.1953 281.802 41.092C281.802 40.9888 282.613 40.9004 283.613 40.9004C284.612 40.9004 285.424 40.9888 285.424 41.092Z" fill="#C6C6C6"/>
<path d="M292.668 41.092C292.668 41.1953 291.857 41.2837 290.857 41.2837C289.857 41.2837 289.046 41.1953 289.046 41.092C289.046 40.9888 289.857 40.9004 290.857 40.9004C291.857 40.9004 292.668 40.9888 292.668 41.092Z" fill="#C6C6C6"/>
<path d="M299.912 41.092C299.912 41.1953 299.101 41.2837 298.101 41.2837C297.101 41.2837 296.29 41.1953 296.29 41.092C296.29 40.9888 297.101 40.9004 298.101 40.9004C299.101 40.9004 299.912 40.9888 299.912 41.092Z" fill="#C6C6C6"/>
<path d="M302.73 45.5979C302.629 45.5979 302.542 44.7723 302.542 43.755C302.542 42.7377 302.629 41.9121 302.73 41.9121C302.832 41.9121 302.919 42.7377 302.919 43.755C302.919 44.7723 302.832 45.5979 302.73 45.5979Z" fill="#C6C6C6"/>
<path d="M302.73 52.9748C302.629 52.9748 302.542 52.1492 302.542 51.132C302.542 50.1147 302.629 49.2891 302.73 49.2891C302.832 49.2891 302.919 50.1147 302.919 51.132C302.919 52.1492 302.832 52.9748 302.73 52.9748Z" fill="#C6C6C6"/>
<path d="M302.73 60.344C302.629 60.344 302.542 59.5184 302.542 58.5011C302.542 57.4838 302.629 56.6582 302.73 56.6582C302.832 56.6582 302.919 57.4838 302.919 58.5011C302.919 59.5184 302.832 60.344 302.73 60.344Z" fill="#C6C6C6"/>
<path d="M302.73 67.717C302.629 67.717 302.542 66.8914 302.542 65.8741C302.542 64.8569 302.629 64.0312 302.73 64.0312C302.832 64.0312 302.919 64.8569 302.919 65.8741C302.919 66.8914 302.832 67.717 302.73 67.717Z" fill="#C6C6C6"/>
<path d="M302.73 75.0881C302.629 75.0881 302.542 74.2625 302.542 73.2452C302.542 72.228 302.629 71.4023 302.73 71.4023C302.832 71.4023 302.919 72.228 302.919 73.2452C302.919 74.2625 302.832 75.0881 302.73 75.0881Z" fill="#C6C6C6"/>
<path d="M302.73 82.4592C302.629 82.4592 302.542 81.6336 302.542 80.6163C302.542 79.5991 302.629 78.7734 302.73 78.7734C302.832 78.7734 302.919 79.5991 302.919 80.6163C302.919 81.6336 302.832 82.4592 302.73 82.4592Z" fill="#C6C6C6"/>
<path d="M302.73 89.8303C302.629 89.8303 302.542 89.0047 302.542 87.9874C302.542 86.9701 302.629 86.1445 302.73 86.1445C302.832 86.1445 302.919 86.9701 302.919 87.9874C302.919 89.0047 302.832 89.8303 302.73 89.8303Z" fill="#C6C6C6"/>
<path d="M302.73 97.2014C302.629 97.2014 302.542 96.3758 302.542 95.3585C302.542 94.3412 302.629 93.5156 302.73 93.5156C302.832 93.5156 302.919 94.3412 302.919 95.3585C302.919 96.3758 302.832 97.2014 302.73 97.2014Z" fill="#C6C6C6"/>
<path d="M302.73 104.572C302.629 104.572 302.542 103.747 302.542 102.73C302.542 101.712 302.629 100.887 302.73 100.887C302.832 100.887 302.919 101.712 302.919 102.73C302.919 103.747 302.832 104.572 302.73 104.572Z" fill="#C6C6C6"/>
<path d="M302.73 111.946C302.629 111.946 302.542 111.12 302.542 110.103C302.542 109.085 302.629 108.26 302.73 108.26C302.832 108.26 302.919 109.085 302.919 110.103C302.919 111.12 302.832 111.946 302.73 111.946Z" fill="#C6C6C6"/>
<path d="M302.73 119.315C302.629 119.315 302.542 118.489 302.542 117.472C302.542 116.455 302.629 115.629 302.73 115.629C302.832 115.629 302.919 116.455 302.919 117.472C302.919 118.489 302.832 119.315 302.73 119.315Z" fill="#EDEDED"/>
<path d="M128.185 31.7718C128.185 31.7718 122.564 28.602 117.051 42.1362C111.538 55.6704 109.647 63.3663 109.647 63.3663C109.647 63.3663 108.133 66.2264 106.156 64.5973C104.178 62.9608 101.266 58.1103 98.209 59.2677C95.0361 60.4692 94.2538 64.2435 95.2897 69.6026C96.3256 74.9691 98.1728 86.8004 98.3394 87.8767C98.4988 88.9308 98.0279 90.5305 96.4994 89.6385C94.9782 88.7465 85.9376 79.9891 82.1128 84.6037C78.2879 89.2183 83.5905 103.674 84.1411 105.266C84.6916 106.858 84.4308 107.581 83.7064 108.038C82.982 108.502 80.2148 105.266 77.5418 102.885C74.8687 100.504 71.3626 98.219 69.3777 101.064C67.3929 103.917 67.545 115.07 79.3166 132.268L85.2857 139.876L94.8043 138.571C115.015 134.517 122.737 126.599 123.252 123.142C123.766 119.685 119.68 118.852 116.138 118.682C112.588 118.513 108.394 118.881 108.184 118.034C107.974 117.186 108.278 116.486 109.763 115.726C111.248 114.967 124.925 108.311 125.323 102.288C125.722 96.2655 113.24 96.1771 111.538 95.7421C109.836 95.3072 110.589 93.8182 111.422 93.1768C112.27 92.5208 121.68 85.3114 126.084 82.1859C130.488 79.0603 132.502 75.7947 131.039 72.6839C129.634 69.6911 124.222 71.1211 121.687 70.9C119.152 70.6788 120.014 67.5533 120.014 67.5533C120.014 67.5533 123.911 60.6756 129.177 47.0456C134.444 33.4156 128.076 31.7128 128.076 31.7128" fill="#EDEDED"/>
<path d="M85.6123 137.864C89.5168 127.869 95.0296 114.106 101.165 98.9204C107.301 83.7423 112.843 69.9944 116.805 60.0207C118.776 55.0449 120.376 51.0126 121.485 48.2041C122.035 46.8182 122.463 45.742 122.76 44.9901C122.905 44.6362 123.021 44.3561 123.1 44.1571C123.18 43.9728 123.223 43.877 123.223 43.877C123.223 43.877 123.194 43.9802 123.129 44.1718C123.057 44.3782 122.955 44.6583 122.818 45.0195C122.535 45.7714 122.122 46.8624 121.601 48.2557C120.536 51.0642 118.971 55.1112 117.015 60.1091C113.111 70.105 107.598 83.8677 101.462 99.0457C95.3266 114.231 89.7776 127.979 85.8224 137.953" fill="#C6C6C6"/>
<path d="M102.02 66.2261C102.02 66.2261 102.143 66.4473 102.317 66.8601C102.49 67.2803 102.722 67.8847 102.997 68.644C103.548 70.1625 104.265 72.2708 105.004 74.6223C105.721 76.937 106.373 79.0231 106.873 80.6375C107.098 81.3526 107.293 81.957 107.445 82.4583C107.583 82.8858 107.648 83.1291 107.626 83.1365C107.605 83.1438 107.496 82.9153 107.322 82.5025C107.148 82.0823 106.916 81.4705 106.648 80.7112C106.105 79.1927 105.424 77.0697 104.685 74.7182C103.954 72.4109 103.287 70.3321 102.773 68.7177C102.541 68.0027 102.345 67.3982 102.186 66.8969C102.048 66.4694 101.991 66.2261 102.012 66.2188L102.02 66.2261Z" fill="#C6C6C6"/>
<path d="M108.525 83.2448C108.496 83.1563 112.712 81.4682 117.942 79.4779C123.179 77.4802 127.446 75.9396 127.475 76.0206C127.504 76.1091 123.288 77.7972 118.058 79.7875C112.828 81.7852 108.554 83.3258 108.525 83.2448Z" fill="#C6C6C6"/>
<path d="M98.0713 106.119C98.0713 106.119 98.3176 106.06 98.774 106.024C99.2955 105.979 99.933 105.935 100.686 105.876C102.302 105.751 104.533 105.559 106.981 105.272C109.437 104.984 111.647 104.645 113.248 104.387C113.994 104.269 114.624 104.166 115.146 104.085C115.595 104.019 115.841 103.989 115.848 104.011C115.848 104.033 115.609 104.107 115.167 104.21C114.725 104.313 114.081 104.461 113.284 104.616C111.69 104.933 109.473 105.309 107.018 105.596C104.555 105.891 102.316 106.038 100.694 106.105C99.8823 106.134 99.2231 106.156 98.774 106.149C98.3176 106.149 98.0713 106.134 98.0713 106.112V106.119Z" fill="#C6C6C6"/>
<path d="M88.8571 92.0508C88.8571 92.0508 89.0237 92.2203 89.2772 92.5594C89.5308 92.8985 89.8857 93.3998 90.3204 94.019C91.1897 95.2574 92.3777 96.9897 93.6671 98.9063C94.9566 100.823 96.1156 102.577 96.9342 103.853C97.3471 104.487 97.6731 105.01 97.8904 105.371C98.1077 105.732 98.2236 105.939 98.2019 105.954C98.1802 105.968 98.0353 105.784 97.7818 105.445C97.5282 105.106 97.1732 104.605 96.7386 103.985C95.8693 102.747 94.6813 101.015 93.3919 99.098C92.1024 97.1814 90.9434 95.4343 90.1248 94.159C89.7119 93.5251 89.3859 93.0017 89.1686 92.6405C88.9513 92.2793 88.8354 92.0729 88.8571 92.0582V92.0508Z" fill="#C6C6C6"/>
<path d="M77.1006 111.055C77.1006 111.055 77.3034 111.276 77.6294 111.711C77.9843 112.205 78.4335 112.831 78.9768 113.576C80.0996 115.161 81.6353 117.365 83.3159 119.805C84.9966 122.252 86.4961 124.471 87.5754 126.093C88.0825 126.867 88.5027 127.508 88.8359 128.017C89.1257 128.474 89.2778 128.739 89.2633 128.746C89.2416 128.761 89.0605 128.525 88.7345 128.09C88.3795 127.596 87.9304 126.97 87.3871 126.225C86.2643 124.64 84.7285 122.436 83.0479 119.996C81.3673 117.556 79.8678 115.33 78.7884 113.708C78.2813 112.934 77.8612 112.293 77.528 111.784C77.2382 111.327 77.0861 111.062 77.1006 111.055Z" fill="#C6C6C6"/>
<path d="M89.0815 128.242C89.0815 128.242 89.393 128.168 89.9652 128.102C90.5955 128.028 91.4141 127.932 92.3848 127.821C94.4276 127.586 97.2455 127.246 100.353 126.789C103.461 126.332 106.257 125.853 108.278 125.485C109.242 125.315 110.046 125.168 110.676 125.057C111.241 124.961 111.56 124.917 111.567 124.939C111.567 124.961 111.263 125.05 110.705 125.182C110.147 125.323 109.336 125.507 108.322 125.713C106.308 126.133 103.504 126.657 100.397 127.114C97.289 127.571 94.4565 127.873 92.4065 128.05C91.3778 128.138 90.552 128.197 89.9725 128.227C89.4002 128.256 89.0815 128.264 89.0742 128.242H89.0815Z" fill="#C6C6C6"/>
<path d="M328.178 137.354C328.178 121.409 314.016 108.826 297.79 111.922C287.583 113.868 279.455 122.353 277.666 132.762C276.55 139.271 277.869 145.389 280.781 150.439H280.766L280.839 150.535C281.817 152.208 283.041 153.402 284.272 155.164L299.05 175.082C300.89 177.559 304.548 177.559 306.388 175.082L320.92 155.488C320.92 155.488 323.629 152.193 324.614 150.505L324.665 150.431H324.658C326.875 146.591 328.171 142.124 328.171 137.347L328.178 137.354ZM302.73 148.633C296.544 148.633 291.531 143.532 291.531 137.236C291.531 130.941 296.544 125.84 302.73 125.84C308.917 125.84 313.929 130.941 313.929 137.236C313.929 143.532 308.917 148.633 302.73 148.633Z" fill="#EDEDED"/>
<path d="M64.2069 255.063C73.9647 248.178 76.2176 235.337 75.8771 223.786C75.8192 221.854 76.0365 219.827 75.1382 218.132C74.2399 216.436 72.1464 215.271 70.4441 216.082C69.0315 216.753 68.4157 218.412 67.6261 219.79C66.5757 221.618 65.0038 223.13 63.171 224.095C61.9613 224.729 60.469 225.112 59.281 224.442C57.6511 223.52 57.4627 221.22 57.4845 219.304C57.5207 215.728 57.5497 212.153 57.5859 208.585C57.6076 206.669 57.6149 204.708 57.0353 202.887C56.4558 201.066 55.1664 199.371 53.3771 198.855C51.5878 198.339 49.3639 199.378 48.98 201.258C48.8206 202.039 48.98 202.85 48.9148 203.647C48.8568 204.443 48.4946 205.32 47.7485 205.541C46.9951 205.762 46.2417 205.217 45.6839 204.656C43.7425 202.71 42.4313 200.211 41.2071 197.727C39.9829 195.243 38.7948 192.7 37.0345 190.584C35.2742 188.468 32.8402 186.78 30.1454 186.618C27.4434 186.456 24.5675 188.137 23.8721 190.835C23.1767 193.533 24.7197 196.282 26.4003 198.479C28.8922 201.737 31.8406 204.62 35.1293 207.008C35.7234 207.435 36.3608 207.907 36.5854 208.615C36.9911 209.898 35.7958 211.158 34.5571 211.578C33.1517 212.05 31.6305 211.895 30.1599 212.065C28.6894 212.234 27.0957 212.89 26.5379 214.298C25.7628 216.259 27.3637 218.316 28.9429 219.665C32.1086 222.37 35.7234 224.515 39.5844 225.968C40.968 226.491 42.4241 226.948 43.5397 227.943C44.6553 228.938 45.3217 230.663 44.6408 232.012C43.9598 233.361 42.2285 233.789 40.7725 233.509C39.3236 233.229 38.027 232.425 36.6434 231.887C34.0572 230.884 30.7105 231.054 29.0443 233.324C27.9505 234.821 27.8491 236.9 28.3924 238.691C28.9357 240.475 30.0513 242.015 31.232 243.438C35.3684 248.407 40.6638 252.417 46.6691 254.554C52.6672 256.692 58.2306 257.289 64.2142 255.085" fill="#C8131B"/>
<path d="M63.2687 258.542C62.8703 253.965 62.6674 253.869 61.0085 248.038C59.3569 242.2 57.0243 235.963 54.373 229.513C53.6993 227.906 53.0401 226.314 52.3881 224.751C51.7362 223.188 51.0842 221.64 50.3526 220.166C48.911 217.21 47.3028 214.475 45.6946 211.932C44.0865 209.389 42.471 207.03 40.9498 204.841C39.4213 202.651 37.9508 200.639 36.5382 198.862C33.7202 195.294 31.1269 192.7 29.2651 190.989C28.3379 190.134 27.599 189.493 27.0919 189.058C26.8456 188.852 26.6573 188.697 26.5124 188.572C26.382 188.461 26.3096 188.409 26.3096 188.417C26.3096 188.417 26.3675 188.483 26.4907 188.601C26.6283 188.726 26.8167 188.896 27.0485 189.11C27.5411 189.552 28.2655 190.215 29.1782 191.085C31.0037 192.825 33.5681 195.442 36.3498 199.017C37.7479 200.801 39.1967 202.813 40.7107 205.01C42.2247 207.207 43.8329 209.566 45.4266 212.109C47.0203 214.652 48.614 217.38 50.0483 220.321C50.7727 221.788 51.4102 223.328 52.0694 224.891C52.7214 226.454 53.3806 228.046 54.0543 229.653C56.7128 236.096 59.0454 242.318 60.7043 248.126C62.3777 253.935 62.6022 254.001 63.0224 258.557" fill="#222222"/>
<path d="M50.5446 219.922C50.5446 219.922 50.6315 219.635 50.7329 219.104C50.8344 218.573 50.9575 217.806 51.0879 216.848C51.3632 214.939 51.6529 212.292 51.9572 209.373C52.2614 206.447 52.5874 203.815 52.8917 201.913C53.0366 200.962 53.1669 200.196 53.2611 199.665C53.3553 199.134 53.3915 198.839 53.3698 198.832C53.348 198.832 53.2611 199.112 53.1307 199.636C52.9931 200.159 52.8337 200.918 52.6526 201.869C52.2904 203.764 51.921 206.41 51.6167 209.329C51.3197 212.211 51.0517 214.821 50.8488 216.811C50.7474 217.711 50.6677 218.47 50.6025 219.074C50.5446 219.612 50.5229 219.907 50.5518 219.915L50.5446 219.922Z" fill="#222222"/>
<path d="M26.3354 215.235C26.3354 215.235 26.6758 215.302 27.2988 215.353C27.9218 215.412 28.8201 215.493 29.9284 215.626C32.1451 215.877 35.2021 216.334 38.5416 216.99C41.8883 217.653 44.8874 218.376 47.0461 218.973C48.1255 219.26 48.9947 219.518 49.596 219.688C50.1973 219.865 50.5305 219.953 50.5377 219.924C50.545 219.901 50.2262 219.769 49.6322 219.555C49.0454 219.341 48.1834 219.046 47.104 218.729C44.9598 218.073 41.9535 217.307 38.5995 216.643C35.2455 215.987 32.1741 215.567 29.9429 215.383C28.8273 215.28 27.9218 215.235 27.2988 215.221C26.6758 215.206 26.3281 215.213 26.3281 215.235H26.3354Z" fill="#222222"/>
<path d="M61.0055 247.358C61.0055 247.358 61.0707 247.262 61.1721 247.055C61.288 246.812 61.4256 246.517 61.5923 246.163C61.9545 245.389 62.4398 244.254 63.0338 242.846C64.2146 240.023 65.7214 236.079 67.3223 231.7C68.9305 227.322 70.401 223.363 71.5166 220.525C72.0671 219.147 72.5163 218.011 72.8495 217.164C72.9944 216.795 73.1103 216.493 73.2045 216.25C73.2841 216.036 73.3204 215.925 73.3059 215.918C73.2914 215.918 73.2407 216.014 73.1393 216.22C73.0234 216.463 72.8857 216.751 72.7191 217.112C72.3569 217.886 71.8716 219.021 71.2775 220.429C70.0968 223.253 68.59 227.196 66.9818 231.575C65.3737 235.954 63.9031 239.912 62.7875 242.75C62.237 244.129 61.7878 245.264 61.4546 246.112C61.3097 246.48 61.1938 246.783 61.0997 247.026C61.02 247.24 60.9838 247.35 60.9982 247.358H61.0055Z" fill="#222222"/>
<path d="M28.849 236.69C28.849 236.69 28.9577 236.749 29.1678 236.823C29.4213 236.911 29.7256 237.014 30.1023 237.147C30.9643 237.435 32.1306 237.825 33.5432 238.297C36.448 239.27 40.454 240.656 44.8729 242.197C49.2917 243.737 53.3122 245.086 56.2388 246C57.7021 246.457 58.8901 246.811 59.7159 247.04C60.0998 247.143 60.4113 247.231 60.6649 247.298C60.8822 247.349 60.9981 247.379 61.0054 247.364C61.0054 247.349 60.8967 247.305 60.6866 247.231C60.4331 247.143 60.1288 247.04 59.7521 246.907C58.8901 246.619 57.7238 246.229 56.3112 245.757C53.4063 244.784 49.4004 243.398 44.9815 241.857C40.5627 240.317 36.5495 238.968 33.6156 238.054C32.1523 237.597 30.9643 237.243 30.1385 237.014C29.7545 236.911 29.443 236.823 29.1823 236.756C28.9649 236.697 28.849 236.675 28.8418 236.69H28.849Z" fill="#222222"/>
<path d="M226.258 103.564C226.258 103.564 237.942 105.576 238.884 105.827C239.826 106.085 243.527 107.869 243.716 109.019C243.904 110.169 243.716 113.552 243.716 113.552C243.716 113.552 243.049 114.105 242.629 113C242.209 111.894 242.274 109.705 242.274 109.705L240.202 108.894L241.332 110.936L241.521 115.72C241.521 115.72 240.072 115.587 239.797 114.437C239.514 113.294 239.521 112.012 239.521 112.012L238.015 110.707L239.145 112.262L239.529 115.712C239.529 115.712 238.428 116.074 238.08 115.307C237.732 114.54 237.703 112.262 237.703 112.262L233.444 110.751L230.626 112.351L225.359 109.321L226.272 103.557L226.258 103.564Z" fill="#FFBE9D"/>
<path d="M185.35 74.168C185.401 74.4039 199.433 94.0564 199.433 94.0564L227.612 102.976L226.33 113.746L191.79 106.669L179.533 92.3536L185.35 74.168Z" fill="#C8131B"/>
<g opacity="0.2">
<path d="M185.35 74.168C185.401 74.4039 199.433 94.0564 199.433 94.0564L227.612 102.976L226.33 113.746L191.79 106.669L179.533 92.3536L185.35 74.168Z" fill="black"/>
</g>
<path d="M136.265 101.223H78.6889C77.4687 101.223 76.4795 102.229 76.4795 103.471V110.393C76.4795 111.635 77.4687 112.641 78.6889 112.641H136.265C137.485 112.641 138.474 111.635 138.474 110.393V103.471C138.474 102.229 137.485 101.223 136.265 101.223Z" fill="#EDEDED"/>
<path d="M136.272 112.644C136.272 112.644 136.395 112.644 136.634 112.593C136.866 112.541 137.228 112.445 137.598 112.143C137.96 111.856 138.337 111.347 138.409 110.654C138.438 109.961 138.409 109.136 138.409 108.221C138.409 107.3 138.402 106.283 138.395 105.162C138.395 104.602 138.395 104.02 138.387 103.415C138.373 102.833 138.112 102.243 137.641 101.838C137.409 101.631 137.127 101.484 136.823 101.403C136.518 101.314 136.192 101.329 135.845 101.329C135.156 101.329 134.454 101.329 133.729 101.329C132.273 101.329 130.738 101.336 129.129 101.344C116.213 101.359 98.3857 101.381 78.7036 101.403C78.1386 101.403 77.5808 101.653 77.2113 102.074C76.8274 102.501 76.6463 103.061 76.6825 103.658C76.6825 104.897 76.6825 106.128 76.6825 107.344C76.6825 107.956 76.6825 108.561 76.6825 109.165V110.072C76.6825 110.381 76.6825 110.647 76.755 110.919C76.8926 111.45 77.2548 111.915 77.7257 112.18C77.9575 112.313 78.2183 112.394 78.4863 112.423C78.7398 112.445 79.0513 112.431 79.3411 112.438C83.9845 112.438 88.4613 112.445 92.7281 112.453C101.254 112.468 108.94 112.482 115.402 112.497C121.842 112.519 127.058 112.541 130.687 112.556C132.476 112.571 133.874 112.585 134.845 112.593C135.309 112.6 135.664 112.608 135.924 112.615C136.171 112.615 136.294 112.637 136.294 112.637C136.294 112.637 136.171 112.652 135.924 112.659C135.664 112.659 135.309 112.667 134.845 112.681C133.881 112.689 132.483 112.703 130.687 112.718C127.065 112.733 121.842 112.755 115.402 112.777C108.947 112.792 101.262 112.799 92.7281 112.821C88.4613 112.821 83.9845 112.821 79.3411 112.836C79.0441 112.836 78.776 112.851 78.4501 112.821C78.1386 112.784 77.8271 112.689 77.5518 112.534C76.994 112.224 76.5666 111.671 76.4 111.045C76.3131 110.735 76.3131 110.389 76.3131 110.101V109.195C76.3131 108.59 76.3131 107.978 76.3131 107.374C76.3131 106.15 76.3131 104.926 76.3131 103.688C76.2696 103.054 76.4869 102.332 76.9361 101.845C77.3779 101.344 78.0444 101.042 78.7108 101.049C98.3929 101.071 116.221 101.093 129.137 101.108C130.752 101.108 132.288 101.115 133.737 101.123C134.461 101.123 135.171 101.123 135.852 101.123C136.185 101.123 136.547 101.108 136.881 101.211C137.214 101.307 137.525 101.469 137.779 101.698C138.293 102.147 138.576 102.796 138.583 103.43C138.583 104.034 138.583 104.617 138.583 105.177C138.583 106.29 138.568 107.315 138.568 108.236C138.554 109.158 138.568 109.961 138.532 110.684C138.438 111.413 138.04 111.929 137.656 112.224C137.264 112.526 136.895 112.608 136.656 112.652C136.41 112.689 136.287 112.667 136.287 112.667L136.272 112.644Z" fill="#222222"/>
<path d="M292.607 258.55C308.947 257.752 321.557 243.624 320.772 226.997C319.988 210.369 306.105 197.536 289.765 198.335C273.424 199.134 260.814 213.261 261.599 229.889C262.384 246.517 276.267 259.349 292.607 258.55Z" fill="#222222"/>
<path d="M261.574 227.934C261.574 227.934 261.574 227.985 261.574 228.015C261.334 244.66 274.403 258.349 290.76 258.585C307.117 258.828 320.569 245.53 320.801 228.885C320.801 228.855 320.801 228.833 320.801 228.803L261.574 227.934Z" fill="#222222"/>
<path d="M270.389 228.138C270.222 239.822 279.401 249.434 290.882 249.604C302.364 249.773 311.81 240.433 311.977 228.75C312.144 217.066 302.965 207.453 291.484 207.284C280.002 207.114 270.556 216.454 270.389 228.138Z" fill="#EDEDED"/>
<path d="M291.484 207.284C280.003 207.114 270.556 216.454 270.39 228.138L311.978 228.75C312.144 217.066 302.966 207.453 291.484 207.284Z" fill="#C6C6C6"/>
<path d="M278.517 228.263C278.416 235.384 284.008 241.237 290.998 241.34C297.996 241.443 303.748 235.753 303.849 228.639C303.951 221.518 298.358 215.665 291.368 215.562C284.37 215.459 278.618 221.15 278.517 228.263Z" fill="#222222"/>
<path d="M277.127 184.248C277.127 184.248 307.45 174.916 319.997 208.442L256.539 228.441L277.134 184.248H277.127Z" fill="#C8131B"/>
<path d="M109.847 258.554C126.187 257.755 138.798 243.628 138.013 227C137.228 210.372 123.345 197.54 107.005 198.339C90.6644 199.138 78.0542 213.265 78.8391 229.893C79.624 246.521 93.5067 259.353 109.847 258.554Z" fill="#222222"/>
<path d="M78.8138 227.936C78.8138 227.936 78.8138 227.987 78.8138 228.017C78.5747 244.662 91.643 258.351 108 258.587C124.357 258.83 137.809 245.531 138.041 228.886C138.041 228.857 138.041 228.835 138.041 228.805L78.8138 227.936Z" fill="#222222"/>
<path d="M87.6292 228.14C87.4626 239.824 96.6408 249.436 108.123 249.606C119.604 249.775 129.051 240.435 129.217 228.751C129.384 217.068 120.206 207.455 108.724 207.285C97.242 207.116 87.7958 216.456 87.6292 228.14Z" fill="#EDEDED"/>
<path d="M108.725 207.285C97.2427 207.116 87.7965 216.456 87.6299 228.14L129.218 228.751C129.385 217.068 120.206 207.455 108.725 207.285Z" fill="#C6C6C6"/>
<path d="M95.7562 228.267C95.6548 235.388 101.247 241.241 108.238 241.344C115.235 241.447 120.987 235.757 121.089 228.643C121.19 221.522 115.598 215.669 108.607 215.566C101.609 215.463 95.8577 221.153 95.7562 228.267Z" fill="#222222"/>
<path d="M150.558 216.343C150.391 216.432 134.969 213.918 134.969 213.918C133.281 216.159 130.702 217.53 127.935 217.663C121.27 217.987 114.758 218.289 109.115 218.54C103.856 218.776 99.7773 223.309 99.9946 228.661C100.205 233.733 104.196 237.78 109.173 237.979L141.974 239.291C147.371 239.505 154.535 236.173 157.904 231.875L150.551 216.328L150.558 216.343Z" fill="#545454"/>
<path d="M69.969 203.009C69.969 203.009 68.5564 173.633 95.6854 167.515V163.748H190.72V172.726C190.72 172.726 176.768 189.821 181.324 204.011C185.881 218.209 187.301 219.654 187.301 219.654H241.385C241.385 219.654 247.933 211.25 248.216 198.8C248.498 186.342 243.413 165.045 239.617 151.43C236.162 139.053 233.981 128.696 233.981 128.696L250.208 123.189C250.208 123.189 280.235 163.136 281.459 165.384C282.683 167.633 286.856 172.874 285.871 184.351C284.885 195.829 257.908 231.279 250.795 235.267C243.681 239.262 237.306 239.513 230.924 240.508C225.39 241.378 184.439 240.803 173.733 240.633C170.009 240.574 166.337 239.608 163.156 237.648C159.955 235.672 157.542 232.399 154.884 227.033L149.241 215.798L69.9473 203.001L69.969 203.009Z" fill="#C8131B"/>
<path d="M77.2411 200.967L65.2667 220.044C63.731 222.484 66.2157 225.558 68.8235 224.408C70.0912 223.848 71.4531 222.978 72.8367 221.637C78.3132 216.336 88.071 202.375 88.071 202.375L77.2339 200.967H77.2411Z" fill="#545454"/>
<path d="M163.076 204.399C163.076 204.399 163.091 204.303 163.149 204.119C163.207 203.92 163.286 203.654 163.388 203.315C163.591 202.607 163.837 201.553 164.018 200.167C164.322 197.418 164.185 193.223 162.163 188.653C161.178 186.375 159.722 184.046 157.752 181.908C155.774 179.785 153.333 177.824 150.479 176.261C147.639 174.691 144.423 173.453 140.989 172.664C137.548 171.875 133.89 171.522 130.145 171.522C126.4 171.522 122.749 171.861 119.243 172.332C115.736 172.812 112.375 173.401 109.202 174.138C102.864 175.591 97.351 177.736 93.0843 180.205C88.803 182.66 85.7678 185.343 83.8699 187.356C82.9136 188.358 82.2255 189.191 81.7691 189.766C81.5518 190.039 81.3852 190.26 81.2548 190.422C81.1389 190.57 81.0737 190.643 81.0664 190.636C81.0664 190.636 81.8777 189.309 83.7612 187.252C85.6302 185.196 88.6582 182.468 92.9466 179.969C97.2206 177.448 102.762 175.266 109.123 173.792C112.303 173.047 115.671 172.443 119.192 171.956C122.705 171.477 126.378 171.131 130.145 171.131C133.912 171.131 137.599 171.492 141.069 172.288C144.539 173.084 147.777 174.337 150.645 175.937C153.521 177.522 155.992 179.52 157.984 181.68C159.969 183.854 161.432 186.22 162.41 188.535C164.416 193.172 164.518 197.418 164.163 200.175C163.96 201.568 163.692 202.63 163.46 203.33C163.344 203.662 163.25 203.927 163.185 204.119C163.12 204.296 163.083 204.384 163.076 204.384V204.399Z" fill="#222222"/>
<path d="M157.606 197.801C157.563 197.786 157.766 197.337 157.961 196.496C158.186 195.656 158.28 194.381 158.07 192.847C157.86 191.307 157.28 189.53 156.302 187.724C155.824 186.817 155.237 185.918 154.549 185.041C153.876 184.156 153.086 183.316 152.195 182.557C150.406 181.031 148.421 179.954 146.545 179.195C144.654 178.451 142.872 178.008 141.358 177.75C139.844 177.492 138.598 177.382 137.743 177.33C136.881 177.279 136.41 177.256 136.41 177.227C136.41 177.212 136.526 177.205 136.758 177.19C136.982 177.19 137.323 177.168 137.75 177.175C138.612 177.175 139.866 177.249 141.401 177.478C142.937 177.699 144.748 178.119 146.675 178.856C148.587 179.615 150.616 180.699 152.441 182.254C153.354 183.036 154.158 183.891 154.846 184.798C155.542 185.689 156.136 186.618 156.614 187.547C157.592 189.39 158.157 191.218 158.338 192.803C158.519 194.381 158.381 195.685 158.106 196.526C158.019 196.961 157.838 197.263 157.758 197.484C157.664 197.698 157.613 197.808 157.599 197.801H157.606Z" fill="#EDEDED"/>
<g opacity="0.4">
<path d="M138.99 172.076C144.3 173.108 148.943 175.047 153.297 178.003C157.65 180.959 160.99 185.153 162.881 190.122C164.771 195.09 164.496 201.673 162.497 205.786L169.212 206.354C171.472 198.68 169.009 189.267 163.576 183.259C157.201 176.212 148.436 172.076 138.982 172.076" fill="black"/>
</g>
<path d="M136.852 112.068H78.1099C74.6773 112.068 71.8945 114.9 71.8945 118.393V157.426C71.8945 160.919 74.6773 163.75 78.1099 163.75H136.852C140.285 163.75 143.067 160.919 143.067 157.426V118.393C143.067 114.9 140.285 112.068 136.852 112.068Z" fill="#545454"/>
<path d="M143.068 123.59C143.068 123.693 127.066 123.782 107.333 123.782C87.6002 123.782 71.5908 123.693 71.5908 123.59C71.5908 123.487 87.5929 123.398 107.333 123.398C127.073 123.398 143.068 123.487 143.068 123.59Z" fill="#222222"/>
<path d="M190.676 167.168C190.676 167.271 169.32 167.36 142.974 167.36C116.627 167.36 95.2715 167.271 95.2715 167.168C95.2715 167.065 116.627 166.977 142.974 166.977C169.32 166.977 190.676 167.065 190.676 167.168Z" fill="#222222"/>
<path d="M190.719 163.75C190.719 163.75 192.284 161.848 192.436 159.415C192.588 156.983 191.495 153.953 188.93 153.953H156.115C150.797 153.953 146.487 158.339 146.487 163.75H190.719Z" fill="#545454"/>
<path d="M233.995 128.7L228.287 116.589C226.73 113.146 227.968 109.055 231.17 107.116L248.237 96.7592C249.128 96.2211 250.15 95.9336 251.185 95.9336H254.873L256.35 120.415L250.664 122.626L254.264 128.582L233.995 128.7Z" fill="#C8131B"/>
<path d="M254.931 96.8082C254.931 96.8082 260.77 98.1719 261.501 107.327C262.233 116.49 256.351 119.336 256.351 119.336L254.924 96.8008L254.931 96.8082Z" fill="#EDEDED"/>
<path d="M235.981 111.84C235.981 111.84 224.18 117.53 222.739 118.467C221.739 119.115 220.884 120.251 221.666 122.248C223.007 125.654 228.519 122.447 228.519 122.447L239.501 116.86C239.501 116.86 243.725 114.832 242.167 112.289C240.421 109.444 235.981 111.84 235.981 111.84Z" fill="#222222"/>
<path d="M219.275 109.765C219.275 109.765 230.358 111.697 231.3 111.955C232.242 112.213 235.943 113.996 236.132 115.146C236.32 116.296 236.132 119.68 236.132 119.68C236.132 119.68 235.465 120.233 235.045 119.127C234.625 118.021 234.69 115.832 234.69 115.832L232.618 115.021L233.748 117.063L233.937 121.847C233.937 121.847 232.488 121.714 232.213 120.565C231.93 119.422 231.937 118.139 231.937 118.139L230.431 116.835L231.561 118.39L231.945 121.84C231.945 121.84 230.844 122.201 230.496 121.434C230.148 120.668 230.119 118.39 230.119 118.39L225.86 116.879L223.042 118.478L218.608 116.009L219.289 109.758L219.275 109.765Z" fill="#FFBE9D"/>
<path d="M236.545 94.0502C236.545 98.6206 234.48 102.321 231.937 102.321C229.395 102.321 227.33 98.6206 227.33 94.0502C227.33 89.4798 229.395 85.7793 231.937 85.7793C234.48 85.7793 236.545 89.4798 236.545 94.0502Z" fill="#222222"/>
<path d="M232.691 99.736L235.219 108.663C236.349 108.081 236.588 106.931 236.4 106.024C235.762 102.965 235.407 100.79 234.705 98.1069C234.618 97.8342 232.684 99.7287 232.684 99.7287" fill="#222222"/>
<g opacity="0.4">
<path d="M182.577 207.83C182.323 207.093 182.07 206.341 181.831 205.567C181.606 204.845 181.338 204.1 181.15 203.385C180.802 202.102 180.599 200.783 180.52 200.024C176.246 217.73 182.773 230.195 193.972 231.073C210.336 232.355 230.293 233.284 238.363 231.131C253.076 227.202 258.473 214.722 259.762 212.658C261.052 210.602 272.751 188.833 265.579 167.876C258.408 146.919 245.904 124.664 245.904 124.664L233.988 128.704C233.988 128.704 236.168 139.053 239.624 151.438C243.42 165.053 248.505 186.349 248.222 198.807C247.94 211.265 241.391 219.661 241.391 219.661H187.307C187.307 219.661 186.148 218.482 182.577 207.83Z" fill="black"/>
</g>
<path d="M67.8098 198.401L68.1937 194.199L166.916 205.773C172.486 206.436 176.362 211.736 175.384 217.361L174.942 219.904L72.7647 204.792C69.7077 204.343 67.5273 201.527 67.8098 198.394V198.401Z" fill="#C8131B"/>
<g opacity="0.6">
<path d="M67.8098 198.403L68.1937 194.201L166.916 205.775C172.486 206.438 176.362 211.738 175.384 217.363L174.942 219.906L72.7647 204.794C69.7077 204.344 67.5273 201.529 67.8098 198.396V198.403Z" fill="black"/>
</g>
<g opacity="0.3">
<path d="M259.762 226.504C259.762 226.504 281.494 202.177 285.978 183.056C287.485 183.041 290.991 183.196 292.708 183.564C292.708 183.564 279.857 219.117 259.762 226.504Z" fill="black"/>
</g>
<path d="M285.66 174.49C285.66 174.49 285.71 174.697 285.775 175.102C285.833 175.508 285.949 176.105 286.022 176.879C286.159 178.427 286.254 180.712 285.855 183.484C285.464 186.255 284.53 189.484 282.987 192.831C281.48 196.192 279.393 199.664 277.235 203.298C272.881 210.589 268.035 216.545 264.514 220.806C262.747 222.929 261.283 224.624 260.269 225.796C259.777 226.357 259.385 226.799 259.096 227.131C258.82 227.433 258.676 227.588 258.668 227.58C258.661 227.573 258.784 227.403 259.038 227.079C259.313 226.74 259.69 226.275 260.161 225.693C261.167 224.469 262.573 222.744 264.311 220.629C267.781 216.331 272.577 210.353 276.916 203.099C279.082 199.465 281.161 196.015 282.675 192.683C284.225 189.366 285.174 186.182 285.594 183.447C286.029 180.704 285.978 178.449 285.877 176.901C285.826 176.127 285.732 175.53 285.703 175.117C285.66 174.711 285.645 174.49 285.66 174.49Z" fill="#222222"/>
<path d="M248.093 226.328C248.02 226.402 246.463 224.972 244.615 223.129C242.768 221.286 241.327 219.731 241.399 219.657C241.472 219.583 243.029 221.013 244.883 222.856C246.731 224.699 248.172 226.255 248.1 226.328H248.093Z" fill="#222222"/>
<path d="M183.591 225.583C183.504 225.539 184.098 224.057 185.185 222.436C186.264 220.807 187.402 219.693 187.467 219.767C187.547 219.841 186.554 221.05 185.497 222.657C184.424 224.256 183.686 225.635 183.591 225.591V225.583Z" fill="#222222"/>
<path d="M141.837 239.625C141.75 239.552 143.394 238.483 144.799 235.792C145.502 234.465 146.074 232.733 146.248 230.743C146.429 228.767 146.147 226.526 145.191 224.447C144.198 222.383 142.67 220.754 141.047 219.648C139.417 218.535 137.737 217.901 136.281 217.621C133.339 217.039 131.492 217.673 131.492 217.555C131.492 217.54 131.601 217.511 131.818 217.459C132.035 217.415 132.347 217.312 132.767 217.275C133.6 217.142 134.839 217.105 136.331 217.363C137.823 217.614 139.562 218.24 141.243 219.361C142.923 220.474 144.51 222.147 145.531 224.285C146.516 226.438 146.792 228.745 146.589 230.78C146.393 232.814 145.77 234.583 145.024 235.925C144.285 237.266 143.474 238.225 142.844 238.8C142.547 239.109 142.271 239.286 142.097 239.434C141.924 239.574 141.829 239.64 141.815 239.625H141.837Z" fill="#222222"/>
<path d="M105.79 231.925C105.689 231.925 105.529 230.34 105.435 228.379C105.341 226.418 105.355 224.826 105.457 224.818C105.558 224.818 105.718 226.396 105.812 228.364C105.906 230.325 105.892 231.917 105.79 231.925Z" fill="#222222"/>
<path d="M108.405 231.932C108.304 231.947 108.021 230.362 107.775 228.401C107.529 226.433 107.413 224.833 107.514 224.818C107.616 224.804 107.898 226.389 108.144 228.357C108.391 230.325 108.507 231.925 108.405 231.939V231.932Z" fill="#222222"/>
<path d="M149.117 163.75C149.117 163.853 137.114 163.942 122.314 163.942C107.515 163.942 95.5039 163.853 95.5039 163.75C95.5039 163.647 107.507 163.559 122.314 163.559C137.121 163.559 149.117 163.647 149.117 163.75Z" fill="#222222"/>
<path d="M86.2747 248.91C86.2747 248.91 86.1588 248.807 85.9559 248.586C85.7603 248.357 85.4561 248.04 85.1084 247.591C84.3912 246.714 83.435 245.372 82.4353 243.595C80.436 240.079 78.4511 234.58 78.4728 228.292C78.5018 221.997 80.5301 216.52 82.5585 213.018C83.5726 211.249 84.5434 209.915 85.2605 209.045C85.6082 208.595 85.9197 208.286 86.1153 208.057C86.3181 207.836 86.4268 207.725 86.434 207.733C86.4413 207.74 86.3544 207.873 86.1733 208.109C85.9994 208.352 85.7024 208.676 85.3764 209.133C84.6955 210.033 83.761 211.382 82.7903 213.151C80.8344 216.66 78.8713 222.078 78.8495 228.292C78.8278 234.499 80.7402 239.939 82.6671 243.463C83.6234 245.239 84.5433 246.596 85.2243 247.502C85.5503 247.967 85.84 248.298 86.0139 248.534C86.195 248.77 86.2819 248.903 86.2747 248.91Z" fill="#545454"/>
<path d="M190.053 192.75L189.828 193.185L185.467 201.537L179.354 207.53L191.574 224.087L201.759 222.369C201.759 222.369 200.615 220.003 195.508 219.546L193.552 209.653L200.731 198.33" fill="#545454"/>
<path d="M179.354 207.521L191.574 224.078L201.752 222.36L200.354 220.997L192.002 221.933L180.657 206.246L179.354 207.521Z" fill="#C6C6C6"/>
<path d="M194.689 214.987C194.631 215.105 193.986 214.869 193.204 215.024C192.414 215.157 191.9 215.614 191.799 215.518C191.69 215.459 192.161 214.737 193.117 214.567C194.073 214.383 194.761 214.892 194.682 214.987H194.689Z" fill="#222222"/>
<path d="M194.123 212.553C194.036 212.641 193.478 212.11 192.645 212.088C191.805 212.059 191.218 212.553 191.139 212.457C191.095 212.413 191.182 212.221 191.443 212.015C191.696 211.808 192.138 211.609 192.66 211.624C193.181 211.639 193.609 211.867 193.848 212.096C194.094 212.317 194.167 212.516 194.123 212.56V212.553Z" fill="#222222"/>
<path d="M193.674 209.369C193.573 209.442 193.124 208.904 192.378 208.772C191.632 208.631 191.03 208.985 190.958 208.875C190.922 208.831 191.03 208.661 191.291 208.506C191.552 208.351 191.979 208.226 192.457 208.315C192.928 208.403 193.291 208.661 193.486 208.897C193.682 209.133 193.725 209.324 193.674 209.361V209.369Z" fill="#222222"/>
<path d="M195.993 206.451C195.877 206.517 195.493 205.972 194.797 205.662C194.109 205.33 193.457 205.397 193.428 205.271C193.377 205.161 194.131 204.844 194.986 205.242C195.84 205.632 196.116 206.414 195.993 206.451Z" fill="#222222"/>
<path d="M196.978 204.097C196.935 204.142 196.529 203.78 195.913 203.161C195.565 202.8 195.21 202.431 194.848 202.063C194.66 201.842 194.421 201.665 194.24 201.303C194.153 201.119 194.124 200.891 194.196 200.662C194.262 200.426 194.53 200.235 194.754 200.235C195.211 200.227 195.493 200.419 195.79 200.574C196.073 200.751 196.319 200.964 196.529 201.186C196.942 201.643 197.181 202.151 197.304 202.593C197.55 203.493 197.347 204.068 197.304 204.046C197.224 204.046 197.304 203.485 197 202.697C196.848 202.306 196.601 201.871 196.225 201.48C196.036 201.289 195.812 201.112 195.565 200.964C195.326 200.824 195.015 200.677 194.798 200.692C194.696 200.706 194.653 200.743 194.624 200.817C194.595 200.898 194.602 201.016 194.645 201.112C194.74 201.326 194.971 201.547 195.16 201.768C195.5 202.166 195.826 202.549 196.152 202.933C196.71 203.603 197.029 204.046 196.985 204.09L196.978 204.097Z" fill="#222222"/>
<path d="M197.391 204.342C197.34 204.342 197.29 203.797 197.739 203.081C198.181 202.403 199.253 201.57 200.665 202.02C200.774 202.086 200.868 202.219 200.883 202.366C200.897 202.514 200.861 202.624 200.81 202.713C200.716 202.897 200.593 202.993 200.499 203.104C200.289 203.31 200.071 203.494 199.847 203.642C199.405 203.944 198.956 204.136 198.572 204.246C197.797 204.467 197.29 204.394 197.297 204.342C197.297 204.268 197.775 204.224 198.47 203.937C198.818 203.797 199.217 203.59 199.608 203.288C199.803 203.14 199.999 202.971 200.187 202.779C200.282 202.676 200.376 202.58 200.412 202.499C200.448 202.403 200.441 202.425 200.412 202.403C200.376 202.374 200.231 202.352 200.1 202.344C199.97 202.337 199.84 202.337 199.716 202.344C199.463 202.366 199.224 202.433 198.999 202.521C198.557 202.698 198.224 202.986 197.992 203.273C197.529 203.855 197.456 204.357 197.384 204.342H197.391Z" fill="#222222"/>
<path d="M187.423 205.834C187.532 206.512 187.083 207.154 186.416 207.272C185.75 207.382 185.119 206.925 185.004 206.247C184.895 205.569 185.344 204.927 186.01 204.809C186.677 204.699 187.307 205.156 187.423 205.834Z" fill="#C6C6C6"/>
<path d="M227.142 200.705L230.409 222.289L256.821 218.294C256.292 215.75 241.869 212.662 241.869 212.662L240.333 198.744L227.135 200.705H227.142Z" fill="#545454"/>
<path d="M233.539 212.738C233.046 212.959 232.778 213.593 232.974 214.102C233.169 214.611 233.807 214.891 234.299 214.684C234.792 214.471 235.139 213.719 234.886 213.232C234.632 212.746 233.872 212.458 233.444 212.782" fill="#C6C6C6"/>
<path d="M230.409 222.29L230.163 220.101L255.582 217.086C255.582 217.086 256.836 217.425 256.828 218.295L230.417 222.29H230.409Z" fill="#C6C6C6"/>
<path d="M242.282 212.462C242.297 212.594 241.659 212.749 241.087 213.272C240.5 213.774 240.254 214.393 240.131 214.356C240.008 214.349 240.087 213.538 240.79 212.919C241.485 212.299 242.29 212.336 242.282 212.462Z" fill="#222222"/>
<path d="M245.223 213.205C245.274 213.331 244.745 213.633 244.39 214.26C244.013 214.871 243.992 215.491 243.861 215.498C243.745 215.535 243.543 214.783 243.999 214.016C244.448 213.25 245.201 213.08 245.223 213.205Z" fill="#222222"/>
<path d="M247.294 216.338C247.178 216.383 246.903 215.756 247.135 214.989C247.352 214.215 247.925 213.839 247.99 213.943C248.077 214.038 247.743 214.481 247.57 215.122C247.381 215.749 247.425 216.309 247.294 216.346V216.338Z" fill="#222222"/>
<path d="M241.587 209.327C241.551 209.452 240.935 209.364 240.211 209.526C239.486 209.674 238.957 210.005 238.87 209.902C238.784 209.821 239.262 209.246 240.116 209.069C240.964 208.885 241.63 209.209 241.587 209.327Z" fill="#222222"/>
<path d="M240.492 206.236C240.5 206.288 240.007 206.45 239.167 206.428C238.754 206.42 238.254 206.354 237.718 206.207C237.45 206.133 237.175 206.037 236.899 205.912C236.769 205.853 236.61 205.794 236.45 205.654C236.291 205.536 236.153 205.204 236.291 204.968C236.4 204.74 236.624 204.614 236.812 204.585C237.008 204.548 237.167 204.563 237.319 204.585C237.624 204.614 237.914 204.673 238.182 204.747C238.718 204.902 239.174 205.138 239.522 205.374C240.217 205.86 240.5 206.317 240.456 206.347C240.405 206.398 240.043 206.03 239.355 205.654C239.007 205.462 238.573 205.278 238.073 205.153C237.819 205.094 237.559 205.049 237.276 205.027C236.986 204.998 236.747 205.027 236.697 205.167C236.675 205.219 236.675 205.241 236.747 205.315C236.82 205.381 236.943 205.44 237.073 205.499C237.327 205.617 237.588 205.72 237.834 205.801C238.326 205.963 238.79 206.059 239.188 206.103C239.978 206.207 240.478 206.162 240.485 206.236H240.492Z" fill="#222222"/>
<path d="M240.355 206.451C240.312 206.481 239.986 206.046 239.819 205.205C239.732 204.785 239.703 204.269 239.783 203.702C239.827 203.421 239.892 203.127 240 202.832C240.116 202.544 240.254 202.161 240.747 202.021C241.007 201.969 241.254 202.146 241.355 202.316C241.471 202.485 241.507 202.64 241.565 202.787C241.659 203.097 241.695 203.399 241.695 203.694C241.695 204.277 241.536 204.793 241.333 205.168C240.92 205.942 240.406 206.178 240.384 206.142C240.334 206.083 240.747 205.758 241.044 205.028C241.188 204.667 241.297 204.21 241.275 203.702C241.268 203.451 241.225 203.186 241.138 202.928C241.058 202.647 240.913 202.434 240.812 202.478C240.681 202.493 240.486 202.743 240.413 202.987C240.312 203.245 240.239 203.51 240.189 203.768C240.095 204.277 240.087 204.756 240.131 205.146C240.21 205.942 240.421 206.414 240.355 206.444V206.451Z" fill="#222222"/>
<path d="M206.359 150.004L183.707 200.234L198.666 209.375L229.989 148.936" fill="#222222"/>
<path d="M243.717 210.512L227.462 213.166L217.733 154.09L169.669 157.636C168.394 157.717 167.112 157.606 165.88 157.26C152.377 153.493 154.21 135.985 155.507 133.177L222.014 131.231C229.229 131.017 235.445 136.361 236.444 143.637L243.71 210.505L243.717 210.512Z" fill="#222222"/>
<path d="M154.854 135.958L155.093 110.984C155.093 110.984 151.927 94.7441 150.986 88.3603C149.529 78.4456 147.537 73.7425 163.489 66.6953L166.973 65.3242L172.37 65.3979C178.81 65.8918 185.59 71.8112 185.742 75.7402L191.951 132.022L154.839 135.966L154.854 135.958Z" fill="#C8131B"/>
<path d="M155.847 72.5078C155.847 72.5078 151.348 82.371 152.247 91.3569L169.031 107.751C172.798 112.012 177.499 113.825 183.519 114.194L218.247 118.057L219.21 108.813L186.17 99.2887C184.859 99.0454 184.2 97.6448 183.193 96.7529L155.847 72.5152" fill="#C8131B"/>
<path d="M153.137 75.3495C153.137 75.3495 153.325 75.1357 153.804 74.8924C154.282 74.6566 155.035 74.4133 156.049 74.2511C157.056 74.1037 158.331 73.9931 159.802 74.2585C160.164 74.3469 160.548 74.4354 160.903 74.6418C161.25 74.8482 161.584 75.0915 161.924 75.3495C162.598 75.8802 163.272 76.4847 163.952 77.1555C165.343 78.475 166.662 80.1484 168.205 81.8438C169.74 83.5467 171.436 85.3601 173.276 87.2693C175.108 89.1785 177.086 91.1762 179.208 93.2403C180.273 94.2649 181.367 95.3117 182.526 96.3363C183.113 96.8302 183.693 97.4052 184.25 97.9433C184.815 98.4741 185.46 98.968 186.199 99.108H186.206H186.213C196.036 101.939 207.308 105.175 219.254 108.617L219.406 108.662L219.391 108.824C219.326 109.48 219.246 110.187 219.174 110.895C218.92 113.35 218.667 115.782 218.428 118.068L218.406 118.259L218.218 118.237C213.169 117.67 208.25 117.124 203.519 116.593C201.151 116.328 198.833 116.07 196.565 115.812C194.291 115.576 192.074 115.348 189.908 115.126C187.742 114.883 185.641 114.633 183.606 114.33C181.57 114.028 179.592 113.645 177.774 112.952C175.949 112.274 174.319 111.301 172.855 110.269C171.385 109.229 170.052 108.146 168.799 107.077C163.837 102.764 160.193 98.9164 157.665 96.2921C156.411 94.9726 155.448 93.9332 154.803 93.2255C154.492 92.879 154.253 92.6063 154.079 92.4146C153.919 92.2303 153.84 92.1271 153.84 92.1271C153.84 92.1271 153.934 92.2082 154.101 92.3852C154.282 92.5694 154.528 92.8348 154.854 93.1739C155.528 93.8742 156.506 94.8915 157.759 96.1962C160.316 98.791 163.989 102.61 168.958 106.885C170.211 107.939 171.551 109.015 173.015 110.04C174.471 111.065 176.079 112.016 177.876 112.672C179.672 113.35 181.621 113.718 183.656 114.013C185.685 114.308 187.785 114.559 189.951 114.795C192.117 115.016 194.334 115.237 196.609 115.466C198.876 115.716 201.201 115.974 203.563 116.232C208.293 116.756 213.212 117.301 218.268 117.861L218.058 118.031C218.297 115.746 218.551 113.313 218.804 110.858C218.877 110.151 218.949 109.443 219.022 108.787L219.159 108.993C207.214 105.543 195.949 102.285 186.127 99.4471H186.141C185.286 99.2849 184.605 98.7394 184.026 98.2013C183.439 97.6337 182.91 97.1029 182.309 96.5943C181.15 95.5623 180.049 94.5082 178.984 93.4761C176.869 91.4047 174.898 89.3923 173.066 87.4757C171.24 85.5591 169.552 83.7383 168.016 82.0207C166.473 80.3105 165.177 78.6372 163.808 77.3177C163.134 76.6469 162.467 76.0424 161.808 75.5117C161.475 75.2537 161.149 75.003 160.816 74.804C160.49 74.6049 160.113 74.5165 159.765 74.428C158.331 74.1479 157.056 74.2437 156.056 74.3691C155.05 74.5091 154.296 74.7303 153.818 74.9514C153.34 75.1726 153.144 75.3716 153.13 75.3568L153.137 75.3495Z" fill="#222222"/>
<path d="M161.802 43.6823L163.49 67.9937C163.766 71.9596 167.011 75.0409 170.923 75.0409C175.226 75.0409 178.638 71.333 178.355 66.9617C178.203 64.647 178.073 62.7525 178.073 62.7525C178.073 62.7525 183.853 61.8384 183.926 55.9559C183.969 52.5576 183.39 44.847 182.897 38.935C182.564 34.9396 179.275 31.873 175.334 31.873H171.843C165.823 32.2343 161.288 37.5713 161.802 43.6823Z" fill="#FFBE9D"/>
<path d="M178.08 62.6644C178.08 62.6644 174.422 62.9666 170.539 60.4824C170.539 60.4824 172.321 64.7211 178.095 64.1903L178.08 62.6644Z" fill="#EB996E"/>
<path d="M181.593 46.4869C181.608 46.9291 181.253 47.3125 180.797 47.3346C180.34 47.3567 179.964 47.0176 179.942 46.5753C179.927 46.133 180.282 45.7497 180.739 45.7276C181.195 45.7055 181.579 46.0446 181.593 46.4869Z" fill="#222222"/>
<path d="M181.897 44.8299C181.796 44.9405 181.173 44.4687 180.282 44.4687C179.391 44.4613 178.739 44.9257 178.645 44.8152C178.594 44.7636 178.703 44.5719 178.985 44.3581C179.268 44.1517 179.739 43.9453 180.296 43.9453C180.847 43.9453 181.318 44.1591 181.586 44.3655C181.861 44.5793 181.955 44.7783 181.905 44.8225L181.897 44.8299Z" fill="#222222"/>
<path d="M173.256 46.4888C173.27 46.9311 172.915 47.3144 172.459 47.3365C172.002 47.3587 171.626 47.0196 171.604 46.5773C171.589 46.135 171.944 45.7517 172.401 45.7295C172.857 45.7074 173.234 46.0465 173.256 46.4888Z" fill="#222222"/>
<path d="M173.168 44.9998C173.067 45.1104 172.437 44.6386 171.553 44.6386C170.662 44.6312 170.01 45.0957 169.916 44.9851C169.872 44.9335 169.974 44.7418 170.256 44.528C170.539 44.3216 171.01 44.1152 171.568 44.1152C172.118 44.1152 172.589 44.329 172.857 44.5354C173.132 44.7492 173.219 44.9482 173.176 44.9925L173.168 44.9998Z" fill="#222222"/>
<path d="M176.392 51.7115C176.392 51.6599 176.942 51.5641 177.833 51.4462C178.058 51.424 178.275 51.3798 178.311 51.2176C178.362 51.0481 178.268 50.8048 178.159 50.5321C177.949 49.9718 177.725 49.3895 177.486 48.7703C176.551 46.264 175.877 44.2073 175.979 44.1704C176.08 44.1336 176.913 46.1313 177.848 48.6376C178.072 49.2568 178.29 49.8465 178.493 50.4068C178.579 50.6721 178.724 50.967 178.608 51.3135C178.55 51.483 178.384 51.6083 178.239 51.6526C178.094 51.6968 177.964 51.6968 177.855 51.7042C176.957 51.7558 176.392 51.7558 176.392 51.7042V51.7115Z" fill="#222222"/>
<path d="M173.777 52.3381C173.922 52.3307 173.922 53.3111 174.747 54.0114C175.573 54.7117 176.602 54.6011 176.609 54.7338C176.624 54.7928 176.377 54.9255 175.943 54.9402C175.515 54.955 174.892 54.8149 174.392 54.3873C173.885 53.9598 173.675 53.3922 173.639 52.9868C173.603 52.5739 173.711 52.3307 173.777 52.3381Z" fill="#222222"/>
<path d="M173.392 41.4586C173.306 41.7018 172.415 41.5913 171.379 41.7166C170.335 41.8198 169.495 42.1368 169.358 41.9156C169.292 41.8124 169.444 41.5765 169.785 41.3406C170.118 41.1047 170.661 40.8762 171.284 40.8025C171.907 40.7362 172.487 40.832 172.864 40.9942C173.248 41.149 173.436 41.3406 173.4 41.4586H173.392Z" fill="#222222"/>
<path d="M181.571 42.2208C181.412 42.4272 180.803 42.2134 180.065 42.206C179.326 42.1692 178.703 42.3461 178.565 42.1323C178.5 42.0291 178.601 41.8227 178.869 41.631C179.137 41.4394 179.586 41.2772 180.094 41.2919C180.601 41.3067 181.035 41.491 181.296 41.7048C181.557 41.9185 181.644 42.1249 181.571 42.2281V42.2208Z" fill="#222222"/>
<path d="M163.758 48.0972C163.656 48.053 159.788 46.903 159.911 50.9279C160.034 54.9528 163.982 53.9945 163.982 53.8765C163.982 53.7586 163.758 48.0972 163.758 48.0972Z" fill="#FFBE9D"/>
<path d="M162.721 52.3841C162.721 52.3841 162.656 52.4357 162.54 52.4946C162.431 52.5536 162.236 52.5905 162.026 52.5241C161.606 52.3841 161.229 51.7206 161.185 50.9908C161.164 50.6223 161.229 50.2758 161.345 49.9809C161.453 49.6861 161.635 49.4723 161.845 49.4281C162.055 49.3691 162.207 49.4944 162.258 49.605C162.316 49.7156 162.294 49.7966 162.316 49.804C162.33 49.8114 162.395 49.7303 162.359 49.5681C162.337 49.487 162.294 49.3986 162.192 49.3175C162.098 49.2438 161.953 49.2069 161.808 49.229C161.504 49.2585 161.236 49.5534 161.106 49.8777C160.961 50.2021 160.881 50.5928 160.903 51.0056C160.954 51.8164 161.388 52.561 161.961 52.7084C162.243 52.7748 162.468 52.6789 162.584 52.5831C162.699 52.4799 162.721 52.3914 162.707 52.3841H162.721Z" fill="#EB996E"/>
<path d="M161.555 47.9576C162.156 47.8102 163.199 48.3778 163.46 48.9528C163.721 49.5278 163.771 50.1764 164.032 50.7514C164.286 51.3264 164.865 51.8424 165.474 51.7024C165.887 51.5992 166.191 51.2085 166.299 50.7809C166.408 50.3607 166.365 49.9184 166.314 49.4835C166.082 47.6038 165.691 45.7388 165.619 43.8516C165.546 41.9572 165.807 39.9963 166.785 38.3819C167.763 36.7676 169.552 35.5808 171.407 35.7356C172.638 35.8388 173.761 36.4875 174.985 36.6644C176.434 36.8708 177.962 36.3474 178.998 35.3006C179.129 35.168 179.752 34.7551 179.752 34.7551C179.752 34.6593 179.665 33.819 179.339 33.5094C176.919 31.2315 172.551 30.5976 169.356 31.4158C166.155 32.2341 163.156 34.534 161.779 37.5858C160.403 40.6376 160.808 44.8763 161.569 47.965" fill="#222222"/>
<path d="M182.961 38.0108C182.961 38.0108 167.792 33.0424 161.229 46.3997C161.229 46.3997 160.251 43.0604 160.251 41.2691C160.251 40.0749 160.954 32.9466 168.161 30.7056C168.161 30.7056 179.02 26.4891 182.968 38.0182L182.961 38.0108Z" fill="#C8131B"/>
<path d="M169.923 38.3472C170.459 39.2318 171.415 39.8289 172.429 39.9247C173.443 40.0205 174.494 39.6003 175.175 38.8337C175.472 39.593 176.276 40.1163 177.08 40.0721C177.884 40.0279 178.63 39.4234 178.847 38.6347C179.289 39.0696 179.746 39.5193 180.325 39.733C180.905 39.9468 181.629 39.8657 182.013 39.3718C182.397 38.8706 182.288 38.1113 181.911 37.6026C181.535 37.094 180.948 36.7918 180.376 36.5485C178.572 35.7819 176.587 35.3986 174.653 35.6639C172.719 35.9293 170.843 36.8876 169.633 38.443" fill="#222222"/>
<g opacity="0.4">
<path d="M182.961 38.0132C182.961 38.0132 181.237 35.9197 178.137 35.787C173.66 35.588 165.286 38.1459 161.229 46.4094C161.229 46.4094 160.251 43.0701 160.251 41.2788C160.251 40.0846 160.954 32.9563 168.161 30.7154C168.161 30.7154 179.02 26.4989 182.968 38.028L182.961 38.0132Z" fill="black"/>
</g>
<path d="M161.859 44.8368C164.112 41.3353 167.213 38.4383 170.697 36.2195C174.181 34.0006 179.948 31.8113 183.925 30.735C185.12 30.4107 186.359 30.1306 187.576 30.3443C188.793 30.5581 189.981 31.3837 190.285 32.6C190.662 34.1259 188.003 36.4775 186.757 37.3989C185.511 38.3277 182.961 39.6841 182.961 39.6841C182.961 39.6841 182.997 36.8534 178.55 36.2711C172.501 35.4749 161.867 44.8294 161.867 44.8294L161.859 44.8368Z" fill="#C8131B"/>
<g opacity="0.3">
<path d="M156.52 95.0059C158.084 98.8464 159.663 103.586 161.931 107.044C164.198 110.501 167.226 113.567 171 115.174C175.731 117.187 181.33 117.519 186.039 115.447C186.423 115.278 187.176 115.064 187.104 114.644C187.104 114.644 185.546 114.467 185.061 114.386C175.542 112.749 174.514 111.555 169.957 107.891C167.118 105.606 160.822 98.699 156.52 95.0059Z" fill="black"/>
</g>
<path d="M186.772 122.97C186.772 122.97 186.67 123.309 186.373 123.869C186.084 124.429 185.584 125.203 184.838 126.051C183.36 127.761 180.737 129.612 177.47 130.636C174.203 131.661 171.103 131.845 168.893 131.941C167.785 131.985 166.887 131.993 166.271 131.993C165.648 131.993 165.308 131.978 165.308 131.948C165.308 131.919 165.648 131.889 166.264 131.845C166.959 131.801 167.836 131.742 168.879 131.676C171.074 131.513 174.145 131.278 177.362 130.275C180.571 129.265 183.157 127.496 184.649 125.867C186.17 124.245 186.707 122.926 186.779 122.97H186.772Z" fill="#222222"/>
<path d="M227.751 214.933C227.751 214.933 227.722 214.859 227.693 214.704C227.656 214.527 227.613 214.306 227.562 214.026C227.454 213.407 227.294 212.529 227.099 211.409C226.707 209.109 226.142 205.829 225.454 201.782C224.1 193.629 222.231 182.402 220.166 170.003C219.246 164.393 218.37 159.019 217.565 154.117L217.754 154.265C209.314 154.891 202.092 155.429 196.956 155.813C194.421 155.99 192.4 156.13 190.987 156.225C190.313 156.262 189.784 156.299 189.393 156.321C189.227 156.321 189.089 156.336 188.98 156.336C188.886 156.336 188.843 156.336 188.843 156.336C188.843 156.336 188.886 156.321 188.98 156.307C189.089 156.292 189.227 156.277 189.386 156.262C189.77 156.225 190.299 156.174 190.973 156.108C192.385 155.982 194.406 155.813 196.934 155.591C202.063 155.179 209.278 154.589 217.718 153.903L217.877 153.889L217.906 154.051C218.717 158.946 219.608 164.319 220.535 169.929C222.557 182.336 224.389 193.57 225.715 201.73C226.36 205.784 226.881 209.072 227.243 211.372C227.41 212.493 227.548 213.37 227.642 213.996C227.678 214.284 227.714 214.505 227.736 214.682C227.758 214.837 227.765 214.918 227.758 214.918L227.751 214.933Z" fill="#545454"/>
<path d="M222.615 148.834C222.68 148.922 221.419 150.028 219.978 151.517C218.536 152.998 217.472 154.311 217.385 154.237C217.305 154.178 218.247 152.748 219.71 151.244C221.166 149.733 222.557 148.752 222.615 148.826V148.834Z" fill="#545454"/>
<path d="M178.208 67.4764C178.208 67.4764 178.251 67.5575 178.295 67.7197C178.346 67.8819 178.389 68.1251 178.432 68.4421C178.505 69.0761 178.469 70.0344 178.078 71.1254C177.686 72.2016 176.926 73.4105 175.694 74.3173C174.47 75.224 172.775 75.6957 171.044 75.5778C169.305 75.4598 167.711 74.7964 166.531 73.8602C165.335 72.9314 164.517 71.8109 163.966 70.8158C163.423 69.8059 163.133 68.9286 162.988 68.3094C162.916 67.9998 162.865 67.7566 162.843 67.5944C162.822 67.4322 162.814 67.3438 162.829 67.3364C162.909 67.3069 163.09 68.7444 164.205 70.6831C164.77 71.634 165.589 72.7029 166.748 73.5801C167.892 74.4647 169.421 75.0839 171.08 75.2018C172.731 75.3124 174.332 74.8701 175.506 74.0298C176.687 73.1968 177.433 72.0542 177.846 71.0295C178.244 69.9975 178.331 69.0761 178.302 68.4569C178.28 67.8303 178.186 67.4912 178.222 67.4838L178.208 67.4764Z" fill="#222222"/>
<path d="M188.43 99.6614C188.43 99.6614 188.35 99.3887 188.277 98.8948C188.198 98.3124 188.096 97.6121 187.988 96.7865C187.749 94.9067 187.437 92.4889 187.097 89.8204C186.771 87.0929 186.51 84.6234 186.351 82.8321C186.271 81.9328 186.213 81.2104 186.184 80.7091C186.155 80.2079 186.148 79.9277 186.177 79.9277C186.206 79.9277 186.256 80.2005 186.329 80.6944C186.408 81.2767 186.503 81.977 186.611 82.8026C186.843 84.6824 187.14 87.1003 187.466 89.7761C187.792 92.4962 188.075 94.9657 188.248 96.757C188.335 97.6563 188.393 98.3787 188.422 98.88C188.451 99.3813 188.459 99.6614 188.43 99.6614Z" fill="#222222"/>
<path d="M108.173 138.808C108.612 138.808 109.021 138.808 109.429 138.808C109.85 138.808 109.978 138.937 109.941 139.376C109.917 139.707 109.82 140.027 109.657 140.311C109.494 140.594 109.269 140.834 109.001 141.011C108.805 141.145 108.52 141.154 108.272 141.179C107.956 141.213 107.563 141.09 107.338 141.248C107.128 141.397 107.085 141.816 106.985 142.123C106.37 144.019 105.745 145.911 105.155 147.815C104.918 148.55 104.807 149.323 104.825 150.099C104.848 150.785 105.221 151.048 105.805 150.735C106.16 150.54 106.49 150.298 106.787 150.016C107.72 149.147 108.448 148.089 109.189 147.045C109.288 146.905 109.223 146.826 109.158 146.72C108.589 145.791 108.272 144.783 108.449 143.675C108.52 143.225 108.669 142.793 108.889 142.399C110.047 140.388 111.241 138.399 112.415 136.397C112.514 136.23 112.624 136.139 112.805 136.15C113.032 136.164 113.263 136.164 113.484 136.211C113.861 136.292 114.224 136.817 114.192 137.214C114.185 137.293 114.128 137.369 114.085 137.441C113.102 139.107 112.119 140.772 111.135 142.436C111.08 142.524 111.034 142.614 110.971 142.729L112.111 143.473C112.221 143.296 112.327 143.124 112.43 142.949C113.357 141.382 114.282 139.815 115.207 138.247C115.408 137.906 116.036 137.792 116.398 138.03C116.654 138.199 116.708 138.719 116.508 139.064C115.524 140.729 114.541 142.393 113.557 144.058C113.514 144.13 113.474 144.205 113.415 144.311L114.548 145.052C114.611 144.955 114.668 144.875 114.718 144.789C115.669 143.181 116.637 141.585 117.56 139.96C117.872 139.411 118.144 139.484 118.588 139.616C118.972 139.731 119.155 140.079 119.293 140.44C119.319 140.509 119.278 140.627 119.235 140.701C118.02 142.769 116.82 144.837 115.576 146.886C114.947 147.92 113.946 148.351 112.817 148.467C112.158 148.536 111.702 148.471 111.268 148.307C111.043 148.761 110.826 149.223 110.588 149.671C109.819 151.111 108.974 152.492 107.815 153.631C107.191 154.244 106.517 154.837 105.665 155.002C103.689 155.387 102.005 154.833 100.677 153.164C99.6116 151.828 99.4491 150.318 99.7647 148.716C99.936 147.844 100.238 146.993 100.521 146.151C101.059 144.542 101.626 142.94 102.181 141.336C102.193 141.287 102.203 141.238 102.21 141.188H100.676C99.9827 141.188 99.7236 140.843 99.88 140.123C100.068 139.261 100.607 138.81 101.455 138.81C101.967 138.81 102.479 138.819 102.992 138.802C103.093 138.798 103.245 138.715 103.281 138.629C104.282 136.174 105.289 133.722 106.249 131.248C106.461 130.702 106.52 130.086 106.612 129.496C106.676 129.083 106.88 128.894 107.29 128.979C107.853 129.094 108.333 129.381 108.746 129.786C109.832 130.839 110.211 132.13 109.789 133.612C109.323 135.256 108.786 136.878 108.28 138.51C108.252 138.593 108.219 138.678 108.173 138.808Z" fill="#7A7A7A"/>
<path d="M321.821 258.504C321.821 258.232 251.3 258 164.328 258C77.3562 258 6.82129 258.232 6.82129 258.504C6.82129 258.775 77.3292 259.008 164.328 259.008C251.327 259.008 321.821 258.775 321.821 258.504Z" fill="#7A7A7A"/>
</svg>
