<svg width="285" height="269" viewBox="0 0 285 269" fill="none" xmlns="http://www.w3.org/2000/svg">
<path d="M264.053 60.1602L209.577 72.2253C207.351 72.7184 205.146 71.3133 204.653 69.0875L193.303 17.8367C192.81 15.6108 194.215 13.4062 196.441 12.9137L250.916 0.848569C253.142 0.355481 255.347 1.76057 255.84 3.98646L267.19 55.2372C267.684 57.4625 266.278 59.6671 264.053 60.1602Z" fill="#F6F6F6"/>
<path d="M34.3678 119.64C33.246 115.668 28.0835 116.053 28.0835 116.053L28.2252 118.816C31.2098 118.301 33.0648 121.799 33.0648 121.799L34.3678 119.64Z" fill="#C6C6C6"/>
<path d="M110.179 73.7764C116.168 75.5906 119.894 68.6837 119.894 68.6837L116.251 66.6074C114.469 70.8385 108.488 70.3491 108.488 70.3491L110.179 73.7764Z" fill="#C6C6C6"/>
<path d="M159.893 110.854C158.734 107.551 154.386 108.15 154.386 108.15L154.651 110.48C157.15 109.888 158.904 112.749 158.904 112.749L159.893 110.854Z" fill="#C6C6C6"/>
<path d="M91.2021 33.4903C90.0432 30.1877 85.6948 30.7866 85.6948 30.7866L85.9605 33.117C88.4588 32.5242 90.2129 35.3861 90.2129 35.3861L91.2021 33.4903Z" fill="#C6C6C6"/>
<path d="M39.3144 75.7526C38.1555 72.4499 33.8071 73.0482 33.8071 73.0482L34.0728 75.3786C36.5711 74.7852 38.3252 77.6477 38.3252 77.6477L39.3144 75.7526Z" fill="#EDEDED"/>
<path d="M28.4126 44.875C24.9586 45.4417 24.792 49.8284 24.792 49.8284L27.1334 49.9719C26.9838 47.4085 30.1071 46.1786 30.1071 46.1786L28.4126 44.875Z" fill="#EDEDED"/>
<path d="M3.54656 147.619C9.53536 149.433 13.2612 142.526 13.2612 142.526L9.61744 140.449C7.836 144.68 1.85449 144.191 1.85449 144.191L3.54656 147.619Z" fill="#EDEDED"/>
<path d="M174.156 74.1595C174.561 71.3864 171.253 70.1953 171.253 70.1953L170.576 71.9476C172.569 72.4552 172.75 75.1371 172.75 75.1371L174.156 74.1595Z" fill="#C6C6C6"/>
<path d="M154.246 43.6992C151.911 45.249 153.232 48.5067 153.232 48.5067L154.989 47.8409C154.036 46.0187 155.912 44.0932 155.912 44.0932L154.246 43.6992Z" fill="#EDEDED"/>
<path d="M255.558 78.0195L247.473 101.832L271.383 106.584L272.759 81.4377L255.558 78.0195Z" fill="#F6F6F6"/>
<path d="M270.112 84.6009C270.14 84.6124 270.067 84.8672 269.844 85.2836C269.619 85.6977 269.243 86.2802 268.64 86.8839C268.04 87.4834 267.191 88.1011 266.106 88.4635C265.026 88.8338 263.733 88.9037 262.455 88.6483C261.176 88.4076 259.993 87.8901 259.12 87.1484C258.234 86.4164 257.707 85.4916 257.408 84.6988C257.108 83.8974 257.021 83.2079 256.997 82.7373C256.976 82.2643 257.022 82.0035 257.052 82.0059C257.129 81.9968 257.072 83.0663 257.703 84.5802C258.026 85.322 258.546 86.1671 259.385 86.8298C260.211 87.5022 261.318 87.9753 262.538 88.2063C263.756 88.4489 264.963 88.3936 265.979 88.0689C267 87.7515 267.818 87.1989 268.421 86.6535C269.626 85.5384 270.048 84.5613 270.112 84.6009Z" fill="white"/>
<path d="M278.655 268.342C278.655 268.429 216.294 268.5 139.386 268.5C62.4505 268.5 0.102539 268.429 0.102539 268.342C0.102539 268.255 62.4505 268.184 139.386 268.184C216.294 268.184 278.655 268.254 278.655 268.342Z" fill="#545454"/>
<path d="M158.599 80.877H10.3354V196.942H158.599V80.877Z" fill="#F6F6F6"/>
<path d="M158.599 196.942C158.597 195.852 158.546 150.896 158.467 80.8774L158.598 81.0082C116.348 81.0161 65.3047 81.0252 10.3476 81.0355H10.3348L10.4929 80.8774C10.4868 122.731 10.4814 162.309 10.4765 196.942L10.3342 196.8C98.3513 196.884 157.352 196.941 158.599 196.942C157.352 196.943 98.3513 197 10.3354 197.084H10.1932V196.942C10.1883 162.309 10.1828 122.731 10.1768 80.8774V80.7188H10.3354H10.3482C65.3053 80.7291 116.349 80.7382 158.599 80.7461H158.73V80.8774C158.651 150.896 158.6 195.853 158.599 196.942Z" fill="#222222"/>
<path d="M158.599 92.2167C158.599 92.3042 125.49 92.3748 84.6572 92.3748C43.81 92.3748 10.708 92.3036 10.708 92.2167C10.708 92.1297 43.81 92.0586 84.6572 92.0586C125.49 92.058 158.599 92.1291 158.599 92.2167Z" fill="#222222"/>
<path d="M15.582 87.248C16.0571 87.248 16.4423 86.8628 16.4423 86.3877C16.4423 85.9125 16.0571 85.5273 15.582 85.5273C15.1069 85.5273 14.7217 85.9125 14.7217 86.3877C14.7217 86.8628 15.1069 87.248 15.582 87.248Z" fill="#222222"/>
<path d="M18.7924 87.248C19.2676 87.248 19.6528 86.8628 19.6528 86.3877C19.6528 85.9125 19.2676 85.5273 18.7924 85.5273C18.3173 85.5273 17.9321 85.9125 17.9321 86.3877C17.9321 86.8628 18.3173 87.248 18.7924 87.248Z" fill="#222222"/>
<path d="M22.8144 86.3877C22.8144 86.8631 22.4289 87.248 21.9541 87.248C21.4786 87.248 21.0938 86.8625 21.0938 86.3877C21.0938 85.9122 21.4792 85.5273 21.9541 85.5273C22.4295 85.5267 22.8144 85.9122 22.8144 86.3877Z" fill="#222222"/>
<path d="M39.0242 238.017C40.5613 239.942 43.2608 239.103 44.4543 237.794C45.6478 236.484 46.0728 234.668 46.4552 232.938C47.3283 228.985 48.1983 224.841 47.1185 220.939C46.7957 219.772 46.2795 218.621 45.3936 217.796C44.5078 216.971 43.1975 216.531 42.049 216.912C40.6901 217.365 39.9162 218.772 39.3763 220.099C37.7894 223.999 37.0871 228.256 37.3376 232.46C37.4538 234.423 37.8149 236.466 39.0242 238.017Z" fill="#C8131B"/>
<g opacity="0.2">
<path d="M39.0242 238.017C40.5613 239.942 43.2608 239.103 44.4543 237.794C45.6478 236.484 46.0728 234.668 46.4552 232.938C47.3283 228.985 48.1983 224.841 47.1185 220.939C46.7957 219.772 46.2795 218.621 45.3936 217.796C44.5078 216.971 43.1975 216.531 42.049 216.912C40.6901 217.365 39.9162 218.772 39.3763 220.099C37.7894 223.999 37.0871 228.256 37.3376 232.46C37.4538 234.423 37.8149 236.466 39.0242 238.017Z" fill="black"/>
</g>
<path d="M44.9504 247.887C47.1818 246.552 49.8886 246.226 52.4756 246.488C53.8655 246.629 55.3259 246.95 56.3273 247.924C57.3281 248.899 57.6205 250.706 56.6015 251.662C55.9947 252.231 55.1077 252.367 54.2771 252.41C52.2707 252.512 50.0242 252.3 48.4987 253.606C47.628 254.352 47.0918 255.534 46.0211 255.941C44.9729 256.339 43.7277 255.785 43.0997 254.856C42.4722 253.927 42.3774 252.722 42.5731 251.618C42.5731 251.619 42.7026 249.232 44.9504 247.887Z" fill="#C8131B"/>
<path d="M35.3324 241.152C36.7496 239.238 36.8731 236.569 36.0486 234.335C35.2242 232.101 33.5625 230.261 31.6887 228.791C29.492 227.068 26.956 225.779 24.2692 225.02C23.2119 224.722 22.1023 224.504 21.0176 224.676C19.9324 224.85 18.8684 225.476 18.4203 226.48C17.7576 227.963 18.5893 229.659 19.4593 231.031C20.9921 233.448 22.7158 235.744 24.6085 237.891C26.1309 239.619 27.857 241.308 30.055 241.993C32.2529 242.679 34.4763 242.442 35.5209 240.882" fill="#C8131B"/>
<path d="M40.8411 268.41C40.8679 268.41 40.8897 268.081 40.911 267.487C40.9341 266.817 40.9627 265.974 40.9967 264.973C41.0472 263.915 41.122 262.654 41.3281 261.273C41.5336 259.896 41.8966 258.395 42.3879 256.865C42.9004 255.342 43.5546 253.946 44.3499 252.812C45.1391 251.674 46.0869 250.827 46.9959 250.316C47.9012 249.796 48.7269 249.555 49.3008 249.436C49.8808 249.339 50.2055 249.272 50.2037 249.247C50.2025 249.22 49.8742 249.237 49.2753 249.291C48.6831 249.368 47.8203 249.574 46.8639 250.083C45.9039 250.584 44.8959 251.447 44.0659 252.61C43.2287 253.769 42.5496 255.196 42.0279 256.746C41.5281 258.303 41.1731 259.819 40.9822 261.225C40.7919 262.628 40.745 263.901 40.7286 264.966C40.7159 266.032 40.7402 266.893 40.7633 267.487C40.7876 268.082 40.815 268.41 40.8411 268.41Z" fill="#222222"/>
<path d="M40.8917 266.479C40.9045 266.477 40.9039 266.33 40.8893 266.052C40.8686 265.733 40.8419 265.331 40.8096 264.838C40.7403 263.785 40.6449 262.259 40.5829 260.372C40.4394 256.599 40.4363 251.378 40.7033 245.623C40.9744 239.865 41.487 234.67 42.0171 230.932C42.1393 229.996 42.2682 229.152 42.3935 228.412C42.5102 227.671 42.6099 227.033 42.7121 226.515C42.7972 226.028 42.8665 225.631 42.9218 225.316C42.9656 225.042 42.9826 224.896 42.9699 224.893C42.9571 224.89 42.9152 225.03 42.8471 225.3C42.7735 225.611 42.6811 226.004 42.5674 226.486C42.4427 227.001 42.3217 227.637 42.1849 228.376C42.0396 229.114 41.8919 229.957 41.7527 230.892C41.1532 234.63 40.5969 239.835 40.3251 245.605C40.0576 251.372 40.1032 256.605 40.316 260.383C40.4126 262.273 40.5488 263.799 40.6631 264.851C40.7245 265.342 40.7744 265.742 40.8139 266.06C40.8522 266.336 40.879 266.48 40.8917 266.479Z" fill="#222222"/>
<path d="M40.2839 256.417C40.31 256.414 40.2772 255.964 40.1951 255.148C40.0972 254.336 39.9106 253.164 39.5902 251.736C39.2564 250.311 38.8083 248.622 38.1571 246.797C37.5315 244.964 36.7064 242.995 35.6899 241.003C33.6932 236.992 31.1213 233.771 28.9368 231.813C28.4206 231.29 27.8588 230.924 27.4052 230.56C27.1712 230.386 26.9632 230.211 26.7541 230.075C26.5443 229.949 26.3491 229.832 26.168 229.724C25.4633 229.304 25.0693 229.084 25.0565 229.107C25.0012 229.193 26.6337 230.02 28.7544 232.01C30.8666 233.996 33.3715 237.197 35.3518 241.175C36.3599 243.15 37.188 245.101 37.8276 246.914C38.4927 248.72 38.9639 250.39 39.3293 251.798C39.6814 253.211 39.9063 254.368 40.0486 255.17C40.1757 255.974 40.2584 256.419 40.2839 256.417Z" fill="#222222"/>
<path d="M133.048 117.31C131.927 113.338 126.764 113.723 126.764 113.723L126.906 116.486C129.89 115.971 131.745 119.469 131.745 119.469L133.048 117.31Z" fill="#C8131B"/>
<path d="M82.2496 71.0938C79.4626 71.3892 79.1294 74.8889 79.1294 74.8889L80.9947 75.1102C80.9917 73.0539 83.5453 72.2131 83.5453 72.2131L82.2496 71.0938Z" fill="#C8131B"/>
<path d="M108.202 34.0201C109.902 38.3521 115.651 37.3446 115.651 37.3446L115.185 34.2609C111.893 35.1704 109.424 31.4531 109.424 31.4531L108.202 34.0201Z" fill="#C8131B"/>
<path d="M43.3673 107.201C40.5803 107.497 40.2471 110.996 40.2471 110.996L42.1124 111.218C42.1094 109.161 44.663 108.321 44.663 108.321L43.3673 107.201Z" fill="#C8131B"/>
<path d="M54.8508 47.8626C55.2557 45.0889 51.9488 43.8984 51.9488 43.8984L51.2715 45.6507C53.2645 46.1584 53.4457 48.8403 53.4457 48.8403L54.8508 47.8626Z" fill="#C8131B"/>
<path d="M7.20171 90.4292C6.70132 94.7776 12.4615 95.8307 12.4615 95.8307L13.5012 92.9852C10.0453 92.6727 9.54616 88.6016 9.54616 88.6016L7.20171 90.4292Z" fill="#C8131B"/>
<path d="M144.11 69.4454C146.908 69.6053 147.803 66.206 147.803 66.206L145.999 65.6855C145.668 67.7151 143.013 68.1315 143.013 68.1315L144.11 69.4454Z" fill="#C8131B"/>
<path d="M215.807 39.1145C215.123 39.2632 214.69 39.9218 214.836 40.5917C214.981 41.2617 215.649 41.681 216.332 41.5323L219.011 40.9499L225.578 56.2185C225.815 56.7631 226.414 57.0654 227.005 56.9369L243.87 53.2699C244.554 53.1212 244.987 52.4626 244.841 51.7926C244.695 51.1227 244.028 50.7033 243.344 50.852L227.503 54.2965L226.509 51.9804L242.808 48.4364C243.543 48.2765 244.087 47.6571 244.137 46.9184L244.833 37.9094C244.902 36.8181 243.697 34.7383 240.92 35.342C240.92 35.342 240.127 37.6739 239.343 39.5202C237.633 43.5461 235.14 48.2034 232.265 48.8819C223.903 50.8554 221.196 39.6308 221.196 39.6308L220.936 39.028C220.699 38.4833 220.1 38.181 219.509 38.3095L215.807 39.1145ZM229.23 63.2056C230.592 62.9093 231.462 61.586 231.172 60.2511C230.882 58.9163 229.541 58.0736 228.178 58.3699C226.816 58.6662 225.946 59.9895 226.236 61.3244C226.526 62.6592 227.867 63.5019 229.23 63.2056ZM245.98 57.0313C245.69 55.6965 244.349 54.8538 242.986 55.1501C241.624 55.4464 240.754 56.7697 241.044 58.1046C241.334 59.4394 242.675 60.2821 244.038 59.9858C245.4 59.6895 246.27 58.3662 245.98 57.0313Z" fill="#EDEDED"/>
<path d="M231.014 23.7371C231.532 23.6244 232.015 23.5196 232.496 23.415C232.992 23.307 233.176 23.4248 233.243 23.9457C233.299 24.3368 233.265 24.7346 233.145 25.1073C233.024 25.48 232.82 25.8171 232.549 26.0916C232.351 26.2979 232.017 26.3811 231.731 26.4749C231.367 26.5946 230.873 26.5527 230.648 26.7938C230.437 27.0212 230.493 27.5214 230.453 27.9044C230.208 30.271 229.95 32.636 229.736 35.0056C229.643 35.9228 229.707 36.8519 229.926 37.7507C230.127 38.5446 230.632 38.7551 231.243 38.241C231.612 37.9224 231.94 37.5564 232.219 37.1518C233.099 35.8991 233.689 34.4797 234.299 33.0741C234.381 32.8854 234.284 32.8104 234.18 32.7033C233.273 31.7662 232.644 30.6734 232.573 29.3375C232.542 28.7951 232.608 28.2527 232.768 27.7376C233.624 25.0979 234.529 22.4737 235.407 19.8406C235.481 19.6206 235.684 19.3618 235.9 19.3282C236.172 19.286 236.364 19.2273 236.881 19.3664C237.261 19.4375 237.647 19.866 237.709 20.3368C237.721 20.4296 237.673 20.534 237.641 20.6285C236.903 22.8213 236.165 25.0132 235.427 27.2042C235.385 27.3214 235.352 27.4384 235.307 27.5885L236.84 28.1622C236.925 27.9286 237.007 27.7005 237.084 27.4705C237.78 25.4071 238.474 23.3433 239.168 21.2793C239.319 20.8308 239.663 20.4237 240.458 20.725C240.988 20.9258 241.058 21.4452 240.909 21.8982C240.171 24.0897 239.432 26.2814 238.694 28.4733C238.662 28.5686 238.634 28.6659 238.591 28.8043L240.114 29.3773C240.164 29.2487 240.211 29.1403 240.249 29.0276C240.963 26.9097 241.7 24.8021 242.377 22.6726C242.606 21.9519 243.559 22.0118 243.919 22.1088C244.048 22.1436 244.287 22.3265 244.368 22.4972C244.519 22.8154 244.573 23.0089 244.54 23.1057C243.632 25.8268 242.739 28.5443 241.792 31.2508C241.312 32.6169 240.241 33.3747 238.938 33.8003C238.178 34.0489 237.624 34.0903 237.071 34.0114C236.92 34.5974 236.782 35.191 236.614 35.7743C236.072 37.6494 235.425 39.4759 234.347 41.0996C233.767 41.9738 233.122 42.8381 232.159 43.2487C229.925 44.2033 227.799 43.9906 225.809 42.3862C224.214 41.1025 223.64 39.3845 223.607 37.4381C223.588 36.3775 223.728 35.3088 223.848 34.255C224.076 32.2428 224.339 30.2306 224.587 28.2188C224.589 28.1591 224.588 28.0992 224.583 28.0395L222.774 28.4328C221.957 28.6106 221.564 28.2755 221.566 27.396C221.569 26.3439 222.091 25.6794 223.091 25.4619C223.695 25.3307 224.301 25.2101 224.902 25.0584C225.02 25.0286 225.178 24.8932 225.198 24.7837C225.757 21.6662 226.323 18.5506 226.83 15.4228C226.941 14.7319 226.854 13.9986 226.814 13.2876C226.785 12.7905 226.977 12.5181 227.482 12.5115C228.176 12.5008 228.814 12.7125 229.404 13.0783C230.952 14.0273 231.726 15.4335 231.604 17.2685C231.47 19.3038 231.249 21.3315 231.064 23.3624C231.052 23.4659 231.035 23.5741 231.014 23.7371Z" fill="#EDEDED"/>
<path d="M256.065 158.853C256.065 158.853 263.443 154.364 265.106 155.683C267.507 157.587 268.306 160.801 268.306 160.801C268.306 160.801 272.203 145.936 275.922 146.5C278.056 146.823 277.01 148.486 276.053 150.572C275.166 152.51 273.651 159.621 273.651 159.621C273.651 159.621 280.703 151.255 282.775 151.406C284.379 151.523 284.609 152.933 282.303 155.194C279.998 157.456 276.166 164.581 276.166 164.581C276.166 164.581 281.106 159.976 283.147 159.95C284.775 159.93 285.826 161.06 283.72 162.889C281.613 164.718 278.426 166.09 276.726 169.398C274.63 173.476 270.161 183.64 270.161 183.64L254.52 178.103C254.52 178.103 251.975 167.728 251.873 165.207C251.873 165.207 252.087 159.88 252.057 158.931C252.027 157.983 254.543 157.739 255.306 159.56C256.069 161.381 255.723 163.292 256.033 164.503C256.342 165.714 256.894 166.836 257.779 167.378C258.664 167.92 260.918 167.957 261.493 167.288C262.069 166.618 262.767 164.669 262.919 163.47C263.071 162.272 262.875 160.379 262.875 160.379C262.875 160.379 256.381 163.017 256.065 158.853Z" fill="#FFBE9D"/>
<path d="M80.3271 207.265L69.4585 203.194C69.4585 203.194 58.3935 196.715 56.3445 199.016C56.3445 199.016 54.1563 197.973 53.1835 200.307C52.6199 201.66 54.4792 203.623 54.4792 203.623C54.4792 203.623 53.9004 204.21 54.8166 206.196C55.7329 208.182 66.2361 214.445 66.2361 214.445C66.2361 214.445 79.8918 221.891 85.413 225.453L94.9404 212.495L93.6155 212C93.6155 212 92.8288 205.543 90.1858 203.821C87.3094 201.947 83.8395 196.878 83.0759 194.892C82.3122 192.906 78.646 193.822 79.257 197.947C79.8681 202.072 83.0759 203.141 82.7706 205.891C82.466 208.639 80.3271 207.265 80.3271 207.265Z" fill="#FFBE9D"/>
<path d="M63.6658 208.772C63.6233 208.848 61.5056 207.743 58.9374 206.303C56.368 204.864 54.3209 203.635 54.3634 203.558C54.406 203.482 56.5231 204.587 59.0925 206.027C61.6607 207.467 63.709 208.695 63.6658 208.772Z" fill="#EB996E"/>
<path d="M68.9702 205.716C68.952 205.755 68.209 205.455 67.0197 204.94C65.8317 204.423 64.2011 203.681 62.4379 202.78C60.6753 201.877 59.1218 200.976 58.0353 200.264C57.4942 199.906 57.0607 199.608 56.7743 199.384C56.4855 199.164 56.3317 199.034 56.3445 199.016C56.3731 198.976 57.0425 199.415 58.1533 200.075C59.2641 200.734 60.8261 201.599 62.582 202.498C64.3385 203.396 65.9497 204.168 67.1134 204.737C68.2777 205.303 68.9891 205.676 68.9702 205.716Z" fill="#EB996E"/>
<path d="M71.2571 211.703C71.2449 211.722 70.9026 211.535 70.294 211.18C69.6423 210.791 68.7783 210.275 67.7331 209.651L67.7039 209.634L67.6881 209.599C67.2084 208.562 66.612 207.341 65.8429 206.066C65.4537 205.44 65.0269 204.762 64.4603 204.239C63.8954 203.715 62.9956 203.624 62.3189 204.079C62.1736 204.161 61.9985 204.334 61.9778 204.391C61.9942 204.417 61.9924 204.422 62.0027 204.463L62.0465 204.598C62.0739 204.688 62.1085 204.779 62.1414 204.869C62.2733 205.232 62.4162 205.589 62.5566 205.94C62.8436 206.64 63.1214 207.318 63.3884 207.97C63.9289 209.259 64.425 210.442 64.8585 211.476L64.8384 211.444C65.7316 212.491 66.4703 213.356 67.0236 214.005C67.2552 214.287 67.4474 214.522 67.6073 214.717C67.738 214.882 67.8024 214.973 67.7933 214.981C67.7842 214.989 67.7021 214.914 67.5544 214.763C67.3817 214.58 67.1732 214.36 66.9221 214.095C66.3481 213.463 65.5826 212.621 64.6573 211.604L64.6457 211.591L64.6372 211.572C64.1848 210.558 63.6686 209.38 63.1154 208.085C62.843 207.434 62.5603 206.756 62.2678 206.056C62.1255 205.704 61.9808 205.347 61.8453 204.977C61.8112 204.885 61.7759 204.793 61.7455 204.695L61.6981 204.55C61.6811 204.497 61.6695 204.403 61.6665 204.332C61.723 204.14 61.81 204.101 61.8878 204.01C61.9705 203.936 62.0568 203.87 62.1474 203.813C62.5378 203.565 62.9998 203.436 63.4577 203.476C63.9179 203.506 64.3362 203.726 64.6609 204.004C65.289 204.591 65.6982 205.271 66.0927 205.915C66.86 207.217 67.4376 208.449 67.8979 209.507L67.8529 209.455C68.8762 210.115 69.7219 210.661 70.3597 211.072C70.9495 211.459 71.2693 211.683 71.2571 211.703Z" fill="#EB996E"/>
<path d="M82.1536 211.808C82.139 211.852 81.6313 211.71 80.8178 211.481C80.0055 211.26 78.8746 210.945 77.6051 210.914C76.3375 210.886 75.2102 211.241 74.5074 211.673C73.7942 212.099 73.4792 212.534 73.4355 212.496C73.4087 212.485 73.6659 211.986 74.3864 211.484C75.0947 210.98 76.2815 210.566 77.6112 210.597C78.9379 210.631 80.084 210.991 80.8847 211.268C81.6879 211.554 82.167 211.77 82.1536 211.808Z" fill="#EB996E"/>
<path d="M81.3363 208.938C81.4087 208.992 81.1381 209.463 80.8761 210.067C80.6092 210.669 80.4462 211.186 80.3569 211.17C80.2736 211.157 80.3021 210.581 80.5861 209.94C80.8664 209.296 81.2707 208.885 81.3363 208.938Z" fill="#EB996E"/>
<path d="M143.978 157.269C144.728 152.146 150.693 144.802 155.971 144.794C152.945 140.408 152.899 134.238 155.858 129.809C157.895 126.761 161.179 124.52 162.572 121.141C164.148 117.319 162.939 113 163.089 108.88C163.309 102.849 166.447 97.3407 169.503 92.1016C172.301 87.3045 175.714 82.0459 181.221 80.8676C184.706 80.1221 188.319 81.222 191.591 82.6149C207.244 89.2817 219.418 103.333 223.594 119.556C224.595 123.44 225.265 127.642 227.971 130.643C230.837 133.821 235.857 135.546 236.717 139.704C237.333 142.685 235.42 145.683 235.707 148.712C235.948 151.25 240.701 158.647 241.796 160.958C243.684 164.939 243.001 169.24 241.079 173.206C239.157 177.172 234.265 181.034 229.924 182.115L181.404 165.947C176.839 168.545 172.292 178.598 167.052 179.216C161.811 179.834 155.417 182.115 150.375 176.597C145.091 170.814 143.228 162.391 143.978 157.269Z" fill="#222222"/>
<path d="M224.431 109.01C223.888 113.071 225 119.784 227.22 123.252C228.709 125.58 231.195 127.095 233.647 128.427C236.099 129.759 238.667 131.036 240.526 133.093C242.385 135.15 243.381 138.235 242.139 140.698C246.51 142.328 248.47 147.896 246.866 152.202C245.263 156.509 240.866 159.405 236.273 160.266L216.26 154.246L211.866 128.709L223.417 109.01" fill="#222222"/>
<path d="M226.887 135.044C226.891 135.035 227.025 135.094 227.278 135.214C227.525 135.345 227.918 135.494 228.372 135.782C229.299 136.318 230.581 137.247 231.879 138.706C232.54 139.425 233.152 140.312 233.748 141.302C234.297 142.317 234.852 143.438 235.205 144.706C235.984 147.206 236.155 150.243 235.259 153.229L235.186 153.046C236.338 153.688 237.45 154.525 238.442 155.52C240.997 158.054 242.456 161.348 242.806 164.43C243.147 167.536 242.407 170.35 241.374 172.438C240.333 174.546 239.042 175.979 238.087 176.86C237.6 177.295 237.208 177.616 236.922 177.808C236.643 178.008 236.493 178.107 236.487 178.099C236.481 178.09 236.618 177.972 236.884 177.758C237.155 177.55 237.532 177.215 238.002 176.771C238.923 175.869 240.172 174.431 241.172 172.342C242.165 170.271 242.865 167.501 242.516 164.465C242.158 161.45 240.721 158.227 238.218 155.745C237.246 154.771 236.159 153.95 235.033 153.32L234.923 153.259L234.96 153.137C235.84 150.224 235.689 147.249 234.94 144.786C234.603 143.537 234.065 142.429 233.535 141.424C232.958 140.443 232.366 139.561 231.723 138.843C230.464 137.386 229.216 136.44 228.314 135.879C227.873 135.579 227.491 135.415 227.253 135.268C227.008 135.129 226.883 135.052 226.887 135.044Z" fill="#545454"/>
<path d="M167.687 161.49C167.687 161.49 158.745 164.209 155.611 168.769C153.393 171.994 130.691 221.159 130.691 221.159L96.2275 210.797L83.9058 227.072L122.25 248.325C129.36 252.266 138.006 252.228 145.08 248.225C149.003 246.005 152.2 242.698 154.286 238.703L164.036 220.022L167.687 161.49Z" fill="#C8131B"/>
<path d="M158.537 268.575L163.918 245.38L159.841 228.539C157.218 219.866 154.967 205.74 157.82 194.363L167.351 161.645L177.83 156.826L201.81 152.701C202.733 153.009 226.886 159.83 226.886 159.83C230.23 160.606 231.572 161.14 231.572 161.14L234.342 179.05L226.014 208.57L222.388 237.984L230.354 268.575H158.537Z" fill="#C8131B"/>
<path d="M172.395 159.325L179.349 156.213L210.692 156.649L218.105 160.952C218.105 160.952 192.212 189.531 185.713 190.476C169.367 192.853 172.395 159.325 172.395 159.325Z" fill="#FFBE9D"/>
<path d="M230.892 160.893C230.892 160.893 235.587 161.949 239.611 170.534C243.635 179.119 250.141 203.012 250.141 203.012L252.923 177.692L275.583 180.184L271.197 240.7C271.197 240.7 263.178 252.329 249.764 251.256C236.35 250.183 219.32 207.782 219.32 207.782L230.892 160.893Z" fill="#C8131B"/>
<path d="M246.604 233.931C246.599 233.93 246.598 233.881 246.599 233.784C246.604 233.669 246.61 233.528 246.617 233.356C246.641 232.953 246.674 232.403 246.716 231.709C246.802 230.279 246.973 228.213 247.21 225.662C247.682 220.56 248.547 213.534 249.605 205.792C250.664 198.047 251.564 191.031 252.092 185.938C252.357 183.392 252.561 181.33 252.686 179.904C252.752 179.212 252.805 178.664 252.844 178.262C252.864 178.091 252.88 177.951 252.893 177.836C252.906 177.74 252.915 177.691 252.921 177.691C252.926 177.692 252.928 177.742 252.926 177.839C252.921 177.954 252.915 178.095 252.908 178.267C252.884 178.67 252.851 179.219 252.809 179.914C252.723 181.344 252.552 183.41 252.315 185.96C251.843 191.062 250.978 198.089 249.919 205.834C248.861 213.576 247.961 220.591 247.432 225.684C247.167 228.23 246.963 230.292 246.839 231.718C246.772 232.411 246.719 232.959 246.68 233.36C246.661 233.531 246.644 233.672 246.631 233.786C246.619 233.882 246.61 233.931 246.604 233.931Z" fill="#222222"/>
<path d="M131.083 234.217C131.062 234.226 130.974 234.065 130.831 233.764C130.685 233.466 130.504 233.02 130.305 232.46C129.906 231.34 129.49 229.738 129.313 227.926C129.139 226.114 129.24 224.461 129.417 223.286C129.504 222.698 129.597 222.226 129.683 221.905C129.765 221.583 129.821 221.407 129.842 221.412C129.893 221.423 129.756 222.142 129.639 223.313C129.521 224.483 129.457 226.111 129.628 227.895C129.803 229.679 130.178 231.265 130.518 232.39C130.857 233.517 131.13 234.197 131.083 234.217Z" fill="#222222"/>
<path d="M134.893 234.781C134.876 234.794 134.735 234.633 134.494 234.329C134.25 234.028 133.924 233.57 133.549 232.987C132.795 231.824 131.887 230.118 131.188 228.115C130.492 226.108 130.145 224.208 130.014 222.828C129.947 222.138 129.918 221.576 129.922 221.188C129.922 220.801 129.933 220.587 129.955 220.586C130.008 220.584 130.047 221.438 130.236 222.8C130.423 224.162 130.8 226.029 131.487 228.01C132.179 229.988 133.041 231.686 133.74 232.869C134.437 234.055 134.937 234.749 134.893 234.781Z" fill="#222222"/>
<path d="M161.72 180.713C161.731 180.716 161.691 180.885 161.606 181.204C161.51 181.549 161.381 182.012 161.219 182.593C160.87 183.828 160.378 185.563 159.774 187.695C158.597 192.006 156.957 197.994 156.172 204.773C155.78 208.159 155.701 211.419 156.039 214.351C156.351 217.285 156.998 219.877 157.636 222.016C158.277 224.158 158.884 225.865 159.299 227.046C159.499 227.615 159.658 228.068 159.777 228.406C159.884 228.718 159.935 228.884 159.925 228.887C159.915 228.891 159.844 228.733 159.718 228.428C159.585 228.095 159.407 227.649 159.183 227.088C158.732 225.92 158.093 224.222 157.421 222.081C156.754 219.943 156.079 217.339 155.749 214.383C155.392 211.429 155.464 208.138 155.858 204.737C156.647 197.925 158.325 191.932 159.559 187.634C160.187 185.483 160.724 183.752 161.102 182.558C161.287 181.984 161.435 181.527 161.545 181.186C161.65 180.872 161.71 180.71 161.72 180.713Z" fill="#222222"/>
<path d="M225.088 220.585C225.083 220.588 225.055 220.537 225.006 220.437C224.95 220.319 224.88 220.171 224.793 219.988C224.603 219.568 224.339 218.986 224.004 218.246C223.669 217.487 223.24 216.565 222.784 215.478C222.345 214.378 221.846 213.132 221.297 211.756C220.762 210.371 220.247 208.827 219.657 207.182C219.399 206.347 219.132 205.485 218.856 204.596C218.72 204.151 218.581 203.699 218.441 203.242C218.31 202.781 218.197 202.31 218.071 201.834C217.052 198.043 216.183 193.782 215.927 189.243C215.65 184.711 216.081 180.332 217.238 176.557C218.321 172.757 220.226 169.639 222.257 167.461C224.286 165.26 226.4 163.99 227.914 163.312C228.677 162.98 229.285 162.757 229.709 162.647C229.905 162.593 230.063 162.548 230.188 162.513C230.296 162.484 230.353 162.473 230.354 162.478C230.355 162.483 230.302 162.506 230.197 162.544C230.074 162.586 229.92 162.641 229.728 162.707C229.312 162.836 228.715 163.078 227.965 163.424C226.479 164.13 224.407 165.415 222.422 167.612C220.433 169.788 218.575 172.871 217.517 176.639C216.386 180.384 215.968 184.72 216.243 189.224C216.497 193.733 217.352 197.976 218.352 201.759C218.474 202.233 218.595 202.7 218.715 203.163C218.852 203.619 218.988 204.07 219.122 204.515C219.391 205.402 219.652 206.265 219.905 207.099C220.483 208.743 220.984 210.288 221.505 211.676C222.037 213.056 222.521 214.307 222.946 215.409C223.387 216.501 223.799 217.429 224.116 218.195C224.428 218.944 224.674 219.534 224.85 219.96C224.926 220.149 224.986 220.301 225.034 220.422C225.075 220.528 225.092 220.583 225.088 220.585Z" fill="#222222"/>
<g opacity="0.3">
<path d="M216.451 193.176C213.489 207.19 213.449 221.606 218.549 234.99C218.845 235.767 220.016 238.527 220.846 238.568C221.898 238.62 222.32 237.752 222.58 236.272C222.954 234.139 223.183 230.629 223.557 228.496C224.026 225.825 224.661 219.641 224.661 219.641C224.661 219.641 222.211 214.034 221.134 211.027C219.135 205.447 217.446 200.122 216.512 193.618" fill="#610206"/>
</g>
<path d="M214.032 247.465C214.041 247.471 213.959 247.597 213.796 247.831C213.611 248.089 213.37 248.426 213.068 248.846C212.906 249.068 212.728 249.312 212.535 249.575C212.332 249.835 212.088 250.099 211.839 250.393C211.326 250.968 210.782 251.662 210.066 252.321C209.718 252.661 209.354 253.017 208.976 253.388C208.594 253.755 208.155 254.091 207.722 254.464C206.869 255.228 205.859 255.916 204.817 256.668C202.675 258.086 200.187 259.452 197.428 260.549C194.654 261.61 191.897 262.286 189.36 262.692C188.084 262.843 186.874 263.021 185.73 263.035C185.159 263.053 184.608 263.103 184.078 263.091C183.549 263.074 183.04 263.058 182.554 263.043C181.581 263.042 180.711 262.9 179.944 262.823C179.562 262.776 179.204 262.745 178.878 262.692C178.557 262.629 178.262 262.57 177.992 262.516C177.487 262.41 177.08 262.325 176.77 262.261C176.492 262.199 176.347 262.162 176.35 262.151C176.352 262.14 176.502 262.157 176.784 262.199C177.096 262.249 177.505 262.314 178.014 262.395C178.284 262.44 178.579 262.489 178.9 262.543C179.225 262.587 179.583 262.609 179.964 262.647C180.729 262.707 181.595 262.833 182.562 262.819C183.046 262.827 183.551 262.837 184.077 262.847C184.603 262.852 185.15 262.796 185.716 262.773C186.852 262.748 188.052 262.562 189.317 262.404C191.832 261.985 194.563 261.306 197.314 260.254C200.051 259.167 202.521 257.819 204.655 256.426C205.694 255.686 206.702 255.012 207.555 254.261C207.988 253.895 208.428 253.566 208.813 253.206C209.193 252.843 209.559 252.495 209.909 252.161C210.63 251.517 211.183 250.838 211.705 250.276C211.96 249.99 212.209 249.733 212.419 249.48C212.619 249.223 212.803 248.986 212.971 248.77C213.292 248.366 213.548 248.041 213.745 247.794C213.924 247.573 214.023 247.459 214.032 247.465Z" fill="#222222"/>
<path d="M209.087 238.192C209.108 238.196 209.078 238.431 209.006 238.855C208.939 239.281 208.796 239.888 208.581 240.628C208.155 242.108 207.345 244.102 206.065 246.085C204.778 248.064 203.289 249.618 202.113 250.612C201.525 251.111 201.029 251.489 200.668 251.724C200.311 251.963 200.108 252.087 200.095 252.069C200.061 252.022 200.838 251.475 201.964 250.445C203.09 249.418 204.53 247.863 205.799 245.912C207.061 243.958 207.891 242.009 208.368 240.561C208.848 239.113 209.031 238.181 209.087 238.192Z" fill="#222222"/>
<path d="M198.05 76.9922C206.534 77.0499 214.832 81.8398 219.126 89.1577C223.42 96.4749 223.554 106.056 219.466 113.49C218.073 116.025 216.069 118.425 213.315 119.308C214.252 104.768 208.457 89.9304 197.912 79.8753" fill="#C8131B"/>
<path d="M207.979 79.1874C206.719 76.5681 208.068 73.291 210.314 71.4463C212.56 69.6017 215.487 68.8569 218.314 68.1814C221.141 67.5065 224.07 66.8055 226.366 65.0234C226.035 69.5774 224.903 74.2632 221.956 77.7507C219.008 81.2376 213.902 83.1807 209.694 81.409" fill="#C8131B"/>
<path d="M210.899 82.1875C208.964 83.0016 206.657 82.4927 204.926 81.3065C203.194 80.1203 201.956 78.3431 200.939 76.5063C199.691 74.25 198.71 71.8126 198.378 69.2559C198.045 66.6993 198.395 64.0083 199.66 61.7617C202.989 65.3076 206.654 68.2868 208.557 72.7623C209.674 75.3913 209.539 79.6065 208.34 82.1996" fill="#C8131B"/>
<path d="M220.326 96.9317C220.348 96.9286 220.405 97.229 220.491 97.7774C220.537 98.051 220.585 98.3872 220.616 98.78C220.65 99.1728 220.705 99.619 220.715 100.116C220.77 101.107 220.752 102.292 220.653 103.603C220.537 104.911 220.328 106.345 219.983 107.822C219.625 109.298 219.166 110.672 218.68 111.893C218.179 113.108 217.66 114.173 217.165 115.034C216.932 115.473 216.683 115.847 216.475 116.183C216.271 116.52 216.076 116.798 215.912 117.022C215.588 117.472 215.401 117.714 215.383 117.702C215.366 117.689 215.518 117.423 215.809 116.954C215.957 116.721 216.135 116.435 216.324 116.091C216.515 115.749 216.75 115.37 216.968 114.927C217.435 114.06 217.927 112.994 218.409 111.785C218.875 110.57 219.321 109.209 219.674 107.749C220.016 106.287 220.231 104.871 220.362 103.577C220.476 102.281 220.517 101.108 220.49 100.123C220.495 99.63 220.456 99.1855 220.439 98.794C220.425 98.4018 220.396 98.0662 220.368 97.7914C220.321 97.2411 220.304 96.9347 220.326 96.9317Z" fill="#222222"/>
<path d="M218.427 80.6257C218.441 80.6421 218.204 80.8312 217.754 81.162C217.27 81.4277 216.544 81.8174 215.558 82.0119C213.602 82.4576 210.777 82.3646 207.794 81.5693L207.705 81.5456L207.685 81.455C207.644 81.2732 207.601 81.0774 207.558 80.8811C207.238 79.3033 207.162 77.7474 207.357 76.3582C207.533 74.9664 208.015 73.7559 208.634 72.8895C209.231 71.9982 209.961 71.5015 210.438 71.1671C210.957 70.8855 211.247 70.7421 211.257 70.7615C211.266 70.781 210.996 70.9622 210.506 71.2698C210.059 71.6303 209.371 72.1386 208.819 73.0154C208.245 73.8678 207.802 75.0406 207.646 76.3965C207.472 77.748 207.554 79.2705 207.868 80.8178C207.91 81.0106 207.953 81.2021 207.993 81.3802L207.884 81.2659C210.809 82.0503 213.597 82.1791 215.514 81.7979C216.484 81.6356 217.2 81.2866 217.694 81.0586C218.151 80.7655 218.413 80.6093 218.427 80.6257Z" fill="#222222"/>
<path d="M220.917 72.7477C220.927 72.8055 220.028 72.9313 218.634 73.3441C217.936 73.546 217.124 73.8445 216.246 74.2288C215.374 74.627 214.44 75.1195 213.511 75.7214C212.588 76.3325 211.764 76.9928 211.051 77.633C210.348 78.2848 209.75 78.911 209.286 79.4704C208.351 80.5836 207.877 81.357 207.828 81.3254C207.809 81.3138 207.915 81.1138 208.123 80.7593C208.325 80.4018 208.661 79.9093 209.112 79.3287C209.559 78.7444 210.149 78.0926 210.852 77.4184C211.566 76.7556 212.399 76.0771 213.338 75.4557C214.282 74.8435 215.236 74.3504 216.128 73.9607C217.027 73.5849 217.86 73.304 218.574 73.1271C219.287 72.9459 219.872 72.834 220.281 72.7909C220.689 72.7428 220.914 72.7258 220.917 72.7477Z" fill="#222222"/>
<path d="M210.769 82.1158C210.779 82.1182 210.771 82.1808 210.745 82.2988C210.725 82.4185 210.669 82.5876 210.583 82.801C210.406 83.2241 210.034 83.8042 209.38 84.3216C208.729 84.8214 207.769 85.2603 206.647 85.2038C205.524 85.1655 204.361 84.4864 203.638 83.4315C202.915 82.3766 202.701 81.0463 203.072 79.9847C203.424 78.9177 204.18 78.1808 204.881 77.7546C205.599 77.332 206.275 77.1934 206.733 77.1824C206.963 77.1788 207.141 77.1873 207.26 77.2122C207.379 77.2305 207.44 77.2457 207.439 77.256C207.436 77.2888 207.185 77.2542 206.743 77.3053C206.302 77.3533 205.666 77.5199 205 77.9449C204.348 78.3729 203.658 79.0861 203.349 80.0735C203.025 81.0505 203.228 82.269 203.9 83.2527C204.575 84.2334 205.637 84.8627 206.665 84.9126C207.697 84.9813 208.612 84.5952 209.246 84.1422C209.883 83.6741 210.268 83.1408 210.472 82.7475C210.679 82.3529 210.737 82.1066 210.769 82.1158Z" fill="#222222"/>
<path d="M203.397 82.268C203.368 82.2984 203.186 81.9372 203.475 81.463C203.61 81.2398 203.865 81.0106 204.196 80.8994C204.525 80.7802 204.905 80.7589 205.282 80.7857C206.8 80.8933 207.903 81.4849 207.862 81.5548C207.828 81.643 206.709 81.2021 205.261 81.1018C204.544 81.0289 203.922 81.218 203.658 81.5913C203.376 81.9445 203.447 82.2637 203.397 82.268Z" fill="#222222"/>
<path d="M199.661 61.7621C199.72 61.7894 198.989 62.6503 198.733 64.3625C198.593 65.2094 198.574 66.2357 198.589 67.38C198.603 68.5212 198.654 69.7785 198.913 71.0608C199.49 73.6144 200.534 75.8117 201.509 77.2162C202.003 77.9239 202.439 78.4729 202.747 78.8438C203.056 79.2153 203.247 79.4008 203.233 79.4184C203.196 79.464 202.368 78.7484 201.328 77.3469C200.283 75.94 199.194 73.7391 198.603 71.1241C198.338 69.8077 198.296 68.5303 198.297 67.3812C198.299 66.2339 198.341 65.1863 198.513 64.3236C198.674 63.4584 198.959 62.7926 199.208 62.3707C199.457 61.9475 199.648 61.7523 199.661 61.7621Z" fill="#222222"/>
<path d="M202.811 68.9756C202.844 68.9519 203.187 69.3356 203.666 70.0147C204.146 70.6926 204.752 71.6758 205.282 72.8322C205.812 73.9892 206.158 75.0921 206.35 75.9008C206.541 76.7106 206.597 77.2226 206.558 77.2305C206.46 77.2536 206.047 75.2417 204.994 72.9641C203.951 70.6841 202.726 69.0358 202.811 68.9756Z" fill="#222222"/>
<path d="M201.783 72.7637C201.846 72.7096 202.87 73.7457 204.211 74.9483C205.548 76.1564 206.619 77.1608 206.557 77.2307C206.503 77.2921 205.342 76.3978 203.998 75.1824C202.648 73.9718 201.712 72.8221 201.783 72.7637Z" fill="#222222"/>
<path d="M217.695 87.0276C217.698 87.0313 217.667 87.0604 217.607 87.1133C217.521 87.1863 217.433 87.2611 217.339 87.3413C217.108 87.5401 216.754 87.8058 216.302 88.1123C215.399 88.727 214.062 89.4566 212.474 89.9807C210.885 90.4999 209.375 90.7054 208.284 90.7455C207.739 90.7668 207.295 90.7626 206.991 90.7401C206.869 90.7315 206.753 90.723 206.641 90.7151C206.561 90.7078 206.52 90.7024 206.52 90.6981C206.52 90.6939 206.562 90.6908 206.642 90.6896C206.754 90.6902 206.87 90.6902 206.993 90.6908C207.297 90.6981 207.738 90.689 208.28 90.6562C209.363 90.5935 210.858 90.3753 212.435 89.8603C214.01 89.3404 215.343 88.6297 216.253 88.0375C216.709 87.7426 217.069 87.4891 217.31 87.3024C217.409 87.2295 217.502 87.1601 217.592 87.0939C217.656 87.0477 217.692 87.0246 217.695 87.0276Z" fill="#F6F6F6"/>
<path d="M221.276 94.385C221.279 94.3887 221.248 94.4179 221.187 94.4702C221.101 94.5419 221.012 94.6161 220.917 94.6951C220.683 94.8915 220.327 95.1554 219.874 95.4624C218.971 96.0771 217.641 96.8195 216.068 97.3886C214.493 97.954 212.996 98.2306 211.907 98.334C211.363 98.3869 210.921 98.4106 210.615 98.4088C210.492 98.4082 210.376 98.4082 210.263 98.4076C210.183 98.4057 210.141 98.4027 210.141 98.3985C210.141 98.3942 210.183 98.3887 210.263 98.382C210.375 98.3747 210.49 98.3674 210.613 98.3589C210.917 98.3456 211.357 98.3085 211.897 98.2446C212.978 98.1188 214.46 97.83 216.024 97.2688C217.586 96.7033 218.912 95.9792 219.824 95.387C220.281 95.0915 220.643 94.8392 220.886 94.6556C220.986 94.5833 221.079 94.5152 221.17 94.4495C221.237 94.4045 221.273 94.382 221.276 94.385Z" fill="#F6F6F6"/>
<path d="M220.282 105.118C220.286 105.125 220.195 105.192 220.024 105.308C219.854 105.425 219.599 105.579 219.276 105.756C218.63 106.111 217.691 106.525 216.601 106.811C215.51 107.095 214.489 107.194 213.752 107.201C213.384 107.205 213.086 107.195 212.88 107.176C212.675 107.159 212.562 107.146 212.563 107.137C212.564 107.128 212.677 107.125 212.883 107.127C213.088 107.131 213.384 107.127 213.75 107.112C214.481 107.082 215.489 106.97 216.57 106.688C217.649 106.404 218.583 106.009 219.235 105.677C219.562 105.511 219.822 105.37 219.999 105.266C220.176 105.164 220.277 105.11 220.282 105.118Z" fill="#F6F6F6"/>
<path d="M222.344 103.476C222.351 103.511 221.983 103.611 221.523 103.699C221.063 103.788 220.685 103.831 220.678 103.797C220.671 103.763 221.039 103.664 221.499 103.575C221.959 103.486 222.338 103.442 222.344 103.476Z" fill="#F6F6F6"/>
<path d="M216.311 116.094C216.316 116.127 215.694 116.222 214.925 116.164C214.154 116.11 213.553 115.924 213.562 115.893C213.571 115.857 214.176 115.984 214.934 116.038C215.69 116.096 216.308 116.057 216.311 116.094Z" fill="#F6F6F6"/>
<path d="M204.773 84.3023C204.79 84.3327 204.427 84.5655 203.962 84.8215C203.498 85.0781 203.107 85.2611 203.09 85.2301C203.073 85.1991 203.436 84.9668 203.901 84.7102C204.365 84.4543 204.756 84.2712 204.773 84.3023Z" fill="#F6F6F6"/>
<path d="M201.753 77.9205C201.769 77.9594 200.878 78.2263 199.962 78.8842C199.039 79.5335 198.493 80.2868 198.462 80.2595C198.45 80.2509 198.569 80.0521 198.811 79.7658C199.051 79.4794 199.422 79.1134 199.889 78.7808C200.356 78.4494 200.824 78.2196 201.173 78.0871C201.522 77.9539 201.749 77.9059 201.753 77.9205Z" fill="#F6F6F6"/>
<path d="M207.23 84.9883C207.189 84.9822 207.399 84.1602 207.263 83.1455C207.137 82.1289 206.724 81.3877 206.763 81.3713C206.776 81.364 206.895 81.5379 207.034 81.8492C207.173 82.1593 207.32 82.6122 207.388 83.129C207.454 83.6465 207.427 84.1213 207.371 84.4569C207.316 84.7931 207.245 84.992 207.23 84.9883Z" fill="#F6F6F6"/>
<path d="M226.042 65.1582C226.042 65.1582 225.829 65.433 225.376 65.8677C224.925 66.3031 224.22 66.8837 223.273 67.4862C222.325 68.0882 221.133 68.698 219.776 69.2938C218.422 69.8939 216.905 70.4867 215.368 71.2242C213.835 71.9642 212.432 72.8087 211.336 73.7961C210.239 74.7804 209.451 75.8766 208.968 76.8786C208.486 77.8849 208.297 78.7811 208.246 79.4012C208.192 80.0232 208.236 80.3698 208.215 80.3704C208.215 80.3704 208.204 80.2846 208.195 80.1199C208.178 79.9551 208.181 79.7113 208.196 79.3976C208.234 78.7719 208.41 77.8624 208.887 76.8403C209.365 75.8225 210.154 74.7087 211.258 73.7091C212.361 72.7059 213.773 71.8529 215.313 71.1099C216.856 70.3694 218.375 69.7802 219.729 69.1868C221.085 68.5977 222.276 67.9994 223.225 67.4102C224.173 66.8211 224.882 66.2544 225.342 65.8319C225.571 65.6197 225.746 65.4519 225.86 65.3321C225.977 65.2154 226.042 65.1582 226.042 65.1582Z" fill="#F6F6F6"/>
<path d="M224.398 72.3751C224.402 72.3775 224.374 72.425 224.318 72.5131C224.24 72.6305 224.156 72.7557 224.065 72.8949C223.846 73.2269 223.505 73.6914 223.06 74.2459C222.173 75.3567 220.814 76.7965 219.098 78.1323C217.377 79.4644 215.646 80.4232 214.349 81.0069C213.702 81.3005 213.167 81.5164 212.791 81.6459C212.634 81.7006 212.491 81.7505 212.359 81.7961C212.26 81.8289 212.207 81.8447 212.206 81.8404C212.204 81.8362 212.254 81.8131 212.35 81.7724C212.48 81.7195 212.62 81.6629 212.773 81.5997C213.143 81.4568 213.671 81.2288 214.311 80.926C215.593 80.3235 217.308 79.3574 219.019 78.0325C220.727 76.7035 222.087 75.282 222.99 74.1894C223.442 73.644 223.793 73.1892 224.024 72.8664C224.123 72.7326 224.212 72.6116 224.296 72.4991C224.359 72.4152 224.395 72.3727 224.398 72.3751Z" fill="#F6F6F6"/>
<path d="M199.02 63.832C199.02 63.832 199.77 64.1178 200.863 64.8079C201.955 65.4931 203.359 66.6313 204.59 68.178C205.815 69.7296 206.602 71.3579 207.02 72.5775C207.441 73.799 207.548 74.5942 207.548 74.5942C207.544 74.5948 207.528 74.5474 207.502 74.4562C207.469 74.3316 207.434 74.1996 207.395 74.0562C207.31 73.7072 207.156 73.2092 206.935 72.6073C206.498 71.4022 205.705 69.7959 204.49 68.2564C203.27 66.7225 201.887 65.5831 200.814 64.8827C200.278 64.5306 199.829 64.2668 199.508 64.1044C199.377 64.0339 199.257 63.9694 199.144 63.908C199.061 63.8618 199.018 63.8357 199.02 63.832Z" fill="#F6F6F6"/>
<path d="M168.528 86.6934C168.766 89.9158 166.638 92.7946 164.493 95.212C162.349 97.6295 159.963 100.149 159.5 103.347C158.678 109.015 164.227 114.276 163.083 119.888C162.469 122.895 160.007 125.31 159.569 128.349C159.144 131.287 160.719 134.162 162.671 136.399C164.622 138.636 166.883 138.309 168.609 140.724C170.427 143.268 173.355 145.879 176.098 147.38C182.317 150.786 189.78 145.858 192.78 144.974" fill="#222222"/>
<path d="M215.555 99.9008C218.422 98.6532 218.647 88.3804 211.455 87.1942C208.57 86.7181 206.167 85.3106 203.742 83.6781C201.594 82.2329 200.958 78.5642 199.139 76.7214C194.679 72.2003 187.716 70.3264 181.59 71.9978C175.464 73.6692 170.417 78.8196 168.872 84.9786C167.827 89.141 168.54 94.0615 171.821 96.8279C175.629 100.038 181.274 99.325 186.153 98.3267C191.033 97.3283 196.555 96.3428 200.629 99.2083C203.086 100.936 204.494 103.747 205.995 106.348C207.497 108.95 209.382 111.605 212.222 112.583C212.222 112.583 214.384 117.665 212.619 121.202C210.854 124.739 214.695 118.707 214.695 118.707C214.695 118.707 221.697 106.256 215.555 99.9008Z" fill="#222222"/>
<path d="M179.127 171.999C179.086 165.292 179.129 146.459 179.127 146.494C179.127 146.494 168.473 144.701 166.296 130.792C165.213 123.875 165.586 112.538 166.19 103.271C166.734 94.9309 172.284 84.7086 180.594 85.606L206.533 92.2235C209.057 92.4958 210.953 94.6548 210.898 97.1939L209.319 161.613L179.127 171.999Z" fill="#FFBE9D"/>
<path d="M170.606 111.217C170.57 112.159 171.338 112.965 172.321 113.02C173.302 113.075 174.128 112.358 174.163 111.416C174.198 110.475 173.43 109.667 172.45 109.612C171.467 109.558 170.642 110.276 170.606 111.217Z" fill="#222222"/>
<path d="M168.637 109.174C168.858 109.407 170.211 108.41 172.13 108.419C174.047 108.401 175.453 109.391 175.662 109.157C175.764 109.053 175.54 108.633 174.927 108.185C174.325 107.739 173.296 107.304 172.101 107.307C170.905 107.31 169.899 107.749 169.32 108.197C168.729 108.65 168.529 109.07 168.637 109.174Z" fill="#222222"/>
<path d="M187.498 112.232C187.719 112.465 189.074 111.469 190.991 111.478C192.908 111.46 194.315 112.45 194.523 112.215C194.625 112.111 194.404 111.692 193.789 111.244C193.186 110.798 192.158 110.363 190.963 110.365C189.768 110.37 188.761 110.807 188.182 111.256C187.592 111.708 187.39 112.128 187.498 112.232Z" fill="#222222"/>
<path d="M180.502 123.79C180.512 123.681 179.319 123.472 177.387 123.22C176.897 123.169 176.434 123.07 176.352 122.736C176.237 122.381 176.443 121.854 176.682 121.284C177.145 120.099 177.63 118.857 178.139 117.556C180.163 112.248 181.63 107.883 181.415 107.804C181.2 107.724 179.386 111.962 177.362 117.27C176.875 118.579 176.409 119.826 175.966 121.021C175.779 121.577 175.458 122.208 175.707 122.943C175.838 123.31 176.197 123.576 176.512 123.661C176.825 123.758 177.101 123.764 177.343 123.778C179.288 123.887 180.495 123.899 180.502 123.79Z" fill="#222222"/>
<path d="M179.126 146.494C179.126 146.494 188.479 147.118 197.759 141.568C197.602 141.602 192.631 151.234 179.307 149.778L179.126 146.494Z" fill="#EB996E"/>
<path d="M181.056 129.328C180.828 128.147 182.216 127.764 183.238 127.129C184.259 126.494 184.846 125.651 185.803 126.379C186.35 126.795 186.74 127.392 186.986 128.034C187.151 128.466 187.255 128.936 187.178 129.392C187.083 129.947 186.731 130.425 186.323 130.812C185.746 131.359 185.024 131.771 184.24 131.902C183.455 132.033 182.608 131.864 181.984 131.372C181.36 130.879 180.991 130.051 181.124 129.268" fill="#D13F45"/>
<path d="M186.147 125.129C185.835 125.11 185.827 127.193 184.04 128.668C182.258 130.147 180.038 129.908 180.021 130.199C179.991 130.33 180.514 130.605 181.451 130.632C182.371 130.666 183.714 130.374 184.806 129.471C185.896 128.567 186.366 127.359 186.439 126.504C186.52 125.634 186.289 125.118 186.147 125.129Z" fill="#222222"/>
<path d="M187.213 107.946C187.401 108.468 189.318 108.225 191.568 108.501C193.824 108.732 195.639 109.395 195.938 108.928C196.072 108.704 195.757 108.213 195.024 107.706C194.297 107.2 193.137 106.718 191.786 106.565C190.435 106.414 189.197 106.626 188.376 106.958C187.549 107.289 187.133 107.698 187.213 107.946Z" fill="#222222"/>
<path d="M168.904 102.537C169.241 102.974 170.564 102.524 172.154 102.506C173.742 102.432 175.088 102.805 175.4 102.35C175.536 102.129 175.325 101.692 174.738 101.278C174.159 100.866 173.19 100.528 172.098 100.559C171.006 100.591 170.058 100.984 169.505 101.429C168.942 101.875 168.756 102.324 168.904 102.537Z" fill="#222222"/>
<path d="M212.418 138.739C208.595 139.51 208.254 137.564 205.397 134.908C202.54 132.252 201.064 128.184 201.554 124.314C201.986 120.899 203.827 117.425 202.644 114.192C201.078 109.918 195.088 108.604 193.498 104.339C192.574 101.861 193.403 98.9617 192.356 96.5327C191.371 94.2485 188.968 92.9334 186.629 92.0876C184.291 91.2419 181.783 90.6582 179.819 89.1315C177.855 87.6048 176.63 84.7241 177.897 82.584C188.27 83.8267 198.493 86.311 208.28 89.9663C210.549 90.8139 212.933 91.8323 214.275 93.849C215.695 95.9831 215.627 98.741 215.508 101.301C214.925 113.787 214.342 126.271 213.76 138.757" fill="#222222"/>
<path d="M221.279 134.073C221.287 134.079 221.338 134.021 221.431 133.9C221.516 133.775 221.671 133.605 221.814 133.344C222.129 132.84 222.505 132.028 222.73 130.912C222.953 129.803 222.974 128.364 222.507 126.807C222.073 125.252 220.99 123.582 219.272 122.455C217.621 121.291 215.474 120.481 214.109 118.63C213.428 117.727 213.14 116.553 213.354 115.365C213.54 114.172 214.085 113.003 214.564 111.757C215.627 109.266 215.637 106.153 214.384 103.456C213.753 102.115 212.817 100.864 211.563 99.9506C210.317 99.0088 208.797 98.5236 207.298 98.1826C205.792 97.839 204.29 97.6396 202.895 97.2189C201.505 96.803 200.175 96.1798 199.208 95.2022C198.217 94.2366 197.797 92.9003 197.609 91.5542C197.419 90.2093 197.318 88.8139 196.954 87.5116C196.275 84.9038 194.949 82.5934 193.202 80.9336C191.455 79.2634 189.315 78.3046 187.294 78.003C185.267 77.6869 183.356 78.0626 181.919 78.8166C180.467 79.5559 179.458 80.581 178.81 81.5082C178.163 82.4475 177.862 83.292 177.722 83.8678C177.578 84.4454 177.587 84.7622 177.587 84.7622C177.677 84.7999 177.696 83.4574 179.003 81.6474C179.662 80.7682 180.662 79.8033 182.072 79.1224C183.465 78.428 185.288 78.1015 187.227 78.4293C189.157 78.7442 191.198 79.6878 192.85 81.2984C194.507 82.9023 195.767 85.1312 196.409 87.6532C196.753 88.913 196.841 90.2409 197.031 91.6411C197.212 93.0176 197.675 94.5437 198.781 95.6229C199.853 96.71 201.273 97.3654 202.719 97.802C204.18 98.2434 205.687 98.4416 207.161 98.779C208.628 99.1122 210.057 99.5755 211.202 100.441C212.364 101.284 213.243 102.449 213.84 103.709C215.023 106.259 215.039 109.165 214.035 111.559C213.576 112.783 213.018 113.984 212.821 115.286C212.589 116.579 212.938 117.956 213.697 118.93C215.214 120.925 217.426 121.701 219.026 122.813C220.691 123.878 221.723 125.419 222.18 126.911C222.659 128.398 222.676 129.789 222.495 130.874C222.115 133.071 221.187 134.034 221.279 134.073Z" fill="#545454"/>
<path d="M203.187 120.256C200.039 127.502 199.455 135.832 201.563 143.446C202.193 145.721 203.061 148.079 202.524 150.377C201.942 152.865 199.862 154.665 198.344 156.721C195.731 160.259 194.713 164.93 195.616 169.235C196.519 173.539 199.329 177.407 203.143 179.597C203.545 177.311 205.672 175.752 207.77 174.758C209.868 173.764 212.186 173.026 213.786 171.344C215.386 169.662 215.838 166.578 213.979 165.189C219.331 163.79 222.365 157.433 221.238 152.016C220.111 146.599 215.707 142.32 210.696 139.974" fill="#222222"/>
<path d="M208.895 174.25C207.937 174.775 207.009 175.244 206.891 176.33C206.752 177.603 207.973 179.838 208.412 181.042C209.27 183.396 208.624 186.226 206.828 187.974C205.033 189.722 202.186 190.292 199.856 189.372C201.568 189.503 203.022 187.832 203.174 186.121C203.327 184.41 202.497 182.758 201.475 181.377C200.455 179.995 199.218 178.767 198.352 177.283C196.59 174.262 193.972 166.045 195.987 161.441" fill="#222222"/>
<path d="M213.761 165.401C213.755 165.391 213.868 165.296 214.09 165.123C214.313 164.952 214.636 164.693 215.044 164.351C215.854 163.662 217.005 162.621 218.169 161.118C219.327 159.624 220.512 157.641 221.131 155.211C221.739 152.8 221.783 149.922 220.739 147.226C220.219 145.883 219.443 144.693 218.539 143.673C217.645 142.644 216.67 141.747 215.755 140.876C214.839 140.005 213.976 139.159 213.26 138.279C212.542 137.398 212 136.479 211.624 135.589C210.846 133.811 210.815 132.162 211.088 131.12C211.227 130.597 211.401 130.213 211.543 129.969C211.688 129.726 211.768 129.602 211.778 129.608C211.82 129.627 211.449 130.116 211.209 131.148C210.979 132.174 211.043 133.771 211.83 135.5C212.21 136.364 212.752 137.258 213.463 138.112C214.174 138.97 215.036 139.801 215.956 140.664C216.874 141.529 217.86 142.426 218.774 143.47C219.696 144.503 220.501 145.732 221.035 147.113C222.108 149.884 222.05 152.828 221.415 155.284C220.767 157.763 219.541 159.763 218.346 161.258C217.144 162.761 215.961 163.785 215.123 164.448C214.701 164.777 214.364 165.022 214.128 165.177C213.893 165.331 213.768 165.409 213.761 165.401Z" fill="#545454"/>
<path d="M84.3183 172.682C68.2076 172.682 55.1025 159.575 55.1025 143.466C55.1025 127.355 68.2091 114.25 84.3183 114.25C100.427 114.25 113.534 127.357 113.534 143.466C113.534 159.575 100.427 172.682 84.3183 172.682ZM84.3183 117.265C69.8702 117.265 58.1173 129.019 58.1173 143.466C58.1173 157.914 69.8717 169.667 84.3183 169.667C98.7649 169.667 110.519 157.914 110.519 143.466C110.519 129.019 98.7649 117.265 84.3183 117.265Z" fill="#C8131B"/>
<path d="M82.1989 152.468C81.8432 152.468 81.4889 152.343 81.2025 152.093C78.6475 149.844 74.2762 145.946 73.7154 145.105C73.2542 144.411 73.4411 143.475 74.133 143.014C74.8173 142.556 75.7368 142.735 76.2071 143.407C76.6141 143.918 79.3831 146.454 82.1612 148.917L96.9545 134.876C97.5559 134.303 98.5116 134.325 99.0859 134.931C99.6587 135.534 99.6346 136.49 99.0301 137.063L83.2345 152.055C82.9466 152.329 82.5727 152.468 82.1989 152.468Z" fill="#C8131B"/>
</svg>
