<svg width="273" height="260" viewBox="0 0 273 260" fill="none" xmlns="http://www.w3.org/2000/svg">
<path d="M61.893 66.8496C61.6785 67.5741 57.9867 73.3529 52.6691 75.3241C47.3516 77.2897 43.3945 79.4631 44.8735 82.0577C46.3524 84.6523 52.8836 83.237 52.8836 83.237C52.8836 83.237 39.6293 97.5746 52.1046 105.768C67.3234 115.759 83.2309 79.9966 83.2309 79.9966L61.893 66.8552V66.8496Z" fill="#EDEDED"/>
<path d="M80.7297 84.8992C80.6902 84.9665 75.6718 81.9901 69.5245 78.2555C63.3772 74.5152 58.4265 71.432 58.4661 71.3646C58.5056 71.2973 63.5239 74.2737 69.6713 78.0084C75.8186 81.743 80.7692 84.8318 80.7297 84.8992Z" fill="#C6C6C6"/>
<path d="M78.3706 89.1846C78.331 89.252 72.9119 86.0902 66.2678 82.1197C59.6237 78.1492 54.2666 74.8751 54.3118 74.8077C54.3513 74.7403 59.7705 77.9021 66.4202 81.8782C73.0643 85.8487 78.4157 89.1228 78.3762 89.1902L78.3706 89.1846Z" fill="#C6C6C6"/>
<path d="M75.5258 93.2516C75.4863 93.319 69.401 89.7585 61.9328 85.2938C54.4645 80.8291 48.447 77.1562 48.4865 77.0888C48.526 77.0214 54.6113 80.582 62.0795 85.0467C69.5422 89.5058 75.5653 93.1786 75.5258 93.246V93.2516Z" fill="#C6C6C6"/>
<path d="M71.9744 98.2746C71.9349 98.342 67.2157 95.4779 61.4409 91.8836C55.6662 88.2838 51.0147 85.3129 51.0599 85.2512C51.0994 85.1838 55.8186 88.0479 61.5934 91.6422C67.3681 95.2364 72.0139 98.2072 71.9744 98.2746Z" fill="#C6C6C6"/>
<path d="M67.8029 103.136C67.7577 103.204 63.366 100.385 57.992 96.8409C52.618 93.2972 48.2996 90.3713 48.3391 90.3039C48.3843 90.2365 52.7761 93.0557 58.15 96.5994C63.524 100.143 67.8424 103.069 67.7973 103.136H67.8029Z" fill="#C6C6C6"/>
<path d="M62.4793 106.505C62.4793 106.505 62.2309 106.41 61.8132 106.196C61.3955 105.983 60.7915 105.657 60.0576 105.242C58.5843 104.416 56.5803 103.231 54.4127 101.85C52.245 100.462 50.3257 99.1426 48.954 98.1598C48.271 97.6656 47.7234 97.2613 47.3508 96.9692C46.9783 96.6828 46.7751 96.5143 46.792 96.4975C46.8033 96.4807 47.0291 96.6154 47.4186 96.8794C47.8589 97.1714 48.4121 97.5477 49.0725 97.9914C50.4669 98.9348 52.4031 100.227 54.5651 101.608C56.7327 102.99 58.7141 104.197 60.1592 105.067C60.8423 105.483 61.4124 105.826 61.864 106.101C62.2648 106.348 62.4849 106.494 62.4736 106.511L62.4793 106.505Z" fill="#C6C6C6"/>
<path d="M49.9986 83.5594C49.976 83.6268 48.5761 83.1831 47.0576 82.2172C45.5334 81.2569 44.5399 80.1786 44.5907 80.1337C44.6528 80.0719 45.7197 81.0378 47.21 81.9757C48.7002 82.9248 50.0268 83.4808 49.9986 83.5594Z" fill="#C6C6C6"/>
<path d="M82.2428 79.2441C82.2428 79.2441 82.1864 79.3565 82.0509 79.553C81.8985 79.772 81.7009 80.0585 81.4582 80.4123C80.9388 81.1536 80.1768 82.215 79.2228 83.5179C77.3091 86.1237 74.6165 89.6899 71.54 93.548C68.4579 97.4062 65.5846 100.826 63.4621 103.269C62.4008 104.494 61.5372 105.471 60.9275 106.139C60.6396 106.454 60.4025 106.706 60.2219 106.908C60.0582 107.083 59.9679 107.172 59.9622 107.161C59.9566 107.156 60.03 107.054 60.1767 106.869C60.3461 106.661 60.5662 106.397 60.8428 106.066C61.4468 105.347 62.2823 104.353 63.3097 103.135C65.387 100.658 68.2377 97.2209 71.3198 93.3683C74.3963 89.5158 77.1172 85.9721 79.0647 83.4C80.0244 82.1307 80.809 81.0974 81.3735 80.3505C81.6332 80.0135 81.8477 79.7383 82.0114 79.5249C82.1581 79.3396 82.2428 79.2441 82.2485 79.2498L82.2428 79.2441Z" fill="#C6C6C6"/>
<path d="M77.93 76.1817C77.9921 76.2322 72.7084 83.0949 66.1264 91.5077C59.5387 99.926 54.1535 106.71 54.0914 106.66C54.0293 106.609 59.3129 99.7463 65.9006 91.328C72.4826 82.9096 77.8735 76.1255 77.9356 76.1761L77.93 76.1817Z" fill="#C6C6C6"/>
<path d="M71.9123 72.7912C71.9123 72.7912 71.8615 72.9148 71.743 73.1338C71.6075 73.3753 71.4269 73.6898 71.2011 74.0829C70.7212 74.9028 70.0043 76.0766 69.0786 77.4974C67.2327 80.3447 64.4836 84.1524 61.2434 88.1959C58.0088 92.245 54.9436 95.7999 52.7364 98.372C51.6413 99.6356 50.7494 100.669 50.1059 101.41C49.8067 101.747 49.564 102.017 49.3777 102.225C49.2084 102.41 49.118 102.505 49.1067 102.494C49.1011 102.489 49.1745 102.382 49.3325 102.185C49.5075 101.966 49.7333 101.685 50.0156 101.332C50.6422 100.573 51.5115 99.5233 52.5784 98.2372C54.746 95.6258 57.783 92.054 61.0176 88.0105C64.2521 83.9726 67.0182 80.1931 68.9092 77.3795C69.8576 75.9755 70.5971 74.8186 71.1051 74.0211C71.3478 73.6392 71.5454 73.336 71.6922 73.1001C71.8276 72.8923 71.9067 72.7856 71.9123 72.7912Z" fill="#C6C6C6"/>
<path d="M66.9735 69.9749C67.0356 70.0254 62.5309 75.9559 56.9086 83.2286C51.2862 90.5013 46.6799 96.3531 46.6178 96.3082C46.5557 96.2576 51.0604 90.3272 56.6828 83.0545C62.3051 75.7874 66.9114 69.9299 66.9735 69.9749Z" fill="#C6C6C6"/>
<path d="M63.2583 67.5707C63.2583 67.5707 63.1059 67.8627 62.7841 68.3625C62.626 68.6152 62.4228 68.9185 62.1744 69.2555C61.9261 69.5924 61.6495 69.9911 61.3051 70.4011C60.6503 71.2379 59.7979 72.187 58.7988 73.1754C57.7883 74.1526 56.6142 75.1747 55.3045 76.1406C53.9836 77.0954 52.6571 77.9041 51.4152 78.5724C50.162 79.2238 49.0048 79.7461 48.0056 80.1224C47.5145 80.3245 47.0516 80.4649 46.6508 80.6053C46.2501 80.7457 45.9001 80.8468 45.6122 80.9198C45.0364 81.0771 44.7146 81.1501 44.709 81.1332C44.709 81.1164 45.0138 80.9985 45.5783 80.8131C45.8606 80.7233 46.2049 80.6053 46.6 80.4537C46.9952 80.3021 47.4468 80.1504 47.9322 79.937C48.9145 79.5439 50.0604 79.0048 51.291 78.3421C52.5159 77.6682 53.8312 76.8595 55.1352 75.9104C56.4335 74.9501 57.602 73.9504 58.6181 72.9845C59.6229 72.0129 60.481 71.0863 61.1527 70.2719C61.5027 69.8732 61.7849 69.4913 62.0503 69.16C62.3156 68.8343 62.5301 68.5422 62.6994 68.3007C63.0494 67.8234 63.247 67.5594 63.2639 67.5707H63.2583Z" fill="#C6C6C6"/>
<path d="M89.0852 59.666H18.292V67.1016H89.0852V59.666Z" fill="#C6C6C6"/>
<path d="M40.7367 66.8496C40.5222 67.5741 36.8304 73.3529 31.5129 75.3241C26.1953 77.2897 22.2382 79.4631 23.7172 82.0577C25.1962 84.6523 31.7274 83.237 31.7274 83.237C31.7274 83.237 18.4731 97.5746 30.9484 105.768C46.1672 115.759 62.0746 79.9966 62.0746 79.9966L40.7367 66.8552V66.8496Z" fill="#EDEDED"/>
<path d="M59.5686 84.8992C59.5291 84.9665 54.5107 81.9901 48.3634 78.2555C42.216 74.5152 37.2654 71.432 37.3049 71.3646C37.3444 71.2973 42.3628 74.2737 48.5101 78.0084C54.6575 81.743 59.6081 84.8318 59.5686 84.8992Z" fill="#C6C6C6"/>
<path d="M57.2143 89.1846C57.1748 89.252 51.7556 86.0902 45.1115 82.1197C38.4674 78.1492 33.1104 74.8751 33.1556 74.8077C33.1951 74.7403 38.6142 77.9021 45.264 81.8782C51.9081 85.8487 57.2595 89.1228 57.22 89.1902L57.2143 89.1846Z" fill="#C6C6C6"/>
<path d="M54.3696 93.2516C54.33 93.319 48.2448 89.7585 40.7765 85.2938C33.3083 80.8291 27.2908 77.1562 27.3303 77.0888C27.3698 77.0214 33.455 80.582 40.9233 85.0467C48.3859 89.5058 54.4091 93.1786 54.3696 93.246V93.2516Z" fill="#C6C6C6"/>
<path d="M50.8191 98.2746C50.7796 98.342 46.0605 95.4779 40.2857 91.8836C34.5109 88.2838 29.8595 85.3129 29.9046 85.2512C29.9441 85.1838 34.6633 88.0479 40.4381 91.6422C46.2129 95.2364 50.8587 98.2072 50.8191 98.2746Z" fill="#C6C6C6"/>
<path d="M46.6476 103.136C46.6025 103.204 42.2107 100.385 36.8367 96.8409C31.4627 93.2972 27.1443 90.3713 27.1839 90.3039C27.229 90.2365 31.6208 93.0557 36.9948 96.5994C42.3688 100.143 46.6872 103.069 46.642 103.136H46.6476Z" fill="#C6C6C6"/>
<path d="M41.3184 106.505C41.3184 106.505 41.07 106.41 40.6523 106.196C40.2346 105.983 39.6306 105.657 38.8967 105.242C37.4234 104.416 35.4194 103.231 33.2518 101.85C31.0841 100.462 29.1648 99.1426 27.7931 98.1598C27.1101 97.6656 26.5625 97.2613 26.1899 96.9692C25.8174 96.6828 25.6142 96.5143 25.6254 96.4975C25.6367 96.4807 25.8625 96.6154 26.252 96.8794C26.6923 97.1714 27.2455 97.5477 27.906 97.9914C29.3003 98.9348 31.2365 100.227 33.3985 101.608C35.5662 102.99 37.5476 104.197 38.9927 105.067C39.6757 105.483 40.2459 105.826 40.6974 106.101C41.0982 106.348 41.3184 106.494 41.3071 106.511L41.3184 106.505Z" fill="#C6C6C6"/>
<path d="M28.8375 83.5594C28.8149 83.6268 27.4149 83.1831 25.8964 82.2172C24.3723 81.2569 23.3788 80.1786 23.4296 80.1337C23.4917 80.0719 24.5586 81.0378 26.0488 81.9757C27.5391 82.9248 28.8657 83.4808 28.8375 83.5594Z" fill="#C6C6C6"/>
<path d="M61.0875 79.2441C61.0875 79.2441 61.0311 79.3565 60.8956 79.553C60.7432 79.772 60.5456 80.0585 60.3029 80.4123C59.7836 81.1536 59.0215 82.215 58.0675 83.5179C56.1539 86.1237 53.4612 89.6899 50.3847 93.548C47.3026 97.4062 44.4293 100.826 42.3068 103.269C41.2456 104.494 40.3819 105.471 39.7722 106.139C39.4843 106.454 39.2472 106.706 39.0666 106.908C38.9029 107.083 38.8126 107.172 38.8069 107.161C38.8013 107.156 38.8747 107.054 39.0214 106.869C39.1908 106.661 39.411 106.397 39.6876 106.066C40.2916 105.347 41.127 104.353 42.1544 103.135C44.2317 100.658 47.0824 97.2209 50.1646 93.3683C53.2411 89.5158 55.9619 85.9721 57.9151 83.4C58.8747 82.1307 59.6594 81.0974 60.2239 80.3505C60.4835 80.0135 60.698 79.7383 60.8617 79.5249C61.0085 79.3396 61.0932 79.2441 61.0988 79.2498L61.0875 79.2441Z" fill="#C6C6C6"/>
<path d="M56.7747 76.1817C56.8368 76.2322 51.5531 83.0949 44.9711 91.5077C38.3835 99.926 32.9982 106.71 32.9361 106.66C32.874 106.609 38.1577 99.7463 44.7453 91.328C51.3273 82.9096 56.7182 76.1255 56.7803 76.1761L56.7747 76.1817Z" fill="#C6C6C6"/>
<path d="M50.7512 72.7912C50.7512 72.7912 50.7004 72.9148 50.5818 73.1338C50.4464 73.3753 50.2657 73.6898 50.0399 74.0829C49.5601 74.9028 48.8432 76.0766 47.9174 77.4974C46.0715 80.3447 43.3224 84.1524 40.0822 88.1959C36.8477 92.245 33.7825 95.7999 31.5753 98.372C30.4802 99.6356 29.5883 100.669 28.9448 101.41C28.6456 101.747 28.4029 102.017 28.2166 102.225C28.0472 102.41 27.9569 102.505 27.9456 102.494C27.94 102.489 28.0134 102.382 28.1714 102.185C28.3464 101.966 28.5722 101.685 28.8545 101.332C29.481 100.573 30.3504 99.5233 31.4173 98.2372C33.5849 95.6258 36.6219 92.054 39.8508 88.0105C43.0854 83.9726 45.8514 80.1931 47.7424 77.3795C48.6908 75.9755 49.4303 74.8186 49.9383 74.0211C50.1811 73.6392 50.373 73.336 50.5254 73.1001C50.6609 72.8923 50.7399 72.7856 50.7455 72.7912H50.7512Z" fill="#C6C6C6"/>
<path d="M45.8172 69.9749C45.8793 70.0254 41.3747 75.9559 35.7523 83.2286C30.1299 90.5013 25.5237 96.3531 25.4616 96.3082C25.3995 96.2576 29.9041 90.3272 35.5265 83.0545C41.1489 75.7874 45.7551 69.9299 45.8172 69.9749Z" fill="#C6C6C6"/>
<path d="M42.0971 67.5707C42.0971 67.5707 41.9447 67.8627 41.623 68.3625C41.4649 68.6152 41.2617 68.9185 41.0133 69.2555C40.7649 69.5924 40.4883 69.9911 40.144 70.4011C39.4892 71.2379 38.6368 72.187 37.6376 73.1754C36.6272 74.1526 35.453 75.1747 34.1434 76.1406C32.8225 77.0954 31.4959 77.9041 30.254 78.5724C29.0009 79.2238 27.8437 79.7461 26.8445 80.1224C26.3534 80.3245 25.8905 80.4649 25.4897 80.6053C25.0889 80.7457 24.7389 80.8468 24.451 80.9198C23.8753 81.0771 23.5535 81.1501 23.5479 81.1332C23.5479 81.1164 23.8527 80.9985 24.4172 80.8131C24.6994 80.7233 25.0438 80.6053 25.4389 80.4537C25.8341 80.3021 26.2856 80.1504 26.7711 79.937C27.7533 79.5439 28.8993 79.0048 30.1299 78.3421C31.3548 77.6682 32.6701 76.8595 33.9741 75.9104C35.2724 74.9501 36.4409 73.9504 37.457 72.9845C38.4618 72.0129 39.3198 71.0863 39.9916 70.2719C40.3416 69.8732 40.6238 69.4913 40.8891 69.16C41.1544 68.8343 41.3689 68.5422 41.5383 68.3007C41.8883 67.8234 42.0858 67.5594 42.1028 67.5707H42.0971Z" fill="#C6C6C6"/>
<path d="M55.9882 22.4609H51.4609V26.965H55.9882V22.4609Z" fill="#C6C6C6"/>
<path d="M74.9333 32.9629H32.7373V59.4591H74.9333V32.9629Z" fill="#EDEDED"/>
<path d="M32.7373 32.9625C32.7373 32.9625 39.1951 26.2514 55.3905 26.5154C71.5858 26.785 74.9276 32.9625 74.9276 32.9625H32.7373Z" fill="#EDEDED"/>
<path d="M74.7694 33.3882C74.7694 33.4668 65.2859 33.5342 53.5839 33.5342C41.8819 33.5342 32.3984 33.4724 32.3984 33.3882C32.3984 33.304 41.8819 33.2422 53.5839 33.2422C65.2859 33.2422 74.7694 33.304 74.7694 33.3882Z" fill="#C6C6C6"/>
<path d="M74.7695 33.3961H84.27C85.1336 33.3961 85.828 34.0925 85.828 34.9461V35.4684C85.828 36.3277 85.128 37.0184 84.27 37.0184H74.7695V33.3905V33.3961Z" fill="#C6C6C6"/>
<path d="M32.8896 37.0159H23.3892C22.5255 37.0159 21.8312 36.3195 21.8312 35.4659V34.9436C21.8312 34.0843 22.5312 33.3936 23.3892 33.3936H32.8896V37.0215V37.0159Z" fill="#C6C6C6"/>
<path d="M58.427 21.1641H49.2427C48.6254 21.1641 48.125 21.6619 48.125 22.276V22.6467C48.125 23.2608 48.6254 23.7586 49.2427 23.7586H58.427C59.0443 23.7586 59.5447 23.2608 59.5447 22.6467V22.276C59.5447 21.6619 59.0443 21.1641 58.427 21.1641Z" fill="#C6C6C6"/>
<path d="M259.507 193.721H15.7861V258.765H259.507V193.721Z" fill="#EDEDED"/>
<path d="M261.194 191.02H12.6865V198.932H261.194V191.02Z" fill="#C6C6C6"/>
<path d="M89.5317 209.543H25.4277V229.238H89.5317V209.543Z" fill="#EDEDED"/>
<path d="M57.4801 221.041C58.3936 221.041 59.1341 220.304 59.1341 219.395C59.1341 218.487 58.3936 217.75 57.4801 217.75C56.5667 217.75 55.8262 218.487 55.8262 219.395C55.8262 220.304 56.5667 221.041 57.4801 221.041Z" fill="#C6C6C6"/>
<path d="M89.5317 233.393H25.4277V253.088H89.5317V233.393Z" fill="#EDEDED"/>
<path d="M57.4801 244.883C58.3936 244.883 59.1341 244.146 59.1341 243.237C59.1341 242.328 58.3936 241.592 57.4801 241.592C56.5667 241.592 55.8262 242.328 55.8262 243.237C55.8262 244.146 56.5667 244.883 57.4801 244.883Z" fill="#C6C6C6"/>
<path d="M246.556 209.543H182.452V229.238H246.556V209.543Z" fill="#EDEDED"/>
<path d="M214.505 221.041C215.418 221.041 216.159 220.304 216.159 219.395C216.159 218.487 215.418 217.75 214.505 217.75C213.591 217.75 212.851 218.487 212.851 219.395C212.851 220.304 213.591 221.041 214.505 221.041Z" fill="#C6C6C6"/>
<path d="M246.556 233.393H182.452V253.088H246.556V233.393Z" fill="#EDEDED"/>
<path d="M214.505 244.883C215.418 244.883 216.159 244.146 216.159 243.237C216.159 242.328 215.418 241.592 214.505 241.592C213.591 241.592 212.851 242.328 212.851 243.237C212.851 244.146 213.591 244.883 214.505 244.883Z" fill="#C6C6C6"/>
<path d="M91.5182 258.875C91.5182 258.875 91.5125 258.583 91.5069 258.01C91.5069 257.426 91.5012 256.567 91.4956 255.444C91.4899 253.18 91.4787 249.856 91.4674 245.588C91.4504 237.023 91.4335 224.679 91.4053 209.539V209.426H91.5182C114.064 209.415 143.333 209.404 175.216 209.393H175.368V209.539C175.368 227.01 175.363 243.689 175.357 258.869V259.004H175.221C150.655 258.976 129.712 258.954 114.911 258.937C107.527 258.92 101.673 258.909 97.6599 258.897C95.6672 258.892 94.1261 258.886 93.0818 258.881C92.5681 258.881 92.1786 258.875 91.9077 258.875C91.6424 258.875 91.5125 258.869 91.5125 258.869C91.5125 258.869 91.6537 258.869 91.919 258.864C92.1899 258.864 92.5907 258.864 93.11 258.858C94.16 258.858 95.7067 258.847 97.7163 258.841C101.736 258.83 107.601 258.819 114.995 258.802C129.78 258.785 150.683 258.763 175.216 258.735L175.08 258.869C175.08 243.689 175.075 227.01 175.069 209.539L175.216 209.685H175.21C143.327 209.673 114.058 209.662 91.5125 209.651L91.6254 209.539C91.6028 224.646 91.5803 236.967 91.5633 245.515C91.552 249.794 91.5407 253.124 91.5351 255.393C91.5351 256.522 91.5238 257.387 91.5238 257.976C91.5238 258.56 91.5125 258.869 91.5125 258.869L91.5182 258.875Z" fill="#EDEDED"/>
<path d="M53.7929 167.396C53.7929 170.833 50.9931 173.624 47.5327 173.624C44.0724 173.624 41.2725 170.839 41.2725 167.396C41.2725 163.953 44.0724 161.168 47.5327 161.168C50.9931 161.168 53.7929 163.953 53.7929 167.396Z" fill="#C6C6C6"/>
<path d="M59.7427 173.523C63.2001 173.523 66.0029 170.734 66.0029 167.295C66.0029 163.855 63.2001 161.066 59.7427 161.066C56.2852 161.066 53.4824 163.855 53.4824 167.295C53.4824 170.734 56.2852 173.523 59.7427 173.523Z" fill="#EDEDED"/>
<path d="M35.3227 173.523C38.7802 173.523 41.583 170.734 41.583 167.295C41.583 163.855 38.7802 161.066 35.3227 161.066C31.8653 161.066 29.0625 163.855 29.0625 167.295C29.0625 170.734 31.8653 173.523 35.3227 173.523Z" fill="#EDEDED"/>
<path d="M27.002 168.633H67.8826C67.8826 168.633 67.4649 185.402 56.4855 187.458L56.3161 191.018H37.908V187.39C37.908 187.39 27.002 184.616 27.002 168.633Z" fill="#EDEDED"/>
<path d="M56.4853 187.456C56.4853 187.512 52.3137 187.563 47.1655 187.563C42.0173 187.563 37.8457 187.518 37.8457 187.456C37.8457 187.395 42.0173 187.35 47.1655 187.35C52.3137 187.35 56.4853 187.395 56.4853 187.456Z" fill="white"/>
<path d="M66.296 177.274C66.296 177.274 66.2057 177.291 66.0364 177.307C65.8557 177.324 65.6017 177.347 65.263 177.375C64.5913 177.414 63.5695 177.498 62.2938 177.229C61.6615 177.094 60.9616 176.864 60.2955 176.431C59.635 176.004 58.9858 175.381 58.602 174.533C58.4157 174.106 58.3084 173.629 58.3141 173.129C58.3367 172.629 58.4947 172.118 58.8334 171.697C59.0028 171.489 59.2173 171.304 59.4713 171.192C59.7253 171.079 60.0189 171.04 60.3067 171.079C60.8769 171.175 61.3849 171.562 61.6785 172.079C61.972 172.601 62.0228 173.241 61.9156 173.842C61.8083 174.449 61.5486 175.027 61.2099 175.566C60.5269 176.639 59.46 177.538 58.1673 178.015C56.8803 178.504 55.3618 178.498 53.9901 177.97C53.307 177.706 52.6578 177.324 52.0933 176.819C51.5458 176.308 51.0265 175.707 50.8063 174.943C50.699 174.567 50.6934 174.146 50.8119 173.758C50.9305 173.376 51.1845 173.011 51.5627 172.815C52.3248 172.427 53.2844 172.714 53.8376 173.331C54.4078 173.949 54.6562 174.769 54.7916 175.572C54.9215 176.386 54.8876 177.229 54.7182 178.049C54.3739 179.683 53.4651 181.25 52.0764 182.306C51.3877 182.834 50.5805 183.227 49.7281 183.451C48.8701 183.665 47.9725 183.726 47.0863 183.625C45.3138 183.44 43.6259 182.586 42.4969 181.261C41.9381 180.598 41.5204 179.807 41.3736 178.953C41.2212 178.105 41.4075 177.195 41.8986 176.493C42.3728 175.791 43.18 175.263 44.0549 175.308C44.9073 175.359 45.7146 175.864 46.0645 176.639C46.2452 177.021 46.2565 177.47 46.1492 177.863C46.0307 178.262 45.7936 178.616 45.5057 178.891C44.9243 179.447 44.1791 179.778 43.434 179.975C40.4365 180.789 37.2528 179.885 35.3053 177.953C34.8255 177.465 34.4303 176.897 34.2045 176.268C33.9731 175.645 33.9392 174.96 34.0916 174.337C34.244 173.713 34.5884 173.14 35.0964 172.77C35.5988 172.393 36.248 172.27 36.8294 172.349C37.4165 172.427 37.9641 172.725 38.3197 173.163C38.6753 173.601 38.8672 174.146 38.8729 174.679C38.8842 175.213 38.6922 175.724 38.3931 176.122C38.0995 176.527 37.71 176.83 37.3149 177.072C36.5189 177.549 35.6778 177.779 34.9158 177.97C34.1481 178.155 33.4368 178.262 32.7933 178.324C31.5062 178.442 30.4958 178.374 29.8184 178.307C29.141 178.234 28.791 178.15 28.791 178.15C28.791 178.15 28.8813 178.155 29.0507 178.178C29.2257 178.2 29.4797 178.234 29.8184 178.262C30.4958 178.318 31.5006 178.374 32.782 178.24C33.4199 178.172 34.1311 178.06 34.8876 177.875C35.644 177.678 36.4738 177.448 37.2471 176.976C37.631 176.74 38.0036 176.443 38.2802 176.055C38.5624 175.673 38.7374 175.19 38.7261 174.685C38.7205 174.185 38.5342 173.668 38.1955 173.258C37.8624 172.848 37.3488 172.573 36.7955 172.5C36.2423 172.427 35.6383 172.545 35.1754 172.899C34.7013 173.241 34.3795 173.786 34.2384 174.376C34.0916 174.971 34.1255 175.617 34.3513 176.212C34.5658 176.813 34.9496 177.358 35.4182 177.83C37.3205 179.705 40.4478 180.587 43.3719 179.784C44.0945 179.593 44.8114 179.267 45.3589 178.745C45.6299 178.487 45.8444 178.167 45.9516 177.807C46.0476 177.448 46.042 177.06 45.8783 176.718C45.5678 176.027 44.8114 175.555 44.0437 175.51C43.6542 175.482 43.2703 175.606 42.926 175.797C42.5873 175.999 42.2881 176.274 42.0679 176.605C41.6107 177.268 41.4357 178.11 41.5825 178.914C41.7236 179.722 42.1244 180.48 42.6663 181.121C43.7558 182.401 45.3928 183.232 47.1201 183.412C47.9838 183.507 48.8588 183.451 49.6886 183.243C50.5184 183.024 51.2918 182.648 51.9635 182.137C53.307 181.115 54.1933 179.587 54.532 178.004C54.7013 177.206 54.7352 176.386 54.6053 175.6C54.4812 174.82 54.2271 174.033 53.7078 173.466C53.2111 172.899 52.3304 172.652 51.6756 172.989C51.3539 173.157 51.1281 173.472 51.0208 173.82C50.9136 174.168 50.9136 174.544 51.0152 174.893C51.2127 175.6 51.7151 176.19 52.2401 176.678C52.782 177.167 53.4143 177.538 54.0747 177.796C55.4013 178.313 56.8746 178.318 58.1222 177.852C59.381 177.397 60.4196 176.521 61.0914 175.482C61.4188 174.96 61.6728 174.398 61.7801 173.82C61.8873 173.247 61.8422 172.641 61.5712 172.158C61.3003 171.675 60.8261 171.315 60.3124 171.225C60.0527 171.186 59.7931 171.225 59.556 171.321C59.3245 171.427 59.127 171.59 58.9689 171.787C58.6528 172.18 58.4947 172.669 58.4721 173.14C58.4608 173.618 58.5568 174.078 58.7374 174.488C59.1044 175.314 59.7366 175.926 60.3801 176.347C61.0293 176.774 61.718 177.004 62.3389 177.145C63.5977 177.425 64.6138 177.352 65.2856 177.324C65.6186 177.307 65.8783 177.291 66.0589 177.279C66.2339 177.268 66.3243 177.268 66.3243 177.268L66.296 177.274Z" fill="white"/>
<path d="M213.63 0H170.045V33.1006H213.63V0Z" fill="#EDEDED"/>
<path d="M118.518 69.216L170.045 33.0996H213.629L267.375 69.216V74.2535H118.518V69.216Z" fill="#EDEDED"/>
<path d="M267.375 69.2168H118.518V74.2543H267.375V69.2168Z" fill="#EDEDED"/>
<path d="M179.235 33.4207L156.977 69.2169H193.974L187.408 33.4207V0H179.054L179.235 33.4207Z" fill="#EDEDED"/>
<path d="M213.008 33.4175C213.008 33.4961 203.248 33.5635 191.219 33.5635C179.19 33.5635 169.424 33.4961 169.424 33.4175C169.424 33.3389 179.178 33.2715 191.219 33.2715C203.26 33.2715 213.008 33.3389 213.008 33.4175Z" fill="#C6C6C6"/>
<path d="M15.7857 118.238H0.555664V133.39H15.7857V118.238Z" fill="#EDEDED"/>
<path d="M15.7857 135.215H0.555664V150.367H15.7857V135.215Z" fill="#EDEDED"/>
<path d="M32.9469 118.238H17.7168V133.39H32.9469V118.238Z" fill="#EDEDED"/>
<path d="M32.9469 135.215H17.7168V150.367H32.9469V135.215Z" fill="#EDEDED"/>
<path d="M50.1129 118.238H34.8828V133.39H50.1129V118.238Z" fill="#EDEDED"/>
<path d="M50.1129 135.215H34.8828V150.367H50.1129V135.215Z" fill="#EDEDED"/>
<path d="M67.273 118.238H52.043V133.39H67.273V118.238Z" fill="#EDEDED"/>
<path d="M67.273 135.215H52.043V150.367H67.273V135.215Z" fill="#EDEDED"/>
<path d="M84.1744 118.238H68.9443V133.39H84.1744V118.238Z" fill="#EDEDED"/>
<path d="M84.1744 135.215H68.9443V150.367H84.1744V135.215Z" fill="#EDEDED"/>
<path d="M101.34 118.238H86.1104V133.39H101.34V118.238Z" fill="#EDEDED"/>
<path d="M101.34 135.215H86.1104V150.367H101.34V135.215Z" fill="#EDEDED"/>
<path d="M118.502 118.238H103.271V133.39H118.502V118.238Z" fill="#EDEDED"/>
<path d="M118.502 135.215H103.271V150.367H118.502V135.215Z" fill="#EDEDED"/>
<path d="M135.667 118.238H120.437V133.39H135.667V118.238Z" fill="#EDEDED"/>
<path d="M135.667 135.215H120.437V150.367H135.667V135.215Z" fill="#EDEDED"/>
<path d="M152.563 118.238H137.333V133.39H152.563V118.238Z" fill="#EDEDED"/>
<path d="M152.563 135.215H137.333V150.367H152.563V135.215Z" fill="#EDEDED"/>
<path d="M169.73 118.238H154.5V133.39H169.73V118.238Z" fill="#EDEDED"/>
<path d="M169.73 135.215H154.5V150.367H169.73V135.215Z" fill="#EDEDED"/>
<path d="M186.89 118.238H171.66V133.39H186.89V118.238Z" fill="#EDEDED"/>
<path d="M186.89 135.215H171.66V150.367H186.89V135.215Z" fill="#EDEDED"/>
<path d="M204.056 118.238H188.826V133.39H204.056V118.238Z" fill="#EDEDED"/>
<path d="M204.056 135.215H188.826V150.367H204.056V135.215Z" fill="#EDEDED"/>
<path d="M220.957 118.238H205.727V133.39H220.957V118.238Z" fill="#EDEDED"/>
<path d="M220.957 135.215H205.727V150.367H220.957V135.215Z" fill="#EDEDED"/>
<path d="M238.118 118.238H222.888V133.39H238.118V118.238Z" fill="#EDEDED"/>
<path d="M238.118 135.215H222.888V150.367H238.118V135.215Z" fill="#EDEDED"/>
<path d="M255.278 118.238H240.048V133.39H255.278V118.238Z" fill="#EDEDED"/>
<path d="M255.278 135.215H240.048V150.367H255.278V135.215Z" fill="#EDEDED"/>
<path d="M272.444 118.238H257.214V133.39H272.444V118.238Z" fill="#EDEDED"/>
<path d="M272.444 135.215H257.214V150.367H272.444V135.215Z" fill="#EDEDED"/>
<path d="M260.522 259.502C260.522 259.77 205.213 260 137.003 260C68.7939 260 13.4727 259.77 13.4727 259.502C13.4727 259.234 68.7713 259.004 137.003 259.004C205.235 259.004 260.522 259.234 260.522 259.502Z" fill="#7A7A7A"/>
<path d="M133.297 72.0682L90.74 74.5954C88.0868 83.9966 87.7086 93.0664 90.6045 102.383C91.4287 105.04 92.6536 107.848 95.4591 109.392C97.9711 110.774 101.234 110.858 104.293 110.824C119.123 110.667 133.946 108.937 148.251 105.691C145.434 104.135 143.814 101.283 144.186 98.5363C145.406 101.226 148.866 103.063 152.434 103.175C156.001 103.287 159.529 101.788 161.714 99.5023C149.611 94.0211 133.591 83.2665 133.303 72.0682H133.297Z" fill="#222222"/>
<path d="M161.454 89.8477C161.454 89.8477 161.325 89.8589 161.082 89.8589C160.839 89.8533 160.483 89.8533 160.021 89.8252C159.1 89.7803 157.768 89.6848 156.137 89.4602C152.891 89.0165 148.347 88.0281 143.932 85.5514C141.742 84.3047 139.84 82.8052 138.321 81.244C136.803 79.6771 135.651 78.0654 134.867 76.622C134.076 75.1787 133.608 73.9264 133.36 73.0391C133.213 72.601 133.156 72.2472 133.1 72.0169C133.049 71.7811 133.026 71.6575 133.032 71.6519C133.06 71.6463 133.185 72.1349 133.467 73.0054C133.749 73.8702 134.246 75.1001 135.047 76.521C135.843 77.9418 137 79.5199 138.513 81.0587C140.026 82.5974 141.912 84.0688 144.079 85.3043C148.443 87.7529 152.942 88.7694 156.171 89.2636C157.791 89.5107 159.117 89.6399 160.032 89.7185C160.467 89.7578 160.817 89.7859 161.087 89.8084C161.33 89.8308 161.454 89.8477 161.454 89.8589V89.8477Z" fill="#222222"/>
<path d="M168.82 171.769C168.662 171.808 156.266 167.888 156.266 167.888L152.371 170.949L163.001 175.543C163.001 175.543 167.691 176.077 169.944 177.396C172.19 178.716 168.826 171.769 168.826 171.769H168.82Z" fill="#222222"/>
<path d="M166.912 172.537C166.912 172.537 166.935 172.661 166.991 172.88C167.352 174.166 169.119 178.759 176.452 181.41C185.044 184.51 203.774 185.375 206.884 184.892C212.901 183.949 218.518 179.282 218.281 178.114" fill="#222222"/>
<path d="M218.287 178.112C218.079 180.01 206.411 180.302 192.225 178.763C178.039 177.225 166.71 174.433 166.913 172.535C167.122 170.637 178.79 170.345 192.976 171.884C207.161 173.422 218.491 176.214 218.287 178.112Z" fill="#545454"/>
<path d="M200.268 176.791C201.21 175.848 202.548 175.286 201.848 174.191C201.656 174.562 200.714 174.55 200.386 174.837C200.059 175.123 199.15 174.781 198.704 174.668C198.151 174.522 197.852 173.972 197.886 173.472C197.919 172.972 198.207 172.517 198.495 172.085C199.082 171.203 199.703 170.338 200.358 169.496C200.595 169.187 200.843 168.867 200.9 168.502C200.956 168.137 200.759 167.71 200.347 167.603C199.98 167.508 199.602 167.688 199.285 167.867C197.88 168.659 196.502 169.665 195.989 171.052C195.667 171.922 195.712 172.882 195.317 173.736C194.928 174.59 193.799 175.32 192.85 174.91C192.269 174.657 191.992 174.073 191.84 173.523C191.687 172.972 191.603 172.388 191.219 171.928C190.835 171.467 190.022 171.22 189.531 171.591C188.69 172.22 189.762 173.601 189.046 174.337C188.741 174.652 188.193 174.708 187.742 174.584C187.29 174.461 186.917 174.185 186.573 173.905C184.208 171.99 182.469 169.502 181.611 166.795C181.504 166.447 181.402 166.093 181.171 165.795C180.939 165.497 180.544 165.267 180.132 165.312C179.483 165.385 179.189 166.07 179.189 166.643C179.189 168.255 180.375 169.659 181.515 170.939C182.825 172.405 184.134 173.876 185.438 175.342L187.222 177.392L194.888 179.071L200.076 178.004L200.273 176.791H200.268Z" fill="#C8131B"/>
<g opacity="0.6">
<path d="M200.268 176.791C201.21 175.848 202.548 175.286 201.848 174.191C201.656 174.562 200.714 174.55 200.386 174.837C200.059 175.123 199.15 174.781 198.704 174.668C198.151 174.522 197.852 173.972 197.886 173.472C197.919 172.972 198.207 172.517 198.495 172.085C199.082 171.203 199.703 170.338 200.358 169.496C200.595 169.187 200.843 168.867 200.9 168.502C200.956 168.137 200.759 167.71 200.347 167.603C199.98 167.508 199.602 167.688 199.285 167.867C197.88 168.659 196.502 169.665 195.989 171.052C195.667 171.922 195.712 172.882 195.317 173.736C194.928 174.59 193.799 175.32 192.85 174.91C192.269 174.657 191.992 174.073 191.84 173.523C191.687 172.972 191.603 172.388 191.219 171.928C190.835 171.467 190.022 171.22 189.531 171.591C188.69 172.22 189.762 173.601 189.046 174.337C188.741 174.652 188.193 174.708 187.742 174.584C187.29 174.461 186.917 174.185 186.573 173.905C184.208 171.99 182.469 169.502 181.611 166.795C181.504 166.447 181.402 166.093 181.171 165.795C180.939 165.497 180.544 165.267 180.132 165.312C179.483 165.385 179.189 166.07 179.189 166.643C179.189 168.255 180.375 169.659 181.515 170.939C182.825 172.405 184.134 173.876 185.438 175.342L187.222 177.392L194.888 179.071L200.076 178.004L200.273 176.791H200.268Z" fill="white"/>
</g>
<path d="M202.446 179.769C202.616 178.741 203.553 177.843 204.716 177.596C205.105 177.511 205.529 177.495 205.879 177.32C206.229 177.146 206.471 176.731 206.245 176.439C206.025 176.152 205.54 176.175 205.145 176.231C204.247 176.36 203.355 176.489 202.458 176.613C203.18 175.894 203.903 175.17 204.62 174.451C204.908 174.164 205.207 173.777 204.998 173.44C204.8 173.12 204.275 173.109 203.863 173.182C202.452 173.429 201.165 174.147 200.313 175.147C199.551 176.046 199.116 177.169 198.151 177.899C197.276 178.562 196.006 178.803 194.888 178.528C193.77 178.253 192.833 177.467 192.483 176.501C192.336 176.091 192.274 175.636 191.947 175.316C191.332 174.703 190.078 174.967 189.536 175.63C189 176.293 188.989 177.169 189.062 177.983C186.595 174.788 183.846 171.452 179.731 170.042C179.009 169.795 178.224 169.61 177.456 169.728C176.694 169.846 175.96 170.334 175.836 170.997C175.695 171.772 176.372 172.48 177.112 172.934C178.517 173.799 180.239 174.176 181.758 174.883C183.276 175.591 184.925 176.647 184.829 178.14C184.829 178.14 192.235 179.258 195.904 179.353C199.573 179.449 202.441 179.752 202.441 179.752L202.446 179.769Z" fill="#C8131B"/>
<g opacity="0.8">
<path d="M202.446 179.769C202.616 178.741 203.553 177.843 204.716 177.596C205.105 177.511 205.529 177.495 205.879 177.32C206.229 177.146 206.471 176.731 206.245 176.439C206.025 176.152 205.54 176.175 205.145 176.231C204.247 176.36 203.355 176.489 202.458 176.613C203.18 175.894 203.903 175.17 204.62 174.451C204.908 174.164 205.207 173.777 204.998 173.44C204.8 173.12 204.275 173.109 203.863 173.182C202.452 173.429 201.165 174.147 200.313 175.147C199.551 176.046 199.116 177.169 198.151 177.899C197.276 178.562 196.006 178.803 194.888 178.528C193.77 178.253 192.833 177.467 192.483 176.501C192.336 176.091 192.274 175.636 191.947 175.316C191.332 174.703 190.078 174.967 189.536 175.63C189 176.293 188.989 177.169 189.062 177.983C186.595 174.788 183.846 171.452 179.731 170.042C179.009 169.795 178.224 169.61 177.456 169.728C176.694 169.846 175.96 170.334 175.836 170.997C175.695 171.772 176.372 172.48 177.112 172.934C178.517 173.799 180.239 174.176 181.758 174.883C183.276 175.591 184.925 176.647 184.829 178.14C184.829 178.14 192.235 179.258 195.904 179.353C199.573 179.449 202.441 179.752 202.441 179.752L202.446 179.769Z" fill="white"/>
</g>
<path d="M175.306 184.382C175.301 184.416 174.883 184.382 174.24 184.202C173.596 184.022 172.727 183.657 171.88 183.068C171.039 182.478 170.395 181.793 170 181.254C169.605 180.715 169.436 180.333 169.464 180.316C169.543 180.26 170.395 181.692 172.049 182.826C173.686 183.983 175.335 184.286 175.306 184.376V184.382Z" fill="#222222"/>
<path d="M173.906 185.712C173.9 185.746 173.483 185.712 172.839 185.532C172.196 185.353 171.326 184.988 170.48 184.398C169.638 183.808 168.995 183.123 168.6 182.584C168.205 182.045 168.035 181.663 168.064 181.646C168.143 181.59 168.995 183.022 170.649 184.156C172.286 185.313 173.934 185.617 173.906 185.706V185.712Z" fill="#222222"/>
<path d="M223.543 180.119C223.543 180.119 223.509 180.282 223.402 180.552C223.295 180.827 223.108 181.209 222.854 181.669C222.346 182.59 221.499 183.798 220.337 184.921C219.168 186.038 217.932 186.847 216.989 187.319C216.521 187.56 216.125 187.729 215.849 187.824C215.572 187.925 215.414 187.97 215.409 187.953C215.392 187.909 215.99 187.656 216.893 187.134C217.796 186.617 218.993 185.803 220.133 184.707C221.274 183.607 222.132 182.444 222.674 181.562C223.221 180.681 223.498 180.091 223.543 180.114V180.119Z" fill="#222222"/>
<path d="M226.253 181.278C226.286 181.289 226.168 181.683 225.88 182.272C225.592 182.862 225.107 183.643 224.435 184.395C223.763 185.148 223.052 185.726 222.499 186.091C221.946 186.456 221.573 186.619 221.556 186.585C221.505 186.507 222.916 185.687 224.215 184.204C225.53 182.733 226.168 181.233 226.253 181.278Z" fill="#222222"/>
<path d="M212.659 144.28L217.903 142.837C217.903 142.837 222.232 143.488 223.35 142.663C224.468 141.837 223.937 141.36 223.937 141.36C226.297 140.473 225.456 139.434 225.456 139.434C225.456 139.434 227.798 139.254 227.844 137.418C227.866 136.345 218.908 134.57 218.908 134.57C218.908 134.57 218.992 133.419 219.907 132.768C220.821 132.116 226.105 133.38 227.725 132.885C229.345 132.397 229.232 130.808 229.232 130.808C229.232 130.808 218.146 128.567 215.814 129.533C213.477 130.499 202.272 135.149 200.562 137.401L204.287 145.134C204.287 145.134 204.513 145.252 206.37 145.752C208.227 146.257 212.67 144.286 212.67 144.286L212.659 144.28Z" fill="#FFBE9D"/>
<path d="M206.635 142.366C206.635 142.321 207.064 142.333 207.826 142.226C208.583 142.119 209.684 141.878 210.892 141.249C211.496 140.934 212.117 140.519 212.709 139.991C213.008 139.732 213.291 139.429 213.562 139.109C213.838 138.783 214.104 138.418 214.459 138.081C214.798 137.75 215.323 137.458 215.87 137.48C216.39 137.486 216.875 137.587 217.372 137.688C218.366 137.89 219.336 138.227 220.33 138.081C220.973 137.997 221.594 137.744 222.052 137.34C222.515 136.958 222.797 136.329 222.56 135.936L222.701 136.043C219.545 135.285 216.728 134.948 214.741 134.656C213.816 134.521 213.042 134.408 212.404 134.319C211.863 134.229 211.563 134.173 211.569 134.145C211.569 134.116 211.874 134.122 212.421 134.161C212.969 134.201 213.771 134.268 214.775 134.364C216.779 134.577 219.607 134.846 222.814 135.588L222.904 135.61L222.955 135.695C223.175 136.048 223.141 136.481 223.006 136.823C222.87 137.172 222.639 137.464 222.368 137.705C221.826 138.188 221.115 138.474 220.386 138.57C219.828 138.649 219.274 138.592 218.749 138.503C218.247 138.39 217.75 138.272 217.265 138.166C216.785 138.064 216.305 137.963 215.865 137.958C215.441 137.935 215.075 138.137 214.758 138.424C214.442 138.71 214.177 139.064 213.883 139.395C213.59 139.727 213.291 140.036 212.969 140.305C212.337 140.85 211.676 141.26 211.038 141.569C209.763 142.187 208.617 142.378 207.838 142.428C207.053 142.473 206.624 142.4 206.624 142.378L206.635 142.366Z" fill="#EB996E"/>
<path d="M217.355 138.054C217.48 138.099 217.226 139.138 216.655 140.323C216.085 141.508 215.43 142.356 215.318 142.289C215.199 142.216 215.662 141.272 216.215 140.115C216.774 138.958 217.225 138.009 217.355 138.054Z" fill="#EB996E"/>
<path d="M223.441 141.142C223.412 141.277 221.962 141.103 220.178 140.906C218.388 140.704 216.938 140.558 216.943 140.417C216.943 140.288 218.428 140.221 220.234 140.423C222.041 140.62 223.469 141.007 223.446 141.136L223.441 141.142Z" fill="#EB996E"/>
<path d="M226.133 139.523C226.116 139.658 224.259 139.501 221.99 139.181C219.721 138.861 217.897 138.496 217.914 138.361C217.931 138.226 219.788 138.383 222.058 138.703C224.327 139.024 226.15 139.389 226.133 139.523Z" fill="#EB996E"/>
<path d="M218.699 132.035C218.828 132.035 218.93 132.709 218.828 133.529C218.732 134.349 218.473 134.978 218.343 134.95C218.213 134.922 218.253 134.265 218.343 133.473C218.439 132.681 218.557 132.035 218.693 132.035H218.699Z" fill="#EB996E"/>
<path d="M156.401 134.553L171.756 142.657L201.73 136.872L205.987 145.639C205.987 145.639 178.592 157.578 170.943 157.713C163.294 157.842 149.385 148.874 149.385 148.874L156.396 134.553H156.401Z" fill="#FFBE9D"/>
<path d="M193.427 143.059C193.427 143.059 189.786 142.357 189.125 145.063C188.465 147.77 191.733 148.45 191.733 148.45C191.733 148.45 191.129 150.32 194.279 151.297C197.423 152.274 198.039 148.877 198.039 148.877C198.039 148.877 200.997 149.843 201.222 147.944C201.555 145.131 199.258 144.906 199.258 144.906C199.258 144.906 201.527 142.154 197.818 141.065C194.11 139.975 193.427 143.059 193.427 143.059ZM197.361 142.255C199.501 142.705 198.095 145.361 198.095 145.361C198.095 145.361 200.517 145.911 200.037 147.332C199.557 148.753 197.175 147.827 197.175 147.827C197.175 147.827 198.05 150.253 195.115 150.281C192.179 150.309 193.393 147.798 193.393 147.798C193.393 147.798 191.011 148.017 190.508 145.765C190 143.513 194.115 144.182 194.115 144.182C194.24 142.272 195.216 141.806 197.361 142.255Z" fill="#C8131B"/>
<g opacity="0.3">
<path d="M193.427 143.057C193.427 143.057 189.786 142.355 189.125 145.062C188.465 147.768 191.733 148.448 191.733 148.448C191.733 148.448 191.129 150.318 194.279 151.295C197.423 152.272 198.039 148.875 198.039 148.875C198.039 148.875 200.997 149.841 201.222 147.943C201.555 145.129 199.258 144.904 199.258 144.904C199.258 144.904 201.527 142.152 197.818 141.063C194.11 139.973 193.427 143.057 193.427 143.057ZM197.361 142.254C199.501 142.703 198.095 145.359 198.095 145.359C198.095 145.359 200.517 145.91 200.037 147.33C199.557 148.751 197.175 147.825 197.175 147.825C197.175 147.825 198.05 150.251 195.115 150.279C192.179 150.307 193.393 147.796 193.393 147.796C193.393 147.796 191.011 148.016 190.508 145.764C190 143.512 194.115 144.18 194.115 144.18C194.24 142.27 195.216 141.804 197.361 142.254Z" fill="black"/>
</g>
<path d="M193.483 142.357C193.483 142.357 189.842 141.65 189.182 144.356C188.521 147.063 191.79 147.743 191.79 147.743C191.79 147.743 191.186 149.613 194.336 150.59C197.48 151.567 198.101 148.17 198.101 148.17C198.101 148.17 201.059 149.136 201.285 147.237C201.618 144.424 199.32 144.199 199.32 144.199C199.32 144.199 201.589 141.447 197.881 140.358C194.172 139.268 193.489 142.352 193.489 142.352L193.483 142.357ZM197.412 141.554C199.557 142.009 198.146 144.665 198.146 144.665C198.146 144.665 200.568 145.216 200.088 146.631C199.608 148.052 197.226 147.125 197.226 147.125C197.226 147.125 198.101 149.551 195.166 149.585C192.23 149.619 193.444 147.097 193.444 147.097C193.444 147.097 191.062 147.316 190.559 145.07C190.051 142.818 194.166 143.486 194.166 143.486C194.279 141.577 195.267 141.11 197.412 141.56V141.554Z" fill="#C8131B"/>
<path d="M195.143 117.25C195.143 117.25 191.48 117.823 191.79 120.592C192.101 123.361 195.403 122.889 195.403 122.889C195.403 122.889 195.482 124.849 198.773 124.703C202.064 124.557 201.477 121.148 201.477 121.148C201.477 121.148 204.587 121.052 204.147 119.193C203.498 116.436 201.257 117.003 201.257 117.003C201.257 117.003 202.448 113.645 198.587 113.881C194.726 114.111 195.143 117.245 195.143 117.245V117.25ZM198.564 115.161C200.732 114.858 200.32 117.834 200.32 117.834C200.32 117.834 202.781 117.526 202.82 119.025C202.86 120.524 200.297 120.463 200.297 120.463C200.297 120.463 201.951 122.445 199.202 123.473C196.453 124.495 196.729 121.721 196.729 121.721C196.729 121.721 194.567 122.737 193.32 120.788C192.072 118.84 196.171 118.076 196.171 118.076C195.634 116.239 196.391 115.47 198.564 115.167V115.161Z" fill="#C8131B"/>
<g opacity="0.3">
<path d="M195.142 117.25C195.142 117.25 191.479 117.823 191.789 120.592C192.1 123.361 195.402 122.889 195.402 122.889C195.402 122.889 195.481 124.849 198.772 124.703C202.063 124.557 201.476 121.148 201.476 121.148C201.476 121.148 204.586 121.052 204.146 119.193C203.497 116.436 201.256 117.003 201.256 117.003C201.256 117.003 202.447 113.645 198.586 113.881C194.725 114.111 195.142 117.245 195.142 117.245V117.25ZM198.563 115.161C200.731 114.858 200.319 117.834 200.319 117.834C200.319 117.834 202.78 117.526 202.819 119.025C202.859 120.524 200.296 120.463 200.296 120.463C200.296 120.463 201.95 122.445 199.201 123.473C196.452 124.495 196.729 121.721 196.729 121.721C196.729 121.721 194.567 122.737 193.319 120.788C192.071 118.84 196.17 118.076 196.17 118.076C195.633 116.239 196.39 115.47 198.563 115.167V115.161Z" fill="black"/>
</g>
<path d="M194.951 116.575C194.951 116.575 191.287 117.148 191.598 119.916C191.908 122.685 195.211 122.213 195.211 122.213C195.211 122.213 195.29 124.173 198.581 124.027C201.872 123.881 201.29 120.478 201.29 120.478C201.29 120.478 204.401 120.382 203.96 118.524C203.311 115.766 201.07 116.333 201.07 116.333C201.07 116.333 202.261 112.975 198.4 113.211C194.539 113.441 194.951 116.575 194.951 116.575ZM198.372 114.48C200.545 114.177 200.127 117.153 200.127 117.153C200.127 117.153 202.588 116.844 202.628 118.344C202.668 119.838 200.105 119.782 200.105 119.782C200.105 119.782 201.759 121.77 199.015 122.792C196.266 123.819 196.543 121.04 196.543 121.04C196.543 121.04 194.381 122.056 193.133 120.113C191.886 118.17 195.984 117.4 195.984 117.4C195.436 115.57 196.204 114.795 198.372 114.486V114.48Z" fill="#C8131B"/>
<path d="M189.414 130.572C189.414 130.572 187.099 130.673 186.964 132.341C186.823 134.009 187.472 136.738 191.491 137.334C195.504 137.929 195.99 132.953 195.99 132.953C195.99 132.953 194.833 130.347 189.414 130.572Z" fill="#C6C6C6"/>
<g opacity="0.21">
<path d="M191.689 135.075C193.913 135.176 195.234 134.221 195.895 133.519C195.962 133.176 195.99 132.963 195.99 132.963C195.99 132.963 194.828 130.357 189.414 130.582C189.414 130.582 187.1 130.683 186.964 132.351C186.964 132.463 186.964 132.581 186.947 132.693C187.794 133.614 189.408 134.968 191.695 135.075H191.689Z" fill="#222222"/>
</g>
<path d="M189.854 129.491L189.193 132.372C189.193 132.372 190.345 133.725 192.027 133.63C193.709 133.534 193.704 132.911 193.704 132.911L194.398 129.957C194.398 129.957 192.913 128.873 191.282 128.828C189.651 128.783 189.859 129.485 189.859 129.485L189.854 129.491Z" fill="#C6C6C6"/>
<path d="M177.339 149.997C177.339 149.997 175.871 151.777 177.029 152.99C178.186 154.203 180.664 155.545 183.786 152.962C186.907 150.378 183.503 146.706 183.503 146.706C183.503 146.706 180.777 145.829 177.333 149.991L177.339 149.997Z" fill="#C6C6C6"/>
<g opacity="0.21">
<path d="M182.227 151.303C183.785 149.725 183.954 148.107 183.869 147.147C183.655 146.866 183.514 146.703 183.514 146.703C183.514 146.703 180.787 145.827 177.344 149.994C177.344 149.994 175.876 151.775 177.033 152.988C177.118 153.061 177.208 153.139 177.282 153.229C178.535 153.218 180.624 152.92 182.232 151.297L182.227 151.303Z" fill="#222222"/>
</g>
<path d="M176.819 148.938L178.541 151.353C178.541 151.353 180.325 151.398 181.375 150.095C182.425 148.786 181.951 148.371 181.951 148.371L180.201 145.888C180.201 145.888 178.4 146.27 177.282 147.45C176.159 148.629 176.825 148.944 176.825 148.944L176.819 148.938Z" fill="#C6C6C6"/>
<path d="M203.316 149.87C203.316 149.87 204.885 150.971 205.817 149.949C206.754 148.927 207.719 146.809 205.388 144.395C203.056 141.98 200.211 145.001 200.211 145.001C200.211 145.001 199.652 147.298 203.316 149.87Z" fill="#C6C6C6"/>
<g opacity="0.21">
<path d="M204.107 145.779C203.153 144.898 201.849 144.493 200.557 144.679C200.342 144.864 200.212 144.999 200.212 144.999C200.212 144.999 199.653 147.296 203.317 149.868C203.317 149.868 204.886 150.969 205.818 149.946C205.88 149.879 205.942 149.8 206.004 149.722C205.914 148.211 205.231 146.79 204.102 145.779H204.107Z" fill="#222222"/>
</g>
<path d="M202.47 150.373L204.367 148.812C204.305 147.925 203.859 147.105 203.147 146.56C201.996 145.779 201.685 146.189 201.685 146.189L199.727 147.779C200.003 148.666 200.511 149.463 201.194 150.087C202.25 150.918 202.464 150.368 202.464 150.368L202.47 150.373Z" fill="#C6C6C6"/>
<path d="M194.177 169.162C194.177 169.162 190.186 170.74 187.522 165.714C184.857 160.682 185.258 155.976 188.876 154.908C192.495 153.836 193.68 155.639 194.42 156.941C195.159 158.244 196.932 161.153 197.253 163.787C197.417 165.27 196.593 168.426 194.177 169.167V169.162Z" fill="#AE7461"/>
<path opacity="0.3" d="M194.114 167.708C194.888 167.36 195.526 166.771 195.926 166.024L195.909 166.052L195.938 166.012L196 165.917C196.039 165.855 196.068 165.777 196.096 165.709L196.13 165.653L196.101 165.698C196.333 165.035 196.389 164.328 196.271 163.637C196.226 163.221 196.124 162.817 195.966 162.435C195.808 162.053 195.509 161.739 195.13 161.565C194.696 161.402 194.205 161.447 193.81 161.694C193.42 161.941 193.121 162.3 192.952 162.733C192.788 163.126 192.72 163.547 192.573 163.946C192.455 164.356 192.173 164.704 191.8 164.912C191.478 165.058 191.106 165.035 190.773 165.153C190.186 165.389 189.864 166.018 190.016 166.63C190.169 167.186 190.694 167.562 191.23 167.77C192.167 168.13 193.206 168.107 194.126 167.714L194.114 167.708Z" fill="#6F4439"/>
<path opacity="0.3" d="M190.023 155.48C189.182 155.604 188.408 156.002 187.827 156.609L187.844 156.581L187.816 156.62L187.737 156.704C187.697 156.772 187.635 156.822 187.59 156.878L187.556 156.935L187.584 156.89C187.178 157.457 186.918 158.114 186.833 158.805C186.76 159.209 186.743 159.625 186.794 160.035C186.845 160.45 187.042 160.826 187.358 161.102C187.731 161.377 188.211 161.467 188.657 161.343C189.097 161.214 189.486 160.944 189.769 160.579C190.034 160.248 190.215 159.861 190.457 159.512C190.689 159.153 191.05 158.895 191.474 158.799C191.818 158.749 192.173 158.872 192.529 158.844C193.156 158.777 193.641 158.266 193.669 157.637C193.675 157.058 193.28 156.558 192.817 156.21C192.015 155.62 191.016 155.362 190.028 155.491L190.023 155.48Z" fill="#6F4439"/>
<path opacity="0.3" d="M190.677 162.06C190.519 162.06 190.361 162.094 190.214 162.156L189.3 162.465C189.063 162.543 188.797 162.656 188.718 162.903C188.673 163.066 188.73 163.24 188.871 163.335C189.006 163.431 189.176 163.464 189.334 163.419H189.294C189.797 163.397 190.282 163.245 190.705 162.976C190.83 162.908 190.931 162.813 191.016 162.695C191.095 162.577 191.112 162.431 191.061 162.296C190.988 162.156 190.841 162.06 190.677 162.06Z" fill="#6F4439"/>
<path d="M186.799 157.369C186.799 157.369 186.703 157.667 186.579 158.155C186.257 159.43 186.291 160.767 186.675 162.019C186.822 162.502 186.951 162.783 186.935 162.794C186.889 162.738 186.855 162.67 186.827 162.603C186.737 162.423 186.664 162.238 186.596 162.047C186.161 160.783 186.127 159.419 186.5 158.133C186.556 157.942 186.624 157.751 186.703 157.565C186.726 157.492 186.76 157.431 186.805 157.369H186.799Z" fill="white"/>
<path d="M187.877 156.02C187.877 156.02 187.787 156.2 187.617 156.374C187.454 156.548 187.301 156.66 187.267 156.638C187.233 156.615 187.358 156.458 187.527 156.284C187.696 156.11 187.854 155.998 187.877 156.02Z" fill="white"/>
<path d="M188.843 166.574C188.464 166.344 188.193 165.973 188.092 165.541C188.227 165.704 188.351 165.878 188.459 166.063C188.6 166.226 188.724 166.394 188.843 166.574Z" fill="white"/>
<path d="M199.326 130.83C199.326 130.83 196.198 129.37 197.694 125.04C199.196 120.71 202.193 118.357 204.818 119.873C207.443 121.395 207.031 123.08 206.675 124.231C206.314 125.382 205.575 128.022 204.197 129.656C203.413 130.572 201.098 131.824 199.326 130.824V130.83Z" fill="#AE7461"/>
<path opacity="0.3" d="M200.149 129.992C200.782 130.256 201.482 130.301 202.142 130.121H202.114H202.153L202.244 130.104C202.306 130.093 202.362 130.065 202.419 130.043L202.469 130.031H202.424C202.944 129.807 203.39 129.453 203.734 129.004C203.954 128.751 204.135 128.47 204.276 128.161C204.411 127.858 204.434 127.51 204.327 127.19C204.186 126.847 203.886 126.583 203.525 126.488C203.164 126.392 202.786 126.42 202.441 126.561C202.119 126.679 201.832 126.875 201.515 127.01C201.205 127.167 200.849 127.195 200.516 127.089C200.257 126.982 200.065 126.752 199.805 126.622C199.342 126.409 198.795 126.566 198.518 126.993C198.275 127.386 198.337 127.903 198.518 128.33C198.823 129.071 199.404 129.666 200.144 129.986L200.149 129.992Z" fill="#6F4439"/>
<path opacity="0.3" d="M205.106 120.868C204.57 120.447 203.909 120.216 203.226 120.205H203.254H203.215H203.125C203.062 120.216 203 120.205 202.938 120.216L202.887 120.228H202.933C202.374 120.295 201.843 120.508 201.386 120.834C201.104 121.014 200.855 121.233 200.635 121.486C200.421 121.744 200.302 122.07 200.319 122.407C200.358 122.777 200.573 123.109 200.895 123.299C201.217 123.485 201.589 123.563 201.956 123.53C202.295 123.502 202.628 123.395 202.966 123.344C203.305 123.277 203.661 123.35 203.949 123.541C204.169 123.715 204.293 123.99 204.502 124.181C204.886 124.513 205.456 124.513 205.845 124.181C206.19 123.867 206.269 123.361 206.218 122.895C206.128 122.103 205.727 121.373 205.106 120.868Z" fill="#6F4439"/>
<path opacity="0.3" d="M201.583 124.871C201.493 124.782 201.391 124.709 201.273 124.652L200.584 124.287C200.409 124.192 200.195 124.096 200.008 124.186C199.89 124.248 199.817 124.377 199.833 124.512C199.85 124.641 199.924 124.759 200.042 124.827L200.02 124.804C200.308 125.085 200.669 125.281 201.058 125.383C201.166 125.416 201.279 125.427 201.391 125.411C201.504 125.394 201.6 125.321 201.651 125.22C201.696 125.096 201.668 124.961 201.583 124.866V124.871Z" fill="#6F4439"/>
<path d="M202.221 120.02C202.221 120.02 201.99 120.126 201.64 120.323C200.714 120.834 199.941 121.592 199.41 122.507C199.207 122.856 199.111 123.091 199.1 123.086C199.111 123.03 199.128 122.968 199.15 122.917C199.207 122.766 199.275 122.62 199.354 122.479C199.862 121.53 200.646 120.755 201.612 120.267C201.753 120.194 201.905 120.126 202.058 120.076C202.114 120.048 202.17 120.031 202.227 120.025L202.221 120.02Z" fill="white"/>
<path d="M203.61 119.907C203.61 119.907 203.452 119.952 203.26 119.952C203.068 119.952 202.916 119.924 202.91 119.891C202.905 119.857 203.068 119.846 203.266 119.846C203.464 119.846 203.616 119.879 203.616 119.902L203.61 119.907Z" fill="white"/>
<path d="M197.909 126.287C197.835 125.938 197.909 125.573 198.106 125.281C198.084 125.45 198.05 125.618 197.999 125.781C197.982 125.95 197.954 126.118 197.909 126.287Z" fill="white"/>
<path d="M186.303 131.033C184.474 132.01 182.188 131.331 181.206 129.505C180.223 127.686 180.906 125.411 182.741 124.434C184.564 123.457 186.834 124.131 187.827 125.939C188.821 127.753 188.149 130.028 186.325 131.022C186.32 131.022 186.309 131.027 186.303 131.033Z" fill="#EB996E"/>
<g opacity="0.5">
<path d="M186.303 131.033C184.474 132.01 182.188 131.331 181.206 129.505C180.223 127.686 180.906 125.411 182.741 124.434C184.564 123.457 186.834 124.131 187.827 125.939C188.821 127.753 188.149 130.028 186.325 131.022C186.32 131.022 186.309 131.027 186.303 131.033Z" fill="#C8131B"/>
</g>
<path d="M185.958 130.392C184.129 131.37 181.843 130.69 180.861 128.865C179.879 127.045 180.562 124.771 182.396 123.794C184.22 122.816 186.489 123.49 187.482 125.299C188.476 127.113 187.804 129.387 185.981 130.381C185.975 130.381 185.964 130.387 185.958 130.392Z" fill="#EB996E"/>
<g opacity="0.3">
<path d="M185.218 129.057C184.151 129.63 182.819 129.242 182.243 128.181C181.668 127.119 182.057 125.794 183.124 125.221C184.191 124.648 185.523 125.036 186.099 126.097C186.675 127.159 186.279 128.478 185.218 129.057Z" fill="white"/>
</g>
<path d="M184.84 128.342C183.785 128.55 182.932 128.297 182.943 127.781C182.577 127.107 182.831 126.259 183.508 125.894C184.185 125.529 185.038 125.781 185.405 126.455C185.772 127.129 185.523 127.971 184.846 128.337C184.846 128.337 184.846 128.337 184.84 128.337V128.342Z" fill="#EB996E"/>
<path d="M206.506 133.164C208.166 132.35 210.181 133.029 210.999 134.681C211.818 136.332 211.135 138.337 209.475 139.151C207.816 139.965 205.8 139.286 204.982 137.635C204.163 135.983 204.846 133.979 206.506 133.164Z" fill="#EB996E"/>
<g opacity="0.5">
<path d="M206.507 133.164C208.167 132.35 210.182 133.03 211 134.681C211.819 136.332 211.136 138.337 209.476 139.151C207.817 139.965 205.801 139.286 204.983 137.635C204.164 135.984 204.847 133.979 206.507 133.164Z" fill="#C8131B"/>
</g>
<path d="M209.278 138.539C207.652 139.409 205.62 138.803 204.745 137.18C203.87 135.562 204.48 133.54 206.111 132.67C207.731 131.805 209.752 132.4 210.633 134.007C211.519 135.618 210.921 137.646 209.301 138.522C209.295 138.522 209.289 138.527 209.284 138.533L209.278 138.539Z" fill="#EB996E"/>
<g opacity="0.3">
<path d="M205.835 135.079C206.146 134.057 207.229 133.473 208.257 133.781C209.284 134.09 209.871 135.169 209.561 136.191C209.25 137.213 208.166 137.797 207.139 137.488C206.112 137.179 205.525 136.101 205.835 135.079Z" fill="white"/>
</g>
<path d="M208.29 136.721C207.686 137.047 206.93 136.822 206.608 136.221C206.281 135.62 206.507 134.868 207.111 134.548C207.715 134.222 208.465 134.447 208.793 135.047C209.12 135.648 208.9 136.401 208.296 136.727L208.29 136.721Z" fill="#EB996E"/>
<path d="M175.792 156.773C175.623 158.559 176.306 160.323 177.638 161.53C178.902 162.721 180.664 163.226 182.368 162.884C182.515 159.649 180.003 156.908 176.757 156.762C176.436 156.745 176.114 156.762 175.792 156.796V156.779V156.773Z" fill="#545454"/>
<path d="M177.265 158.005C177.322 157.96 178.338 159.274 179.811 160.678C181.285 162.082 182.639 163.054 182.594 163.11C182.261 162.964 181.945 162.773 181.663 162.542C180.235 161.515 178.953 160.29 177.869 158.909C177.621 158.639 177.418 158.336 177.26 158.005H177.265Z" fill="#222222"/>
<path d="M187.985 112.469C186.777 113.799 186.269 115.619 186.608 117.377C186.907 119.084 188.019 120.533 189.594 121.274C191.654 118.77 191.287 115.08 188.77 113.03C188.521 112.828 188.256 112.643 187.974 112.485L187.985 112.469Z" fill="#545454"/>
<path d="M188.425 114.332C188.498 114.332 188.521 115.989 188.865 117.988C189.21 119.987 189.701 121.576 189.639 121.593C189.458 121.279 189.322 120.936 189.232 120.588C188.702 118.914 188.414 117.173 188.374 115.421C188.34 115.056 188.357 114.691 188.431 114.337L188.425 114.332Z" fill="#222222"/>
<path d="M222.995 144.109C221.154 142.694 218.75 142.222 216.509 142.829C214.33 143.385 212.552 144.957 211.75 147.046C215.21 149.444 219.969 148.602 222.379 145.159C222.611 144.828 222.82 144.474 222.995 144.109Z" fill="#545454"/>
<path d="M220.641 144.863C220.652 144.958 218.513 145.138 215.95 145.789C213.387 146.441 211.389 147.227 211.35 147.137C211.745 146.873 212.174 146.666 212.625 146.52C213.681 146.093 214.765 145.745 215.871 145.475C216.978 145.194 218.101 144.998 219.236 144.874C219.704 144.807 220.173 144.801 220.641 144.863Z" fill="#222222"/>
<path d="M185.1 141.041C185.089 141.839 183.841 142.468 182.317 142.445C180.793 142.423 179.568 141.754 179.579 140.963C179.551 141.266 179.545 141.575 179.562 141.878C179.551 142.676 180.776 143.344 182.3 143.366C183.824 143.394 185.072 142.765 185.083 141.962C185.106 141.653 185.111 141.345 185.1 141.041Z" fill="#545454"/>
<path d="M182.351 140.471C183.57 140.488 184.597 140.92 184.953 141.504C185.049 141.37 185.1 141.212 185.105 141.049C185.117 140.252 183.892 139.584 182.368 139.561C180.844 139.533 179.596 140.162 179.579 140.971C179.579 141.134 179.624 141.291 179.715 141.431C180.093 140.858 181.131 140.454 182.351 140.477V140.471Z" fill="#222222"/>
<path d="M201.381 133.927C201.697 134.231 201.482 134.966 200.901 135.567C200.319 136.168 199.586 136.41 199.27 136.106C199.382 136.23 199.501 136.348 199.631 136.454C199.947 136.758 200.681 136.522 201.262 135.921C201.844 135.32 202.058 134.584 201.742 134.275C201.629 134.152 201.505 134.034 201.375 133.922L201.381 133.927Z" fill="#545454"/>
<path d="M200.111 134.808C200.579 134.325 201.138 134.078 201.505 134.151C201.488 134.061 201.443 133.983 201.375 133.921C201.059 133.618 200.325 133.854 199.744 134.454C199.163 135.055 198.948 135.791 199.27 136.1C199.338 136.162 199.417 136.201 199.507 136.218C199.417 135.853 199.642 135.286 200.111 134.803V134.808Z" fill="#222222"/>
<path d="M205.625 105.564C205.84 106.188 205.055 107.019 203.87 107.423C202.684 107.827 201.549 107.653 201.335 107.041C201.397 107.283 201.482 107.524 201.578 107.754C201.792 108.378 202.927 108.546 204.112 108.142C205.298 107.738 206.082 106.901 205.868 106.283C205.8 106.042 205.721 105.8 205.619 105.564H205.625Z" fill="#545454"/>
<path d="M203.339 105.892C204.287 105.566 205.202 105.611 205.637 105.965C205.67 105.836 205.665 105.701 205.625 105.572C205.411 104.948 204.276 104.78 203.091 105.184C201.905 105.589 201.121 106.425 201.335 107.049C201.38 107.172 201.459 107.285 201.567 107.363C201.696 106.813 202.385 106.217 203.333 105.892H203.339Z" fill="#222222"/>
<path d="M208.04 151.488L200.227 157.755C199.985 157.946 199.94 158.295 200.115 158.547C200.617 159.266 201.39 159.951 202.502 160.563C208.147 163.669 211.692 157.845 210.908 154.453C210.654 153.364 209.875 152.252 208.746 151.466C208.531 151.314 208.243 151.331 208.04 151.494V151.488Z" fill="#C8131B"/>
<path opacity="0.3" d="M208.04 151.488L200.227 157.755C199.985 157.946 199.94 158.295 200.115 158.547C200.617 159.266 201.39 159.951 202.502 160.563C208.147 163.669 211.692 157.845 210.908 154.453C210.654 153.364 209.875 152.252 208.746 151.466C208.531 151.314 208.243 151.331 208.04 151.494V151.488Z" fill="black"/>
<path d="M207.628 151.113L199.815 157.38C199.573 157.571 199.527 157.92 199.702 158.172C200.205 158.891 200.978 159.576 202.09 160.188C207.735 163.294 211.28 157.47 210.496 154.078C210.242 152.989 209.463 151.877 208.334 151.091C208.119 150.939 207.831 150.956 207.628 151.119V151.113Z" fill="#C8131B"/>
<path opacity="0.3" d="M206.967 151.86C207.171 151.568 209.717 152.477 209.705 154.595C209.694 156.706 209.096 158.284 208.153 158.335C207.21 158.385 206.03 156.661 205.985 155.083C205.94 153.505 206.725 152.208 206.967 151.86Z" fill="black"/>
<path opacity="0.3" d="M200.623 157.274C200.64 156.864 202.785 155.696 204.208 155.96C205.636 156.224 207.284 158.566 207.222 159.189C207.16 159.835 204.501 160.178 203.175 159.728C201.848 159.279 200.595 157.881 200.617 157.274H200.623Z" fill="black"/>
<path d="M203.225 156.625C203.056 156.445 201.413 157.524 201.78 157.894C202.147 158.265 203.592 157.013 203.225 156.625Z" fill="#C8131B"/>
<path d="M205.354 157.498C205.585 157.43 206.392 159.177 205.794 159.205C205.196 159.227 205.128 157.565 205.354 157.498Z" fill="#C8131B"/>
<path d="M204.383 157.005C204.665 157.061 204.411 159.341 203.637 159.262C202.864 159.184 204.1 156.949 204.383 157.005Z" fill="#C8131B"/>
<path d="M206.872 154.382C206.731 153.949 208.842 153.433 208.904 153.888C208.966 154.342 207.058 154.96 206.872 154.382Z" fill="#C8131B"/>
<path d="M206.855 153.545C207.092 153.736 208.17 152.871 207.859 152.601C207.549 152.332 206.618 153.354 206.855 153.545Z" fill="#C8131B"/>
<path d="M206.747 155.268C206.73 155.442 208.621 155.875 208.559 155.504C208.503 155.134 206.792 154.836 206.747 155.268Z" fill="#C8131B"/>
<path d="M206.499 155.98C206.29 156.312 207.43 157.569 207.724 157.306C208.018 157.036 206.793 155.508 206.499 155.98Z" fill="#C8131B"/>
<path d="M206.064 152.633C206.064 152.633 206.025 152.689 205.935 152.784C205.85 152.88 205.72 153.014 205.562 153.177C205.24 153.503 204.777 153.935 204.241 154.385C203.705 154.834 203.191 155.205 202.813 155.463C202.621 155.592 202.469 155.693 202.356 155.761C202.248 155.828 202.186 155.862 202.181 155.862C202.181 155.862 202.237 155.817 202.339 155.738C202.452 155.654 202.604 155.547 202.779 155.424C203.152 155.154 203.654 154.778 204.19 154.329C204.727 153.885 205.195 153.458 205.522 153.138C205.681 152.986 205.81 152.863 205.912 152.762C206.002 152.672 206.059 152.627 206.059 152.627L206.064 152.633Z" fill="white"/>
<path d="M132.202 106.664C132.202 106.664 140.071 112.887 142.572 116.756C145.073 120.631 165.09 134.194 164.813 134.671C164.536 135.148 152.58 154.787 152.58 154.787L145.936 151.451L132.202 107.355" fill="#C8131B"/>
<path d="M104.237 179.229C104.237 179.229 89.3119 202.658 87.8047 211.582L104.237 218.276V179.229Z" fill="#C8131B"/>
<path d="M94.3241 103.424C94.3241 104.013 91.5129 111.37 91.5129 111.37L76.8643 127.415L105.123 173.197L107.934 180.115L151.434 177.611C151.434 177.611 145.219 144.785 144.779 139.338C144.333 133.89 132.202 106.658 132.202 106.658L117.553 108.276L113.263 106.804L94.3241 103.418V103.424Z" fill="#C8131B"/>
<path d="M103.334 179.456C102.787 179.237 99.9415 188.688 95.1094 205.974C90.2773 223.26 93.5853 258.579 93.5853 258.579H168.607C168.607 258.579 163.645 219.475 157.164 200.459C150.769 181.696 151.107 169.903 149.685 170.026C148.262 170.15 103.34 179.45 103.34 179.45L103.334 179.456Z" fill="#222222"/>
<path d="M146.941 153.061C146.941 153.061 146.924 153.021 146.902 152.937C146.879 152.836 146.851 152.712 146.817 152.566C146.749 152.235 146.648 151.752 146.501 151.134C146.207 149.893 145.75 148.107 145.01 145.951C144.277 143.8 143.306 141.256 141.894 138.6C140.41 135.982 138.581 133.208 136.504 130.423C132.355 124.829 127.985 120.241 124.576 117.208C122.882 115.675 121.415 114.552 120.404 113.771C119.902 113.406 119.507 113.12 119.213 112.912C119.089 112.822 118.987 112.744 118.908 112.682C118.841 112.631 118.807 112.598 118.807 112.598C118.807 112.598 118.846 112.614 118.92 112.659C119.01 112.715 119.111 112.783 119.241 112.867C119.54 113.069 119.953 113.339 120.466 113.687C121.499 114.445 122.995 115.54 124.711 117.062C128.166 120.061 132.58 124.644 136.735 130.26C138.818 133.062 140.647 135.842 142.126 138.487C143.537 141.172 144.491 143.733 145.202 145.9C145.919 148.074 146.348 149.871 146.608 151.123C146.738 151.747 146.823 152.235 146.873 152.566C146.896 152.718 146.913 152.842 146.93 152.943C146.941 153.027 146.941 153.072 146.941 153.072V153.061Z" fill="#222222"/>
<path d="M76.8649 127.42C76.8649 127.42 74.1045 130.587 75.115 137.725C76.1254 144.863 87.8048 177.206 87.8048 177.206L113.41 168.613L99.8398 141.774L90.4354 130.048L76.8593 127.42H76.8649Z" fill="#C8131B"/>
<path d="M145.937 146.213C145.937 146.213 145.897 146.129 145.846 145.96C145.79 145.758 145.722 145.516 145.643 145.224C145.457 144.539 145.214 143.624 144.915 142.512C144.288 140.226 143.38 137.081 142.239 133.655C141.093 130.224 139.942 127.163 139.073 124.956C138.649 123.889 138.294 123.008 138.034 122.35C137.927 122.07 137.831 121.834 137.757 121.637C137.695 121.474 137.667 121.385 137.678 121.379C137.69 121.379 137.735 121.458 137.808 121.609C137.898 121.8 138.006 122.025 138.135 122.3C138.418 122.901 138.802 123.783 139.264 124.872C140.185 127.057 141.376 130.117 142.522 133.554C143.662 136.991 144.548 140.153 145.118 142.456C145.406 143.607 145.621 144.539 145.756 145.191C145.818 145.488 145.863 145.735 145.909 145.938C145.942 146.112 145.954 146.202 145.942 146.202L145.937 146.213Z" fill="#222222"/>
<path d="M87.8055 177.2C87.8055 177.2 87.845 177.178 87.9241 177.15C88.0144 177.116 88.1329 177.071 88.2797 177.015C88.6128 176.897 89.0813 176.734 89.6797 176.521C90.9215 176.094 92.7053 175.482 94.952 174.712C99.4849 173.179 105.881 171.012 113.371 168.479L113.292 168.67C111.102 164.379 108.703 159.667 106.185 154.736C104.853 152.119 103.549 149.564 102.296 147.093C101.692 145.841 100.981 144.689 100.332 143.521C99.6712 142.364 99.0164 141.236 98.3672 140.14C97.0689 137.956 95.7705 135.912 94.4045 134.115C93.7158 133.222 93.0102 132.39 92.265 131.655C91.5255 130.913 90.7127 130.324 89.8942 129.824C88.2571 128.819 86.6088 128.207 85.1242 127.847C83.6396 127.482 82.3186 127.37 81.2405 127.359C80.1623 127.342 79.3268 127.454 78.7623 127.516C78.4914 127.561 78.2825 127.589 78.1244 127.617C77.9777 127.639 77.9043 127.645 77.9043 127.639C77.9043 127.639 77.9777 127.617 78.1188 127.583C78.2769 127.549 78.4857 127.51 78.7567 127.454C79.3212 127.375 80.1566 127.241 81.2405 127.241C82.3243 127.235 83.6565 127.33 85.1637 127.684C86.6653 128.032 88.3418 128.633 90.0014 129.644C90.8312 130.144 91.6667 130.745 92.4231 131.492C93.1795 132.233 93.8964 133.07 94.5964 133.969C95.9794 135.777 97.289 137.821 98.5987 140.006C99.2535 141.101 99.9083 142.23 100.569 143.387C101.218 144.549 101.94 145.712 102.544 146.958C103.803 149.429 105.107 151.985 106.439 154.602C108.951 159.538 111.345 164.25 113.53 168.546L113.603 168.687L113.451 168.737C105.948 171.231 99.5414 173.359 94.9972 174.87C92.7392 175.611 90.9498 176.195 89.7022 176.605C89.0982 176.796 88.624 176.948 88.291 177.054C88.1386 177.099 88.02 177.139 87.9241 177.167C87.8394 177.189 87.7999 177.2 87.7999 177.195L87.8055 177.2Z" fill="#222222"/>
<path d="M112.072 121.828C112.033 121.901 107.421 119.61 101.776 116.712C96.1255 113.814 91.5757 111.405 91.6096 111.338C91.6491 111.265 96.2554 113.556 101.912 116.454C107.562 119.352 112.112 121.761 112.078 121.828H112.072Z" fill="#222222"/>
<path d="M117.633 108.652C117.712 108.647 117.96 111.073 118.192 114.066C118.418 117.065 118.536 119.497 118.457 119.502C118.378 119.508 118.13 117.088 117.898 114.089C117.672 111.095 117.554 108.658 117.633 108.652Z" fill="#222222"/>
<path d="M124.458 118.738C124.458 118.738 124.395 118.766 124.277 118.805C124.141 118.85 123.966 118.906 123.741 118.979C123.266 119.125 122.578 119.35 121.686 119.653C119.908 120.26 117.356 121.198 114.251 122.478C111.147 123.758 107.489 125.37 103.481 127.285C102.487 127.791 101.381 128.133 100.433 128.757C99.9698 129.071 99.5577 129.481 99.3883 130.015C99.202 130.537 99.2698 131.132 99.4843 131.66C99.9415 132.738 100.896 133.558 101.731 134.479C102.154 134.934 102.583 135.395 103.018 135.861C103.43 136.344 103.842 136.827 104.26 137.315C105.897 139.287 107.41 141.286 108.759 143.285C110.131 145.273 111.356 147.256 112.49 149.159C114.737 152.984 116.572 156.528 118.045 159.538C119.513 162.548 120.636 165.019 121.387 166.732C121.754 167.58 122.041 168.243 122.245 168.709C122.335 168.922 122.403 169.096 122.459 169.225C122.504 169.343 122.527 169.405 122.521 169.405C122.521 169.405 122.487 169.349 122.431 169.237C122.369 169.107 122.29 168.939 122.188 168.731C121.974 168.265 121.669 167.614 121.279 166.777C120.495 165.081 119.343 162.627 117.853 159.628C116.357 156.634 114.511 153.102 112.253 149.294C111.119 147.396 109.888 145.425 108.522 143.442C107.173 141.449 105.666 139.461 104.04 137.495C103.628 137.012 103.216 136.529 102.804 136.052C102.375 135.591 101.945 135.131 101.522 134.676C100.698 133.766 99.7214 132.935 99.219 131.767C98.9819 131.188 98.9029 130.52 99.1174 129.919C99.315 129.307 99.7891 128.852 100.275 128.521C101.279 127.869 102.38 127.532 103.362 127.038C107.382 125.14 111.051 123.545 114.167 122.287C117.283 121.029 119.851 120.119 121.641 119.546C122.538 119.26 123.238 119.052 123.712 118.923C123.938 118.861 124.119 118.816 124.254 118.777C124.379 118.743 124.441 118.732 124.441 118.738H124.458Z" fill="#222222"/>
<path opacity="0.3" d="M112.196 138.821C113.278 138.821 114.155 137.949 114.155 136.872C114.155 135.796 113.278 134.924 112.196 134.924C111.114 134.924 110.237 135.796 110.237 136.872C110.237 137.949 111.114 138.821 112.196 138.821Z" fill="black"/>
<path opacity="0.3" d="M130.543 131.274C131.625 131.274 132.502 130.402 132.502 129.326C132.502 128.249 131.625 127.377 130.543 127.377C129.461 127.377 128.584 128.249 128.584 129.326C128.584 130.402 129.461 131.274 130.543 131.274Z" fill="black"/>
<path opacity="0.3" d="M124.458 155.769C124.458 156.842 123.583 157.718 122.499 157.718C121.415 157.718 120.54 156.847 120.54 155.769C120.54 154.691 121.415 153.82 122.499 153.82C123.583 153.82 124.458 154.691 124.458 155.769Z" fill="black"/>
<path opacity="0.3" d="M140.653 151.515C141.735 151.515 142.612 150.642 142.612 149.566C142.612 148.49 141.735 147.617 140.653 147.617C139.571 147.617 138.694 148.49 138.694 149.566C138.694 150.642 139.571 151.515 140.653 151.515Z" fill="black"/>
<path d="M154.365 179.881C154.399 179.802 154.98 179.999 155.708 180.19C156.431 180.386 157.035 180.516 157.024 180.6C157.018 180.679 156.38 180.679 155.629 180.476C154.878 180.274 154.331 179.954 154.365 179.881Z" fill="#EB996E"/>
<path d="M91.8467 175.847C91.9426 176.353 100.184 187.978 106.778 187.978C113.371 187.978 145.863 178.29 145.863 178.29L142.104 168.271L109.589 173.135L107.986 170.434L91.8467 175.847Z" fill="#FFBE9D"/>
<path d="M142.109 168.27C142.279 168.13 148.313 165.535 151.644 164.811C154.974 164.086 157.153 164.39 159.349 165.547C161.545 166.704 166.354 168.006 167.399 169.068C168.189 169.877 167.466 171.281 165.987 171.135C164.509 170.994 158.824 169.731 158.706 169.742C158.683 169.742 158.649 169.804 158.621 169.893C158.367 170.618 158.587 171.427 159.151 171.954L163.001 175.543C163.001 175.543 163.058 177.149 161.991 177.447C160.924 177.745 160.06 178.199 160.06 178.199C160.06 178.199 159.626 180.367 157.943 180.553C156.256 180.738 151.141 179.109 150.893 179.076C150.645 179.042 145.869 178.284 145.869 178.284L142.109 168.265V168.27Z" fill="#FFBE9D"/>
<path d="M156.267 177.356C156.301 177.277 157.119 177.597 158.158 177.867C159.196 178.142 160.066 178.26 160.06 178.35C160.06 178.428 159.151 178.434 158.084 178.153C157.012 177.878 156.233 177.429 156.267 177.361V177.356Z" fill="#EB996E"/>
<path d="M149.053 178.514C150.876 179.362 152.705 180.204 154.528 181.052C154.918 181.232 155.347 181.417 155.77 181.333C156.402 181.204 156.758 180.547 157.023 179.957" fill="#FFBE9D"/>
<path d="M95.6454 58.2337C101.313 53.9094 107.037 53.1512 114.285 53.2579C118.372 53.3197 119.004 50.9891 121.923 51.8652C124.841 52.7413 127.443 54.3867 129.12 56.9027C131.113 59.8904 132.755 63.2207 133.038 66.7924C133.325 70.4597 133.613 74.1494 133.218 77.8054C133.218 77.8447 133.213 77.8784 133.207 77.9177C132.563 83.6685 128.014 88.223 122.256 89.0261L119.936 89.3518C114.72 89.3631 109.43 89.3631 104.395 88.0321C99.3542 86.6955 96.9776 100.129 95.0753 95.3272C88.6401 79.0914 89.9102 62.6141 95.6454 58.2393V58.2337Z" fill="#222222"/>
<path d="M116.549 54.8155L112.783 54.2595L98.1292 59.5273C96.0349 59.5666 94.3189 61.1953 94.1777 63.2732L95.3124 103.77L113.359 115.092V121.281L117.982 119.747L115.86 114.474C115.877 110.661 115.837 105.814 115.837 105.814C115.837 105.814 125.552 105.18 128.352 93.9701C129.747 88.3934 130.272 79.1046 130.452 71.4837C130.616 64.6266 125.044 55.1075 116.537 54.8099L116.549 54.8155Z" fill="#FFBE9D"/>
<path d="M125.016 80.8095C124.977 81.5845 124.288 82.1854 123.475 82.1573C122.668 82.1292 122.041 81.4834 122.081 80.714C122.12 79.9446 122.809 79.3381 123.622 79.3662C124.435 79.3943 125.061 80.0401 125.022 80.8095H125.016Z" fill="#222222"/>
<path d="M127.748 75.2096C127.551 75.3837 126.512 74.4739 124.932 74.3391C123.357 74.1875 122.132 74.8895 121.974 74.6873C121.895 74.5975 122.115 74.2661 122.645 73.946C123.17 73.6259 124.051 73.3451 125.033 73.435C126.015 73.5248 126.811 73.9572 127.252 74.3672C127.703 74.7772 127.839 75.1366 127.743 75.2152L127.748 75.2096Z" fill="#222222"/>
<path d="M117.203 87.2169C117.203 87.127 118.197 87.0428 119.805 86.981C120.212 86.9754 120.601 86.9248 120.692 86.6609C120.81 86.3801 120.68 85.9308 120.528 85.4535C120.234 84.4538 119.924 83.4036 119.602 82.3029C118.326 77.8157 117.44 74.1429 117.626 74.0923C117.807 74.0418 118.993 77.636 120.263 82.1232C120.568 83.2295 120.861 84.2797 121.138 85.2906C121.251 85.7567 121.465 86.2958 121.211 86.8799C121.076 87.1719 120.759 87.3629 120.5 87.4078C120.234 87.464 120.009 87.4471 119.805 87.4415C118.202 87.391 117.209 87.3123 117.209 87.2225L117.203 87.2169Z" fill="#222222"/>
<path d="M115.866 105.802C115.866 105.802 108.138 105.634 100.918 100.422C100.918 100.422 104.305 108.649 115.832 108.576L115.86 105.802H115.866Z" fill="#EB996E"/>
<path d="M127.387 69.6914C127.088 70.0508 125.902 69.6914 124.485 69.6914C123.063 69.6408 121.866 69.9553 121.584 69.5847C121.46 69.4049 121.646 69.0455 122.171 68.703C122.685 68.3604 123.548 68.0796 124.525 68.0964C125.502 68.1189 126.348 68.4334 126.845 68.7928C127.353 69.1578 127.517 69.5229 127.387 69.697V69.6914Z" fill="#222222"/>
<path d="M107.472 79.6871C107.404 80.4565 108.008 81.1472 108.815 81.2315C109.623 81.3157 110.328 80.7597 110.396 79.9903C110.464 79.2209 109.86 78.5302 109.053 78.4459C108.245 78.3617 107.54 78.9177 107.472 79.6927V79.6871Z" fill="#222222"/>
<path d="M106.393 73.9318C106.568 74.134 107.72 73.3646 109.3 73.4488C110.881 73.505 111.999 74.3755 112.179 74.1901C112.27 74.1115 112.1 73.7577 111.615 73.3646C111.135 72.9771 110.305 72.5783 109.323 72.5334C108.341 72.4885 107.494 72.8086 106.997 73.1568C106.495 73.505 106.309 73.8419 106.399 73.9318H106.393Z" fill="#222222"/>
<path d="M107.505 68.9252C107.799 69.2958 109.035 68.9869 110.503 69.0431C111.971 69.0543 113.201 69.4138 113.506 69.0543C113.642 68.8802 113.461 68.5096 112.936 68.1445C112.417 67.7795 111.536 67.465 110.526 67.4425C109.515 67.4201 108.629 67.7009 108.098 68.0435C107.562 68.386 107.376 68.7455 107.5 68.9252H107.505Z" fill="#222222"/>
<path d="M95.5381 82.4703C95.6114 81.6223 94.7986 79.5444 93.9744 79.3422C91.7616 78.8031 87.7029 78.629 87.1666 84.2955C86.4384 92.04 95.5098 91.0347 95.5437 90.8101C95.5719 90.636 95.2897 85.3906 95.5437 82.4703H95.5381Z" fill="#FFBE9D"/>
<path d="M92.558 87.916C92.5242 87.888 92.4113 88.0003 92.1742 88.0789C91.9427 88.1575 91.5476 88.1968 91.1581 88.0059C90.3622 87.6296 89.792 86.2649 89.888 84.8666C89.9331 84.159 90.1477 83.5019 90.4468 82.9684C90.7404 82.4236 91.1412 82.0642 91.5645 82.0305C91.9879 81.9743 92.2532 82.2495 92.3322 82.4742C92.4169 82.6988 92.3548 82.8504 92.3943 82.8673C92.4169 82.8897 92.575 82.755 92.5411 82.4292C92.5242 82.272 92.4508 82.081 92.2814 81.9126C92.1064 81.7441 91.8411 81.643 91.5476 81.643C90.9436 81.6261 90.3509 82.126 90.0178 82.71C89.6509 83.2941 89.3969 84.0298 89.3461 84.8273C89.2501 86.3941 89.9162 87.9273 91.0113 88.3541C91.5476 88.545 92.0161 88.4271 92.2701 88.2642C92.5298 88.0958 92.5863 87.9273 92.558 87.9104V87.916Z" fill="#EB996E"/>
<path d="M93.6524 79.5606L95.5717 81.6666C104.389 73.7874 121.764 53.9069 120.793 55.0974C120.793 55.0974 115.007 52.5141 108.611 53.3902C102.216 54.2663 90.0396 57.0574 89.9888 64.5267C89.938 72.0015 93.658 79.5606 93.658 79.5606H93.6524Z" fill="#222222"/>
<path d="M130.921 61.5321C130.26 60.0944 130.983 58.3591 132.213 57.3032C133.444 56.2474 135.081 55.7195 136.673 55.2478C138.265 54.7761 139.908 54.3155 141.223 53.3496C143.825 51.4289 144.514 47.9526 144.153 44.8695C143.458 38.9783 139.591 33.6544 134.455 30.2005C129.318 26.7523 123.023 25.0451 116.724 24.5228C103.622 23.4389 91.8239 27.9485 81.7872 35.9345C80.1388 37.243 79.1058 39.2591 79.0099 41.2809C78.9365 42.887 79.8848 44.3584 80.8671 45.6726C83.8871 49.7217 87.4321 52.5184 91.5868 55.5511L90.4183 62.1667L130.915 61.5265L130.921 61.5321Z" fill="#C8131B"/>
<path d="M140.444 42.0156C140.444 42.0156 140.319 42.2122 140.031 42.5042C139.744 42.8019 139.298 43.2006 138.711 43.6443C138.118 44.0879 137.384 44.5653 136.554 45.0707C135.724 45.5762 134.804 46.1097 133.884 46.733C132.964 47.3564 132.145 48.0303 131.513 48.7436C130.875 49.4568 130.424 50.1981 130.141 50.8608C129.571 52.1974 129.679 53.1409 129.617 53.1296C129.605 53.1296 129.56 52.905 129.577 52.4894C129.594 52.0795 129.684 51.4785 129.95 50.7822C130.215 50.0914 130.666 49.3108 131.31 48.5695C131.954 47.8225 132.789 47.1318 133.72 46.4972C134.652 45.8626 135.583 45.3347 136.419 44.8461C137.254 44.3575 137.994 43.9026 138.592 43.487C139.794 42.6558 140.41 41.9875 140.449 42.0212L140.444 42.0156Z" fill="#222222"/>
<path d="M134.071 35.4048C134.105 35.4553 133.145 36.0113 131.813 37.1682C131.48 37.4602 131.118 37.7803 130.763 38.1566C130.385 38.516 130.035 38.9372 129.645 39.3753C128.906 40.2738 128.166 41.324 127.511 42.4921C126.868 43.6715 126.382 44.8565 126.015 45.9572C125.852 46.5132 125.682 47.0411 125.581 47.5465C125.451 48.0463 125.372 48.5237 125.304 48.9561C125.039 50.6971 125.084 51.7978 125.022 51.7978C124.999 51.7978 124.988 51.5226 124.977 51.0284C124.965 50.7813 124.965 50.4781 124.994 50.1242C125.016 49.7704 125.028 49.3661 125.101 48.928C125.157 48.4844 125.225 48.0014 125.344 47.4903C125.434 46.9737 125.598 46.4402 125.761 45.8729C126.123 44.7498 126.608 43.5423 127.263 42.3461C127.929 41.1555 128.691 40.0997 129.448 39.1956C129.843 38.7575 130.21 38.3307 130.599 37.9769C130.966 37.6006 131.339 37.2861 131.689 37.0053C132.022 36.7077 132.36 36.483 132.648 36.2752C132.931 36.0618 133.19 35.899 133.405 35.7754C133.834 35.5171 134.071 35.3823 134.082 35.4048H134.071Z" fill="#222222"/>
<path d="M119.382 32.3945C119.382 32.3945 119.388 32.6529 119.343 33.1134C119.297 33.5739 119.241 34.2366 119.179 35.0565C119.055 36.6964 118.959 38.9652 119.043 41.47C119.134 43.9747 119.388 46.2323 119.625 47.8609C119.743 48.6753 119.851 49.3323 119.924 49.7872C119.997 50.2421 120.031 50.4948 120.009 50.5005C119.986 50.5005 119.918 50.259 119.811 49.8097C119.698 49.3604 119.563 48.709 119.416 47.8946C119.122 46.2716 118.835 44.0028 118.744 41.4812C118.66 38.9596 118.789 36.6795 118.97 35.0397C119.06 34.2197 119.151 33.557 119.23 33.1021C119.309 32.6473 119.36 32.3945 119.382 32.4001V32.3945Z" fill="#222222"/>
<path d="M109.798 29.5134C109.798 29.5134 109.826 29.8335 109.82 30.4176C109.809 30.996 109.809 31.8328 109.82 32.8662C109.843 34.9328 109.984 37.7914 110.396 40.9195C110.808 44.0476 111.407 46.85 111.915 48.8549C112.169 49.8601 112.383 50.6688 112.541 51.2248C112.694 51.7808 112.773 52.0953 112.756 52.1009C112.739 52.1065 112.62 51.8089 112.434 51.2585C112.242 50.7081 111.994 49.905 111.711 48.9054C111.153 46.9061 110.515 44.1037 110.097 40.9588C109.685 37.8138 109.578 34.9385 109.606 32.8662C109.617 31.8272 109.651 30.9904 109.696 30.412C109.736 29.8335 109.77 29.5134 109.792 29.5134H109.798Z" fill="#222222"/>
<path d="M91.6992 36.1091C91.6992 36.1091 91.9307 36.3113 92.3032 36.7157C92.6814 37.1144 93.2064 37.7097 93.8386 38.4622C95.1088 39.9617 96.7853 42.0958 98.4788 44.5668C100.167 47.0434 101.55 49.3797 102.481 51.1038C102.95 51.9687 103.311 52.6706 103.548 53.1649C103.785 53.6591 103.909 53.9342 103.892 53.9455C103.875 53.9567 103.717 53.6928 103.446 53.221C103.147 52.6987 102.763 52.0192 102.3 51.2049C101.324 49.5089 99.9183 47.2007 98.2361 44.7297C96.5482 42.2642 94.9055 40.1189 93.6806 38.5914C93.0879 37.8613 92.5968 37.2548 92.2186 36.7887C91.8742 36.3618 91.6879 36.1204 91.7049 36.1091H91.6992Z" fill="#222222"/>
<path d="M90.7405 74.5945C88.5897 67.2712 89.7187 62.1719 91.13 56.9491C91.13 56.9491 108.556 46.6045 122.917 49.8729C122.917 49.8729 131.886 51.6644 133.044 56.2976L133.298 72.0729C133.298 72.0729 132.321 65.8336 119.259 65.3394C106.196 64.8451 90.7405 74.6001 90.7405 74.6001V74.5945Z" fill="#C8131B"/>
<path d="M110.497 90.9821C110.605 90.4654 110.926 90.0274 111.322 89.7354C112.112 89.1569 113.201 89.1738 113.958 89.7747C114.714 90.3756 115.087 91.5269 114.867 92.5602C114.375 93.1386 113.664 93.5037 112.902 93.5149C112.784 93.5149 112.665 93.5149 112.547 93.5037C111.976 93.4475 111.406 93.2116 110.994 92.7624C110.588 92.3131 110.362 91.6279 110.492 90.9877L110.497 90.9821Z" fill="#DB6E72"/>
<path d="M111.655 88.4512C111.88 88.468 111.694 89.9563 112.84 91.1749C113.986 92.3992 115.601 92.4329 115.589 92.6407C115.601 92.7362 115.2 92.8822 114.522 92.8204C113.856 92.7586 112.919 92.4273 112.219 91.6804C111.519 90.9334 111.293 90.0293 111.322 89.4115C111.344 88.7825 111.559 88.4343 111.66 88.4568L111.655 88.4512Z" fill="#222222"/>
<path d="M132.67 56.3544C132.67 56.3544 132.58 56.2196 132.439 55.9557C132.365 55.8265 132.292 55.658 132.168 55.4727C132.043 55.2874 131.902 55.0796 131.75 54.8437C131.084 53.9283 129.887 52.7433 128.081 51.8055C126.286 50.8507 123.926 50.1431 121.256 49.7837C118.586 49.4187 115.594 49.3681 112.506 49.7837C110.96 49.9859 109.469 50.2948 108.047 50.6598C106.624 51.0248 105.281 51.4797 103.994 51.9009C101.431 52.7602 99.1504 53.625 97.248 54.3888C95.3457 55.147 93.8272 55.804 92.7716 56.2533C92.2635 56.4667 91.8628 56.6408 91.5579 56.77C91.2813 56.8879 91.1289 56.9441 91.1289 56.9328C91.1289 56.9216 91.2644 56.8486 91.5353 56.7138C91.8345 56.5734 92.2297 56.3825 92.7264 56.1466C93.7651 55.6636 95.2779 54.9785 97.169 54.1922C99.0601 53.406 101.335 52.5187 103.903 51.6426C105.185 51.2102 106.534 50.7496 107.968 50.379C109.402 50.0083 110.903 49.6882 112.461 49.4861C115.577 49.0705 118.597 49.1266 121.29 49.5085C123.982 49.8848 126.365 50.6205 128.177 51.6145C130 52.5917 131.197 53.8216 131.846 54.7651C131.993 55.0066 132.128 55.22 132.247 55.4165C132.36 55.6075 132.427 55.7816 132.495 55.9163C132.619 56.1915 132.681 56.3375 132.676 56.3375L132.67 56.3544Z" fill="#222222"/>
</svg>
