<svg width="279" height="260" viewBox="0 0 279 260" fill="none" xmlns="http://www.w3.org/2000/svg">
<path d="M276.487 145.791H256.642V151.058H276.487V145.791Z" fill="#EDEDED"/>
<path d="M51.6853 40.4492H31.8398V45.7161H51.6853V40.4492Z" fill="#EDEDED"/>
<path d="M268.096 156.606C268.096 156.606 268.096 156.571 268.091 156.512C268.091 156.442 268.091 156.354 268.085 156.242C268.085 155.995 268.079 155.648 268.067 155.207C268.061 154.296 268.05 152.991 268.032 151.339L268.091 151.398C263.561 151.41 256.349 151.422 248.245 151.439C248.292 151.392 248.146 151.539 248.345 151.339V151.674V152.009C248.345 152.233 248.345 152.456 248.345 152.68C248.345 153.126 248.345 153.567 248.345 154.008C248.345 154.89 248.345 155.754 248.345 156.6L248.245 156.5C253.899 156.518 258.845 156.536 262.389 156.548C264.159 156.559 265.577 156.571 266.567 156.577C267.048 156.577 267.428 156.589 267.698 156.589C267.821 156.589 267.915 156.589 267.991 156.595C268.055 156.595 268.091 156.595 268.096 156.6C268.096 156.6 268.067 156.6 268.003 156.606C267.926 156.606 267.839 156.606 267.721 156.612C267.458 156.612 267.089 156.618 266.614 156.624C265.63 156.63 264.218 156.642 262.46 156.653C258.897 156.665 253.929 156.683 248.245 156.7H248.146V156.6C248.146 155.754 248.146 154.89 248.146 154.008C248.146 153.567 248.146 153.126 248.146 152.68C248.146 152.456 248.146 152.233 248.146 152.009V151.674V151.504V151.345V151.334C248.351 151.128 248.204 151.275 248.245 151.234C256.354 151.251 263.561 151.263 268.091 151.275H268.155V151.339C268.143 153.003 268.132 154.326 268.12 155.243C268.114 155.678 268.108 156.018 268.102 156.265C268.102 156.371 268.102 156.459 268.096 156.524C268.096 156.583 268.096 156.612 268.091 156.606H268.096Z" fill="#C6C6C6"/>
<path d="M60.2351 40.5553C60.2351 40.5553 60.2351 40.52 60.2292 40.4612C60.2292 40.3907 60.2292 40.3025 60.2234 40.1908C60.2234 39.9439 60.2175 39.5971 60.2058 39.1562C60.1999 38.2451 60.1882 36.9401 60.1706 35.2883L60.2292 35.3471C55.7 35.3589 48.4872 35.3706 40.3838 35.3883C40.4307 35.3413 40.2842 35.4882 40.4834 35.2883V35.6234V35.9585C40.4834 36.1818 40.4834 36.4052 40.4834 36.6286C40.4834 37.0753 40.4834 37.5162 40.4834 37.9571C40.4834 38.8388 40.4834 39.7029 40.4834 40.5494L40.3838 40.4495C46.038 40.4671 50.9833 40.4847 54.5281 40.4965C56.2976 40.5082 57.7156 40.52 58.7058 40.5259C59.1863 40.5259 59.5671 40.5376 59.8366 40.5376C59.9597 40.5376 60.0534 40.5376 60.1296 40.5435C60.1941 40.5435 60.2292 40.5435 60.2351 40.5494C60.2351 40.5494 60.2058 40.5494 60.1413 40.5553C60.0652 40.5553 59.9773 40.5553 59.8601 40.5611C59.5964 40.5611 59.2273 40.567 58.7527 40.5729C57.7683 40.5788 56.3562 40.5905 54.5985 40.6023C51.036 40.6141 46.0673 40.6317 40.3838 40.6493H40.2842V40.5494C40.2842 39.7029 40.2842 38.8388 40.2842 37.9571C40.2842 37.5162 40.2842 37.0753 40.2842 36.6286C40.2842 36.4052 40.2842 36.1818 40.2842 35.9585V35.6234V35.4529V35.2942V35.2825C40.4893 35.0767 40.3428 35.2237 40.3838 35.1825C48.4931 35.2002 55.7 35.2119 60.2292 35.2237H60.2937V35.2883C60.282 36.9519 60.2702 38.2745 60.2585 39.1915C60.2527 39.6265 60.2468 39.9674 60.2409 40.2143C60.2409 40.3201 60.241 40.4083 60.2351 40.473C60.2351 40.5318 60.2351 40.5611 60.2292 40.5553H60.2351Z" fill="#C6C6C6"/>
<path d="M246.647 219.432C245.1 218.456 243.325 217.845 241.503 217.657C240.665 217.569 239.745 217.592 239.071 218.104C238.931 218.209 238.79 218.374 238.819 218.55C238.843 218.68 238.954 218.774 239.06 218.856C241.151 220.455 244.315 220.661 246.647 219.432Z" fill="#C6C6C6"/>
<path d="M246.512 219.286C245.346 218.375 244.174 217.458 243.19 216.352C242.206 215.247 241.403 213.942 241.11 212.49C241.022 212.05 240.993 211.544 241.274 211.197C243.923 213.272 246.003 215.953 246.512 219.286Z" fill="#C6C6C6"/>
<path d="M246.618 219.416C246.418 217.964 246.348 216.471 246.676 215.043C247.01 213.614 247.784 212.245 249.002 211.434C249.459 212.509 249.266 213.744 248.944 214.866C248.446 216.601 247.667 218.252 246.641 219.734" fill="#C6C6C6"/>
<path d="M249.214 224.076C247.638 224.27 246.267 225.099 245.089 226.169C243.911 227.239 243.073 228.679 242.728 230.231C244.274 230.137 245.587 229.043 246.536 227.815C247.485 226.586 248.147 225.246 249.19 224.094" fill="#C6C6C6"/>
<path d="M249.776 224.824C248.504 221.685 248.967 217.905 250.947 215.172C251.844 218.376 251.516 221.997 249.776 224.824Z" fill="#C6C6C6"/>
<path d="M253.21 228.926C251.781 228.838 250.327 229.179 249.085 229.896C247.843 230.613 246.818 231.7 246.179 232.988C246.091 233.164 246.015 233.387 246.132 233.54C246.232 233.675 246.431 233.687 246.601 233.675C247.99 233.587 249.214 232.747 250.228 231.794C251.241 230.842 252.126 229.743 253.245 228.914" fill="#C6C6C6"/>
<path d="M253.098 228.704C252.36 226.335 252.313 223.755 252.969 221.362C253.227 220.416 253.661 219.423 254.534 218.982C254.61 218.947 254.692 218.911 254.774 218.941C254.85 218.97 254.891 219.046 254.926 219.117C255.237 219.764 255.325 220.504 255.295 221.221C255.266 221.939 255.114 222.65 254.967 223.355C254.692 224.66 254.546 226.059 253.837 227.182C253.667 227.446 253.52 227.735 253.385 228.023C253.251 228.311 253.251 228.411 253.128 228.634" fill="#C6C6C6"/>
<path d="M262.18 230.057C261.507 227.488 262.221 224.378 263.833 222.274C263.95 222.121 264.108 221.95 264.302 221.968C264.6 221.997 264.677 222.391 264.665 222.691C264.548 225.313 263.675 227.899 262.18 230.057Z" fill="#C6C6C6"/>
<path d="M262.995 230.622C266.106 231.433 269.669 230.645 272.253 228.735C270.718 227.953 268.913 227.735 267.237 228.117C265.561 228.499 264.032 229.252 262.989 230.622" fill="#C6C6C6"/>
<path d="M263.687 228.906C265.427 226.061 268.767 224.198 272.089 224.033C271.708 225.391 270.595 226.443 269.341 227.084C268.087 227.719 266.686 228.001 265.304 228.266C264.765 228.371 264.032 228.483 263.681 228.906" fill="#C6C6C6"/>
<path d="M262.35 220.616C262.819 218.993 263.294 217.359 263.423 215.678C263.551 213.997 263.311 212.239 262.444 210.793C260.815 213.95 260.651 217.641 262.303 220.786" fill="#C6C6C6"/>
<path d="M267.828 217.842C269.732 214.373 273.611 211.605 277.537 211.217C276.025 215.002 271.894 217.924 267.828 217.842Z" fill="#C6C6C6"/>
<path d="M266.634 218.52C269.47 218.955 271.89 220.771 274.538 221.871C275.106 222.106 275.716 222.294 276.325 222.211C276.934 222.129 277.532 221.724 277.673 221.124C277.784 220.624 277.561 220.095 277.204 219.731C276.847 219.366 276.378 219.137 275.909 218.943C273.02 217.738 269.927 217.709 266.886 218.438" fill="#C6C6C6"/>
<path d="M264.986 220.515C265.631 220.697 265.848 221.033 266.357 221.468C268.08 222.943 270.154 224.007 272.351 224.554C272.58 224.612 272.879 224.636 272.996 224.424C273.096 224.242 272.973 224.025 272.844 223.86C271.924 222.702 270.605 221.914 269.223 221.397C267.84 220.88 266.639 220.257 264.992 220.392" fill="#C6C6C6"/>
<path d="M263.136 208.457C265.444 210.614 268.69 211.725 271.831 211.425C271.972 211.414 272.13 211.39 272.229 211.284C272.446 211.043 272.188 210.679 271.931 210.479C269.376 208.48 266.276 207.652 263.136 208.463" fill="#C6C6C6"/>
<path d="M265.333 207.651C268.38 205.359 272.563 204.665 276.184 205.853C274.819 207.205 272.921 207.934 271.017 208.127C269.106 208.327 267.196 208.116 265.339 207.645" fill="#C6C6C6"/>
<path d="M264.459 202.117C264.207 199.554 264.371 197.538 264.195 194.963C264.184 194.758 264.137 194.511 263.943 194.434C263.674 194.329 263.457 194.658 263.369 194.934C262.607 197.303 263.023 200.025 264.459 202.058" fill="#C6C6C6"/>
<path d="M264.278 202.396C266.007 201.32 267.308 199.921 268.503 198.275C269.335 197.129 270.044 195.753 269.851 194.348C268.679 194.325 267.565 194.971 266.804 195.865C266.042 196.758 265.585 197.875 265.251 199.004C264.911 200.132 264.677 201.29 264.278 202.396Z" fill="#C6C6C6"/>
<path d="M268.433 201.241C272.229 199.831 275.768 197.738 278.833 195.087C277.591 194.587 276.167 194.887 274.925 195.387C272.089 196.539 269.769 198.479 268.374 201.212" fill="#C6C6C6"/>
<path d="M265.444 203.796C267.366 204.008 269.317 204.143 271.222 203.825C273.097 203.514 274.866 202.767 276.612 202.027C276.759 201.968 276.917 201.891 276.981 201.75C277.052 201.592 276.981 201.404 276.852 201.286C276.723 201.168 276.559 201.116 276.395 201.069C274.491 200.534 272.44 200.786 270.565 201.415C268.696 202.05 267.161 202.803 265.45 203.796" fill="#C6C6C6"/>
<path d="M254.481 208.549C253.168 205.898 253.256 202.8 254.387 200.066C255.184 201.283 255.283 202.835 255.137 204.287C254.99 205.739 254.551 207.226 254.522 208.684" fill="#C6C6C6"/>
<path d="M249.243 205.901C245.974 205.836 242.698 207.235 240.478 209.645C242.112 209.904 243.794 209.48 245.276 208.752C246.759 208.023 248.083 207.006 249.39 205.989" fill="#C6C6C6"/>
<path d="M245.727 204.718C244.128 204.589 242.587 204.389 241.046 204.865C239.505 205.336 238.104 206.411 237.478 207.899C238.972 208.069 240.489 207.693 241.866 207.07C243.237 206.447 244.485 205.583 245.727 204.724" fill="#C6C6C6"/>
<path d="M250.936 204.774C249.495 203.828 248.018 202.864 246.343 202.47C244.667 202.076 242.722 202.37 241.556 203.634C242.915 204.433 244.561 204.527 246.132 204.527C247.702 204.527 249.636 204.509 251.118 205.033" fill="#C6C6C6"/>
<path d="M250.942 204.847C248.481 202.425 247.55 198.069 248.54 194.754C250.474 197.705 251.341 201.343 250.942 204.847Z" fill="#C6C6C6"/>
<path d="M257.71 197.973C258.173 196.891 258.501 195.757 258.917 194.652C259.333 193.552 259.849 192.465 260.64 191.589C261.425 190.713 262.515 190.061 263.686 190.002C262.954 193.341 260.745 196.321 257.769 197.985" fill="#C6C6C6"/>
<path d="M256.484 199.41C255.717 198.352 254.826 196.912 253.789 196.118C252.746 195.324 251.393 194.848 250.121 195.154C251.416 197.47 253.859 199.104 256.49 199.416" fill="#C6C6C6"/>
<path d="M256.731 198.063C256.227 196.781 255.723 195.482 255.518 194.118C255.313 192.755 255.436 191.297 256.134 190.109C257.487 192.672 257.921 195.423 256.802 198.092" fill="#C6C6C6"/>
<path d="M257.728 190.113C258.495 187.573 260.81 185.704 263.311 184.846C263.628 184.74 263.962 184.646 264.29 184.699C264.618 184.752 264.94 184.975 265.011 185.304C265.104 185.739 264.747 186.121 264.413 186.409C262.462 188.079 260.171 189.348 257.728 190.113Z" fill="#C6C6C6"/>
<path d="M257.751 188.037C257.851 186.397 257.95 184.739 258.483 183.188C259.017 181.636 260.036 180.178 261.524 179.502C261.776 181.154 261.05 182.8 260.171 184.222C259.292 185.645 258.237 186.991 257.71 188.578" fill="#C6C6C6"/>
<path d="M257.709 189.161C257.077 187.31 257.012 184.958 255.905 183.348C255.131 182.219 253.895 181.455 253.233 180.256C252.793 181.373 252.928 182.654 253.391 183.765C253.854 184.87 254.616 185.823 255.436 186.698C256.256 187.574 256.954 188.233 257.715 189.161" fill="#C6C6C6"/>
<path d="M257.728 243.673C257.681 243.673 257.634 231.323 257.634 216.098C257.634 200.862 257.669 188.518 257.716 188.518C257.763 188.518 257.81 200.862 257.81 216.098C257.81 231.329 257.774 243.673 257.728 243.673Z" fill="#C6C6C6"/>
<path d="M268.479 206.684C268.479 206.684 268.315 206.754 268.016 206.86C267.682 206.972 267.254 207.119 266.745 207.289C265.672 207.654 264.196 208.188 262.596 208.847C261.008 209.529 259.514 210.081 258.665 210.822C258.237 211.186 257.997 211.58 257.874 211.868C257.751 212.156 257.727 212.333 257.715 212.333C257.71 212.333 257.715 212.286 257.715 212.203C257.727 212.121 257.751 211.998 257.803 211.845C257.909 211.539 258.143 211.116 258.577 210.728C259.005 210.334 259.602 209.987 260.282 209.664C260.962 209.346 261.723 209.011 262.526 208.682C264.131 208.024 265.62 207.507 266.704 207.171C267.249 207.001 267.688 206.878 267.999 206.795C268.309 206.713 268.479 206.678 268.479 206.689V206.684Z" fill="#C6C6C6"/>
<path d="M272.006 197.994C272.006 197.994 271.965 198.047 271.877 198.135C271.771 198.235 271.642 198.359 271.484 198.506C271.115 198.841 270.617 199.293 270.008 199.852C268.736 200.986 267.008 202.532 265.098 204.237C263.182 205.947 261.529 207.582 260.381 208.81C259.807 209.427 259.355 209.933 259.045 210.291C258.898 210.456 258.781 210.591 258.688 210.703C258.605 210.797 258.559 210.844 258.553 210.838C258.553 210.838 258.582 210.779 258.658 210.679C258.734 210.579 258.84 210.433 258.992 210.25C259.285 209.88 259.725 209.357 260.287 208.728C261.412 207.47 263.059 205.818 264.98 204.102C266.902 202.397 268.654 200.863 269.926 199.758C270.547 199.223 271.062 198.782 271.437 198.459C271.607 198.317 271.742 198.206 271.853 198.112C271.947 198.035 272 197.994 272.006 198V197.994Z" fill="#C6C6C6"/>
<path d="M263.031 205.977C262.978 205.953 263.383 205.024 263.781 203.855C264.185 202.685 264.373 201.691 264.426 201.703C264.472 201.703 264.361 202.726 263.951 203.913C263.752 204.507 263.529 205.03 263.353 205.395C263.178 205.765 263.054 205.983 263.031 205.977Z" fill="#C6C6C6"/>
<path d="M257.733 213.451C257.733 213.451 257.615 213.333 257.44 213.11C257.24 212.851 256.988 212.528 256.684 212.14C256.051 211.317 255.172 210.177 254.188 208.937C253.203 207.69 252.301 206.573 251.645 205.768C251.334 205.386 251.076 205.063 250.871 204.81C250.69 204.581 250.596 204.451 250.602 204.446C250.614 204.44 250.725 204.551 250.918 204.769C251.117 204.98 251.393 205.298 251.733 205.692C252.412 206.479 253.332 207.585 254.322 208.831C255.307 210.077 256.174 211.229 256.783 212.07C257.088 212.493 257.334 212.834 257.492 213.075C257.656 213.316 257.744 213.451 257.733 213.463V213.451Z" fill="#C6C6C6"/>
<path d="M255.377 210.41C255.348 210.44 254.721 209.693 254.387 208.553C254.141 207.753 254.135 207.019 254.165 206.684H254.241C254.206 206.831 254.182 206.907 254.165 206.907C254.153 206.907 254.147 206.825 254.165 206.678H254.241C254.27 207.019 254.317 207.724 254.557 208.506C254.873 209.611 255.424 210.381 255.377 210.41Z" fill="#C6C6C6"/>
<path d="M252.331 206.57C252.331 206.57 252.108 206.341 251.64 206.17C251.177 205.994 250.485 205.953 249.724 206.018C248.962 206.076 248.282 206.212 247.796 206.329C247.31 206.453 247.011 206.547 247.005 206.517C246.999 206.494 247.28 206.359 247.767 206.206C248.253 206.053 248.939 205.894 249.718 205.835C250.485 205.771 251.218 205.829 251.692 206.047C252.173 206.259 252.349 206.564 252.337 206.564L252.331 206.57Z" fill="#C6C6C6"/>
<path d="M251.61 205.638C251.61 205.638 251.206 205.479 250.556 205.25C249.899 205.026 248.968 204.785 247.919 204.703C246.864 204.627 245.909 204.715 245.229 204.838C244.55 204.962 244.134 205.091 244.128 205.062C244.128 205.05 244.222 205.009 244.409 204.944C244.591 204.873 244.866 204.797 245.206 204.721C245.886 204.562 246.864 204.45 247.931 204.527C249.003 204.609 249.946 204.873 250.597 205.132C250.925 205.261 251.183 205.379 251.352 205.473C251.522 205.567 251.616 205.626 251.61 205.632V205.638Z" fill="#C6C6C6"/>
<path d="M257.709 201.697C257.663 201.709 257.317 200.504 256.936 199.011C256.555 197.518 256.292 196.295 256.338 196.283C256.385 196.272 256.731 197.471 257.112 198.97C257.493 200.463 257.756 201.685 257.709 201.697Z" fill="#C6C6C6"/>
<path d="M257.762 201.698C257.71 201.715 257.487 200.91 256.907 200.087C256.344 199.246 255.624 198.829 255.647 198.788C255.659 198.77 255.852 198.841 256.133 199.041C256.409 199.235 256.754 199.564 257.053 199.987C257.657 200.839 257.803 201.692 257.762 201.698Z" fill="#C6C6C6"/>
<path d="M257.728 237.091C257.728 237.091 257.675 236.791 257.534 236.268C257.399 235.745 257.142 234.998 256.714 234.128C255.864 232.383 254.317 230.172 252.349 227.962C251.376 226.845 250.427 225.793 249.624 224.782C248.821 223.777 248.159 222.813 247.679 221.966C247.192 221.12 246.882 220.391 246.694 219.874C246.607 219.615 246.536 219.415 246.501 219.274C246.46 219.133 246.443 219.062 246.448 219.062C246.466 219.062 246.554 219.345 246.759 219.85C246.964 220.356 247.292 221.067 247.784 221.902C248.276 222.736 248.944 223.683 249.747 224.676C250.55 225.676 251.499 226.722 252.478 227.839C254.446 230.061 255.993 232.294 256.819 234.07C257.235 234.951 257.476 235.71 257.593 236.245C257.651 236.515 257.686 236.721 257.704 236.862C257.722 237.003 257.728 237.079 257.722 237.079L257.728 237.091Z" fill="#C6C6C6"/>
<path d="M267.441 226.078C267.441 226.078 267.26 226.184 266.932 226.366C266.603 226.548 266.141 226.836 265.607 227.242C265.074 227.648 264.482 228.188 263.873 228.829C263.264 229.476 262.637 230.222 261.998 231.028C260.721 232.638 259.52 234.067 258.805 235.201C258.441 235.765 258.178 236.242 258.002 236.577C257.826 236.912 257.732 237.1 257.721 237.094C257.721 237.094 257.732 237.041 257.768 236.947C257.803 236.853 257.855 236.718 257.938 236.547C258.09 236.2 258.342 235.713 258.693 235.137C259.391 233.973 260.58 232.527 261.857 230.916C262.496 230.111 263.135 229.358 263.756 228.717C264.377 228.077 264.986 227.542 265.531 227.142C266.076 226.742 266.557 226.472 266.896 226.307C267.066 226.225 267.201 226.172 267.295 226.131C267.389 226.096 267.435 226.078 267.441 226.084V226.078Z" fill="#C6C6C6"/>
<path d="M267.635 229.648C267.635 229.648 267.225 229.725 266.557 229.807C265.895 229.895 264.969 230.007 264.002 230.312C263.041 230.63 262.239 231.106 261.717 231.517C261.19 231.923 260.944 232.264 260.915 232.246C260.909 232.24 260.956 232.146 261.073 231.999C261.19 231.847 261.377 231.647 261.635 231.423C262.151 230.977 262.959 230.471 263.944 230.148C264.934 229.83 265.872 229.742 266.539 229.689C267.213 229.642 267.629 229.636 267.629 229.66L267.635 229.648Z" fill="#C6C6C6"/>
<path d="M261.231 231.844C261.173 231.814 261.659 231.068 262.034 230.069C262.386 229.058 262.468 228.176 262.532 228.188C262.556 228.188 262.556 228.411 262.515 228.77C262.474 229.122 262.386 229.616 262.198 230.133C262.011 230.651 261.765 231.086 261.571 231.385C261.378 231.685 261.243 231.862 261.226 231.85L261.231 231.844Z" fill="#C6C6C6"/>
<path d="M270.595 216.483C270.595 216.483 270.536 216.519 270.425 216.577C270.29 216.636 270.126 216.713 269.921 216.807C269.698 216.901 269.429 217.024 269.13 217.183C268.825 217.342 268.474 217.5 268.099 217.724C267.911 217.829 267.718 217.941 267.513 218.059C267.308 218.176 267.108 218.317 266.892 218.453C266.458 218.717 266.024 219.04 265.562 219.37C264.653 220.057 263.704 220.874 262.784 221.821C261.876 222.773 261.097 223.755 260.441 224.689C260.124 225.165 259.819 225.612 259.567 226.053C259.439 226.271 259.31 226.482 259.198 226.688C259.087 226.894 258.987 227.099 258.882 227.288C258.671 227.664 258.525 228.028 258.378 228.34C258.232 228.651 258.12 228.922 258.032 229.151C257.944 229.363 257.874 229.533 257.821 229.668C257.769 229.786 257.739 229.845 257.734 229.845C257.728 229.845 257.745 229.78 257.786 229.656C257.833 229.515 257.892 229.345 257.968 229.127C258.044 228.898 258.15 228.616 258.29 228.304C258.431 227.987 258.571 227.623 258.776 227.241C258.876 227.047 258.976 226.841 259.081 226.629C259.187 226.418 259.321 226.206 259.444 225.983C259.691 225.536 259.995 225.083 260.306 224.601C260.962 223.655 261.741 222.661 262.661 221.703C263.587 220.751 264.548 219.934 265.468 219.246C265.937 218.917 266.376 218.594 266.815 218.335C267.032 218.2 267.237 218.065 267.442 217.947C267.647 217.835 267.847 217.724 268.04 217.618C268.415 217.4 268.778 217.247 269.089 217.095C269.399 216.942 269.669 216.83 269.897 216.742C270.108 216.66 270.278 216.595 270.419 216.542C270.536 216.501 270.601 216.477 270.606 216.483H270.595Z" fill="#C6C6C6"/>
<path d="M262.901 221.656C262.901 221.656 262.972 221.356 263.323 221.021C263.669 220.692 264.296 220.386 265.028 220.362C265.755 220.345 266.388 220.55 266.821 220.715C267.255 220.886 267.507 221.027 267.501 221.044C267.489 221.068 267.22 220.974 266.78 220.833C266.341 220.697 265.726 220.521 265.034 220.539C264.343 220.562 263.751 220.827 263.405 221.115C263.054 221.397 262.931 221.667 262.901 221.65V221.656Z" fill="#C6C6C6"/>
<path d="M261.753 222.85C261.706 222.821 262.139 222.186 262.239 221.269C262.35 220.358 262.075 219.635 262.133 219.617C262.151 219.611 262.251 219.776 262.333 220.076C262.415 220.376 262.473 220.811 262.421 221.287C262.362 221.763 262.21 222.174 262.057 222.445C261.905 222.715 261.776 222.856 261.758 222.844L261.753 222.85Z" fill="#C6C6C6"/>
<path d="M249.225 238.857C249.488 243.578 250.906 248.374 253.086 253.23H262.566C264.646 248.427 265.965 243.636 266.199 238.857H249.225Z" fill="#C6C6C6"/>
<path d="M264.664 246.498C264.664 246.545 261.541 246.586 257.691 246.586C253.842 246.586 250.719 246.545 250.719 246.498C250.719 246.451 253.842 246.41 257.691 246.41C261.541 246.41 264.664 246.451 264.664 246.498Z" fill="white"/>
<path d="M264.454 248.205C264.454 248.252 261.53 248.294 257.921 248.294C254.311 248.294 251.388 248.252 251.388 248.205C251.388 248.158 254.311 248.117 257.921 248.117C261.53 248.117 264.454 248.158 264.454 248.205Z" fill="white"/>
<path d="M253.238 241.959C253.285 241.959 253.326 242.941 253.326 244.152C253.326 245.362 253.285 246.344 253.238 246.344C253.191 246.344 253.15 245.362 253.15 244.152C253.15 242.941 253.191 241.959 253.238 241.959Z" fill="white"/>
<path d="M258.319 241.959C258.366 241.959 258.407 242.976 258.407 244.228C258.407 245.48 258.366 246.497 258.319 246.497C258.272 246.497 258.231 245.48 258.231 244.228C258.231 242.976 258.272 241.959 258.319 241.959Z" fill="white"/>
<path d="M263.088 241.916C263.135 241.916 263.176 242.951 263.176 244.232C263.176 245.513 263.135 246.548 263.088 246.548C263.041 246.548 263 245.513 263 244.232C263 242.951 263.041 241.916 263.088 241.916Z" fill="white"/>
<path d="M265.901 241.957C265.901 242.004 262.239 242.045 257.727 242.045C253.216 242.045 249.548 242.004 249.548 241.957C249.548 241.91 253.21 241.869 257.727 241.869C262.245 241.869 265.901 241.91 265.901 241.957Z" fill="white"/>
<path d="M9.33778 219.323C7.79093 218.347 6.01556 217.736 4.19332 217.547C3.35544 217.459 2.43553 217.483 1.76171 217.994C1.62109 218.1 1.48047 218.265 1.50976 218.441C1.5332 218.57 1.64453 218.664 1.75 218.747C3.84176 220.345 7.00578 220.551 9.33778 219.323Z" fill="#C6C6C6"/>
<path d="M9.20861 219.174C8.04261 218.263 6.87075 217.346 5.88639 216.241C4.90203 215.136 4.0993 213.831 3.80634 212.379C3.71845 211.938 3.68915 211.433 3.9704 211.086C6.6188 213.161 8.69885 215.841 9.20861 219.174Z" fill="#C6C6C6"/>
<path d="M9.31421 219.299C9.115 217.847 9.04469 216.354 9.37866 214.926C9.71264 213.497 10.4861 212.128 11.7048 211.316C12.1618 212.392 11.9685 213.627 11.6462 214.749C11.1482 216.483 10.3689 218.135 9.34351 219.616" fill="#C6C6C6"/>
<path d="M11.9101 223.967C10.3339 224.161 8.96284 224.99 7.78512 226.059C6.60741 227.129 5.76953 228.569 5.42383 230.121C6.97068 230.027 8.28316 228.934 9.23237 227.705C10.1816 226.477 10.8437 225.137 11.8866 223.984" fill="#C6C6C6"/>
<path d="M12.4719 224.711C11.2004 221.572 11.6633 217.792 13.6437 215.059C14.5402 218.262 14.2121 221.883 12.4719 224.711Z" fill="#C6C6C6"/>
<path d="M15.9006 228.809C14.4709 228.72 13.0178 229.061 11.7757 229.778C10.5335 230.496 9.5081 231.583 8.86944 232.87C8.78155 233.047 8.70538 233.27 8.82257 233.423C8.92217 233.558 9.12139 233.57 9.29131 233.558C10.68 233.47 11.9046 232.629 12.9182 231.677C13.9319 230.725 14.8166 229.626 15.9358 228.797" fill="#C6C6C6"/>
<path d="M15.7945 228.587C15.0563 226.218 15.0094 223.638 15.6656 221.245C15.9235 220.299 16.357 219.305 17.2301 218.865C17.3062 218.829 17.3883 218.794 17.4703 218.823C17.5465 218.853 17.5875 218.929 17.6227 219C17.9332 219.646 18.0211 220.387 17.9918 221.104C17.9625 221.821 17.8101 222.533 17.6637 223.238C17.3883 224.543 17.2418 225.942 16.5328 227.065C16.3629 227.329 16.2164 227.617 16.0817 227.905C15.9469 228.193 15.9469 228.293 15.8238 228.517" fill="#C6C6C6"/>
<path d="M24.8709 229.943C24.1971 227.374 24.9119 224.265 26.5232 222.16C26.6404 222.008 26.7986 221.837 26.992 221.855C27.2908 221.884 27.367 222.278 27.3552 222.578C27.2381 225.2 26.365 227.786 24.8709 229.943Z" fill="#C6C6C6"/>
<path d="M25.6914 230.508C28.8027 231.319 32.3651 230.532 34.9491 228.621C33.414 227.84 31.6093 227.622 29.9335 228.004C28.2578 228.386 26.7285 229.139 25.6855 230.508" fill="#C6C6C6"/>
<path d="M26.3828 228.797C28.123 225.952 31.4628 224.088 34.785 223.924C34.4042 225.282 33.2909 226.334 32.037 226.975C30.7831 227.609 29.3828 227.892 28 228.156C27.4609 228.262 26.7285 228.374 26.377 228.797" fill="#C6C6C6"/>
<path d="M25.0466 220.502C25.5153 218.88 25.9899 217.246 26.1188 215.565C26.2477 213.883 26.0075 212.126 25.1403 210.68C23.5114 213.836 23.3474 217.528 24.9997 220.673" fill="#C6C6C6"/>
<path d="M30.5195 217.73C32.4238 214.262 36.3027 211.493 40.2284 211.105C38.7167 214.891 34.5859 217.813 30.5195 217.73Z" fill="#C6C6C6"/>
<path d="M29.3242 218.403C32.1601 218.838 34.58 220.654 37.2284 221.753C37.7968 221.988 38.4061 222.177 39.0155 222.094C39.6249 222.012 40.2225 221.606 40.3631 221.007C40.4745 220.507 40.2518 219.978 39.8944 219.614C39.537 219.249 39.0682 219.02 38.5936 218.826C35.705 217.621 32.6113 217.592 29.5703 218.32" fill="#C6C6C6"/>
<path d="M27.6836 220.404C28.3281 220.586 28.5449 220.921 29.0547 221.356C30.7773 222.832 32.8515 223.896 35.0487 224.442C35.2772 224.501 35.5761 224.525 35.6932 224.313C35.7929 224.131 35.6698 223.913 35.5409 223.749C34.621 222.591 33.3027 221.803 31.9199 221.286C30.5371 220.768 29.3359 220.145 27.6895 220.28" fill="#C6C6C6"/>
<path d="M25.832 208.347C28.1406 210.505 31.3866 211.616 34.5272 211.316C34.6678 211.304 34.8261 211.281 34.9257 211.175C35.1425 210.934 34.8846 210.569 34.6268 210.37C32.0722 208.371 28.9726 207.542 25.832 208.353" fill="#C6C6C6"/>
<path d="M28.0234 207.54C31.0703 205.248 35.2538 204.554 38.8749 205.741C37.5096 207.093 35.6112 207.822 33.707 208.016C31.7968 208.216 29.8867 208.004 28.0293 207.534" fill="#C6C6C6"/>
<path d="M27.1563 202.006C26.9043 199.443 27.0684 197.427 26.8926 194.852C26.8809 194.646 26.834 194.399 26.6406 194.323C26.3711 194.217 26.1543 194.546 26.0664 194.823C25.3047 197.192 25.7207 199.913 27.1563 201.947" fill="#C6C6C6"/>
<path d="M26.9688 202.286C28.6972 201.211 29.998 199.811 31.1933 198.166C32.0253 197.019 32.7343 195.644 32.5409 194.239C31.3691 194.215 30.2558 194.862 29.4941 195.756C28.7324 196.649 28.2754 197.766 27.9414 198.894C27.6016 200.023 27.3672 201.181 26.9688 202.286Z" fill="#C6C6C6"/>
<path d="M31.123 201.128C34.9199 199.717 38.4589 197.625 41.5233 194.974C40.2811 194.474 38.8573 194.774 37.6151 195.273C34.7792 196.426 32.459 198.365 31.0645 201.099" fill="#C6C6C6"/>
<path d="M28.1348 203.683C30.0566 203.894 32.0078 204.03 33.912 203.712C35.787 203.401 37.5565 202.654 39.3026 201.913C39.4491 201.855 39.6073 201.778 39.6717 201.637C39.742 201.478 39.6717 201.29 39.5428 201.173C39.4139 201.055 39.2498 201.002 39.0858 200.955C37.1815 200.42 35.1308 200.673 33.2558 201.302C31.3867 201.937 29.8515 202.689 28.1406 203.683" fill="#C6C6C6"/>
<path d="M17.1711 208.437C15.8586 205.786 15.9465 202.688 17.0774 199.955C17.8742 201.172 17.9739 202.724 17.8274 204.176C17.6809 205.628 17.2414 207.115 17.2121 208.573" fill="#C6C6C6"/>
<path d="M11.9393 205.783C8.66985 205.719 5.3945 207.118 3.17383 209.528C4.80857 209.786 6.49019 209.363 7.97259 208.634C9.45499 207.905 10.7792 206.889 12.0858 205.872" fill="#C6C6C6"/>
<path d="M8.41786 204.609C6.81827 204.48 5.27727 204.28 3.73628 204.756C2.19529 205.232 0.794913 206.302 0.167969 207.789C1.66209 207.96 3.17965 207.583 4.55658 206.96C5.92766 206.337 7.17569 205.473 8.41786 204.615" fill="#C6C6C6"/>
<path d="M13.6268 204.661C12.1854 203.714 10.7089 202.75 9.03314 202.356C7.35738 201.963 5.41209 202.256 4.24609 203.52C5.60545 204.32 7.25191 204.414 8.8222 204.414C10.3984 204.414 12.3261 204.396 13.8085 204.919" fill="#C6C6C6"/>
<path d="M13.6386 204.737C11.1777 202.316 10.2461 197.96 11.2363 194.645C13.1699 197.595 14.0371 201.234 13.6386 204.737Z" fill="#C6C6C6"/>
<path d="M20.4062 197.865C20.8691 196.784 21.1973 195.649 21.6133 194.544C22.0293 193.445 22.5449 192.358 23.3359 191.482C24.121 190.606 25.2109 189.953 26.3827 189.895C25.6503 193.233 23.4414 196.214 20.4648 197.877" fill="#C6C6C6"/>
<path d="M19.1816 199.299C18.414 198.24 17.5234 196.8 16.4863 196.007C15.4433 195.213 14.0898 194.737 12.8184 195.043C14.1133 197.359 16.5566 198.993 19.1874 199.304" fill="#C6C6C6"/>
<path d="M19.4276 197.953C18.9237 196.672 18.4198 195.373 18.2147 194.009C18.0096 192.645 18.1327 191.187 18.8299 190C20.1834 192.563 20.617 195.314 19.4979 197.983" fill="#C6C6C6"/>
<path d="M20.418 190.003C21.1855 187.464 23.5 185.595 26.0019 184.736C26.3183 184.631 26.6523 184.537 26.9804 184.589C27.3085 184.642 27.6308 184.866 27.7011 185.195C27.7948 185.63 27.4374 186.012 27.1034 186.3C25.1523 187.969 22.8613 189.239 20.418 190.003Z" fill="#C6C6C6"/>
<path d="M20.4473 187.92C20.5469 186.28 20.6465 184.622 21.1797 183.07C21.7129 181.519 22.7324 180.061 24.2207 179.385C24.4726 181.037 23.746 182.682 22.8672 184.105C21.9883 185.528 20.9336 186.874 20.4062 188.461" fill="#C6C6C6"/>
<path d="M20.4057 189.048C19.7729 187.196 19.7084 184.845 18.601 183.235C17.8276 182.106 16.5913 181.342 15.9292 180.143C15.4897 181.259 15.6245 182.541 16.0874 183.652C16.5503 184.763 17.312 185.709 18.1323 186.585C18.9526 187.461 19.6498 188.119 20.4116 189.048" fill="#C6C6C6"/>
<path d="M20.418 243.556C20.3711 243.556 20.3242 231.206 20.3242 215.981C20.3242 200.745 20.3594 188.4 20.4062 188.4C20.4531 188.4 20.5 200.745 20.5 215.981C20.5 231.212 20.4648 243.556 20.418 243.556Z" fill="#C6C6C6"/>
<path d="M31.1753 206.574C31.1753 206.574 31.0112 206.645 30.7124 206.751C30.3784 206.862 29.9507 207.009 29.441 207.18C28.3687 207.544 26.8922 208.079 25.2926 208.737C23.7047 209.419 22.2106 209.972 21.361 210.713C20.9333 211.077 20.693 211.471 20.57 211.759C20.4469 212.047 20.4235 212.223 20.4118 212.223C20.4059 212.223 20.4118 212.176 20.4118 212.094C20.4235 212.012 20.4469 211.888 20.4997 211.735C20.6051 211.43 20.8395 211.006 21.2731 210.618C21.7008 210.225 22.2985 209.878 22.9782 209.554C23.6578 209.237 24.4195 208.902 25.2223 208.573C26.8277 207.914 28.316 207.397 29.3999 207.062C29.9449 206.892 30.3843 206.768 30.6948 206.686C31.0054 206.604 31.1753 206.568 31.1753 206.58V206.574Z" fill="#C6C6C6"/>
<path d="M34.6971 197.883C34.6971 197.883 34.6561 197.936 34.5682 198.024C34.4627 198.124 34.3338 198.247 34.1756 198.394C33.8065 198.729 33.3084 199.182 32.6991 199.74C31.4276 200.875 29.6991 202.421 27.789 204.126C25.873 205.836 24.2207 207.47 23.0722 208.699C22.498 209.316 22.0469 209.822 21.7363 210.18C21.5898 210.345 21.4727 210.48 21.3789 210.592C21.2969 210.686 21.25 210.733 21.2441 210.727C21.2441 210.727 21.2734 210.668 21.3496 210.568C21.4258 210.468 21.5312 210.321 21.6836 210.139C21.9766 209.769 22.416 209.245 22.9785 208.617C24.1035 207.359 25.7499 205.707 27.6718 203.99C29.5936 202.286 31.3456 200.751 32.617 199.646C33.2381 199.111 33.7537 198.671 34.1287 198.347C34.2987 198.206 34.4334 198.094 34.5447 198C34.6385 197.924 34.6912 197.883 34.6971 197.889V197.883Z" fill="#C6C6C6"/>
<path d="M25.7263 205.86C25.6736 205.836 26.0779 204.907 26.4763 203.737C26.8806 202.568 27.0681 201.574 27.1208 201.586C27.1677 201.586 27.0564 202.609 26.6462 203.796C26.447 204.39 26.2244 204.913 26.0486 205.278C25.8728 205.648 25.7498 205.865 25.7263 205.86Z" fill="#C6C6C6"/>
<path d="M20.4286 213.338C20.4286 213.338 20.3114 213.22 20.1357 212.997C19.9364 212.738 19.6845 212.415 19.3798 212.027C18.747 211.204 17.8681 210.064 16.8837 208.823C15.8994 207.577 14.9971 206.46 14.3408 205.655C14.0303 205.273 13.7725 204.949 13.5674 204.697C13.3857 204.467 13.292 204.338 13.3037 204.332C13.3154 204.326 13.4268 204.438 13.6201 204.656C13.8193 204.867 14.0947 205.185 14.4346 205.578C15.1142 206.366 16.0341 207.471 17.0244 208.717C18.0087 209.964 18.8759 211.116 19.4853 211.956C19.79 212.38 20.036 212.721 20.1942 212.962C20.3583 213.203 20.4462 213.338 20.4345 213.349L20.4286 213.338Z" fill="#C6C6C6"/>
<path d="M18.0678 210.299C18.0385 210.328 17.4116 209.582 17.0776 208.442C16.8315 207.642 16.8257 206.907 16.855 206.572H16.9311C16.896 206.719 16.8725 206.796 16.855 206.796C16.8432 206.796 16.8374 206.713 16.855 206.566H16.9311C16.9604 206.907 17.0073 207.613 17.2475 208.395C17.5639 209.5 18.1147 210.27 18.0678 210.299Z" fill="#C6C6C6"/>
<path d="M15.0274 206.453C15.0274 206.453 14.8047 206.224 14.336 206.053C13.8731 205.877 13.1817 205.836 12.42 205.9C11.6583 205.959 10.9786 206.094 10.4923 206.212C10.0059 206.335 9.70712 206.429 9.70126 206.4C9.6954 206.377 9.97665 206.241 10.463 206.088C10.9493 205.936 11.6348 205.777 12.4141 205.718C13.1817 205.653 13.9141 205.712 14.3887 205.93C14.8692 206.141 15.0449 206.447 15.0332 206.447L15.0274 206.453Z" fill="#C6C6C6"/>
<path d="M14.3065 205.526C14.3065 205.526 13.9022 205.368 13.2519 205.138C12.5956 204.915 11.664 204.674 10.6152 204.592C9.56051 204.515 8.60544 204.603 7.92577 204.727C7.24609 204.85 6.83008 204.98 6.82422 204.95C6.82422 204.938 6.91797 204.897 7.10546 204.833C7.2871 204.762 7.56249 204.686 7.90233 204.609C8.58201 204.451 9.56051 204.339 10.6269 204.415C11.6992 204.498 12.6425 204.762 13.2929 205.021C13.621 205.15 13.8788 205.268 14.0487 205.362C14.2186 205.456 14.3124 205.514 14.3065 205.52V205.526Z" fill="#C6C6C6"/>
<path d="M20.4058 201.588C20.3589 201.6 20.0132 200.395 19.6323 198.901C19.2515 197.408 18.9878 196.186 19.0347 196.174C19.0816 196.162 19.4273 197.361 19.8081 198.86C20.189 200.353 20.4526 201.576 20.4058 201.588Z" fill="#C6C6C6"/>
<path d="M20.4527 201.584C20.3999 201.602 20.1773 200.797 19.5972 199.974C19.0347 199.133 18.314 198.716 18.3375 198.674C18.3492 198.657 18.5425 198.727 18.8238 198.927C19.0992 199.121 19.4449 199.45 19.7437 199.874C20.3472 200.726 20.4937 201.578 20.4527 201.584Z" fill="#C6C6C6"/>
<path d="M20.4179 236.98C20.4179 236.98 20.3652 236.68 20.2246 236.157C20.0898 235.634 19.832 234.887 19.4043 234.017C18.5547 232.271 17.0078 230.061 15.0391 227.851C14.0665 226.734 13.1173 225.682 12.3145 224.671C11.5118 223.666 10.8497 222.701 10.3692 221.855C9.88292 221.009 9.57238 220.28 9.38488 219.762C9.29699 219.504 9.22668 219.304 9.19153 219.163C9.15051 219.022 9.13293 218.951 9.13879 218.951C9.15637 218.951 9.24426 219.233 9.44934 219.739C9.65441 220.244 9.98253 220.956 10.4747 221.79C10.9669 222.625 11.6349 223.571 12.4376 224.565C13.2403 225.564 14.1895 226.611 15.168 227.727C17.1367 229.949 18.6836 232.183 19.5097 233.958C19.9258 234.84 20.166 235.598 20.289 236.133C20.3476 236.404 20.3828 236.609 20.4004 236.751C20.4179 236.892 20.4238 236.968 20.4179 236.968V236.98Z" fill="#C6C6C6"/>
<path d="M30.1385 225.965C30.1385 225.965 29.9569 226.071 29.6288 226.253C29.3007 226.435 28.8378 226.723 28.3104 227.129C27.7772 227.534 27.1855 228.075 26.5761 228.716C25.9667 229.362 25.3398 230.109 24.7011 230.914C23.4238 232.525 22.2226 233.953 21.5078 235.088C21.1445 235.652 20.8809 236.128 20.7051 236.463C20.5293 236.798 20.4355 236.987 20.4238 236.981C20.4238 236.981 20.4355 236.928 20.4707 236.834C20.5059 236.74 20.5586 236.604 20.6406 236.434C20.793 236.087 21.0449 235.599 21.3965 235.023C22.0937 233.859 23.2832 232.413 24.5605 230.803C25.1992 229.997 25.8378 229.245 26.4589 228.604C27.08 227.963 27.6894 227.429 28.2343 227.029C28.7792 226.629 29.2596 226.359 29.5995 226.194C29.7694 226.112 29.9042 226.059 29.9979 226.018C30.0917 225.982 30.1385 225.965 30.1444 225.971L30.1385 225.965Z" fill="#C6C6C6"/>
<path d="M30.3256 229.537C30.3256 229.537 29.9154 229.613 29.2475 229.696C28.5854 229.784 27.6596 229.895 26.6928 230.201C25.7319 230.519 24.9292 230.995 24.4077 231.406C23.8804 231.812 23.6343 232.153 23.605 232.135C23.5991 232.129 23.646 232.035 23.7632 231.888C23.8804 231.735 24.0679 231.535 24.3257 231.312C24.8413 230.865 25.6499 230.36 26.6342 230.036C27.6245 229.719 28.5619 229.631 29.2299 229.578C29.9037 229.531 30.3197 229.525 30.3197 229.549L30.3256 229.537Z" fill="#C6C6C6"/>
<path d="M23.9277 231.736C23.8691 231.707 24.3555 230.961 24.7305 229.961C25.082 228.95 25.164 228.068 25.2285 228.08C25.2519 228.08 25.2519 228.304 25.2109 228.662C25.1699 229.015 25.082 229.509 24.8945 230.026C24.707 230.543 24.4609 230.978 24.2676 231.278C24.0742 231.578 23.9395 231.754 23.9219 231.742L23.9277 231.736Z" fill="#C6C6C6"/>
<path d="M33.2851 216.374C33.2851 216.374 33.2265 216.409 33.1152 216.468C32.9804 216.527 32.8164 216.603 32.6113 216.697C32.3886 216.791 32.1191 216.915 31.8203 217.073C31.5156 217.232 31.164 217.391 30.789 217.614C30.6015 217.72 30.4082 217.832 30.2031 217.949C29.998 218.067 29.7988 218.208 29.582 218.343C29.1484 218.608 28.7149 218.931 28.252 219.26C27.3438 219.948 26.3946 220.765 25.4747 221.711C24.5665 222.664 23.7872 223.645 23.1309 224.58C22.8145 225.056 22.5099 225.503 22.2579 225.944C22.129 226.161 22.0001 226.373 21.8888 226.579C21.7774 226.784 21.6778 226.99 21.5724 227.178C21.3614 227.554 21.215 227.919 21.0685 228.23C20.922 228.542 20.8107 228.812 20.7228 229.042C20.6349 229.253 20.5646 229.424 20.5118 229.559C20.4591 229.676 20.4298 229.735 20.424 229.735C20.4181 229.735 20.4357 229.671 20.4767 229.547C20.5236 229.406 20.5821 229.236 20.6583 229.018C20.7345 228.789 20.84 228.507 20.9806 228.195C21.1212 227.878 21.2618 227.513 21.4669 227.131C21.5665 226.937 21.6661 226.731 21.7716 226.52C21.8771 226.308 22.0118 226.097 22.1349 225.873C22.381 225.426 22.6856 224.974 22.9962 224.492C23.6524 223.545 24.4317 222.552 25.3516 221.594C26.2774 220.642 27.2383 219.824 28.1582 219.137C28.627 218.808 29.0664 218.484 29.5059 218.226C29.7227 218.09 29.9277 217.955 30.1328 217.838C30.3379 217.726 30.5371 217.614 30.7305 217.508C31.1054 217.291 31.4687 217.138 31.7793 216.985C32.0898 216.832 32.3593 216.721 32.5878 216.633C32.7988 216.55 32.9687 216.486 33.1093 216.433C33.2265 216.392 33.291 216.368 33.2968 216.374H33.2851Z" fill="#C6C6C6"/>
<path d="M25.5908 221.542C25.5908 221.542 25.6611 221.243 26.0127 220.907C26.3584 220.578 26.9853 220.273 27.7177 220.249C28.4443 220.231 29.0771 220.437 29.5107 220.602C29.9443 220.772 30.1962 220.913 30.1904 220.931C30.1786 220.955 29.9091 220.86 29.4697 220.719C29.0302 220.584 28.415 220.408 27.7236 220.425C27.0322 220.449 26.4404 220.713 26.0947 221.002C25.7432 221.284 25.6201 221.554 25.5908 221.536V221.542Z" fill="#C6C6C6"/>
<path d="M24.443 222.733C24.3961 222.704 24.8297 222.069 24.9293 221.152C25.0406 220.241 24.7652 219.518 24.8238 219.5C24.8414 219.494 24.941 219.659 25.0231 219.959C25.1051 220.258 25.1637 220.693 25.1109 221.17C25.0524 221.646 24.9 222.057 24.7477 222.328C24.5953 222.598 24.4664 222.739 24.4488 222.727L24.443 222.733Z" fill="#C6C6C6"/>
<path d="M11.916 238.746C12.1797 243.466 13.5976 248.263 15.7773 253.118H25.2576C27.3377 248.316 28.656 243.525 28.8904 238.746H11.916Z" fill="#C6C6C6"/>
<path d="M27.3553 246.387C27.3553 246.434 24.2323 246.475 20.3827 246.475C16.5332 246.475 13.4102 246.434 13.4102 246.387C13.4102 246.34 16.5332 246.299 20.3827 246.299C24.2323 246.299 27.3553 246.34 27.3553 246.387Z" fill="white"/>
<path d="M27.1444 248.088C27.1444 248.135 24.2206 248.176 20.6112 248.176C17.0019 248.176 14.0781 248.135 14.0781 248.088C14.0781 248.041 17.0019 248 20.6112 248C24.2206 248 27.1444 248.041 27.1444 248.088Z" fill="white"/>
<path d="M15.9346 241.846C15.9814 241.846 16.0225 242.827 16.0225 244.038C16.0225 245.249 15.9814 246.231 15.9346 246.231C15.8877 246.231 15.8467 245.249 15.8467 244.038C15.8467 242.827 15.8877 241.846 15.9346 241.846Z" fill="white"/>
<path d="M21.0098 241.846C21.0566 241.846 21.0977 242.863 21.0977 244.115C21.0977 245.367 21.0566 246.384 21.0098 246.384C20.9629 246.384 20.9219 245.367 20.9219 244.115C20.9219 242.863 20.9629 241.846 21.0098 241.846Z" fill="white"/>
<path d="M25.7793 241.807C25.8262 241.807 25.8672 242.841 25.8672 244.123C25.8672 245.404 25.8262 246.439 25.7793 246.439C25.7324 246.439 25.6914 245.404 25.6914 244.123C25.6914 242.841 25.7324 241.807 25.7793 241.807Z" fill="white"/>
<path d="M28.5916 241.846C28.5916 241.893 24.9295 241.934 20.4179 241.934C15.9062 241.934 12.2383 241.893 12.2383 241.846C12.2383 241.799 15.9003 241.758 20.4179 241.758C24.9354 241.758 28.5916 241.799 28.5916 241.846Z" fill="white"/>
<path d="M67.9851 102.355H48.1396V107.622H67.9851V102.355Z" fill="#EDEDED"/>
<path d="M59.5945 113.173C59.5945 113.173 59.5945 113.137 59.5886 113.079C59.5886 113.008 59.5886 112.92 59.5827 112.808C59.5827 112.561 59.5769 112.215 59.5652 111.774C59.5593 110.863 59.5476 109.558 59.53 107.906L59.5886 107.965C55.0594 107.976 47.8466 107.988 39.7432 108.006C39.79 107.959 39.6436 108.106 39.8428 107.906V108.582C39.8428 108.805 39.8428 109.029 39.8428 109.252C39.8428 109.699 39.8428 110.14 39.8428 110.58C39.8428 111.462 39.8428 112.326 39.8428 113.173L39.7432 113.073C45.3974 113.09 50.3426 113.108 53.8875 113.12C55.657 113.132 57.075 113.143 58.0652 113.149C58.5456 113.149 58.9265 113.161 59.196 113.161C59.3191 113.161 59.4128 113.161 59.489 113.167C59.5534 113.167 59.5886 113.167 59.5945 113.173C59.5945 113.173 59.5652 113.173 59.5007 113.179C59.4245 113.179 59.3366 113.179 59.2195 113.184C58.9558 113.184 58.5867 113.19 58.1121 113.196C57.1277 113.202 55.7156 113.214 53.9578 113.226C50.3954 113.237 45.4267 113.255 39.7432 113.273H39.6436V113.173C39.6436 112.326 39.6436 111.462 39.6436 110.58C39.6436 110.14 39.6436 109.699 39.6436 109.252C39.6436 109.029 39.6436 108.805 39.6436 108.582V107.918V107.906C39.8486 107.7 39.7021 107.847 39.7432 107.806C47.8524 107.823 55.0594 107.835 59.5886 107.847H59.6531V107.912C59.6413 109.575 59.6296 110.898 59.6179 111.815C59.612 112.25 59.6062 112.591 59.6003 112.838C59.6003 112.943 59.6003 113.032 59.5945 113.096C59.5945 113.155 59.5945 113.184 59.5886 113.179L59.5945 113.173Z" fill="#C6C6C6"/>
<path d="M142.723 107.188C142.723 107.188 142.723 107.148 142.716 107.081C142.716 107 142.716 106.899 142.71 106.771C142.71 106.489 142.703 106.092 142.69 105.587C142.683 104.544 142.669 103.051 142.649 101.16L142.716 101.228C137.533 101.241 129.284 101.255 120.003 101.275C120.056 101.221 119.889 101.389 120.117 101.16V101.934C120.117 102.19 120.117 102.445 120.117 102.701C120.117 103.212 120.117 103.717 120.117 104.222C120.117 105.231 120.117 106.22 120.117 107.188L120.003 107.074C126.474 107.094 132.134 107.114 136.191 107.128C138.217 107.141 139.833 107.155 140.973 107.162C141.523 107.162 141.959 107.175 142.267 107.175C142.408 107.175 142.515 107.175 142.602 107.182C142.676 107.182 142.716 107.182 142.723 107.188C142.723 107.188 142.69 107.188 142.616 107.195C142.529 107.195 142.428 107.195 142.294 107.202C141.992 107.202 141.57 107.209 141.026 107.215C139.9 107.222 138.284 107.236 136.272 107.249C132.194 107.263 126.508 107.283 120.003 107.303H119.889V107.188C119.889 106.22 119.889 105.231 119.889 104.222C119.889 103.717 119.889 103.212 119.889 102.701C119.889 102.445 119.889 102.19 119.889 101.934V101.174V101.16C120.123 100.925 119.956 101.093 120.003 101.046C129.284 101.066 137.533 101.08 142.716 101.093H142.79V101.167C142.777 103.071 142.763 104.585 142.75 105.634C142.743 106.132 142.736 106.522 142.73 106.805C142.73 106.926 142.73 107.027 142.723 107.101C142.723 107.168 142.723 107.202 142.716 107.195L142.723 107.188Z" fill="#C6C6C6"/>
<path d="M145.801 101.159C145.801 101.159 145.801 101.119 145.795 101.045C145.795 100.958 145.795 100.857 145.788 100.729C145.788 100.433 145.774 100.029 145.768 99.5178C145.754 98.4615 145.741 96.9679 145.721 95.1312L145.801 95.212C142.267 95.2187 137.452 95.2322 132.154 95.2456C132.047 95.3465 132.295 95.1043 132.268 95.1312V95.3263V95.5215V95.9184C132.268 96.1808 132.268 96.4432 132.268 96.6988C132.268 97.2169 132.268 97.7282 132.268 98.2328C132.268 99.242 132.268 100.217 132.268 101.159L132.161 101.052C136.104 101.072 139.491 101.092 141.925 101.106C143.126 101.119 144.085 101.126 144.769 101.139C145.09 101.139 145.345 101.153 145.533 101.153C145.707 101.153 145.801 101.159 145.808 101.166C145.808 101.166 145.728 101.173 145.56 101.18C145.372 101.18 145.124 101.186 144.815 101.193C144.138 101.2 143.186 101.213 141.999 101.227C139.551 101.24 136.131 101.26 132.161 101.28H132.054V101.173C132.054 100.238 132.054 99.2554 132.054 98.2462C132.054 97.7416 132.054 97.2303 132.054 96.7123C132.054 96.4499 132.054 96.1942 132.054 95.9319V95.5349V95.3398V95.1514V95.138C132.054 95.138 132.275 94.916 132.168 95.0236C137.472 95.0371 142.281 95.0505 145.815 95.0572H145.902V95.138C145.882 96.9949 145.868 98.5086 145.855 99.5716C145.848 100.069 145.842 100.466 145.835 100.762C145.835 101.032 145.821 101.173 145.815 101.166L145.801 101.159Z" fill="#C6C6C6"/>
<path d="M33.5652 178.348C33.5652 178.348 33.5652 178.313 33.5593 178.254C33.5593 178.184 33.5593 178.096 33.5534 177.984C33.5534 177.737 33.5476 177.39 33.5359 176.949C33.53 176.038 33.5183 174.733 33.5007 173.082L33.5593 173.14C29.0301 173.152 21.8231 173.164 13.7139 173.181C13.7607 173.134 13.6143 173.281 13.8135 173.082V173.758C13.8135 173.981 13.8135 174.204 13.8135 174.428C13.8135 174.874 13.8135 175.315 13.8135 175.756C13.8135 176.638 13.8135 177.502 13.8135 178.348L13.7139 178.249C19.3681 178.266 24.3133 178.284 27.8582 178.296C29.6277 178.307 31.0398 178.319 32.0359 178.325C32.5163 178.325 32.8972 178.337 33.1667 178.337C33.2898 178.337 33.3835 178.337 33.4597 178.343C33.5241 178.343 33.5593 178.343 33.5652 178.348C33.5652 178.348 33.5359 178.348 33.4714 178.354C33.3952 178.354 33.3073 178.354 33.1902 178.36C32.9265 178.36 32.5574 178.366 32.0828 178.372C31.0984 178.378 29.6863 178.39 27.9285 178.401C24.3661 178.413 19.3974 178.431 13.7139 178.448H13.6143V178.348C13.6143 177.502 13.6143 176.638 13.6143 175.756C13.6143 175.315 13.6143 174.874 13.6143 174.428C13.6143 174.204 13.6143 173.981 13.6143 173.758V173.093V173.082C13.8193 172.876 13.6729 173.023 13.7139 172.982C21.8231 172.999 29.0301 173.011 33.5593 173.023H33.6238V173.087C33.612 174.751 33.6003 176.074 33.5886 176.991C33.5827 177.426 33.5769 177.767 33.571 178.013C33.571 178.119 33.571 178.207 33.5652 178.272C33.5652 178.331 33.5652 178.36 33.5593 178.354L33.5652 178.348Z" fill="#C6C6C6"/>
<path d="M36.2547 173.08C36.2547 173.08 36.2547 173.045 36.2489 172.98C36.2489 172.904 36.2489 172.816 36.243 172.704C36.243 172.445 36.2313 172.093 36.2254 171.646C36.2137 170.723 36.202 169.418 36.1844 167.813L36.2547 167.884C33.1669 167.89 28.9599 167.901 24.3311 167.913C24.2373 168.001 24.4541 167.79 24.4307 167.813V167.984V168.154V168.501C24.4307 168.73 24.4307 168.959 24.4307 169.183C24.4307 169.635 24.4307 170.082 24.4307 170.523C24.4307 171.405 24.4307 172.257 24.4307 173.08L24.3369 172.986C27.7822 173.004 30.7411 173.021 32.868 173.033C33.9169 173.045 34.7547 173.051 35.3524 173.062C35.6336 173.062 35.8563 173.074 36.0203 173.074C36.1727 173.074 36.2547 173.08 36.2606 173.086C36.2606 173.086 36.1903 173.092 36.0438 173.098C35.8797 173.098 35.6629 173.104 35.3934 173.109C34.8016 173.115 33.9696 173.127 32.9325 173.139C30.7939 173.151 27.8056 173.168 24.3369 173.186H24.2432V173.092C24.2432 172.275 24.2432 171.417 24.2432 170.535C24.2432 170.094 24.2432 169.647 24.2432 169.195C24.2432 168.965 24.2432 168.742 24.2432 168.513V168.166V167.995V167.831V167.819C24.2432 167.819 24.4365 167.625 24.3428 167.719C28.9775 167.731 33.1786 167.743 36.2664 167.748H36.3426V167.819C36.325 169.441 36.3133 170.764 36.3016 171.693C36.2957 172.128 36.2899 172.475 36.284 172.733C36.284 172.968 36.2723 173.092 36.2664 173.086L36.2547 173.08Z" fill="#C6C6C6"/>
<path d="M265.56 104.833C265.56 104.833 265.56 104.798 265.554 104.739C265.554 104.668 265.554 104.58 265.549 104.468C265.549 104.221 265.543 103.875 265.531 103.434C265.525 102.523 265.513 101.218 265.496 99.5659L265.554 99.6306C261.025 99.6423 253.818 99.6541 245.709 99.6717C245.756 99.6247 245.609 99.7716 245.809 99.5718V99.7422V99.9127V100.248C245.809 100.471 245.809 100.695 245.809 100.918C245.809 101.365 245.809 101.806 245.809 102.246C245.809 103.128 245.809 103.992 245.809 104.839L245.709 104.739C251.363 104.756 256.308 104.774 259.853 104.786C261.623 104.798 263.041 104.809 264.031 104.815C264.511 104.815 264.892 104.827 265.162 104.827C265.285 104.827 265.379 104.827 265.455 104.833C265.519 104.833 265.554 104.833 265.56 104.839C265.566 104.845 265.531 104.839 265.467 104.845C265.39 104.845 265.302 104.845 265.185 104.85C264.922 104.85 264.552 104.856 264.078 104.862C263.094 104.868 261.681 104.88 259.924 104.892C256.361 104.903 251.392 104.921 245.709 104.939H245.609V104.839C245.609 103.992 245.609 103.128 245.609 102.246C245.609 101.806 245.609 101.365 245.609 100.918C245.609 100.695 245.609 100.471 245.609 100.248V99.9127V99.7422V99.5835V99.5718C245.814 99.366 245.668 99.513 245.709 99.4719C253.818 99.4895 261.025 99.5012 265.554 99.513H265.619V99.5718C265.607 101.235 265.595 102.558 265.584 103.475C265.578 103.91 265.572 104.251 265.566 104.498C265.566 104.604 265.566 104.692 265.56 104.756C265.56 104.815 265.56 104.845 265.554 104.839L265.56 104.833Z" fill="#C6C6C6"/>
<path d="M268.255 99.5663C268.255 99.5663 268.255 99.531 268.249 99.4663C268.249 99.3899 268.249 99.3018 268.243 99.1901C268.243 98.9314 268.231 98.5787 268.225 98.132C268.214 97.2091 268.202 95.9041 268.184 94.2994L268.255 94.3699C265.167 94.3758 260.96 94.3875 256.331 94.3993C256.243 94.4875 256.454 94.2758 256.431 94.2994V94.9871C256.431 95.2164 256.431 95.4456 256.431 95.669C256.431 96.1216 256.431 96.5684 256.431 97.0092C256.431 97.891 256.431 98.7433 256.431 99.5663L256.337 99.4722C259.782 99.4899 262.741 99.5075 264.868 99.5192C265.917 99.531 266.755 99.5369 267.352 99.5486C267.634 99.5486 267.856 99.5604 268.02 99.5604C268.173 99.5604 268.255 99.5663 268.261 99.5721C268.266 99.578 268.19 99.578 268.044 99.5839C267.88 99.5839 267.663 99.5898 267.393 99.5957C266.802 99.6015 265.97 99.6133 264.932 99.6251C262.794 99.6368 259.806 99.6544 256.337 99.6721H256.243V99.578C256.243 98.7609 256.243 97.9027 256.243 97.021C256.243 96.5801 256.243 96.1334 256.243 95.6807C256.243 95.4515 256.243 95.2281 256.243 94.9989V94.6521V94.4816V94.317V94.3052C256.243 94.3052 256.437 94.1113 256.343 94.2053C260.977 94.2171 265.179 94.2288 268.266 94.2347H268.343V94.3052C268.325 95.9276 268.313 97.2502 268.302 98.179C268.296 98.614 268.29 98.9608 268.284 99.2195C268.284 99.4546 268.272 99.578 268.266 99.5721L268.255 99.5663Z" fill="#C6C6C6"/>
<path d="M276.488 253.846C276.488 253.544 217.508 253.285 144.77 253.285C72.0318 253.285 13.04 253.544 13.04 253.846C13.04 254.148 72.0085 254.406 144.77 254.406C217.532 254.406 276.488 254.148 276.488 253.846Z" fill="#7A7A7A"/>
<path d="M144.644 226.458C204.363 226.458 252.931 178.047 253.124 118.329C253.317 58.6104 205.062 10.1992 145.343 10.1992C85.6246 10.1992 37.0564 58.6104 36.8634 118.329C36.6704 178.047 84.9256 226.458 144.644 226.458Z" fill="#94090F"/>
<path d="M149.599 223.925C206.584 223.925 252.929 177.73 253.113 120.745C253.297 63.7612 207.251 17.5664 150.266 17.5664C93.2812 17.5664 46.9366 63.7612 46.7525 120.745C46.5683 177.73 92.6143 223.925 149.599 223.925Z" fill="#C8131B"/>
<path d="M177.926 213.398C228.935 197.889 257.754 143.832 242.295 92.6584C226.837 41.4845 172.954 12.5722 121.945 28.081C70.9359 43.5898 42.1168 97.6468 57.5757 148.821C73.0345 199.995 126.917 228.907 177.926 213.398Z" fill="white"/>
<path opacity="0.5" d="M244.786 100.358C200.616 127.175 128.021 171.157 87.443 195.265C76.0584 185.642 66.925 173.44 60.9395 159.562L195.142 34.9551C220.129 48.137 238.666 71.9415 244.793 100.358H244.786Z" fill="#F6F6F6"/>
<path opacity="0.5" d="M245.913 124.641C245.546 135.701 243.331 146.29 239.567 156.099L119.789 213.204C114.537 211.448 109.472 209.255 104.66 206.651C140.844 185.573 206.96 147.225 245.913 124.641Z" fill="#F6F6F6"/>
<path d="M150.624 30.4729H149.503V46.1676H150.624V30.4729Z" fill="#EDEDED"/>
<path d="M105.984 42.5141L104.369 43.4492L111.682 56.1568L113.297 55.2216L105.984 42.5141Z" fill="#EDEDED"/>
<path d="M72.8892 75.0306L71.957 76.6504L84.6236 83.9871L85.5558 82.3673L72.8892 75.0306Z" fill="#EDEDED"/>
<path d="M75.5132 120.158H60.9395V121.279H75.5132V120.158Z" fill="#EDEDED"/>
<path d="M84.6301 157.485L71.9648 164.824L72.8973 166.444L85.5626 159.105L84.6301 157.485Z" fill="#EDEDED"/>
<path d="M111.689 185.342L104.385 198.055L106 198.989L113.304 186.276L111.689 185.342Z" fill="#EDEDED"/>
<path d="M150.624 196.389H149.503V210.962H150.624V196.389Z" fill="#EDEDED"/>
<path d="M188.177 185.33L186.562 186.266L193.876 198.973L195.49 198.038L188.177 185.33Z" fill="#EDEDED"/>
<path d="M215.257 157.511L214.324 159.131L226.99 166.47L227.922 164.85L215.257 157.511Z" fill="#EDEDED"/>
<path d="M239.187 120.158H224.613V121.279H239.187V120.158Z" fill="#EDEDED"/>
<path d="M226.97 75.0241L214.306 82.3652L215.238 83.9847L227.902 76.6435L226.97 75.0241Z" fill="#EDEDED"/>
<path d="M193.867 42.523L186.561 55.2344L188.176 56.1687L195.482 43.4573L193.867 42.523Z" fill="#EDEDED"/>
<path d="M211.374 109.347C210.817 109.327 207.417 105.479 207.417 105.479C207.417 105.479 153.849 141.116 153.386 141.338C153.131 141.459 148.464 140.611 147.88 139.656C147.23 138.586 148.423 134.287 149.007 133.48C149.349 133.002 205.962 102.902 205.962 102.902C205.962 102.902 204.131 98.4145 204.373 97.8359C204.614 97.264 224.987 87.1588 225.665 86.9637C226.349 86.7686 226.577 87.3337 226.094 87.697C225.497 88.1478 209.1 97.6139 208.886 97.809C208.785 97.8965 209.302 99.1613 209.396 99.1276C209.523 99.0873 226.436 89.601 227.153 89.3588C227.864 89.1166 227.985 89.749 227.576 90.072C227.227 90.3545 210.569 101.092 210.542 101.186C210.529 101.22 210.831 101.826 211.24 102.397C212.132 101.866 228.153 92.1643 228.723 91.8952C229.306 91.6126 229.561 92.2585 229.185 92.568C228.83 92.8573 214.144 102.949 212.487 104.12C212.829 104.564 213.285 104.974 213.325 104.954C213.48 104.907 229.534 94.6604 230.245 94.3374C230.735 94.1154 231.097 94.6402 230.654 94.9833C230.466 95.1246 211.937 109.361 211.381 109.341L211.374 109.347Z" fill="#C8131B"/>
<path opacity="0.1" d="M156.819 139.085C154.72 140.477 153.453 141.305 153.385 141.338C153.131 141.459 148.463 140.612 147.88 139.656C147.229 138.587 148.416 134.281 149.013 133.474C149.094 133.366 151.816 131.866 156.041 129.578C156.256 131.899 156.678 136.656 156.819 139.078V139.085Z" fill="black"/>
<path d="M146.263 139.115C146.578 139.889 150.005 142.856 151.098 142.829C152.245 142.802 154.914 139.727 155.33 138.92C155.524 138.543 152.52 101.903 152.52 101.903C152.52 101.903 155.491 99.5418 156.812 95.4445C157.375 93.6885 154.17 54.5123 152.279 48.242C151.809 46.6744 148.979 46.8628 148.664 48.3025C148.074 51.0071 147.356 76.6604 147.289 100.941C147.289 101.56 147.853 102.657 147.826 103.276C147.088 122.194 146.142 138.832 146.256 139.115H146.263Z" fill="#C8131B"/>
<path d="M36.6553 119.893C37.9209 116.484 38.7646 112.922 39.1513 109.307C39.5791 105.356 39.4794 101.312 40.6044 97.5031C41.7294 93.694 44.454 90.0201 48.3387 89.2383L51.7019 90.4081C52.0183 102.317 51.1922 114.262 49.241 126.013C49.1649 126.459 49.0711 126.941 48.743 127.259C48.3211 127.659 47.6707 127.653 47.0965 127.6C44.2079 127.353 41.3486 126.736 38.6123 125.76C37.7803 125.46 36.9072 125.096 36.4033 124.367C35.5186 123.091 36.1104 121.357 36.6494 119.899L36.6553 119.893Z" fill="#222222"/>
<path d="M47.2142 74.9723C49.7747 71.4042 53.3782 69.2175 57.7492 68.8766C60.216 68.6826 61.2707 69.1352 63.0753 69.5055C64.88 69.8759 66.544 70.7341 67.6983 72.1801C69.0694 73.8966 70.2471 75.8364 70.6221 78.0055C71.0029 80.2333 71.3897 82.473 71.3545 84.7302C71.3252 86.9875 70.8565 89.2917 69.6494 91.1963L64.0128 92.5424C60.8722 92.8422 57.6848 93.1479 54.5735 92.6129C51.4622 92.0839 48.3802 90.6085 46.5755 88.0162C44.0619 84.4128 44.6537 78.5463 47.2201 74.9782L47.2142 74.9723Z" fill="#222222"/>
<path d="M52.282 74.6187L59.694 71.1211L61.692 71.2328C66.1568 70.9741 69.5435 75.7238 69.7954 79.3506C70.0767 83.3831 70.2583 88.3091 69.8013 91.3246C68.8814 97.3792 63.8307 98.1904 63.8307 98.1904L64.0299 103.222L66.608 104.521L66.4322 118.547L57.1452 120.146L52.2 103.163L52.0593 98.8488L50.3953 76.7936C50.366 75.6885 51.1863 74.748 52.2761 74.6245L52.282 74.6187Z" fill="#FFB98A"/>
<path d="M61.0537 91.6558C61.0772 91.3384 61.2354 91.0503 61.4463 90.8446C61.8682 90.4331 62.5186 90.3567 63.0107 90.6565C63.5088 90.9563 63.8193 91.6146 63.7724 92.2495C63.5264 92.6374 63.1338 92.9078 62.6826 92.9784C62.6123 92.9901 62.542 92.996 62.4717 92.996C62.126 93.0078 61.7686 92.9137 61.4932 92.6786C61.2178 92.4435 61.0303 92.0496 61.0537 91.6558Z" fill="#A82743"/>
<path d="M67.4468 84.3789C67.4644 84.7906 67.1302 85.1434 66.7081 85.167C66.2802 85.1905 65.9225 84.8847 65.905 84.473C65.8874 84.0613 66.2215 83.7084 66.6436 83.6849C67.0716 83.6613 67.4292 83.9672 67.4468 84.3789Z" fill="#222222"/>
<path d="M68.559 81.4498C68.4652 81.5498 67.8735 81.1207 67.0414 81.1265C66.2094 81.1265 65.6 81.5557 65.5122 81.4557C65.4653 81.4087 65.5649 81.2265 65.8286 81.0325C66.0864 80.8385 66.5317 80.6445 67.0531 80.6445C67.5688 80.6445 68.0082 80.8326 68.2602 81.0266C68.518 81.2206 68.6059 81.4028 68.559 81.4498Z" fill="#222222"/>
<path d="M63.632 88.3041C63.632 88.257 64.1418 88.163 64.9797 88.0513C65.1906 88.0278 65.3957 87.9866 65.425 87.8397C65.4719 87.6868 65.384 87.4576 65.2785 87.2107C65.0734 86.6934 64.8625 86.1585 64.6398 85.5942C63.7551 83.2899 63.1106 81.3912 63.1984 81.356C63.2922 81.3207 64.0891 83.1606 64.9738 85.4649C65.1848 86.0351 65.3898 86.5759 65.589 87.0931C65.6711 87.3342 65.8117 87.6104 65.7062 87.9279C65.6476 88.0866 65.4953 88.2041 65.3605 88.2394C65.2258 88.2805 65.1027 88.2864 64.9973 88.2923C64.1535 88.3452 63.632 88.3511 63.6262 88.3041H63.632Z" fill="#222222"/>
<path d="M63.8427 98.1806C63.8427 98.1806 59.788 98.4686 55.751 96.0762C55.751 96.0762 57.9306 100.256 63.9599 99.6502L63.8368 98.1865L63.8427 98.1806Z" fill="#EB996E"/>
<path d="M61.4585 90.0802C61.5933 90.0743 61.5991 90.9796 62.3784 91.6144C63.1518 92.2551 64.1186 92.1493 64.1245 92.2728C64.1362 92.3316 63.9135 92.4491 63.5034 92.4668C63.105 92.4844 62.519 92.3609 62.0444 91.9671C61.5698 91.5733 61.3648 91.0501 61.3296 90.6798C61.2944 90.3036 61.394 90.0743 61.4526 90.0802H61.4585Z" fill="#222222"/>
<path d="M68.0966 78.5513C67.9559 78.757 67.3173 78.6218 66.5731 78.6923C65.829 78.7335 65.2138 78.9627 65.0497 78.7805C64.9736 78.6923 65.0556 78.4925 65.3134 78.2867C65.5653 78.081 66.0048 77.887 66.5146 77.8518C67.0243 77.8165 67.4872 77.9399 67.7626 78.1045C68.0438 78.2691 68.1493 78.4572 68.0907 78.5571L68.0966 78.5513Z" fill="#222222"/>
<path d="M58.4756 84.5477C58.4756 84.9594 58.8273 85.2946 59.2553 85.2946C59.6832 85.2946 60.0233 84.9712 60.0233 84.5595C60.0233 84.1478 59.6715 83.8125 59.2436 83.8066C58.8156 83.8066 58.4756 84.1301 58.4756 84.5418V84.5477Z" fill="#222222"/>
<path d="M57.316 81.8206C57.4157 81.9147 57.984 81.4562 58.816 81.4209C59.648 81.3739 60.275 81.7795 60.3629 81.6678C60.4039 81.6207 60.2984 81.4444 60.023 81.2622C59.7535 81.0799 59.2965 80.9095 58.7809 80.9389C58.2653 80.9624 57.8375 81.174 57.5914 81.3797C57.3453 81.5855 57.2633 81.7736 57.316 81.8206Z" fill="#222222"/>
<path d="M57.6493 79.124C57.8192 79.3062 58.452 79.0828 59.2254 79.0358C59.993 78.9712 60.6551 79.1005 60.7957 78.8947C60.8602 78.7948 60.7488 78.6126 60.45 78.4421C60.1629 78.2775 59.6824 78.1482 59.1551 78.1893C58.6278 78.2305 58.1766 78.4186 57.9129 78.6243C57.6493 78.8301 57.5672 79.0299 57.6434 79.1181L57.6493 79.124Z" fill="#222222"/>
<path d="M52.0537 86.8584C52.0537 86.4058 51.5263 85.3477 51.081 85.283C49.8974 85.1067 47.7646 85.2125 47.7646 88.2339C47.7646 92.3604 51.8896 91.5081 51.9013 91.3905C51.9013 91.2965 52.0712 88.4161 52.0595 86.8643L52.0537 86.8584Z" fill="#FFB98A"/>
<path d="M50.7588 89.8778C50.7588 89.8778 50.6885 89.9307 50.5654 89.9836C50.4482 90.0365 50.2431 90.0776 50.0322 89.9954C49.5986 89.8366 49.2295 89.143 49.2119 88.4023C49.2002 88.0261 49.2822 87.6676 49.4111 87.3736C49.5342 87.0739 49.7334 86.8622 49.9502 86.8211C50.167 86.7682 50.3252 86.9034 50.3721 87.0151C50.4248 87.1326 50.4014 87.2149 50.4248 87.2208C50.4365 87.2326 50.5127 87.1503 50.4775 86.9798C50.4599 86.8975 50.4131 86.7976 50.3135 86.7212C50.2139 86.6389 50.0674 86.5977 49.915 86.6154C49.5986 86.6389 49.3115 86.9328 49.165 87.2561C49.001 87.5853 48.9072 87.985 48.919 88.4082C48.9424 89.2371 49.3701 90.0189 49.9619 90.1893C50.249 90.2657 50.4951 90.1776 50.6181 90.0776C50.747 89.9777 50.7646 89.8837 50.7529 89.8778H50.7588Z" fill="#EB996E"/>
<path d="M50.9117 85.3055L52.0192 86.3224C56.2496 81.7315 64.3647 70.3806 63.9135 71.0566C63.9135 71.0566 60.7554 69.975 57.4507 70.7509C54.1461 71.5269 47.9118 73.596 48.2516 77.5462C48.5915 81.4964 50.9117 85.2996 50.9117 85.2996V85.3055Z" fill="#222222"/>
<path d="M68.5184 236.287L68.1083 247.262C68.1083 247.262 79.0944 251.365 79.2116 253.405L57.9658 253.375L57.9014 236.246L68.5126 236.293L68.5184 236.287Z" fill="#545454"/>
<path d="M57.9717 253.373V251.715L78.3796 252.326C78.3796 252.326 79.3229 252.738 79.2175 253.408L57.9717 253.378V253.373Z" fill="#C6C6C6"/>
<path d="M68.4551 247.154C68.4551 247.26 67.9333 247.307 67.4233 247.637C66.9016 247.96 66.6378 248.407 66.544 248.366C66.4502 248.348 66.6026 247.725 67.2299 247.331C67.8513 246.931 68.4785 247.054 68.4551 247.154Z" fill="white"/>
<path d="M70.6812 248.083C70.7046 248.183 70.2532 248.359 69.9015 248.8C69.538 249.229 69.4442 249.706 69.3445 249.7C69.2449 249.718 69.1745 249.106 69.6259 248.571C70.0715 248.03 70.6812 247.988 70.6812 248.083Z" fill="white"/>
<path d="M71.9463 250.76C71.8525 250.783 71.7059 250.26 71.9756 249.689C72.2394 249.119 72.726 248.895 72.7729 248.977C72.8315 249.066 72.5149 249.372 72.3039 249.842C72.0811 250.307 72.0518 250.748 71.9463 250.76Z" fill="white"/>
<path d="M28.1888 235.656L24.8431 248.512L19.2709 257.917C18.8666 258.593 19.1245 259.475 19.8276 259.828C20.2201 260.027 20.683 260.027 21.0697 259.816C23.5482 258.505 32.6301 253.626 32.8235 252.674C33.0461 251.569 37.2531 239.348 37.2531 239.348L28.1888 235.656Z" fill="#545454"/>
<path d="M19.8223 259.832L33.0643 251.82L32.9119 252.361C32.7772 252.831 32.4842 253.237 32.0799 253.507C31.0018 254.23 27.9725 256.158 21.0996 259.838C20.7012 260.05 20.2148 260.05 19.8164 259.838L19.8223 259.832Z" fill="#C6C6C6"/>
<path d="M24.3223 255.084C24.2402 255.102 24.1465 254.349 23.4903 253.767C22.8516 253.168 22.0957 253.15 22.1016 253.068C22.1016 253.033 22.2891 252.98 22.5996 253.021C22.9102 253.062 23.3262 253.227 23.6836 253.55C24.041 253.873 24.2461 254.279 24.3164 254.579C24.3926 254.884 24.3574 255.078 24.3164 255.078L24.3223 255.084Z" fill="white"/>
<path d="M22.9271 256.536C22.8509 256.571 22.5579 256.042 21.9544 255.666C21.3568 255.272 20.7533 255.237 20.7591 255.149C20.7415 255.072 21.4329 254.978 22.1126 255.419C22.7982 255.854 23.0032 256.524 22.9271 256.536Z" fill="white"/>
<path d="M26.6361 253.375C26.56 253.417 26.1147 252.6 25.2299 251.929C24.351 251.242 23.4428 251.03 23.4663 250.948C23.4663 250.871 24.4623 250.965 25.4057 251.7C26.3549 252.423 26.7123 253.364 26.6361 253.381V253.375Z" fill="white"/>
<path d="M27.9778 249.555C27.9192 249.619 27.3039 249.126 26.3958 248.832C25.4934 248.526 24.7024 248.55 24.6966 248.461C24.679 248.391 25.5169 248.226 26.4895 248.555C27.4621 248.873 28.0364 249.508 27.9778 249.561V249.555Z" fill="white"/>
<path d="M29.0854 246.543C29.0269 246.608 28.4409 245.979 27.4566 245.744C26.4839 245.491 25.6695 245.767 25.646 245.685C25.6343 245.65 25.816 245.532 26.1617 245.444C26.5015 245.356 26.9995 245.327 27.5269 245.462C28.0542 245.597 28.4819 245.856 28.7397 246.091C29.0034 246.326 29.1089 246.52 29.0796 246.543H29.0854Z" fill="white"/>
<path d="M75.4847 144.871C75.8186 145.2 81.3029 156.91 81.1037 165.116C80.9045 173.322 76.469 201.937 76.469 201.937L69.3617 246.212L57.9302 246.412C57.9302 246.412 57.4439 218.196 58.3345 210.455C59.2251 202.713 60.3442 198.434 60.5903 192.755C60.8364 187.077 60.7251 175.138 61.0708 175.603C61.4224 176.067 35.8875 245.219 35.8875 245.219L24.6377 244.666C24.6377 244.666 28.2998 221.018 29.079 216.533C29.8525 212.048 33.0282 198.275 35.4715 191.292C37.909 184.308 38.5066 166.997 41.9226 159.49C45.3327 151.984 45.321 149.65 45.321 149.65L75.4905 144.865L75.4847 144.871Z" fill="#222222"/>
<path d="M86.0017 118.379L77.6522 128.601L77.4413 125.833L68.043 128.025C68.043 128.025 70.6386 141.639 72.6074 142.615C74.5761 143.597 75.9999 143.973 80.4764 137.948C84.9529 131.922 89.8513 121.818 89.8513 121.818L85.99 118.373L86.0017 118.379Z" fill="#FFB98A"/>
<path d="M86.2656 118.098C86.2656 118.098 86.7578 116.728 89.0078 116.299C91.2636 115.864 95.8046 116.787 96.285 116.928C96.7713 117.069 100.258 116.317 101.084 117.175C101.916 118.039 101.676 118.315 101.676 118.315L92.207 120.114L86.2598 118.098H86.2656Z" fill="#FFB98A"/>
<path d="M86.002 118.381C86.002 118.381 87.5078 116.417 90.8593 116.846C92.5058 117.058 95.8514 117.881 96.3378 117.869C96.8241 117.858 99.701 117.087 100.433 117.434C101.166 117.787 101.096 118.434 101.096 118.434C101.096 118.434 103.744 117.076 104.33 117.928L104.482 118.151C104.482 118.151 106.07 117.487 106.181 118.757L103.808 120.132C103.808 120.132 106.07 119.333 106.222 120.932C106.222 120.932 102.086 122.396 101.453 122.378C100.82 122.36 99.6072 121.925 99.6072 121.925C99.6072 121.925 97.4393 122.266 96.4315 122.225C95.4237 122.184 90.1386 121.79 89.8632 121.825C89.5937 121.861 86.002 118.381 86.002 118.381Z" fill="#FFB98A"/>
<path d="M100.814 118.511C100.814 118.511 101.201 118.352 101.863 118.123C102.197 118.011 102.601 117.882 103.07 117.811C103.305 117.776 103.557 117.753 103.803 117.8C104.043 117.835 104.295 117.982 104.359 118.182V118.211L104.383 118.235C104.465 118.346 104.465 118.487 104.353 118.587C104.242 118.693 104.043 118.764 103.861 118.852C103.486 119.011 103.094 119.175 102.701 119.346C101.881 119.681 101.096 120.004 100.375 120.304C100.018 120.445 99.6718 120.598 99.3671 120.709C99.0566 120.797 98.7285 120.845 98.4472 120.892C97.293 121.062 96.5781 121.15 96.5781 121.191C96.5781 121.209 96.7598 121.209 97.0879 121.191C97.416 121.174 97.8847 121.138 98.4707 121.074C98.7636 121.039 99.08 121.009 99.4316 120.921C99.7714 120.809 100.105 120.668 100.469 120.533C101.189 120.251 101.98 119.939 102.807 119.592C103.205 119.428 103.598 119.263 103.973 119.093C104.16 118.999 104.353 118.94 104.535 118.775C104.623 118.693 104.693 118.57 104.699 118.434C104.699 118.299 104.658 118.188 104.582 118.082L104.605 118.135C104.476 117.753 104.125 117.629 103.85 117.582C103.562 117.541 103.287 117.57 103.047 117.617C102.56 117.711 102.15 117.858 101.816 117.994C101.154 118.27 100.809 118.499 100.82 118.523L100.814 118.511Z" fill="#FFB98A"/>
<path d="M99.3371 121.967C99.3254 121.996 99.7766 122.108 100.468 121.902C101.142 121.661 101.968 121.197 102.9 120.703C103.825 120.203 104.657 119.727 105.249 119.374C105.841 119.022 106.198 118.786 106.181 118.751C106.163 118.722 105.776 118.898 105.161 119.21C104.546 119.521 103.702 119.968 102.777 120.468C101.851 120.956 101.019 121.455 100.409 121.72C99.7766 121.955 99.343 121.92 99.343 121.961L99.3371 121.967Z" fill="#EB996E"/>
<path d="M87.0033 117.695C87.0033 117.695 87.2611 117.525 87.765 117.289C88.2631 117.06 89.0306 116.76 90.0092 116.766C90.9877 116.802 92.1595 117.048 93.4368 117.336C94.0814 117.489 94.7552 117.648 95.4466 117.807C95.804 117.877 96.138 117.995 96.5481 118.007C96.9466 118.001 97.3157 117.883 97.6848 117.795C98.3997 117.601 99.0969 117.472 99.7883 117.466C100.122 117.466 100.474 117.483 100.72 117.63C100.978 117.766 100.984 118.089 100.849 118.336L100.913 118.283C99.0266 118.959 97.3684 119.359 96.1907 119.594C95.5989 119.717 95.1302 119.799 94.8079 119.858C94.4856 119.917 94.3099 119.952 94.3157 119.964C94.3157 119.976 94.4915 119.964 94.8196 119.935C95.1477 119.899 95.6224 119.841 96.22 119.741C97.4153 119.541 99.0911 119.17 101.001 118.512L101.048 118.494L101.066 118.453C101.154 118.283 101.206 118.106 101.183 117.907C101.165 117.707 101.025 117.513 100.861 117.413C100.521 117.213 100.152 117.207 99.7942 117.201C99.0793 117.201 98.3469 117.336 97.6262 117.53C97.2571 117.624 96.8938 117.73 96.554 117.736C96.2259 117.736 95.8567 117.619 95.511 117.548C94.8138 117.389 94.1399 117.237 93.4896 117.09C92.2005 116.819 91.0228 116.584 90.0092 116.572C88.9838 116.584 88.2045 116.925 87.7182 117.189C87.4721 117.325 87.2904 117.448 87.1732 117.536C87.0561 117.624 86.9975 117.683 87.0033 117.689V117.695Z" fill="#EB996E"/>
<path d="M79.3334 125.731C79.3334 125.731 79.4506 111.852 78.1147 108.866C76.7788 105.88 74.9917 105.157 73.3042 104.54C71.6167 103.922 64.4625 101.8 64.4625 101.8C64.4625 101.8 62.4235 105.004 59.4411 104.98C54.6014 104.945 52.4627 100.725 52.4627 100.725C52.4627 100.725 44.3652 101.859 41.3418 103.346L39.3086 120.911C39.3086 120.911 43.8613 147.292 45.6718 149.52C47.4882 151.748 60.7829 156.603 67.2574 154.446C73.732 152.289 78.5776 147.274 76.6264 145.435C73.9546 142.919 73.0757 132.408 74.1187 128.94C74.2124 128.511 79.3276 125.731 79.3276 125.731H79.3334Z" fill="#545454"/>
<path d="M76.0407 114.885C76.0407 114.885 76.0055 115.091 75.9938 115.461C75.9821 115.884 75.9645 116.407 75.9469 117.024C75.9059 118.341 75.8122 120.158 75.5602 122.15C75.3083 124.143 74.9215 125.924 74.6051 127.2C74.2829 128.475 74.0427 129.257 74.0837 129.269C74.1012 129.269 74.1774 129.087 74.3063 128.74C74.4352 128.393 74.5993 127.882 74.7868 127.247C75.1559 125.977 75.5719 124.19 75.8239 122.186C76.0817 120.181 76.1403 118.347 76.1344 117.03C76.1344 116.372 76.1168 115.837 76.0993 115.467C76.0817 115.096 76.0582 114.897 76.0407 114.897V114.885Z" fill="#222222"/>
<path d="M81.3376 160.818L81.3376 160.818C81.6121 164.47 81.3302 174.779 80.9414 184.927C80.5526 195.073 80.0574 205.048 79.9065 208.025C79.8831 208.488 79.5252 208.843 79.062 208.862C76.1016 208.988 66.288 209.388 57.1267 209.582C52.5459 209.679 48.1294 209.724 44.8146 209.658C43.1569 209.625 41.7768 209.564 40.7902 209.468C40.2964 209.42 39.9045 209.363 39.6266 209.298C39.4875 209.265 39.3807 209.231 39.3054 209.197C39.2255 209.16 39.199 209.131 39.1932 209.12C39.1879 209.109 39.1798 209.085 39.1716 209.043C39.1637 209.001 39.1568 208.948 39.1511 208.883C39.1396 208.751 39.1334 208.576 39.1324 208.359C39.1303 207.925 39.1491 207.329 39.1862 206.592C39.2603 205.12 39.4074 203.093 39.6061 200.689C40.0036 195.881 40.6075 189.571 41.2473 183.192C42.5267 170.435 43.949 157.408 44.1483 155.588C44.1697 155.392 44.0431 155.246 43.8748 155.192C43.7819 155.162 43.7257 155.068 43.7435 154.972L44.8923 148.779C44.9589 148.42 45.2359 148.137 45.5935 148.062L48.6918 147.416C49.2366 147.303 49.6107 146.8 49.5632 146.245L47.2001 118.67C47.1572 118.17 47.5311 117.732 48.0313 117.696L69.79 116.109C70.2622 116.075 70.6803 116.412 70.7466 116.881L74.7948 145.509C74.7852 145.549 74.7993 145.594 74.8385 145.621L74.8943 145.538L74.8385 145.621L77.205 147.211C77.3125 147.283 77.3996 147.373 77.4623 147.483C78.0418 148.497 80.805 153.662 81.3376 160.818ZM74.7988 145.537C74.7987 145.537 74.7987 145.536 74.7987 145.536L74.7988 145.537ZM74.9397 145.618L74.9397 145.618L74.9397 145.618Z" fill="#C8131B" stroke="#610206" stroke-width="0.2"/>
<path d="M71.7347 104.024C71.7347 104.024 72.0863 118.49 70.2113 119.213C67.727 120.171 67.8617 117.297 67.8207 115.04C67.7856 112.777 68.4301 102.883 68.4301 102.883C68.4301 102.883 70.3988 102.819 71.7347 104.024Z" fill="#C8131B"/>
<path d="M49.3808 101.229C49.3808 101.229 51.8476 117.747 51.2499 119.023C50.6464 120.298 48.6543 120.434 48.2617 119.076C47.8691 117.718 45.6602 101.988 45.6602 101.988C45.6602 101.988 48.1797 100.929 49.3808 101.229Z" fill="#C8131B"/>
<path d="M51.2509 116.486C51.2977 116.469 51.4618 116.915 51.497 117.656C51.5145 118.032 51.538 118.45 51.4852 118.967C51.4091 119.461 51.1044 120.066 50.4774 120.272C49.8505 120.46 49.2587 120.172 48.8896 119.831C48.5029 119.467 48.3329 119.032 48.2216 118.673C48.0224 117.95 48.0165 117.492 48.0517 117.486C48.1044 117.474 48.1865 117.927 48.4267 118.603C48.5556 118.932 48.7431 119.326 49.0771 119.619C49.4052 119.907 49.915 120.125 50.3837 119.978C50.8524 119.831 51.1278 119.349 51.204 118.914C51.2684 118.467 51.2685 118.015 51.2802 117.656C51.3036 116.927 51.2157 116.492 51.2509 116.48V116.486Z" fill="#610206"/>
<path d="M71.2773 116.621C71.3066 116.633 71.2421 117.009 70.9082 117.532C70.7382 117.791 70.4922 118.085 70.1172 118.29C69.7539 118.496 69.2617 118.614 68.7695 118.467C68.2715 118.314 67.9492 117.908 67.7793 117.526C67.6035 117.138 67.5684 116.762 67.5684 116.456C67.5742 115.845 67.6621 115.486 67.6973 115.486C67.7441 115.486 67.7383 115.863 67.7852 116.444C67.8145 116.733 67.873 117.073 68.0371 117.403C68.1953 117.732 68.4766 118.049 68.8633 118.167C69.25 118.29 69.666 118.202 69.9883 118.037C70.3105 117.873 70.5566 117.626 70.7324 117.403C71.0839 116.944 71.2304 116.597 71.2714 116.615L71.2773 116.621Z" fill="#610206"/>
<path d="M50.6934 155.396C50.6523 155.402 50.5352 154.979 50.418 154.274C50.3008 153.574 50.2012 152.587 50.2012 151.499C50.2012 150.412 50.3066 149.43 50.4238 148.725C50.541 148.025 50.6641 147.596 50.6992 147.608C50.793 147.625 50.5059 149.353 50.5059 151.499C50.5 153.645 50.7812 155.373 50.6875 155.39L50.6934 155.396Z" fill="#610206"/>
<path d="M55.5627 159.801C55.4806 159.819 54.7013 156.821 53.8283 153.1C52.9494 149.379 52.3049 146.346 52.3869 146.328C52.469 146.311 53.2482 149.308 54.1213 153.029C55.0002 156.75 55.6447 159.784 55.5627 159.801Z" fill="#610206"/>
<path d="M70.7035 132.024C70.7035 132.024 70.7211 132.071 70.7445 132.165C70.7621 132.259 70.7914 132.4 70.8207 132.588C70.8617 132.953 70.9789 133.535 70.7211 134.234C70.5863 134.575 70.3343 134.922 69.9769 135.186C69.6254 135.463 69.1801 135.663 68.6996 135.827C67.7211 136.133 66.5961 136.362 65.3364 136.591C64.0766 136.815 62.688 136.991 61.188 137.091C60.438 137.144 59.6646 137.173 58.8619 137.179C58.065 137.185 57.233 137.179 56.3834 137.026C55.5455 136.868 54.6725 136.544 54.0104 135.892C53.3424 135.239 52.9908 134.334 52.7916 133.429C52.5924 132.518 52.5162 131.577 52.4049 130.637C52.2994 129.69 52.194 128.738 52.0885 127.768L52.0065 127.045C51.9772 126.81 51.9596 126.534 52.0065 126.281C52.0944 125.775 52.3463 125.299 52.7272 124.958C53.1022 124.617 53.6002 124.412 54.0807 124.37C54.5435 124.306 55.0006 124.241 55.4517 124.177C57.2681 123.918 59.0142 123.665 60.6899 123.453C62.3598 123.242 63.9594 123.089 65.4594 123.001C66.2094 122.966 66.936 122.936 67.6332 122.948C67.9789 122.948 68.3363 122.936 68.682 123.066C69.0394 123.189 69.2738 123.53 69.3676 123.847C69.473 124.165 69.5082 124.482 69.5609 124.776C69.6078 125.076 69.6605 125.37 69.7015 125.652C69.7953 126.216 69.8832 126.757 69.9652 127.257C70.1234 128.25 70.264 129.114 70.3754 129.826C70.4808 130.513 70.5629 131.054 70.6215 131.454C70.6449 131.624 70.6625 131.765 70.68 131.877C70.6918 131.971 70.6918 132.024 70.6918 132.024C70.6918 132.024 70.6742 131.977 70.6507 131.883C70.6273 131.771 70.598 131.63 70.5629 131.466C70.4867 131.072 70.3871 130.531 70.2582 129.849C70.1293 129.138 69.9769 128.28 69.7953 127.286C69.7074 126.786 69.6137 126.252 69.5082 125.687C69.3969 125.129 69.3324 124.5 69.1566 123.918C69.0629 123.63 68.8812 123.377 68.5941 123.277C68.3129 123.171 67.9672 123.183 67.6215 123.183C66.9301 123.183 66.2094 123.212 65.4653 123.254C63.977 123.348 62.3833 123.518 60.7192 123.73C59.0493 123.941 57.3033 124.206 55.4869 124.465C55.0357 124.529 54.5728 124.594 54.1158 124.659C53.6647 124.7 53.2545 124.876 52.9264 125.17C52.5983 125.464 52.3756 125.875 52.3053 126.316C52.2233 126.745 52.3463 127.233 52.3815 127.721C52.4869 128.691 52.5924 129.649 52.692 130.59C52.7975 131.53 52.8736 132.465 53.067 133.347C53.2545 134.222 53.5885 135.069 54.1978 135.668C54.7955 136.268 55.6158 136.58 56.4185 136.738C57.233 136.891 58.0474 136.903 58.8443 136.897C59.6411 136.897 60.4087 136.868 61.1587 136.821C62.647 136.732 64.0297 136.568 65.2836 136.356C66.5317 136.145 67.6742 135.927 68.6293 135.645C69.5844 135.363 70.3343 134.834 70.5922 134.17C70.85 133.517 70.7679 132.941 70.7386 132.577C70.6976 132.206 70.6683 132.006 70.68 132.006L70.7035 132.024Z" fill="#610206"/>
<path d="M40.898 112.067C40.898 112.067 40.107 103.196 38.402 105.242C36.6969 107.282 25.3768 122.448 23.3084 126.886C21.2401 131.324 24.6795 134.533 24.6795 134.533L42.2398 149.023L45.9487 144.85L31.5935 129.76L42.9195 117.545L40.898 112.072V112.067Z" fill="#FFB98A"/>
<path d="M26.1563 129.954C26.1739 130.03 27.463 129.642 29.1036 129.631C30.7383 129.601 32.0391 129.96 32.0566 129.883C32.0625 129.854 31.752 129.725 31.2188 129.601C30.6856 129.478 29.9356 129.372 29.0977 129.384C28.2598 129.395 27.5098 129.519 26.9825 129.654C26.4552 129.789 26.1446 129.924 26.1505 129.954H26.1563Z" fill="#EB996E"/>
<path d="M45.4394 145.052C46.9628 144.658 51.0526 140.102 52.4706 139.179C53.8885 138.256 56.6072 139.109 56.6072 139.109C56.5603 140.825 55.4295 140.026 54.4803 140.19C53.5311 140.355 52.2713 141.348 52.2713 141.348L54.1053 141.542L57.7146 143.124C57.7146 143.124 57.7322 144.094 56.7068 144.787C55.6873 145.475 52.8866 144.505 52.8866 144.505L51.3046 145.034L52.9803 145.304C52.9803 145.304 55.2127 145.639 55.7811 146.151C56.3494 146.662 55.8807 147.197 55.8807 147.197L52.5292 146.433L50.5487 146.839C50.5487 146.839 47.3788 149.819 45.7558 150.283C44.1328 150.748 42.0703 148.878 42.0703 148.878L45.4511 145.058L45.4394 145.052Z" fill="#FFB98A"/>
<path d="M50.2383 143.265C50.2383 143.301 50.666 143.265 51.2988 143.054C51.6152 142.96 51.9902 142.83 52.4062 142.795C52.8222 142.766 53.2968 142.848 53.7832 142.954C54.7558 143.189 55.6113 143.518 56.2323 143.747C56.8534 143.977 57.2401 144.118 57.2519 144.088C57.2636 144.059 56.9003 143.865 56.2909 143.595C55.6816 143.324 54.832 142.966 53.83 142.725C53.3261 142.613 52.8457 142.537 52.3828 142.578C51.9258 142.631 51.5508 142.783 51.2402 142.895C50.625 143.142 50.2324 143.236 50.2324 143.265H50.2383Z" fill="#EB996E"/>
<path d="M41.3436 103.351C41.3436 103.351 40.2889 103.41 38.1034 105.032C35.9237 106.655 28.3066 116.818 28.3066 116.818L37.787 125.371L43.2889 118.594C43.2889 118.594 46.0076 105.773 45.6912 105.814C45.3748 105.855 41.3377 103.351 41.3377 103.351H41.3436Z" fill="#545454"/>
<path d="M43.294 118.547C43.3292 118.57 43.0948 118.993 42.6671 119.646C42.2394 120.298 41.6183 121.174 40.88 122.109C40.1417 123.038 39.4269 123.849 38.8878 124.407C38.3488 124.972 37.9914 125.295 37.9621 125.265C37.8976 125.207 38.8449 123.793 40.5265 121.551C41.9972 119.7 43.2179 118.494 43.2882 118.547H43.294Z" fill="#222222"/>
<path d="M61.3859 128.853C61.536 128.853 61.6758 128.853 61.8152 128.853C61.9591 128.853 62.0028 128.897 61.9901 129.048C61.982 129.161 61.9488 129.271 61.893 129.368C61.8372 129.466 61.7604 129.548 61.6689 129.608C61.6019 129.654 61.5043 129.657 61.4195 129.666C61.3116 129.677 61.1775 129.636 61.1006 129.69C61.0285 129.741 61.0141 129.884 60.9799 129.99C60.7696 130.64 60.5561 131.288 60.3542 131.941C60.2734 132.193 60.2353 132.458 60.2417 132.724C60.2495 132.959 60.3767 133.049 60.5766 132.942C60.6979 132.875 60.8107 132.792 60.9122 132.696C61.2312 132.398 61.4798 132.035 61.733 131.677C61.767 131.629 61.7447 131.602 61.7223 131.566C61.528 131.247 61.4197 130.902 61.4803 130.522C61.5044 130.367 61.5552 130.219 61.6304 130.084C62.0263 129.395 62.4346 128.713 62.8359 128.027C62.8695 127.969 62.9072 127.938 62.9689 127.942C63.0466 127.947 63.1256 127.947 63.2012 127.963C63.3301 127.99 63.4541 128.171 63.443 128.307C63.4408 128.334 63.4211 128.36 63.4066 128.385C63.0705 128.956 62.7344 129.526 62.3983 130.097C62.3796 130.127 62.3636 130.158 62.3421 130.197L62.7317 130.452C62.7693 130.392 62.8057 130.333 62.8409 130.273C63.1575 129.736 63.4738 129.198 63.7899 128.661C63.8588 128.544 64.0732 128.505 64.1971 128.586C64.2847 128.644 64.3031 128.823 64.2346 128.941C63.8984 129.512 63.5622 130.082 63.2261 130.653C63.2115 130.678 63.1978 130.703 63.1775 130.74L63.5646 130.994C63.5862 130.961 63.6057 130.933 63.6229 130.904C63.9479 130.352 64.2787 129.805 64.5941 129.248C64.7008 129.06 64.7937 129.085 64.9455 129.13C65.0768 129.169 65.1393 129.289 65.1864 129.413C65.1954 129.436 65.1815 129.477 65.1667 129.502C64.7515 130.211 64.3411 130.92 63.916 131.623C63.701 131.977 63.3591 132.125 62.973 132.165C62.7479 132.188 62.592 132.166 62.4437 132.11C62.3666 132.265 62.2927 132.424 62.2111 132.577C61.9484 133.071 61.6595 133.545 61.2636 133.935C61.0503 134.145 60.8199 134.348 60.5287 134.405C59.8533 134.537 59.2777 134.347 58.8236 133.775C58.4596 133.317 58.4041 132.799 58.512 132.25C58.5705 131.951 58.6737 131.659 58.7703 131.37C58.9544 130.819 59.1482 130.27 59.3379 129.72C59.342 129.703 59.3453 129.686 59.3476 129.669H58.8234C58.5865 129.669 58.4979 129.551 58.5514 129.304C58.6155 129.008 58.8 128.854 59.0899 128.854C59.2647 128.854 59.4398 128.857 59.6152 128.851C59.6495 128.85 59.7015 128.821 59.7137 128.792C60.0559 127.95 60.4 127.109 60.7283 126.261C60.8008 126.074 60.8208 125.863 60.8524 125.661C60.8743 125.519 60.9439 125.454 61.0839 125.483C61.2766 125.523 61.4404 125.621 61.5818 125.76C61.9529 126.121 62.0824 126.564 61.9383 127.072C61.7788 127.635 61.5955 128.192 61.4223 128.751C61.4128 128.779 61.4015 128.809 61.3859 128.853Z" fill="#AD1219"/>
</svg>
